<?xml version="1.0" encoding="UTF-8" standalone="no"?>
<!-- Created with Inkscape (http://www.inkscape.org/) -->

<svg
   xmlns:dc="http://purl.org/dc/elements/1.1/"
   xmlns:cc="http://creativecommons.org/ns#"
   xmlns:rdf="http://www.w3.org/1999/02/22-rdf-syntax-ns#"
   xmlns:svg="http://www.w3.org/2000/svg"
   xmlns="http://www.w3.org/2000/svg"
   version="1.1"
   width="375"
   height="371.25"
   id="svg2"
   xml:space="preserve"><metadata
     id="metadata8"><rdf:RDF><cc:Work
         rdf:about=""><dc:format>image/svg+xml</dc:format><dc:type
           rdf:resource="http://purl.org/dc/dcmitype/StillImage" /><dc:title></dc:title></cc:Work></rdf:RDF></metadata><defs
     id="defs6" /><g
     transform="matrix(1.25,0,0,-1.25,0,371.25)"
     id="g10"><g
       transform="scale(0.1,0.1)"
       id="g12"><path
         d="m 1637.47,2855.75 -115,111.5 -4,-851 3,-52.5 0,-24 -0.5,-2.5 -1.49,-4 -2.5,-4.5 -3.01,-6.5 -8,1 -18.49,0 -10.51,-0.5 -12,0 -10.5,-1.5 -9.49,-1.5 -8.51,-3 -11,26 -4.5,13 -3.5,12.5 -3.5,13.5 -2.5,13 -4,26 -2,27 0,26 2,27 1.51,13.5 2.49,13 12,11.5 5,5 5.5,4 4.5,4.5 4.5,3.5 7,5.5 5.5,6 6.5,6.5 7,7 8,7.5 0,1.5 -0.5,0 0,2.5 0,-0.5 0.5,-2 0,39.5 1.51,0 0.99,637 -29.5,-28.5 -28.5,-28.5 -28,-27.5 -27,-27.5 -27.5,-26.5 -26.5,-26.5 -26,-25.5 -25,-26 -25.5,-24.5 -24.5,-24.5 -47.5,-48 -23.5,-22.5 -22.5,-23 -22,-22 -21,-22 -42.5,-41.5 -20.5,-20 -19.493,-20 -19.504,-19 -18.5,-19 -18.5,-18 -17.5,-18.5 -34.5,-34 -16.5,-16 -15.5,-16.5 -30.496,-30.5 -14.504,-14.5 -13.5,-14.5 -128,-127 -127,-126.5 -47,-46.5 37.5,0 920.007,911 0,-581.5 -8.01,-8.5 -6.5,-8 -6,-6.5 -4.5,-5.5 -5,-3.5 -3.49,-3 -3.01,-1 -1.5,-0.5 -1.99,1.5 -0.51,2.5 -0.5,4 1.01,4.5 0.99,7 2.5,7.5 2.5,9 4,9.5 -9.5,-3 -8.5,-5 -7,-6.5 -5.49,-9 -4.51,-10 -3,-12.5 -1.49,-6.5 -0.51,-7.5 -0.5,-16.5 -11.5,-9.5 -6,-5 -5.5,-6 -13.5,-12.5 -7,-6.5 -6.5,-7.5 -7.5,-6.5 -6,-6 -5.5,-5 -4,-5 -4.49,-3.5 -2.5,-3.5 -2.51,-2.5 -1,-2.5 -4.5,-5.5 -2.5,-4.5 -13.99,12.5 -13.01,10.5 -13,10 -12,8.5 -12.5,8.5 -11.5,6.5 -11.5,6 -10.5,4.5 -10.99,4.5 -10.51,2.5 -10,2.5 -9.5,0.5 -9.5,0.5 -9,-1.5 -16.5,-5.5 22.51,-4.5 21.49,-6.5 19.5,-7.5 19,-9.5 8,-4.5 8.5,-5.5 8,-5.5 8.01,-6.5 6.99,-6 7,-7 6.5,-7 6.51,-8 10.49,-9.5 -25,-27.5 -1.5,-1 -1.5,-2 -4.5,-5.5 -7,-6.5 -4,-4 -4,-5 -20,-18.5 -19.99,-20.5 -10.01,2.5 -9,1.5 -16.5,2 -15.5,0.5 -6.99,-0.5 -6.01,-1.5 -12.5,-2.5 -5.5,-2 -4.5,-3 -9,-6.5 -7,-8.5 8.51,2 8.49,1 7.01,1 6.5,1 5,1 4.49,0.5 6,0 4.5,0.5 8,-1.5 10.51,-2.5 6.5,-1.5 7.49,-2.5 -4,-3.5 -4,-4.5 -5,-4.5 -5,-5.5 -6,-5.5 -6,-6.5 -7,-6.5 -7,-7.5 46.5,0 34.5,35 12.01,-2 11.99,-3 22,-7.5 10,-4 9.5,-4.5 9,-5 8.5,-6 1.5,-3 167,0 -2.5,8 10.5,4 6,1.5 7,0 14.5,-0.5 8,-1 9,-2 -5,-10 51.5,0 3.51,3.5 5.49,2 6.5,2 7.5,1 5,0.5 3.5,-1.5 2,-2.5 0,-2 0.5,-3 269.5,0 13.5,3 13.5,3 6.01,2 2.99,1 1.5,0.5 2,0 12.5,3 11.5,4 5.51,2 5.99,1.5 5,2.5 5.5,2 11,4 9.5,5 2,1.5 2.5,1 5,2 4,3 2,1.5 2.5,1 9,5 7.5,6 8,5.5 7,6.5 7,6 3.5,13.5 -19.99,-8.5 -20.01,-8 -40,-15 -20.99,-6.5 -20.01,-6 -41,-11 -42,-8 -11,-1.5 -10.5,-2 -21,-3 -22,-2 -21,-1.5 -43,-2 -2.49,7.5 1.5,3 1.99,2.5 4,6.5 0.5,2.5 2,2 5,4 3.01,2.5 4,2 9.49,4 4.51,3 1.99,1.5 2.5,1 1.5,2 2,1.5 3.5,3 2.5,4 1,2 0.51,1 0.99,0.5 0,1.5 0.5,1 1.01,2 1.99,4 -15.99,3 -1.51,-1 -0.99,-0.5 -1.01,-1 -4,-1 -4.5,-2 -3.49,-0.5 -4.01,-2.5 -4.99,-3.5 -5.51,-4.5 -6.5,-5.5 -7,-6.5 -7.99,-7.5 -4.51,-4 -4,-5 -15.5,2 18.5,30 19,28 19.5,26 20.5,23 20.5,22 21,19 21.5,18 22.51,15 20.99,14.5 20.5,13.5 19.5,12.5 18.51,11 16.49,10.5 16.5,9.5 15,8.5 14.5,7.5 -3.5,12 -7.49,-0.5 -8.01,-2 -8.5,-2 -8.5,-3.5 -9.5,-3.5 -9.5,-4.5 -10.5,-5 -10.5,-6 -11.5,-6 -12,-7 -12.5,-7.5 -12.5,-8.5 -13.5,-8.5 -13.5,-9.5 -14.5,-10 -14.5,-11 -29.5,-21.5 -27,-22.5 -24.5,-22.5 -21.99,-23.5 -20.01,-23 -17.5,-24 -15,-24 -12.5,-25 -24.5,-5.5 -9.49,13 0.49,5.5 1.5,6 2,7 3.5,7.5 3.5,8.5 5,9 5.5,10 6.5,10.5 6.5,11.5 8,12 8.5,13 9.51,13.5 9.49,14.5 11.5,15 11.5,16 13,16.5 1,10.5 -12.5,-3 -24.99,-23 -23.01,-23.5 -21.5,-24 -19,-24 -0.5,12 1,12 2.51,13 1.49,6.5 2.5,6 5.01,14 6.99,14 3.5,7.5 4.5,7 9.5,14.5 10.5,16 12,16 13.51,16.5 6.99,8.5 8,8 7.5,9 8.5,8.5 8.5,9 9.5,8.5 9,9.5 10.01,9 20.5,18.5 -5,2 -4.51,1 -9,0.5 -10,-1.5 -5,-1.5 -4.5,-2.5 -11,-5.5 -5.5,-3.5 -5,-4.5 -5.99,-4.5 -5.51,-5.5 -11,-12.5 -6.49,-6.5 -6.01,-7.5 -11.99,-16.5 -13,-18 -6.5,-10 -6.01,-11 -7,-10.5 -6.5,-11.5 -7,-12 -6.5,-13 -7.5,-13 -6.99,-14 -14,-29 -0.51,750 868,-862 26.01,-26.5 25.49,-26 53,0 -27.5,27 -26,26 -26,26 -25,24.5 -25,25 -24,23.5 -23.5,23.5 -22.49,22.5 -23,22.5 -22,21.5 -21.51,21.5 -20.5,20 -20.5,20.5 -19.5,19 -19.49,19 -18,18 -38.01,37.5 -36,35.5 -35,34.5 -33.5,33 -32.5,32 -31,30.5 -29.5,29.5 -27.99,27.5 -4,4 -2.01,2 -1.5,1.5 -7,7 -14,14 -15,14.5 -4,4 -2,2 -1.5,1.5 -6.99,7 -8.01,8 -4,4 -1.99,2 -1.51,1.5 -15,15 -7.99,8 -4.01,4 -2,2 -1.5,1.5 -7.99,8 -4.01,4 -2,2 -1.49,1.5 -2.51,2.5 -2,2 -4,4 -8,8 -16,16 -17,17 -2.5,2.5 -1.99,2 -4,4 -8.01,8 -9,9 -2.5,2.5 -2,2 -4,4 -16.99,17 -9,9 -2.5,2.5 -2.01,2 -4,4 -9,9 -2.5,2.5 -2,2 -4,4 z m -323.49,-728.5 12.49,16.5 13.5,15.5 14.5,14 16.5,12.5 0.5,-36.5 4,-38.5 6.51,-38.5 9.99,-40 -0.99,-1.5 -0.51,0 0,-1 -1,0.5 -0.5,0 -1,1 -0.5,0.5 -1.5,2 -1,1.5 -1,1.5 -0.5,1 -1,2 -2.99,6 -3.01,7 -1,1.5 -0.5,1 -1,2 -2,4 -3,4.5 -2.5,4 -6.5,9 -7,9 -8.5,10 -5,5 -1,1 -0.5,0.5 -0.99,1 -2.01,2 -10.5,10 -10.49,10 z m -35.51,-108.5 -3,1.5 -2.5,1 -6,2 -6.5,2 -7.5,2 -2.5,1 -2,0.5 -3.99,1 -9,2 -10.01,2 -10.5,2 71,69 15.01,-11.5 13.99,-13 12.5,-13 11.5,-14 9,-14 8.5,-14.5 6.5,-14.5 6,-15.5 -38.5,-12.5 -8.5,7.5 -7.5,6 -13.49,10.5 -12.51,8 -5.49,3 -4.51,1.5"
         id="path14"
         style="fill:#231f20;fill-opacity:1;fill-rule:evenodd;stroke:none" /><path
         d="m 1539.47,1968.25 0.5,4 1.51,3.5 5.49,5.5 -51.5,0 -5.49,-11.5 -4.51,-10.5 -3.5,-9.5 -1.5,-9 -1,-3.5 0,-3.5 0.5,-6.5 1.5,-5 1,-2 2,-2.5 1,-1 0.5,-0.5 1,-1 3.01,-1 0.99,0.5 1.5,0 3,1.5 2,4 1,2.5 0,1.5 0.51,0 0.99,1 0,3.5 0.5,0 1.01,3 1.99,8 1,8.5 2,4.5 2,2.5 2.5,-1 2.5,-3.5 3,-6.5 3.01,-9.5 3.49,-12.5 6,14.5 2.5,6.5 2.5,5.5 1.5,6 2.01,5 1.99,8.5"
         id="path16"
         style="fill:#231f20;fill-opacity:1;fill-rule:evenodd;stroke:none" /><path
         d="m 1554.97,1929.75 -1,-8.5 -0.5,-8.5 0,-6.5 1,-6.5 1.01,-4.5 1.5,-4.5 1.99,-2.5 2.5,-2.5 2.5,-0.5 3,-0.5 3.5,1 4,1.5 4,3.5 5,3.5 5.51,4.5 5.99,5.5 5,6.5 5.5,5.5 4.5,5.5 4.5,4 3.5,4.5 3.5,3 3,3 3.01,2 1.5,2.5 1.99,1 1,1 1.5,0 0.51,-1 -0.51,-1.5 -0.5,-2.5 -3.99,-9 -1.01,-10 1.01,-10 2.99,-11.5 11.01,16 7.99,12 8,9 3.5,4 4,2.5 7,3 38,-18.5 19.01,-10.5 18.99,-11.5 18.5,-12 19.01,-13.5 18.49,-13.5 19,-15.5 18,-15.5 18,-16.5 18,-17.5 18,-18.5 17.5,-18.5 18,-20.5 17.5,-20.5 18,-22.5 8,-10.5 8,-11 15.5,-22 7,-10.5 7,-11 13.5,-22 11.5,-21 2.5,-5 3,-5.5 5.5,-11 9,-21 4,-10.5 4.5,-11 6.5,-20 6.01,-21 3.99,-20 3.51,-21 1.5,-20 0.49,-10 0,-7.5 0.5,-3 -0.5,-20 -1,-20 -3,-19 -2,-9 -0.99,-4.5 -0.51,-5 -4,-17.5 -4,-17.5 -5,-16 -5.5,-16 -6,-15 -5.99,-14.5 -4.01,-6.5 -3.49,-7 -8.01,-13 -8.5,-12 -1.5,-1 -1,-1.5 -2,-3 -4,-6 -5,-5 -1.5,-1 -1,-1.5 -2,-3 -10,-10.5 -3,-2 -1.49,-1 -1.01,-1.5 -5,-5 -11,-9 -595.5,-109 -51.5,16 -48.5,16 -46.5,16 -22.5,8 -21,7.5 -41.5,16 -39,16 -37,16 -33.99,16 -32.51,17 -29.497,16 -14.5,8.5 -13,8 -24.5,16 -22.5,17 -20,16 -18,17 -15,16 9.504,10 7.996,9 6.5,9 5,8 3,8 1.5,7 -0.5,7 -1.496,6 -2.004,3.5 -1.5,2.5 -2.996,3.5 -2.004,1.5 -1.5,0.5 -2,0.5 -1.5,-0.5 -2.5,0 -2,-1 -3.996,-3.5 -5,-5 -2.504,-3 -2,-4 -5.5,-6.5 -4.5,-6.5 -4.5,-5.5 -4,-5 -3.996,-3.5 -3.004,-3.5 -3,-2.5 -2,-2 -13,0.5 -12.496,1 -24.5,3 -12.004,2.5 -11.5,3 -22.5,7 -11,5 -10.5,5.5 -20.5,12 -10,7 -9.5,7.5 -9,8 -8.5,8.5 -8.5,7.5 -7.5,7 -13.5,14.5 -6.5,8 -5.5,7.5 -5.5,8 -4.5,7.5 -5,8.5 -4,8 -3.496,8.5 -2.5,8 -5.004,17 -2.5,17 -2,17.5 1,16.5 0.5,8 1.504,7 4.996,13.5 6,12.5 8.5,11.5 4.5,5.5 5.5,4.5 12.5,8.5 6.5,6.5 7.5,5.5 7.5,5 9,4 8.504,4.5 9.496,3.5 10,3 11,2 10.5,2.5 11.5,1.5 12,1 13,0 13,0.5 14,-0.5 14,-1 15,-2 28,-3 13.504,-2 12.996,-2.5 24,-4.5 11.5,-2.5 11,-3 19,-5.5 18,-6.5 15,-6.5 7,-4 6.5,-4 16.5,-3.5 -0.5,5 -0.5,4 -1,2.5 -0.5,2 -2.5,4 -3.5,5 -4,4 -4.5,4 -5.5,4 10,19 12.5,18.5 13.5,19 7.5,9.5 8.5,9 16.997,19 19,19 9.5,10 10.5,9.5 22.5,19 23.01,20 25.49,19.5 26.5,20 14,10 15.01,9.5 29.5,20 31.99,20 33,20 35.5,20 6.5,-8.5 5.01,-10 2.5,-5.5 4.99,-6.5 6.51,-7.5 9,-8.5 0.49,0 1,-0.5 2,-1 4,-1.5 3,-1 3.5,-1 3.5,0 1,-0.5 0,0.5 1.5,0 0,0.5 1.5,0 0.51,2 0,1.5 0.49,0 0,2.5 0.5,2 -0.99,3.5 -0.51,3 -1,4 -0.5,4 -3.5,9 -3,7.5 -4,7.5 -3.5,6 -3.5,5.5 -1,2.5 0,3.5 1,1 3,1.5 8.5,2.5 11,2 8,-16 0.51,-1.5 0.99,-2 2,-4 4,-7 7,-12 3,-5.5 3.51,-5 1.99,-4 3,-3.5 5,-6 4,-3 1.51,-1 1.99,-1 1,0.5 1,1 2,3 1,6 0,6.5 0.5,0.5 -0.5,5 0,5 -1,5.5 0,6 -1,7 -1,7.5 -1.49,8 -1.01,8 6,-6.5 2.5,-3 3,-3 5.01,-4.5 1.99,-2 1,-1 0.5,-0.5 1,-1 1.5,-1 2,-1.5 1.5,-1 2.01,-1 2.99,-0.5 1.5,0 1,-0.5 0.5,1 1,0.5 1,2.5 0,3.5 0.5,0 0,4 -1,5.5 -0.99,6.5 -1.01,4 -0.5,2 0,1.5 -2,8.5 -167,0 3.5,-8 3.5,0 -3,-0.5 -4,-2.5 -6,-3.5 -8,-4.5 -10,-4.5 -12,-6.5 -14,-7.5 -15,-8.5 -9,-4 -9,-5.5 -9.99,-5.5 -9.51,-6.5 -11,-6.5 -11,-8 -11.5,-8 -11.5,-9 -13,-9 -13,-10 -13.49,-10 -13.51,-11.5 -15,-11.5 -14.5,-12.5 -15.5,-13 -15.5,-14 -30.497,-30.5 -28,-32.5 -13.5,-16.5 -12.5,-17.5 -23.5,-35.5 -51.5,19 301.497,304 -46.5,0 -12.49,-11.5 -12.51,-12.5 -14.49,-13.5 -15.01,-15.5 -8.5,-7.5 -8,-8.5 -17.5,-17.5 -18.5,-18.5 -9.997,-9.5 -9.5,-10.5 -16.996,-16 -15.5,-15.5 -15.5,-14.5 -14,-14.5 -14.004,-13 -12.5,-13 -12.5,-12 -11,-11.5 -11,-10 -9.5,-10 -9.5,-9 -8,-8.5 -8,-7.5 -6.5,-7 -6.5,-6 -5,-5.5 -27,-0.5 -11.5,0 -12,0.5 -12.996,1.5 -13.004,2 -41.5,-3.5 -18,-2.5 -16.5,-4 -15.5,-4 -14,-5.5 -13,-5.5 -11.5,-6.5 -10.5,-7 -8.496,-8 -8.504,-7.5 -7.5,-9 -7,-9.5 -5.5,-11 -5.5,-11 -3.5,-12.5 -3.5,-12.5 -2,-14 -1.996,-14 -0.504,-14 1,-14 2.5,-14.5 3,-14 4.5,-15 6,-15 7.5,-15 8,-14 10,-14 11.5,-13.5 13.5,-13.5 14.5,-12 16.5,-12.5 17.5,-11.5 9.5,-5.5 10.5,-6 4.5,-2 5,-2.5 10,-5 9,-4.5 4.5,-2 5.004,-2.5 4,-1.5 4.496,-2 9,-4 17,-7 3.5,-1 4,-1.5 8,-2.5 7.5,-2 8,-2.5 14,-2.5 6.5,-1 7,-1 0.5,-3 1.5,-3.5 2,-4 3.5,-5 3.5,-4.5 5.5,-5.5 5.5,-6 7.5,-6.5 15.5,-13.5 19.5,-15.5 10.5,-8 12.5,-9 12.5,-9 14.5,-10 184.497,-189.504 52.5,0 -1,1 -0.5,0.504 -1,0.996 -2,2.004 -1,1 -0.49,0.5 -1.01,1 -2,2 -5,5 -5,5.5 -2,2 -1,1 -0.5,0.5 -3,3 -2,2 -1,1 -0.5,0.5 -3,3 -7,7 -7,7.5 -1.5,1.5 -0.99,1 -2.01,2 -4,4 -1.5,1.5 -1,1 -2,2 -4,4 -5,5 -1.5,1.5 -1,1 -2,2 -5,5 -1.5,1.5 -1,1 -2,2 -3,3 -1.5,1.5 -1,1 -5,5 -11,10.5 -6,6 -3,3 -1.49,1.5 -1.01,1 -6,6 -3,3 -1.5,1.5 -1,1 6.5,-3 7,-3.5 14,-7 6.5,-3 7,-3.5 14.01,-7 5.99,-2.5 6.5,-3 13,-6 6,-2.5 6.5,-3 13,-5.5 5.51,-2 5.99,-2.5 12.01,-4.5 11.5,-4 5.49,-2 6,-2.5 10.51,-3 10.99,-3.5 10.5,-3 5,-1.5 5.51,-2 86.49,-25 -6.5,-1 -7.99,-1 -9,-1 -10.01,-1.5 -12,-2 -13,-2.5 -14.99,-2.5 -16.01,-3 -18,-3.5 -18.5,-4.004 215.5,0 322,59.004 952.5,180.5 2,-80 -95.99,-17.5 -18.51,-3.5 -17,-5 -16.5,-5 -14.5,-6.5 -14.49,-6 -12.51,-7.5 -12.5,-7.5 -10.5,-9 -10.5,-8 -8.5,-8.5 -7.5,-7.5 -6,-8 -5,-7 -3.5,-7.5 -1.5,-3 -0.49,-3.5 -0.51,-7 -13.49,-6.5 -10.5,-8 -8.01,-8 -5,-9.504 42,0 3,3.004 6,2 3.5,1.5 4.5,1 10,2 12,3 14,2 16,3 18.5,2 40.51,5.5 41.49,4.5 42.5,4 44.51,2.5 9.99,1 9,1 7,1 3,0.5 3.5,0 4,1 3.51,1 1.49,1 0.5,1 -1.99,2 -2.51,1 -2.5,1 -2,0.5 -5.5,1 -7.5,2 -8.49,1 -5.51,1 -5,0.5 -11,1 -46.49,0.5 -45.51,-2.5 -45.5,-4.5 -44.5,-7.5 -31,-9.5 -1,16 18.5,17.5 6.5,6 7.51,6 17.49,10.5 20.5,10 24.5,9 13,4.5 16,4 17,4 20.01,3.5 20.99,3.5 23.5,3 25.01,2.5 27.99,2 13.5,1.5 25,0 12.01,-1 10.99,-1 10.5,-2 10,-2.5 9.51,-3.5 8.49,-3.5 8,-4.5 7,-4.5 7,-6 6,-5.5 5.5,-7 5,-7 4.51,-8.5 10.99,-30 11,-13 4.5,-6 2,-3 1.01,-1.5 1.49,-2 0.5,-1 1,-1.5 2,-3 4.01,-6 5.99,-11.004 25.01,0 -3.01,8.504 -3.49,8 -9,15 -4.51,6.5 -3.5,4.5 -3.49,4 -2.01,2.5 -1.99,2.5 -1.01,1 -1,0.5 0.5,-1 -16,42.5 -2.99,7.5 -2.5,6.5 -3.51,6.5 -2.99,5.5 -7.01,10 -4,4 -3.5,3 -9,6.5 -9.5,5.5 -5.49,2.5 -5.01,1.5 -11,2.5 0.51,12.5 0.49,11 0,10.5 -0.49,9.5 -1.51,9.5 -2,8 -2.5,8 -2.5,6.5 -4,7 -4,5.5 -5,5 -5,4 -6,4 -6.5,3 -7,2.5 -7,1 232.5,236 -117.5,121 -115.99,118.5 -115.51,116.5 -113.49,114 -16.51,16.5 -53,0 6,-6 3,-3 1.51,-1.5 1.99,-2 13,-13 25,-25.5 24,-24.5 23.5,-24 22.5,-23 22,-22.5 21.5,-22 21,-21.5 8.5,-9 10.5,-10.5 11.5,-11.5 6.01,-6 6.99,-7 6.5,-6.5 7.5,-7.5 15.5,-15.5 16.5,-16.5 18.5,-18.5 9,-9 10,-10 20.5,-20.5 21.5,-21.5 23.5,-23 11.5,-11.5 12.51,-12.5 25.99,-25.5 27,-26.5 28.5,-28 -241.5,-246 -9.99,4.5 -8.51,3 -7.99,2.5 -6.5,1 -6.5,1 -5.51,0 -5,-0.5 -3.49,-2 -622.01,-115.5 46.5,63 5.5,1 6,1 12,2.5 11,4 11,4.5 10,6.5 10,6.5 9,8.5 2.01,2.5 2.5,2 4.99,4 7.5,10 7.01,10 6.49,10 5.5,9 4.51,10 3.49,9 3.01,9.5 2.5,9 5.49,7.5 6.5,7 14.5,14.5 15.5,16.5 17.5,16.5 18.5,18.5 20.5,19.5 10.5,10.5 11.5,10 11.5,10.5 12.5,10.5 27,29 -97,96 -3.5,3.5 -3,3 -6,6 -12,12 -24,24 -48,48.5 -49,49.5 -48.49,49 -97.01,100 -0.5,-162 -9.5,12 -3,3.5 -2.5,3 -5,6 -6.5,7 -6,6.5 -7,7.5 -6.5,7 -8,8 -7.99,7.5 -1.51,1.5 -0.99,1 -2.01,2 -4,4 -8.5,8 -9.5,9 -9,8.5 -20,18 -21.49,18.5 -20.5,17 -20.01,16 -19.5,14 -19.5,13 -19,11.5 -18.49,10.5 -17.51,8.5 -1.5,14 19.01,1 9,0.5 9.49,0 18,1 18,1 17,2 8,1 4.01,0.5 4.49,0 16.01,2.5 15.99,2 -269.5,0 -0.99,-3.5 -1.51,-4.5 -2,-5 -2.5,-6.5 -4,-6.5 -4.5,-8 -5,-8 -5.5,-9.5 z m 459.51,-234.5 0.99,113 310,-311 -9,-7.5 -8,-8 -15.5,-15.5 -14.5,-14.5 -7,-6.5 -6,-7 -6.49,-6 -5.51,-6.5 -10.5,-11.5 -9.5,-10.5 -7.5,-10 1,5.5 1.5,5 2.01,11 0.49,6 1.01,5.5 0,3.5 0.49,3 1,6 0,27.5 -0.5,4 0,10.5 -0.99,15.5 -2.51,15.5 -2.5,13.5 -4.5,12.5 -4.5,10.5 -6.5,9.5 -6.5,7.5 -4.5,3.5 -4,2.5 -4.49,2.5 -4.01,1.5 -9.99,3 -5.51,1 -4.99,0 -11.01,-1 -6,-1.5 -5.5,-2.5 -6.5,-2 -6,-3 -13,-7.5 -7,-4 -6.5,-5 -7,-5.5 -6.5,-6.5 -0.5,3 0,2.5 -1,3 -0.49,3 -1.51,4 -0.99,3.5 -1.5,4 -1.01,4 -2.5,5 -2,5 -1.5,3 -1,2.5 -2.5,5 -2,3.5 -1.49,3 -3.01,6 -2,3.5 -1.49,3 -3.01,6 -8,14 -6.99,12.5 -7.01,11.5 -6,10.5 -11.49,18.5 -5,8 -4,6.5 z m 92.49,-186.5 1,4 2.5,3.5 2.5,4 4.51,3.5 10.49,8 6.5,4 7.51,3.5 7.5,3.5 6.99,1.5 6.5,1.5 6.5,-0.5 2.5,0 3,-1 5.51,-2.5 4.49,-3.5 4.51,-4.5 2.99,-5.5 3,-6.5 2.5,-7.5 2.5,-8.5 1.5,-9.5 1,-10.5 0.51,-11.5 0.49,-13.5 -1,-12.5 -0.5,-13 -1,-12 -1,-12 -1.99,-11 -1.51,-11 -2,-10 -2,-10.5 -3,-9 -2.99,-9.5 -2.01,-4 -1,-2 -0.5,-1 0,-1.5 -2.99,-8.5 -4,-7.5 -4.01,-8 -4.5,-7 -4,-7 -9.5,-11.5 -9,-10.5 -9,-9 -8.5,-8 -8.5,-5.5 -7.5,-4.5 -7.49,-3 -7.01,-1.5 5.5,17 5,16 8,32 1,8.5 1.5,8 2.5,16 1.51,16 0.99,16 0,17 -0.5,16 -1,16 -1.5,16 -2.5,16 -3,16 -8,32 z m 661.5,-286 5,-8.5 3.51,-9.5 1.99,-9.5 0.51,-10.5 -1,-9.5 -0.51,-4 0,-4 -0.99,-6 0,-5 -52.51,1.5 -3.5,20 -1.5,17 -0.5,8.5 0.5,7.5 2.5,13.5 3.51,4.5 4.49,2.5 5,1.5 6.01,0 5.99,-0.5 6.5,-2 7,-3 8,-4.5"
         id="path18"
         style="fill:#231f20;fill-opacity:1;fill-rule:evenodd;stroke:none" /><path
         d="m 528.973,1981.25 -37.5,0 -159.5,-159.5 -80,-79.5 -40.5,-40 -41,-41 -84.0003,-81 -85.00004,-82.5 60.50004,-59.5 61.5003,-60.5 62,-61.5 62.504,-62.5 62.496,-63 63.504,-64.5 63.496,-64.5 64.5,-66.504 42,0 -501.5003,504.504 486.5003,481.5"
         id="path20"
         style="fill:#231f20;fill-opacity:1;fill-rule:evenodd;stroke:none" /><path
         d="m 1164.97,990.75 -1,1 -0.49,0.5 -1.01,1 -2,1.996 -52.5,0 18,-18.496 -478.997,-85 -103,103.496 -42,0 53.5,-55.5 54.5,-56.5 -158.5,-31.496 -31,5.5 -30,2.996 -30,1 -29,-1.496 -29,-3 -28,-6 -28,-8 -27,-10.5 -16,-10.5 -14,-11 -12,-11.004 -10,-10.996 -8.5,-11.004 -5.996,-10.996 -5.004,-11.004 -2,-10.996 -2.5,-10.504 -3.496,-11.496 -4.504,-11.5 -5.5,-12.004 -6.5,-11.996 -7.5,-12.5 -8.5,-12.504 -9.5003,-13 -5.4961,-5.996 -4.0039,-6.5 -4,-6 -2.5,-6.5 -4,-12 -0.9961,-6 0,-6.5 -0.5039,-5.5 1,-6 1,-5.5 2.5,-6 6,-11.004 4,-5.496 5,-6.004 9.0003,-9.996 2,-2 1.004,-1.004 0.496,-0.496 1,-1 5,-5.004 9,-9 9,-8.496 8,-7.5 8,-7.004 7.5,-5.996 8,-6 4.5,-22 6.5,-21 3.5,-9.504 4.5,-9.496 9.5,-17 10.504,-14 5.496,-6.5 6.5,-6.5 6.5,-5.504 7,-5 15.5,-9 7.5,-2.996 8.5,-3 8.5,-2.5 9.5,-2.004 19.5,-1.996 10,-0.504 11,-0.496 10.504,1 11.496,0.996 11.5,2.004 12.5,2 12,3 13.004,2.996 12.996,3.504 14.004,4 20.996,-28.5 2,0 3.5,-0.5 9.504,0 5.496,0.996 7.5,0 7.504,1.004 9,0.496 2.996,1 4.5,0.504 5.5,0.996 6.5,1 6.5,2.004 8.5,1 8.5,1.996 10.5,1.5 10.5,2.5 11.5,2.004 12.5,3 13.5,2 13.5,3 15.5,2.5 33.5,6 17.5,4 18.5,3.496 19.5,4.004 20.5,4 21.004,4.496 22.496,4 47.5,9 24.5,5.504 26,4.996 54.504,11.004 27.996,6 29.5,5.5 30.497,6 31.51,5.996 438.99,-442.996 5,518.996 39,11.004 -0.99,-531 661,668.5 440.49,95.496 22,-2.5 11,-1 2.5,0 3,-0.496 6,-1.004 22,-0.996 22,-0.5 21,1.496 22.01,1.5 20.99,3.5 22,3.504 6.01,2.5 5.99,5 3.01,2.5 3.49,1.996 12.01,9.504 5,5.5 5.49,5 5,5.996 2.51,3.004 2.99,2.5 9,12.496 4,7.004 2.01,3.5 2.5,3 1.49,4 2,3.5 4,6.996 6.51,15.004 0,2.996 -2.5,0 7.49,8.504 7,7.5 13,14.5 11.01,13.496 4.49,6.504 4.51,5.5 3.49,5.996 3.01,5.504 2.5,5.5 2.49,4.5 1.51,4.996 0.99,4.004 1,7.496 -1.99,11.5 -2.5,10.5 -25.01,0 1,-2.496 1.5,-3 2.01,-5.5 1,-5 0.99,-5.5 -0.5,-2.004 0,-2.5 -0.49,-1.996 0,-2.5 -1.51,-4 -1.5,-4 -10,-12.5 -12,-13.504 -6.99,-6.996 -7.51,-7.004 -16,-14.496 -5.5,-12 -2.5,-5 -1.5,-4.504 -2,-3.496 -0.99,-3.5 -1.51,-5 -2.49,-3.504 -2.5,-5 -3.51,-5.496 -4.5,-7 -5.99,-7.004 -6.5,-7.5 -8.01,-7.496 -8.5,-8.5 -5,-2.004 -2.99,-0.996 -1.51,0 0,-0.504 -0.99,-0.996 -7.51,-2 -8.5,-3 -10.5,-2 -6,-1.004 -3,-0.496 -2.5,-1.004 -13.49,-1.996 -14,-3.004 -16.01,-1.496 -14.99,0 -0.51,-0.5 -16,0.5 -7.99,0.496 -7.5,0 -4.51,1 -4,0.504 -8,0.996 -16,2.5 -17,3.504 -2.5,1 -1.99,0.496 -4,1.004 -8.01,2 -17,5.996 -15.5,5.504 -14.5,6 -7,3 -5.99,2.496 -12.51,6.504 -10.5,5.996 -10,7.004 -8.5,6.5 -8,7.5 -6.5,6.5 -5.5,5.996 -3.5,5.004 -2.5,5 -1,3.996 0,4 2,2.504 154,-24.5 74.51,-4 4.49,1 2,0.5 2.51,0 3.49,1 2.5,1 1.51,1.996 0.99,1.5 -0.5,1 0,1.5 -0.49,2.004 -2.5,2.996 -2.5,2.004 -4,1.996 -4.51,1 -5.49,1.5 -6.5,0.504 -7.51,0.496 -7.5,0 -6.5,1.004 -6,0.496 -7,1.004 -7,0.496 -15.5,2.004 -17,2 -9.49,2 -5.01,1 -1.49,0.496 -3.01,0 -9.99,2.004 -10.01,1.5 -22,4 -23,4 -23.49,5 -20.01,5 -17.5,5 -8,2.5 -6.5,1.996 -12.5,5 -9.5,5.004 -6.99,5 -3.51,3.996 -7,21.004 4.5,10.5 7,9 1,0.996 -42,0 -3,-8.496 -0.5,-9.504 2,-9.496 4.5,-11 6.5,-10.504 9,-11.5 11.5,-11.996 14.01,-13 -0.51,-11.004 2,-11.996 3.51,-12 5.99,-12.004 4,-5.496 7,-7.504 9,-7.5 11.5,-9 13.5,-9 16.5,-10.5 18.5,-10.5 21.5,-12.5 -27.5,-6.5 -25.99,-7.496 -12.51,-3.004 -11.5,-2.996 -10.49,-2.004 -9.51,-1.996 -668.5,-144.504 -1328.997,-247.496 2.504,13.496 20.996,13 20,12.004 18,12 17.5,11.996 15.5,12.004 14.5,12 12.5,11.996 12,11.5 9.5,12.004 9,11.5 7,12 6.5,11 4,12 3.5,10.996 1.5,11.004 1,11 17,22.996 4,6.5 4.004,6 6.5,13 4.496,14 3,14.004 0,7.996 -1,7.004 -3,7 -3.496,7 -5.504,7 -6.5,6.5 -8.5,6 -9,5.996 0,10 0.5,0 -0.5,3.004 0,8.496 -0.5,4 0,11.004 -1.5,9 -2.5,9 -4.5,9 -5,8 -7.5,9 -8,7.996 -10,8.004 -11,8 -29.5,7.5 -4.996,3 -3.504,1.996 -2.996,1.504 -8.504,4 -9.496,4 886.993,161.496 -215.5,0 -24.5,-4.496 z m -989.997,-248 2,9.496 3.5,8.504 4.504,8.5 5.496,7 6.5,7.5 7.5,6 8.5,5.996 9.5,5 10.5,5.004 11.5,4 12.504,3.996 13.996,2.5 14.5,3.004 15.5,1.5 16.504,1.5 18.496,0.496 35,-0.496 33,-2.004 15.5,-0.996 15.004,-1.504 27.996,-4 25,-3.496 23,-5 20,-5.504 18,-6.996 7.5,-3 7.004,-3.5 6.5,-4 5.996,-4 5,-4 4.504,-4.004 3.996,-4.496 3.5,-5 2.5,-4.5 2,-5 2.004,-11 0,-5.5 -0.504,-6.004 -3,-12.5 -10,4.504 -9.5,3.5 -10.5,3 -10,2 -22.5,3.496 -12,1.004 -11.5,0 -16,2.5 -16,1.5 -16.5,1 -35,0 -18,-1 -19,-1.5 -19,-2.5 -7.496,-1.004 -5.504,-1.996 -5.5,-2.5 -3.5,-3.004 -5.5,-6.5 -1.5,-4 0.5,-5 16.5,3.004 17,1.996 16.5,2.004 17,1 16,0.996 16.5,0 32.004,-1.5 14.996,-1 15.5,-1.996 15,-2.004 15.5,-2.996 14.5,-3 15,-4 14,-4.004 14.5,-4.996 12.5,-4.5 11,-5.004 9,-5.496 8.004,-6.004 4.996,-5.496 4.004,-6.004 1.996,-5.996 0,-7 -1.996,-6.5 -4.004,-7 -6,-7.004 -7,-7.5 -9.996,-6.996 -11.004,-8 -13,-8.004 -14.5,-8.496 -31.5,-15.5 -30.5,-14.5 -29.5,-12.5 -28,-12.004 -27.5,-9.496 -26.5,-9 -25.5,-7 -23.496,-6.5 -1.504,-3.004 -0.5,-2.996 0.5,-2.004 2.5,-1.996 2.5,-1 4.5,-0.5 12,0 7.5,1.5 8.504,1.5 9.496,2 5,1.5 6.004,0.996 11.496,3.5 13.5,3.504 6.5,2.5 7.5,1.996 15.5,4.504 14.5,5.496 14.5,5.004 13.004,4.5 12.496,4 11.5,4 10.5,3.5 9.5,3.496 8.5,3.004 7.5,3 6.5,2.5 5.504,2.5 4.496,1.996 3.5,2.004 2.5,1.5 1.5,1 1.5,0.496 3.5,-1.496 2,-3.504 0,-4.496 -1.5,-5.5 -4,-6.5 -3,-3.5 -2.5,-4.504 -4,-4 -3.5,-5 -9,-10.496 -10.5,-10.004 -9.5,-9.496 -9.5,-8.504 -8,-8.496 -8.5,-7.5 -7.5,-7.004 -7,-5.996 -6,-6 -11.5,-6.004 -14.5,-8 -13.496,-7.5 -13.504,-6.996 -13,-6.5 -25.5,-11.004 -12.5,-5 -11.5,-4.496 -12,-3.504 -11.5,-2.996 -11.5,-2.5 -10.5,-2.004 -21.5,-1.996 -9.996,-0.504 -9.504,0 -10,1.504 -9,0.996 -8.5,2.004 -7.5,2 -7.5,3 -6.5,2.5 -6.5,3.5 -5.5,3 -5.5,4.496 -4.5,4.504 -4.5,5 -3.5,5 -3.5,5.996 -2.5,5.504 -2,6.5 -1,6.5 -3,14 -1.5,6.5 -1,5.5 -3,10.5 -1.996,8.996 -3.004,8 -2.5,6.5 -3,5 -2,3.004 -6.5,7 -7,6.5 -8,7.5 -8.5,6.996 -3,2.5 -2.5,2.004 -5,4 -10.5,9 -12,10 -3.5,3 -3,2.5 -6,5 -3.5,3.5 -2.5,3 -4,6 -1.5,3.496 -0.5,3.004 0.5,6.5 1.5,7.5 1.5,4 2.5,3.496 6,8.004 8,8 8,10 1.5,3 2,2.5 4,5 7,11.996 7,12.504 1.004,4 0.496,2 1,1.5 3,7 2.5,7.996 3,7.5 5,17 2,9 1.004,4.504 1.496,4 z m 1270.997,-217.004 0.5,-9 1,-9.496 1,-17.504 0,-7.996 0.51,-8 0,-15.5 -1.01,-8 0,-22.004 0.5,-13.996 0,-15 0.51,-18 0.49,-19.5 1,-22 0,-35.5 0.5,-13.504 0,-28.5 1,-31 0,-50.496 0.5,-18.5 0,-58.5 0.5,-21.5039 -7.99,7.5039 -6.51,6.4961 -4.99,5.4999 -3.51,4.504 -1,1 -0.5,0.5 -1,1 -0.49,0.496 -2.01,2.5 -2,2.004 -3,3.5 -3,3 -3.99,4 -3.51,3.996 -5,5.004 -5,5 -6,6 -3,3 -1,1 -0.5,0.5 -1,1 -7,6.5 -2,1.996 -1,1 -0.5,0.504 -3,3 -3.99,4 -2.01,2 -1,0.996 -0.5,0.504 -7.5,6.996 -9,8.504 -1.5,1.5 -1,1 -1.99,1.996 -4.01,4 -4.99,5 -1.51,1.5 -0.99,1 -2.01,2.004 -5,5 -1.5,1.5 -1,1 -1.99,1.996 -3.01,3.004 -1.5,1.5 -1,0.996 -5,5 -10,10.504 -11,11 -10.99,11 -2.01,1.996 -1.5,1.5 -2.99,3.004 -6.01,5.996 -11.99,12.004 -13.01,13 -12.5,13 -14,14 -13.5,14 -4,4 -1.99,1.996 -1.51,1.504 -7,7 -4,3.996 -2,2.004 -1.5,1.5 -7,6.996 -93.5,96.004 365.5,65.996 z m 102.01,17.504 567.49,117.496 -564,-572.996 -3.49,455.5"
         id="path22"
         style="fill:#231f20;fill-opacity:1;fill-rule:evenodd;stroke:none" /><path
         d="m 2016.47,2067.25 -3.5,-13.5 -3,-2 -1.5,-1 -1,-1.5 -5,-5 -11.5,-9 -6.5,-4 -3.5,-2 -3,-2.5 -13.49,-8 -15.5,-7 -15.5,-7 -17.51,-6 -17.5,-6 -9.99,-2 -5,-1 -2.51,-0.5 -2,-1 -10.5,-2 -10,-2.5 -10.99,-1.5 -11.01,-2 -6,-0.5 -5.5,-1 -10.99,-2 -12.51,-1 -11.99,-1.5 -24.51,-2 -10.5,0 -3,-0.5 -13,-1 -27,-1 1.5,-14 17.51,-8.5 18.49,-10.5 19,-11.5 19.5,-13 19.5,-14 20.01,-16 20.5,-17 21.49,-18.5 20,-18 9,-8.5 9.5,-9 8.5,-8 4,-4 2.01,-2 0.99,-1 1.51,-1.5 7.99,-7.5 8,-8 6.5,-7 7,-7.5 6,-6.5 6.5,-7 5,-6 2.5,-3 3,-3.5 9.5,-12 0.5,162 97.01,-100 48.49,-49 49,-49.5 48,-48.5 24,-24 12,-12 6,-6 3,-3 3.5,-3.5 97,-96 -27,-29 -12.5,-10.5 -11.5,-10.5 -11.5,-10 -10.5,-10.5 -20.5,-19.5 -18.5,-18.5 -17.5,-16.5 -15.5,-16.5 -14.5,-14.5 -6.5,-7 -5.49,-7.5 -2.5,-9 -3.01,-9.5 -3.49,-9 -4.51,-10 -5.5,-9 -6.49,-10 -7.01,-10 -7.5,-10 -4.99,-4 -2.5,-2 -2.01,-2.5 -9,-8.5 -10,-6.5 -10,-6.5 -11,-4.5 -11,-4 -12,-2.5 -6,-1 -5.5,-1 -46.5,-63 622.01,115.5 3.49,2 5,0.5 5.51,0 6.5,-1 6.5,-1 7.99,-2.5 8.51,-3 9.99,-4.5 241.5,246 -28.5,28 -27,26.5 -25.99,25.5 -12.51,12.5 -11.5,11.5 -23.5,23 -21.5,21.5 -20.5,20.5 -10,10 -9,9 -18.5,18.5 -16.5,16.5 -15.5,15.5 -7.5,7.5 -6.5,6.5 -6.99,7 -6.01,6 -11.5,11.5 -10.5,10.5 -8.5,9 -7,7 -2,2 -1.5,1.5 -3,3 -13,13.5 -13.5,14 -13,13.5 -14,14.5 -14,14 -14.5,15 -14,14.5 -8,8 -4,4 -2,2 -1.5,1.5 -15,15.5 -15.5,16 -8,8 -4,4 -1.99,2 -1.51,1.5 -2.5,2.5 -2,2 -4,4 -7.99,8 -16.01,16 -16.5,17 -2.5,2.5 -2,2 -3.99,4 -8.01,8 -868,862 0.51,-750 14,29 6.99,14 7.5,13 6.5,13 7,12 6.5,11.5 7,10.5 6.01,11 6.5,10 13,18 11.99,16.5 6.01,7.5 6.49,6.5 11,12.5 5.51,5.5 5.99,4.5 5,4.5 5.5,3.5 11,5.5 4.5,2.5 5,1.5 10,1.5 9,-0.5 4.51,-1 5,-2 -20.5,-18.5 -10.01,-9 -9,-9.5 -9.5,-8.5 -8.5,-9 -8.5,-8.5 -7.5,-9 -8,-8 -6.99,-8.5 -13.51,-16.5 -12,-16 -10.5,-16 -9.5,-14.5 -4.5,-7 -3.5,-7.5 -6.99,-14 -5.01,-14 -2.5,-6 -1.49,-6.5 -2.51,-13 -1,-12 0.5,-12 19,24 21.5,24 23.01,23.5 24.99,23 12.5,3 -1,-10.5 -13,-16.5 -11.5,-16 -11.5,-15 -9.49,-14.5 -9.51,-13.5 -8.5,-13 -8,-12 -6.5,-11.5 -6.5,-10.5 -5.5,-10 -5,-9 -3.5,-8.5 -3.5,-7.5 -2,-7 -1.5,-6 -0.49,-5.5 9.49,-13 24.5,5.5 12.5,25 15,24 17.5,24 20.01,23 21.99,23.5 24.5,22.5 27,22.5 29.5,21.5 14.5,11 14.5,10 13.5,9.5 13.5,8.5 12.5,8.5 12.5,7.5 12,7 11.5,6 10.5,6 10.5,5 9.5,4.5 9.5,3.5 8.5,3.5 8.5,2 8.01,2 7.49,0.5 3.5,-12 -14.5,-7.5 -15,-8.5 -16.5,-9.5 -16.49,-10.5 -18.51,-11 -19.5,-12.5 -20.5,-13.5 -20.99,-14.5 -22.51,-15 -21.5,-18 -21,-19 -20.5,-22 -20.5,-23 -19.5,-26 -19,-28 -18.5,-30 15.5,-2 4,5 4.51,4 7.99,7.5 7,6.5 6.5,5.5 5.51,4.5 4.99,3.5 4.01,2.5 3.49,0.5 4.5,2 4,1 1.01,1 0.99,0.5 1.51,1 15.99,-3 -1.99,-4 -1.01,-2 -0.5,-1 0,-1.5 -0.99,-0.5 -0.51,-1 -1,-2 -2.5,-4 -3.5,-3 -2,-1.5 -1.5,-2 -2.5,-1 -1.99,-1.5 -4.51,-3 -9.49,-4 -4,-2 -3.01,-2.5 -5,-4 -2,-2 -0.5,-2.5 -4,-6.5 -1.99,-2.5 -1.5,-3 2.49,-7.5 43,2 21,1.5 22,2 21,3 10.5,2 11,1.5 42,8 41,11 20.01,6 20.99,6.5 40,15 20.01,8 19.99,8.5"
         id="path24"
         style="fill:#ed1d29;fill-opacity:1;fill-rule:evenodd;stroke:none" /><path
         d="m 2875.47,1043.25 -10.99,30 -4.51,8.5 -5,7 -5.5,7 -6,5.5 -7,6 -7,4.5 -8,4.5 -8.49,3.5 -9.51,3.5 -10,2.5 -10.5,2 -10.99,1 -12.01,1 -25,0 -13.5,-1.5 -27.99,-2 -25.01,-2.5 -23.5,-3 -20.99,-3.5 -20.01,-3.5 -17,-4 -16,-4 -13,-4.5 -24.5,-9 -20.5,-10 -17.49,-10.5 -7.51,-6 -6.5,-6 -18.5,-17.5 1,-16 31,9.5 44.5,7.5 45.5,4.5 45.51,2.5 46.49,-0.5 11,-1 5,-0.5 5.51,-1 8.49,-1 7.5,-2 5.5,-1 2,-0.5 2.5,-1 2.51,-1 1.99,-2 -0.5,-1 -1.49,-1 -3.51,-1 -4,-1 -3.5,0 -3,-0.5 -7,-1 -9,-1 -9.99,-1 -44.51,-2.5 -42.5,-4 -41.49,-4.5 -40.51,-5.5 -19.5,-2 -17,-3 -7.99,-1 -6.51,-1.5 -12,-3 -10,-2 -7.49,-3 -5.51,-2 -2.5,-3 -7,-9 -4.5,-10.5 7,-21.004 3.51,-3.996 6.99,-5 9.5,-5.004 12.5,-5 6.5,-1.996 8,-2.5 17.5,-5 20.01,-5 23.49,-5 23,-4 22,-4 10.01,-1.5 9.99,-2.004 3.01,0 1.49,-0.496 5.01,-1 9.49,-2 17,-2 15.5,-2.004 7,-0.496 7,-1.004 6,-0.496 6.5,-1.004 7.5,0 7.51,-0.496 6.5,-0.504 5.49,-1.5 4.51,-1 4,-1.996 2.5,-2.004 2.5,-2.996 0.49,-2.004 0,-1.5 0.5,-1 -0.99,-1.5 -1.51,-1.996 -2.5,-1 -3.49,-1 -2.51,0 -2,-0.5 -4.49,-1 -74.51,4 -154,24.5 -2,-2.504 0,-4 1,-3.996 2.5,-5 3.5,-5.004 5.5,-5.996 6.5,-6.5 8,-7.5 8.5,-6.5 10,-7.004 10.5,-5.996 12.51,-6.504 5.99,-2.496 7,-3 14.5,-6 15.5,-5.504 17,-5.996 8.01,-2 4,-1.004 1.99,-0.496 2.5,-1 17,-3.504 16,-2.5 8,-0.996 4,-0.504 4.51,-1 7.5,0 7.99,-0.496 16,-0.5 0.51,0.5 14.99,0 16.01,1.496 14,3.004 13.49,1.996 2.5,1.004 3,0.496 6,1.004 10.5,2 8.5,3 7.51,2 0.99,0.996 0,0.504 1.51,0 2.99,0.996 5,2.004 8.5,8.5 8.01,7.496 6.5,7.5 5.99,7.004 4.5,7 3.51,5.496 2.5,5 2.49,3.504 1.51,5 0.99,3.5 2,3.496 1.5,4.504 2.5,5 5.5,12 16,14.496 7.51,7.004 6.99,6.996 12,13.504 10,12.5 1.5,4 0.51,2 1,1.496 0.49,4 0.5,4.004 -0.5,4.996 -1,4.504 -1.5,5 -1,2.5 -0.5,1.996 -3,6.004 -3,5.5 -1.99,3.5 -1.51,3 -4,6 -5,7 -4.99,6.5 -6.01,7.5 -6,7"
         id="path26"
         style="fill:#ffffff;fill-opacity:1;fill-rule:evenodd;stroke:none" /><path
         d="m 2425.47,1027.25 0.51,7 0.49,3.5 1.5,3 3.5,7.5 5,7 6,8 7.5,7.5 8.5,8.5 10.5,8 10.5,9 12.5,7.5 12.51,7.5 14.49,6 14.5,6.5 16.5,5 17,5 18.51,3.5 95.99,17.5 -2,80 -952.5,-180.5 -1208.993,-220.5 9.496,-4 8.504,-4 2.996,-1.504 3.504,-1.996 4.996,-3 29.5,-7.5 11,-8 10,-8.004 8,-7.996 7.5,-9 5,-8 4.5,-9 2.5,-9 1.5,-9 0,-11.004 0.5,-4 0,-8.496 0.5,-3.004 -0.5,0 0,-10 9,-5.996 8.5,-6 6.5,-6.5 5.504,-7 3.496,-7 3,-7 1,-7.004 0,-7.996 -3,-14.004 -4.496,-14 -6.5,-13 -4.004,-6 -4,-6.5 -17,-22.996 -1,-11 -1.5,-11.004 -3.5,-10.996 -4,-12 -6.5,-11 -7,-12 -9,-11.5 -9.5,-12.004 -12,-11.5 -12.5,-11.996 -14.5,-12 -15.5,-12.004 -17.5,-11.996 -18,-12 -20,-12.004 -20.996,-13 -2.504,-13.496 1328.997,247.496 668.5,144.504 9.51,1.996 10.49,2.004 11.5,2.996 12.51,3.004 25.99,7.496 27.5,6.5 -21.5,12.5 -18.5,10.5 -16.5,10.5 -13.5,9 -11.5,9 -9,7.5 -7,7.504 -4,5.496 -5.99,12.004 -3.51,12 -2,11.996 0.51,11.004 -11.01,10 -9.49,9.5 -8.01,8.996 -6.5,8.504 -5.5,8.496 -3.5,8.004 -2.5,8 -1,6.996 0,7.504 1.5,7 3,7 4.51,6 5.49,6 7.5,5.5 8.5,5.5 10,4.5"
         id="path28"
         style="fill:#ffffff;fill-opacity:1;fill-rule:evenodd;stroke:none" /><path
         d="m 2768.47,1222.75 -8,4.5 -7,3 -6.5,2 -5.99,0.5 -6.01,0 -5,-1.5 -4.49,-2.5 -3.51,-4.5 -2.5,-13.5 -0.5,-7.5 0.5,-8.5 1.5,-17 3.5,-20 52.51,-1.5 0,5 0.99,6 0,4 0.51,4 1,9.5 -0.51,10.5 -1.99,9.5 -3.51,9.5 -5,8.5"
         id="path30"
         style="fill:#ffffff;fill-opacity:1;fill-rule:evenodd;stroke:none" /><path
         d="m 2163.97,1303.75 4,7 4.5,7 4.01,8 4,7.5 2.99,8.5 0,1.5 0.5,1 1,2 2.01,4 2.99,9.5 3,9 2,10.5 2,10 1.51,11 1.99,11 1,12 1,12 0.5,13 1,12.5 -0.49,13.5 -0.51,11.5 -1,10.5 -1.5,9.5 -2.5,8.5 -2.5,7.5 -3,6.5 -2.99,5.5 -4.51,4.5 -4.49,3.5 -5.51,2.5 -3,1 -2.5,0 -6.5,0.5 -6.5,-1.5 -6.99,-1.5 -7.5,-3.5 -7.51,-3.5 -6.5,-4 -10.49,-8 -4.51,-3.5 -2.5,-4 -2.5,-3.5 -1,-4 8,-32 3,-16 2.5,-16 1.5,-16 1,-16 0.5,-16 0,-17 -0.99,-16 -1.51,-16 -2.5,-16 -1.5,-8 -1,-8.5 -8,-32 -5,-16 -5.5,-17 7.01,1.5 7.49,3 7.5,4.5 8.5,5.5 8.5,8 9,9 9,10.5 9.5,11.5"
         id="path32"
         style="fill:#ffffff;fill-opacity:1;fill-rule:evenodd;stroke:none" /><path
         d="m 1076.47,2026.25 7,8.5 9,6.5 4.5,3 5.5,2 12.5,2.5 6.01,1.5 6.99,0.5 15.5,-0.5 16.5,-2 9,-1.5 10.01,-2.5 19.99,20.5 20,18.5 4,5 4,4 7,6.5 4.5,5.5 1.5,2 1.5,1 25,27.5 -10.49,9.5 -6.51,8 -6.5,7 -7,7 -6.99,6 -8.01,6.5 -8,5.5 -8.5,5.5 -8,4.5 -19,9.5 -19.5,7.5 -21.49,6.5 -22.51,4.5 16.5,5.5 9,1.5 9.5,-0.5 9.5,-0.5 10,-2.5 10.51,-2.5 10.99,-4.5 10.5,-4.5 11.5,-6 11.5,-6.5 12.5,-8.5 12,-8.5 13,-10 13.01,-10.5 13.99,-12.5 2.5,4.5 4.5,5.5 1,2.5 2.51,2.5 2.5,3.5 4.49,3.5 4,5 5.5,5 6,6 7.5,6.5 6.5,7.5 7,6.5 13.5,12.5 5.5,6 6,5 11.5,9.5 0.5,16.5 0.51,7.5 1.49,6.5 3,12.5 4.51,10 5.49,9 7,6.5 8.5,5 9.5,3 -4,-9.5 -2.5,-9 -2.5,-7.5 -0.99,-7 -1.01,-4.5 0.5,-4 0.51,-2.5 1.99,-1.5 1.5,0.5 3.01,1 3.49,3 5,3.5 4.5,5.5 6,6.5 6.5,8 8.01,8.5 0,581.5 -1406.5073,-1392.5 604.5003,-608 478.997,85 -202.497,208 -14.5,10 -12.5,9 -12.5,9 -10.5,8 -19.5,15.5 -15.5,13.5 -7.5,6.5 -5.5,6 -5.5,5.5 -3.5,4.5 -3.5,5 -2,4 -1.5,3.5 -0.5,3 -7,1 -6.5,1 -14,2.5 -8,2.5 -7.5,2 -8,2.5 -4,1.5 -3.5,1 -17,7 -9,4 -4.496,2 -4,1.5 -5.004,2.5 -4.5,2 -9,4.5 -10,5 -5,2.5 -4.5,2 -10.5,6 -9.5,5.5 -17.5,11.5 -16.5,12.5 -14.5,12 -13.5,13.5 -11.5,13.5 -10,14 -8,14 -7.5,15 -6,15 -4.5,15 -3,14 -2.5,14.5 -1,14 0.504,14 1.996,14 2,14 3.5,12.5 3.5,12.5 5.5,11 5.5,11 7,9.5 7.5,9 8.504,7.5 8.496,8 10.5,7 11.5,6.5 13,5.5 14,5.5 15.5,4 16.5,4 18,2.5 41.5,3.5 13.004,-2 12.996,-1.5 12,-0.5 11.5,0 27,0.5 5,5.5 6.5,6 6.5,7 8,7.5 8,8.5 9.5,9 9.5,10 11,10 11,11.5 12.5,12 12.5,13 14.004,13 14,14.5 15.5,14.5 15.5,15.5 16.996,16 15.997,17 15.5,15.5 15,15 14.5,13.5 13,13.5 12.5,12.5 12,12 11.5,10.5 10,10.5 9.51,9 8.49,9 8,7.5 7,7.5 6.5,6 5.5,5.5 5.5,4.5 -7.49,2.5 -6.5,1.5 -10.51,2.5 -8,1.5 -4.5,-0.5 -6,0 -4.49,-0.5 -5,-1 -6.5,-1 -7.01,-1 -8.49,-1 -8.51,-2"
         id="path34"
         style="fill:#ed1d29;fill-opacity:1;fill-rule:evenodd;stroke:none" /><path
         d="m 613.973,1617.25 -12.5,-8.5 -5.5,-4.5 -4.5,-5.5 -8.5,-11.5 -6,-12.5 -4.996,-13.5 -1.504,-7 -0.5,-8 -1,-16.5 2,-17.5 2.5,-17 5.004,-17 2.5,-8 3.496,-8.5 4,-8 5,-8.5 4.5,-7.5 5.5,-8 5.5,-7.5 6.5,-8 13.5,-14.5 7.5,-7 8.5,-7.5 8.5,-8.5 9,-8 9.5,-7.5 10,-7 20.5,-12 10.5,-5.5 11,-5 22.5,-7 11.5,-3 12.004,-2.5 24.5,-3 12.496,-1 13,-0.5 2,2 3,2.5 3.004,3.5 3.996,3.5 4,5 4.5,5.5 4.5,6.5 5.5,6.5 2,4 2.504,3 5,5 3.996,3.5 2,1 2.5,0 1.5,0.5 2,-0.5 1.5,-0.5 2.004,-1.5 2.996,-3.5 1.5,-2.5 2.004,-3.5 1.496,-6 0.5,-7 -1.5,-7 -3,-8 -5,-8 -6.5,-9 -7.996,-9 -9.504,-10 15,-16 18,-17 20,-16 22.5,-17 24.5,-16 13,-8 14.5,-8.5 29.497,-16 32.51,-17 33.99,-16 37,-16 39,-16 41.5,-16 21,-7.5 22.5,-8 46.5,-16 48.5,-16 51.5,-16 595.5,109 11,9 5,5 1.01,1.5 1.49,1 3,2 10,10.5 2,3 1,1.5 1.5,1 5,5 4,6 2,3 1,1.5 1.5,1 8.5,12 8.01,13 3.49,7 4.01,6.5 5.99,14.5 6,15 5.5,16 5,16 4,17.5 4,17.5 0.51,5 0.99,4.5 2,9 3,19 1,20 0.5,20 -0.5,3 0,7.5 -0.49,10 -1.5,20 -3.51,21 -3.99,20 -6.01,21 -6.5,20 -4.5,11 -4,10.5 -9,21 -5.5,11 -3,5.5 -2.5,5 -11.5,21 -13.5,22 -7,11 -7,10.5 -15.5,22 -8,11 -8,10.5 -18,22.5 -17.5,20.5 -18,20.5 -17.5,18.5 -18,18.5 -18,17.5 -18,16.5 -18,15.5 -19,15.5 -18.49,13.5 -19.01,13.5 -18.5,12 -18.99,11.5 -19.01,10.5 -38,18.5 -7,-3 -4,-2.5 -3.5,-4 -8,-9 -7.99,-12 -11.01,-16 -2.99,11.5 -1.01,10 1.01,10 3.99,9 0.5,2.5 0.51,1.5 -0.51,1 -1.5,0 -1,-1 -1.99,-1 -1.5,-2.5 -3.01,-2 -3,-3 -3.5,-3 -3.5,-4.5 -4.5,-4 -4.5,-5.5 -5.5,-5.5 -5,-6.5 -5.99,-5.5 -5.51,-4.5 -5,-3.5 -4,-3.5 -4,-1.5 -3.5,-1 -3,0.5 -2.5,0.5 -2.5,2.5 -1.99,2.5 -1.5,4.5 -1.01,4.5 -1,6.5 0,6.5 0.5,8.5 1,8.5 4.51,8.5 4.49,7 4,7 3.5,6 2.5,6 2.5,5 2,4.5 1.51,3.5 0.49,4 0,3 -0.49,2.5 -0.51,1.5 -1.99,1.5 -2.01,0.5 -2.5,0.5 -3,-1 -7.5,-1 -5.49,-1.5 -5.51,-2 -4,-3 -3.49,-2.5 -2.5,-3.5 -1.51,-3.5 -0.5,-4.5 -1.99,-8.5 -2.01,-5 -1.5,-6 -2.5,-5.5 -2.5,-6.5 -6,-14.5 -3.49,12.5 -3.01,9.5 -3,6.5 -2.5,3.5 -2.5,1 -2,-2.5 -2,-4.5 -1,-8.5 -1.99,-8 -1.01,-3 -0.5,0 0,-3.5 -0.99,-1 -0.51,0 0,-1.5 -1,-2.5 -2,-4 -3,-1.5 -1.5,0 -0.99,-0.5 -3.01,1 -1,1 -0.5,0.5 -1,1 -2,2.5 -1,2.5 -1.5,5.5 -0.5,4 0.5,3.5 1.5,8 2.5,10.5 1.5,5.5 2.5,5.5 5.5,12.5 3.01,7 3.99,6.5 -9,2 -8,1 -14.5,0.5 -7,0 -6,-1.5 -10.5,-4 1,-4.5 1.5,-5 1.01,-4.5 0.49,-2 1,-2.5 0,-1.5 0.5,-2 1,-4 0.5,-3 1,-3.5 0,-9.5 -1,-2.5 -0.99,-2.5 -1.51,0 -0.99,-0.5 -1.01,0.5 -1.5,0 -2,1 -1,0.5 -0.5,0 -4,2.5 -5,4.5 -5,4.5 -6,6.5 -6,7 1.01,-8 1.49,-8 1,-7.5 1,-7 0,-6 1,-5.5 0,-5 0.5,-5 -0.5,-0.5 0,-6.5 -1,-6 -2,-3 -1,-1 -1,-0.5 -1.99,1 -1.51,1 -4,3 -5,6 -3,3.5 -1.99,4 -3.51,5 -3,5.5 -7,12 -4,7 -2,4 -0.99,2 -0.51,1.5 -8,16 -11,-2 -8.5,-2.5 -3,-1.5 -1,-1 0,-3.5 1,-2.5 3.5,-5.5 3.5,-6 4,-7.5 3,-7.5 3.5,-9 0.5,-4 1,-4 0.51,-3 0.99,-3.5 -0.5,-2 0,-2.5 -0.49,0 0,-1.5 -0.51,-2 -1.5,0 0,-0.5 -1.5,0 0,-0.5 -1,0.5 -3.5,0 -3.5,1 -3,1 -4,1.5 -2,1 -1,0.5 -0.49,0 -9,8.5 -6.51,7.5 -4.99,6.5 -2.5,5.5 -5.01,10 -6.5,8.5 -35.5,-20 -33,-20 -31.99,-20 -29.5,-20 -15.01,-9.5 -14,-10 -26.5,-20 -25.49,-19.5 -23.01,-20 -22.5,-19 -10.5,-9.5 -9.5,-10 -19,-19 -16.997,-19 -8.5,-9 -7.5,-9.5 -13.5,-19 -12.5,-18.5 -10,-19 5.5,-4 4.5,-4 4,-4 3.5,-5 2.5,-4 0.5,-2 1,-2.5 0.5,-4 0.5,-5 -16.5,3.5 -6.5,4 -7,4 -15,6.5 -18,6.5 -19,5.5 -11,3 -11.5,2.5 -24,4.5 -12.996,2.5 -13.504,2 -28,3 -15,2 -14,1 -14,0.5 -13,-0.5 -13,0 -12,-1 -11.5,-1.5 -10.5,-2.5 -11,-2 -10,-3 -9.496,-3.5 -8.504,-4.5 -9,-4 -7.5,-5 -7.5,-5.5 -6.5,-6.5 z m 198,-72.5 14.5,-2 14,-3 13.5,-3.5 13,-4 11.5,-4 11,-5 10.504,-5.5 9.996,-6 7.5,-5 7,-5 2.504,-2 2.996,-2.5 2.5,-2 1,-1 0.5,-0.5 1,-1 3,-3 2,-3 0,-1.5 0.5,-1 0,-2.5 -1.996,-1 -1.504,0 -1,-0.5 -2,0.5 -1.5,0 -2,0.5 -1.5,0 -4.5,2 -5,2 -6,3 -6.5,3 -15,7 -15,4.5 -16,2 -8.5,0.5 -8,-0.5 -18,-1.5 -4.996,-5.5 -4.004,-6 -6.5,-12 -4,-11 -1.5,-12 0,-11 2.5,-11 2.004,-5 2.996,-5.5 7,-11 -4,-6 -2,-2.5 -1,-1 -0.496,0 0,-1.5 -4.004,-3 -2,-0.5 -1.5,0 0,-0.5 -5,1.5 -1.5,1 -1,0.5 -2,1.5 -5,5 -4.996,7 -5.504,9.5 -3.496,9.5 -2.504,11 -0.5,11.5 -0.5,7 0.5,6.5 0.5,7 1.5,6.5 1.004,7.5 1.996,7 4.504,15.5 -16.504,1.5 -15,-0.5 -14,-1.5 -12.496,-3.5 -11.5,-4.5 -5.504,-3 -4.5,-4 -8.5,-8 -4,-4.5 -3,-5.5 -4,-4.5 -3,-4 -3,-3.5 -2.996,-3 -3.004,-2 -3,-1.5 -4.5,-1 -4.996,2 -3.504,4 -3.5,7 -1.5,4.5 -1,5 2,8 3.5,7 4.5,7 6,6.5 7,6.5 9,5.5 10,5.5 11.5,5 11.5,5.5 12.5,3.5 26.5,4.5 13.504,1.5 14.496,-0.5 14.5,-1 15.5,-2.5 z m 508.997,-18.5 -3,4 -2,3.5 -2.5,8 -1.5,10 0,5.5 1,5.5 0.5,6.5 1.5,6.5 1.51,7 2.5,7 1.99,8 3,8 7.5,16.5 8,18 9.5,17 11,16.5 13.01,15.5 13.99,15.5 15.5,14.5 17,14 18.5,12.5 9,6.5 9.5,5 8.5,4.5 9,2.5 17,3.5 8.01,0.5 8.49,-1.5 7.01,-1.5 7.99,-2.5 7,-3.5 7.5,-5.5 6.5,-5.5 7.01,-6.5 6.5,-7.5 6.99,-9.5 11.5,12.5 13,9 13,6.5 14,3 14,1 15.5,-2.5 15.5,-4.5 16.5,-8 5,-3 5.5,-4.5 5,-5.5 5,-7 4,-7.5 5,-9 4,-9.5 5,-11.5 4,-11.5 4,-13.5 1.5,-6.5 2,-7.5 4,-15.5 3,-16 3.5,-17.5 3,-18.5 1.51,-9.5 1.99,-10.5 63,-29.5 16.01,-14.5 13.99,-16 11,-16.5 5,-9 4.5,-9 6,-17.5 2.5,-9 2.01,-10 0.99,-9.5 0.5,-10 0,-20.5 -1,-4.5 -0.49,-5 -2.5,-10 -3.51,-9 -3.5,-10 -3,-4 -1.49,-2 -1.01,-2.5 -5.49,-9 -3.51,-4 -2.99,-4.5 -7.01,-9 -1.5,-0.5 -1,-1 -1.99,-2 -4,-4 -9,-8 -10.01,-7.5 -10.49,-8 -12.01,-7 -12.49,-7 -7.01,-3 -1.99,-0.5 -1.51,-1 -3,-2 -14,-7 -3,-0.5 -2.5,-1 -5.49,-2 -3.01,0 -0.5,-0.5 -2.99,-1 -6.01,-2 -7,-0.5 -7,-1 -6.99,0 -0.51,-0.5 -7.5,-1 -9,0.5 -8.49,0 -5.01,0.5 -4.5,0 -9,0.5 -5.5,1 -5,0.5 -10,1 -11,1.5 -5.49,1 -5,0.5 -22,5 -10.51,2.5 -9.5,2 -9.49,3 -8.51,2.5 -8.5,3 -7.49,2.5 -8.01,3.5 -7,3 -6.5,3.5 -5.49,3 -6.01,4 -5,3.5 -8,7 0,20 19.01,-7 18.99,-7 18,-6 18,-6 17.01,-4.5 7.99,-2 4,-1 4.5,-1.5 16,-3.5 16,-3 14.51,-2 6.99,-0.5 7.5,-1 14.01,-1 6.49,0 7,-0.5 6,0.5 6.5,0 12.51,1 11.99,2 11.5,2 10,3.5 10,3.5 2,1.5 2.5,1 5,2 9.5,5 8,6 8,6 7.51,7 3.49,4 4,3.5 6,8.5 6.01,9 5,10 4.99,10 4.01,11.5 1.49,6 2,5.5 3.01,12.5 2.99,12.5 -2.5,12 -2.5,11 -3.5,10.5 -3.49,9.5 -4.51,9.5 -4.49,8.5 -5.01,8.5 -5,7.5 -6.5,7.5 -6.5,6.5 -7,6.5 -7,5 -7.99,5.5 -8.01,4 -9,4 -9,3 -9.99,3.5 -10.01,2 -11,2 -11,1 -12,1 -25,0 -12.5,-1.5 -14,-1 -14,-2 -14.5,-2.5 -14.5,-3.5 -16,-3.5 -15.5,-4.5 -16.49,-4.5 -16.51,-5.5 -5,-3 -5,-3.5 -6,-3 -5.99,-3 -7.01,-2 -7,-2.5 -3.99,-0.5 -3.51,-1 -7.5,-2 -9,-0.5 -9,-1 -10,-0.5 -10,-0.5 -11,0.5 -11,0 -6,0.5 -5.5,0 -12,0.5 -15,5 -13.5,4 -11.99,5 -10.51,4.5 -9.5,5.5 -8,5 -7,6 -5.5,5.5 z m 90.5,-121.5 -20,-66.5 -0.49,-9.5 0.99,-9.5 1.5,-8.5 2.5,-8.5 2.5,-7.5 4,-7.5 4.01,-7 5.49,-7 5,-5.5 6.5,-5.5 7,-5 8,-5 8,-3.5 9,-4 9.5,-3 11,-3 10,-1.5 10.51,-2 2.99,0 1.5,-0.5 5,-1 10,-2 9,-1 3,0 1.5,-0.5 5,-1 18.51,-2 14.99,0 1.5,-0.5 16.5,0 7.01,0.5 7.5,0 14.49,1 8,-3 3,-1.5 3.01,-2 3.99,-3 2,-4 0,-1 -0.5,-2 -1,-1.5 -1,-2 -4.99,-3 -3.01,-1.5 -3,-2 -4.5,-1 -1.5,0 -1,-0.5 -2,-1 -11,-3 -13,-3 -14.99,-3 -18,-2 -19.01,-3 -11,-1 -10.99,-1.5 -23.01,-3 -25,-2 -25.5,-2 -13.99,-0.5 -13.51,-1 -14,-0.5 -14,-1 -14.5,0.5 -13.5,0.5 -13,1 -12,1 -12,2.5 -11,2.5 -10.5,3 -9.49,3.5 -9.51,4.5 -8.49,4 -13.51,8 -10.5,8 -3.5,4 -2.5,4 -3.49,3 -2.5,2.5 -4.51,6 -3.5,6.5 -1.5,3.5 -0.5,3 -1.49,8 0.49,8 1.5,8.5 3.01,9 2.99,10 4.5,9 10.51,16.5 6.5,8 7.49,7.5 8.01,7 9.49,6 8,6.5 7,6 5.5,5.5 4.5,5 2.5,5 1.51,4.5 -0.51,4.5 -1,4 -4.99,7.5 -4.51,6 -4,5 -3.5,3.5 13,3.5 14,2 14,1.5 30.5,0 16.51,-1.5 16.49,-2 18,-3.5"
         id="path36"
         style="fill:#ffffff;fill-opacity:1;fill-rule:evenodd;stroke:none" /><path
         d="m 909.973,1511.75 -9.996,6 -10.504,5.5 -11,5 -11.5,4 -13,4 -13.5,3.5 -14,3 -14.5,2 -15.5,2.5 -14.5,1 -14.496,0.5 -13.504,-1.5 -26.5,-4.5 -12.5,-3.5 -11.5,-5.5 -11.5,-5 -10,-5.5 -9,-5.5 -7,-6.5 -6,-6.5 -4.5,-7 -3.5,-7 -2,-8 1,-5 1.5,-4.5 3.5,-7 3.504,-4 4.996,-2 4.5,1 3,1.5 3.004,2 2.996,3 3,3.5 3,4 4,4.5 3,5.5 4,4.5 8.5,8 4.5,4 5.504,3 11.5,4.5 12.496,3.5 14,1.5 15,0.5 16.504,-1.5 -4.504,-15.5 -1.996,-7 -1.004,-7.5 -1.5,-6.5 -0.5,-7 -0.5,-6.5 0.5,-7 0.5,-11.5 2.504,-11 3.496,-9.5 5.504,-9.5 4.996,-7 5,-5 2,-1.5 1,-0.5 1.5,-1 5,-1.5 0,0.5 1.5,0 2,0.5 4.004,3 0,1.5 0.496,0 1,1 2,2.5 4,6 -7,11 -2.996,5.5 -2.004,5 -2.5,11 0,11 1.5,12 4,11 6.5,12 4.004,6 4.996,5.5 18,1.5 8,0.5 8.5,-0.5 16,-2 15,-4.5 15,-7 6.5,-3 6,-3 5,-2 4.5,-2 1.5,0 2,-0.5 1.5,0 2,-0.5 1,0.5 1.504,0 1.996,1 0,2.5 -0.5,1 0,1.5 -2,3 -3,3 -1,1 -0.5,0.5 -1,1 -2.5,2 -2.996,2.5 -2.504,2 -7,5 -7.5,5"
         id="path38"
         style="fill:#231f20;fill-opacity:1;fill-rule:evenodd;stroke:none" /><path
         d="m 1331.47,1622.25 -7.5,-16.5 -3,-8 -1.99,-8 -2.5,-7 -1.51,-7 -1.5,-6.5 -0.5,-6.5 -1,-5.5 0,-5.5 1.5,-10 2.5,-8 2,-3.5 3,-4 5.5,-5.5 7,-6 8,-5 9.5,-5.5 10.51,-4.5 11.99,-5 13.5,-4 15,-5 12,-0.5 5.5,0 6,-0.5 11,0 11,-0.5 10,0.5 10,0.5 9,1 9,0.5 7.5,2 3.51,1 3.99,0.5 7,2.5 7.01,2 5.99,3 6,3 5,3.5 5,3 16.51,5.5 16.49,4.5 15.5,4.5 16,3.5 14.5,3.5 14.5,2.5 14,2 14,1 12.5,1.5 25,0 12,-1 11,-1 11,-2 10.01,-2 9.99,-3.5 9,-3 9,-4 8.01,-4 7.99,-5.5 7,-5 7,-6.5 6.5,-6.5 6.5,-7.5 5,-7.5 5.01,-8.5 4.49,-8.5 4.51,-9.5 3.49,-9.5 3.5,-10.5 2.5,-11 2.5,-12 -2.99,-12.5 -3.01,-12.5 -2,-5.5 -1.49,-6 -4.01,-11.5 -4.99,-10 -5,-10 -6.01,-9 -6,-8.5 -4,-3.5 -3.49,-4 -7.51,-7 -8,-6 -8,-6 -9.5,-5 -5,-2 -2.5,-1 -2,-1.5 -10,-3.5 -10,-3.5 -11.5,-2 -11.99,-2 -12.51,-1 -6.5,0 -6,-0.5 -7,0.5 -6.49,0 -14.01,1 -7.5,1 -6.99,0.5 -14.51,2 -16,3 -16,3.5 -4.5,1.5 -4,1 -7.99,2 -17.01,4.5 -18,6 -18,6 -18.99,7 -19.01,7 0,-20 8,-7 5,-3.5 6.01,-4 5.49,-3 6.5,-3.5 7,-3 8.01,-3.5 7.49,-2.5 8.5,-3 8.51,-2.5 9.49,-3 9.5,-2 10.51,-2.5 22,-5 5,-0.5 5.49,-1 11,-1.5 10,-1 5,-0.5 5.5,-1 9,-0.5 4.5,0 5.01,-0.5 8.49,0 9,-0.5 7.5,1 0.51,0.5 6.99,0 7,1 7,0.5 6.01,2 2.99,1 0.5,0.5 3.01,0 5.49,2 2.5,1 3,0.5 14,7 3,2 1.51,1 1.99,0.5 7.01,3 12.49,7 12.01,7 10.49,8 10.01,7.5 9,8 4,4 1.99,2 1,1 1.5,0.5 7.01,9 2.99,4.5 3.51,4 5.49,9 1.01,2.5 1.49,2 3,4 3.5,10 3.51,9 2.5,10 0.49,5 1,4.5 0,20.5 -0.5,10 -0.99,9.5 -2.01,10 -2.5,9 -6,17.5 -4.5,9 -5,9 -11,16.5 -13.99,16 -16.01,14.5 -63,29.5 -1.99,10.5 -1.51,9.5 -3,18.5 -3.5,17.5 -3,16 -4,15.5 -2,7.5 -1.5,6.5 -4,13.5 -4,11.5 -5,11.5 -4,9.5 -5,9 -4,7.5 -5,7 -5,5.5 -5.5,4.5 -5,3 -16.5,8 -15.5,4.5 -15.5,2.5 -14,-1 -14,-3 -13,-6.5 -13,-9 -11.5,-12.5 -6.99,9.5 -6.5,7.5 -7.01,6.5 -6.5,5.5 -7.5,5.5 -7,3.5 -7.99,2.5 -7.01,1.5 -8.49,1.5 -8.01,-0.5 -17,-3.5 -9,-2.5 -8.5,-4.5 -9.5,-5 -9,-6.5 -18.5,-12.5 -17,-14 -15.5,-14.5 -13.99,-15.5 -13.01,-15.5 -11,-16.5 -9.5,-17 -8,-18 z m 43.5,-99.5 -8.5,5 -6.5,4 -6,4 -4.5,3 -3.49,3 -2.5,2.5 -1.51,2 0,1.5 5,24.5 7.5,23 8.5,21.5 5.01,10.5 5.99,9.5 5.51,10 6.49,9 14.5,17.5 16,16.5 18.5,14.5 8.5,7.5 9,5.5 8.5,4.5 9,3.5 8,3.5 8.5,1.5 7.51,0.5 7.99,-0.5 7,-0.5 7.5,-2.5 7.01,-2.5 6.99,-4.5 6,-4.5 6.5,-6.5 6,-6.5 6.51,-8.5 10.49,-7.5 8,3 5.5,9 6.5,7.5 7.01,6 7.5,4.5 7.49,4 8.01,2 8.49,1 9.51,-0.5 4,0 4.49,-1 4,-1.5 4.5,-2.5 3.51,-2 4,-3 7.99,-7.5 7,-8.5 7,-11 6,-12.5 3,-7 3.5,-8 2,-7 1,-3.5 1.5,-4 4.5,-14 0.5,-3 1.01,-3.5 1.49,-7 1.01,-6 0.49,-3 1,-3.5 0,-5.5 0.5,-6 0.51,-11 -1.51,-10 -0.99,-4.5 -0.51,-5 -57,-4.5 -0.5,1 0,0.5 -0.99,2.5 -1.01,2 -0.49,1 0,0.5 -2.01,4 -2.99,5.5 -2.01,3 -1,1.5 -0.5,1 -1.5,2 -1,1.5 -2,3 -4.99,7.5 -3.51,4.5 -3,3.5 -7,5.5 -4,2.5 -3.5,1.5 -4.49,1.5 -4,0.5 -5,1 -4.51,0 -10,-1.5 -5.5,-1 -5,-2 -11.5,-5.5 -13,8.5 -6.5,2.5 -6,1.5 -7,1 -6.5,-0.5 -6.99,-1.5 -6.01,-2.5 -7.5,-2.5 -6.99,-4.5 -7.01,-5.5 -7,-6.5 -8,-6.5 -7,-8.5 -7.5,-9.5 -7,-10.5 -22.5,-50 -2.5,0 -2,-0.5 -5,-0.5 -3,0.5 -2.49,0 -5.51,1 -2,1 -1,0.5 -0.49,0 -3.01,1 -7,2.5 -4,2 -2,1 -1,0.5 -0.5,0 -7.5,4"
         id="path40"
         style="fill:#231f20;fill-opacity:1;fill-rule:evenodd;stroke:none" /><path
         d="m 1341.97,1547.75 0,-1.5 1.51,-2 2.5,-2.5 3.49,-3 4.5,-3 6,-4 6.5,-4 8.5,-5 7.5,-4 0.5,0 1,-0.5 2,-1 4,-2 7,-2.5 3.01,-1 0.49,0 1,-0.5 2,-1 5.51,-1 2.49,0 3,-0.5 5,0.5 2,0.5 2.5,0 22.5,50 7,10.5 7.5,9.5 7,8.5 8,6.5 7,6.5 7.01,5.5 6.99,4.5 7.5,2.5 6.01,2.5 6.99,1.5 6.5,0.5 7,-1 6,-1.5 6.5,-2.5 13,-8.5 11.5,5.5 5,2 5.5,1 10,1.5 4.51,0 5,-1 4,-0.5 4.49,-1.5 3.5,-1.5 4,-2.5 7,-5.5 3,-3.5 3.51,-4.5 4.99,-7.5 2,-3 1,-1.5 1.5,-2 0.5,-1 1,-1.5 2.01,-3 2.99,-5.5 2.01,-4 0,-0.5 0.49,-1 1.01,-2 0.99,-2.5 0,-0.5 0.5,-1 57,4.5 0.51,5 0.99,4.5 1.51,10 -0.51,11 -0.5,6 0,5.5 -1,3.5 -0.49,3 -1.01,6 -1.49,7 -1.01,3.5 -0.5,3 -4.5,14 -1.5,4 -1,3.5 -2,7 -3.5,8 -3,7 -6,12.5 -7,11 -7,8.5 -7.99,7.5 -4,3 -3.51,2 -4.5,2.5 -4,1.5 -4.49,1 -4,0 -9.51,0.5 -8.49,-1 -8.01,-2 -7.49,-4 -7.5,-4.5 -7.01,-6 -6.5,-7.5 -5.5,-9 -8,-3 -10.49,7.5 -6.51,8.5 -6,6.5 -6.5,6.5 -6,4.5 -6.99,4.5 -7.01,2.5 -7.5,2.5 -7,0.5 -7.99,0.5 -7.51,-0.5 -8.5,-1.5 -8,-3.5 -9,-3.5 -8.5,-4.5 -9,-5.5 -8.5,-7.5 -18.5,-14.5 -16,-16.5 -14.5,-17.5 -6.49,-9 -5.51,-10 -5.99,-9.5 -5.01,-10.5 -8.5,-21.5 -7.5,-23 -5,-24.5"
         id="path42"
         style="fill:#ffffff;fill-opacity:1;fill-rule:evenodd;stroke:none" /><path
         d="m 1391.47,1338.25 20,66.5 -18,3.5 -16.49,2 -16.51,1.5 -30.5,0 -14,-1.5 -14,-2 -13,-3.5 3.5,-3.5 4,-5 4.51,-6 4.99,-7.5 1,-4 0.51,-4.5 -1.51,-4.5 -2.5,-5 -4.5,-5 -5.5,-5.5 -7,-6 -8,-6.5 -9.49,-6 -8.01,-7 -7.49,-7.5 -6.5,-8 -10.51,-16.5 -4.5,-9 -2.99,-10 -3.01,-9 -1.5,-8.5 -0.49,-8 1.49,-8 0.5,-3 1.5,-3.5 3.5,-6.5 4.51,-6 2.5,-2.5 3.49,-3 2.5,-4 3.5,-4 10.5,-8 13.51,-8 8.49,-4 9.51,-4.5 9.49,-3.5 10.5,-3 11,-2.5 12,-2.5 12,-1 13,-1 13.5,-0.5 14.5,-0.5 14,1 14,0.5 13.51,1 13.99,0.5 25.5,2 25,2 23.01,3 10.99,1.5 11,1 19.01,3 18,2 14.99,3 13,3 11,3 2,1 1,0.5 1.5,0 4.5,1 3,2 3.01,1.5 4.99,3 1,2 1,1.5 0.5,2 0,1 -2,4 -3.99,3 -3.01,2 -3,1.5 -8,3 -14.49,-1 -7.5,0 -7.01,-0.5 -16.5,0 -1.5,0.5 -14.99,0 -18.51,2 -5,1 -1.5,0.5 -3,0 -9,1 -10,2 -5,1 -1.5,0.5 -2.99,0 -10.51,2 -10,1.5 -11,3 -9.5,3 -9,4 -8,3.5 -8,5 -7,5 -6.5,5.5 -5,5.5 -5.49,7 -4.01,7 -4,7.5 -2.5,7.5 -2.5,8.5 -1.5,8.5 -0.99,9.5 0.49,9.5 z m -49.5,-105 3,7 4,5 3,3 4,0 3.01,-1 2.99,-3.5 3,-6 1.5,-3.5 2,-4.5 1,-4 0.5,-4 0,-3 -0.5,0 0,-3.5 -1.49,-2 -2.01,-2.5 -1.5,0 0,-0.5 -1,-1 -3,-2 -2.5,0 -2,-0.5 -4,-1 -9.5,-1 -11.5,0 -2,0.5 -11,0 -13.5,2.5 -11.5,4 -10.5,6 -4.49,4 -3.51,4 -3.5,5 -2.5,4.5 -1.5,5 0.5,4 1,5 2.5,5 3.5,5 2,2.5 3,2 5,4.5 5.01,3 5.49,1.5 6.01,-0.5 5.99,-1 6,-3 6.5,-4.5 7,-6 1.51,-9 1.99,-7.5 2.01,-5.5 1.99,-4 2,-2 2,-0.5 2,1 2,3"
         id="path44"
         style="fill:#231f20;fill-opacity:1;fill-rule:evenodd;stroke:none" /><path
         d="m 1355.97,1248.25 -4,0 -3,-3 -4,-5 -3,-7 -2,-3 -2,-1 -2,0.5 -2,2 -1.99,4 -2.01,5.5 -1.99,7.5 -1.51,9 -7,6 -6.5,4.5 -6,3 -5.99,1 -6.01,0.5 -5.49,-1.5 -5.01,-3 -5,-4.5 -3,-2 -2,-2.5 -3.5,-5 -2.5,-5 -1,-5 -0.5,-4 1.5,-5 2.5,-4.5 3.5,-5 3.51,-4 4.49,-4 10.5,-6 11.5,-4 13.5,-2.5 11,0 2,-0.5 11.5,0 9.5,1 4,1 2,0.5 2.5,0 3,2 1,1 0,0.5 1.5,0 2.01,2.5 1.49,2 0,3.5 0.5,0 0,3 -0.5,4 -1,4 -2,4.5 -1.5,3.5 -3,6 -2.99,3.5 -3.01,1"
         id="path46"
         style="fill:#ffffff;fill-opacity:1;fill-rule:evenodd;stroke:none" /><path
         d="m 124.973,633.25 -8,-8 -6,-8.004 -2.5,-3.496 -1.5,-4 -1.5,-7.5 -0.5,-6.5 0.5,-3.004 1.5,-3.496 4,-6 2.5,-3 3.5,-3.5 6,-5 3,-2.5 3.5,-3 12,-10 10.5,-9 5,-4 2.5,-2.004 3,-2.5 8.5,-6.996 8,-7.5 7,-6.5 6.5,-7 2,-3.004 3,-5 2.5,-6.5 3.004,-8 1.996,-8.996 3,-10.5 1,-5.5 1.5,-6.5 3,-14 1,-6.5 2,-6.5 2.5,-5.504 3.5,-5.996 3.5,-5 4.5,-5 4.5,-4.504 5.5,-4.496 5.5,-3 6.5,-3.5 6.5,-2.5 7.5,-3 7.5,-2 8.5,-2.004 9,-0.996 10,-1.504 9.504,0 9.996,0.504 21.5,1.996 10.5,2.004 11.5,2.5 11.5,2.996 12,3.504 11.5,4.496 12.5,5 25.5,11.004 13,6.5 13.504,6.996 13.496,7.5 14.5,8 11.5,6.004 6,6 7,5.996 7.5,7.004 8.5,7.5 8,8.496 9.5,8.504 9.5,9.496 10.5,10.004 9,10.496 3.5,5 4,4 2.5,4.504 3,3.5 4,6.5 1.5,5.5 0,4.496 -2,3.504 -3.5,1.496 -1.5,-0.496 -1.5,-1 -2.5,-1.5 -3.5,-2.004 -4.496,-1.996 -5.504,-2.5 -6.5,-2.5 -7.5,-3 -8.5,-3.004 -9.5,-3.496 -10.5,-3.5 -11.5,-4 -12.496,-4 -13.004,-4.5 -14.5,-5.004 -14.5,-5.496 -15.5,-4.504 -7.5,-1.996 -6.5,-2.5 -13.5,-3.504 -11.496,-3.5 -6.004,-0.996 -5,-1.5 -9.496,-2 -8.504,-1.5 -7.5,-1.5 -12,0 -4.5,0.5 -2.5,1 -2.5,1.996 -0.5,2.004 0.5,2.996 1.504,3.004 23.496,6.5 25.5,7 26.5,9 27.5,9.496 28,12.004 29.5,12.5 30.5,14.5 31.5,15.5 14.5,8.496 13,8.004 11.004,8 9.996,6.996 7,7.5 6,7.004 4.004,7 1.996,6.5 0,7 -1.996,5.996 -4.004,6.004 -4.996,5.496 -8.004,6.004 -9,5.496 -11,5.004 -12.5,4.5 -14.5,4.996 -14,4.004 -15,4 -14.5,3 -15.5,2.996 -15,2.004 -15.5,1.996 -14.996,1 -32.004,1.5 -16.5,0 -16,-0.996 -17,-1 -16.5,-2.004 -17,-1.996 -16.5,-3.004 -0.5,5 1.5,4 5.5,6.5 3.5,3.004 5.5,2.5 5.504,1.996 7.496,1.004 19,2.5 19,1.5 18,1 35,0 16.5,-1 16,-1.5 16,-2.5 11.5,0 12,-1.004 22.5,-3.496 10,-2 10.5,-3 9.5,-3.5 10,-4.504 3,12.5 0.504,6.004 0,5.5 -2.004,11 -2,5 -2.5,4.5 -3.5,5 -3.996,4.496 -4.504,4.004 -5,4 -5.996,4 -6.5,4 -7.004,3.5 -7.5,3 -18,6.996 -20,5.504 -23,5 -25,3.496 -27.996,4 -15.004,1.504 -15.5,0.996 -33,2.004 -35,0.496 -18.496,-0.496 -16.504,-1.5 -15.5,-1.5 -14.5,-3.004 -13.996,-2.5 -12.504,-3.996 -11.5,-4 -10.5,-5.004 -9.5,-5 -8.5,-5.996 -7.5,-6 -6.5,-7.5 -5.496,-7 -4.504,-8.5 -3.5,-8.504 -2,-9.496 -1.496,-4 -1.004,-4.504 -2,-9 -5,-17 -3,-7.5 -2.5,-7.996 -3,-7 -1,-1.5 -0.496,-2 -1.004,-4 -7,-12.504 -7,-11.996 -4,-5 -2,-2.5 -1.5,-3 -8,-10"
         id="path48"
         style="fill:#ffffff;fill-opacity:1;fill-rule:evenodd;stroke:none" /><path
         d="m 1080.47,459.75 93.5,-96.004 7,-6.996 1.5,-1.5 2,-2.004 4,-3.996 7,-7 1.51,-1.504 1.99,-1.996 4,-4 13.5,-14 14,-14 12.5,-13 13.01,-13 11.99,-12.004 6.01,-5.996 2.99,-3.004 1.5,-1.5 2.01,-1.996 10.99,-11 11,-11 10,-10.504 5,-5 1,-0.996 1.5,-1.5 3.01,-3.004 1.99,-1.996 1,-1 1.5,-1.5 5,-5 2.01,-2.004 0.99,-1 1.51,-1.5 4.99,-5 4.01,-4 1.99,-1.996 1,-1 1.5,-1.5 9,-8.504 7.5,-6.996 0.5,-0.504 1,-0.996 2.01,-2 3.99,-4 3,-3 0.5,-0.504 1,-1 2,-1.996 7,-6.5 1,-1 0.5,-0.5 1,-1 3,-3 6,-6 5,-5 5,-5.004 3.51,-3.996 3.99,-4 3,-3 3,-3.5 2,-2.004 2.01,-2.5 0.49,-0.496 1,-1 0.5,-0.5 1,-1 3.51,-4.504 4.99,-5.4999 6.51,-6.4961 7.99,-7.5039 -0.5,21.5039 0,58.5 -0.5,18.5 0,50.496 -1,31 0,28.5 -0.5,13.504 0,35.5 -1,22 -0.49,19.5 -0.51,18 0,15 -0.5,13.996 0,22.004 1.01,8 0,15.5 -0.51,8 0,7.996 -1,17.504 -1,9.496 -0.5,9 -365.5,-65.996"
         id="path50"
         style="fill:#ed1d29;fill-opacity:1;fill-rule:evenodd;stroke:none" /><path
         d="m 1547.98,543.25 3.49,-455.5 564,572.996 -567.49,-117.496"
         id="path52"
         style="fill:#ed1d29;fill-opacity:1;fill-rule:evenodd;stroke:none" /><path
         d="m 928.344,745.84 c 0,-15.723 -12.586,-25.981 -37.746,-30.774 -8.75,-1.664 -15.239,-0.746 -19.457,2.758 -4.219,3.504 -8.442,7.199 -12.661,11.082 -21.41,-4.078 -40.164,-14.453 -56.265,-31.129 -16.879,-17.578 -25.317,-36.57 -25.317,-56.98 0,-15.27 6.411,-26.371 19.223,-33.301 11.723,-6.234 25.711,-7.805 41.965,-4.711 15.941,3.039 28.519,8.004 37.742,14.903 6.563,4.878 16.254,15.191 29.07,30.937 l 3.754,-19.695 c 0,-25.399 -17.82,-45.2 -53.453,-59.395 -12.191,-4.89 -25.476,-8.707 -39.855,-11.445 -26.879,-5.121 -48.684,-3.227 -65.403,5.683 -18.914,10.004 -28.371,27.555 -28.371,52.649 0,34.172 14.696,65.691 44.075,94.574 27.82,27.371 59.781,44.496 95.882,51.375 15.004,2.856 28.446,3.676 40.325,2.461 17.66,-1.773 26.492,-8.105 26.492,-18.992"
         id="path54"
         style="fill:#231f20;fill-opacity:1;fill-rule:evenodd;stroke:none" /><path
         d="m 1085.41,699.793 c 0,-25.398 -9.69,-48.637 -29.07,-69.715 -19.38,-21.078 -42.27,-34.133 -68.688,-39.164 -20.007,-3.812 -36.414,-1.723 -49.23,6.27 -13.754,8.418 -20.633,22.148 -20.633,41.199 0,26.305 9.535,49.965 28.606,70.988 18.597,20.625 41.57,33.543 68.925,38.754 20.78,3.957 37.5,2.004 50.16,-5.867 13.29,-8.504 19.93,-22.66 19.93,-42.465 z M 962.098,666.551 c 0,-22.528 11.566,-31.586 34.695,-27.18 15.007,2.859 27.277,10.563 36.807,23.113 9.22,12.039 13.83,25.387 13.83,40.051 0,22.528 -11.56,31.59 -34.7,27.184 -15,-2.86 -27.343,-10.582 -37.035,-23.156 -9.062,-11.86 -13.597,-25.196 -13.597,-40.012"
         id="path56"
         style="fill:#231f20;fill-opacity:1;fill-rule:evenodd;stroke:none" /><path
         d="m 1170.27,638.398 c -1.72,-0.777 -8.75,-4.691 -21.09,-11.726 -8.76,-4.992 -16.1,-8.055 -22.04,-9.188 -27.67,-5.269 -41.5,7.368 -41.5,37.907 0,8.011 2.27,21.672 6.8,40.98 3.75,16.438 7.51,30.305 11.26,41.602 5.46,16.761 10.23,25.535 14.3,26.308 l 32.11,6.117 c 3.75,0.715 7.27,0.934 10.55,0.649 -20.16,-38.609 -30.24,-72.356 -30.24,-101.231 0,-21.015 7.03,-30.183 21.1,-27.503 24.23,4.613 38.92,27.218 44.07,67.812 1.72,13.328 2.58,28.609 2.58,45.848 l 0,5.894 c 0,1.813 0,4.457 0,7.938 0,3.324 0,5.894 0,7.711 l 2.11,1.988 4.42,1.293 35.44,6.75 c 1.56,-3.481 2.34,-8.777 2.34,-15.879 0,-8.922 -1.09,-23.188 -3.28,-42.809 -2.66,-23.937 -6.02,-44.382 -10.08,-61.336 -5.01,-20.906 -10.32,-31.898 -15.94,-32.968 -9.07,-1.727 -16.57,-2.325 -22.51,-1.793 -5.31,0.652 -12.11,2.531 -20.4,5.636"
         id="path58"
         style="fill:#231f20;fill-opacity:1;fill-rule:evenodd;stroke:none" /><path
         d="m 1355.24,764.23 c 0,19.583 -6.4,28.149 -19.22,25.711 -17.35,-3.308 -29.77,-14.746 -37.28,-34.316 -4.06,-10.754 -7.34,-29.52 -9.84,-56.301 -2.35,-25.847 -5.01,-42.078 -7.97,-48.687 l -3.99,-1.215 -35.63,-6.109 c -0.78,2.878 -1.17,4.464 -1.17,4.765 0,20.41 7.26,57.402 21.8,110.965 6.1,22.633 11.25,36.691 15.47,42.184 l 9.61,1.828 c 16.57,3.156 27.27,4.062 32.12,2.718 l -1.18,-2.492 c -1.4,-2.988 -2.02,-4.617 -1.87,-4.89 l 0,-3.856 2.81,-1.281 c 18.45,9.715 32.9,15.566 43.38,17.562 12.81,2.442 22.35,0.516 28.6,-5.742 6.25,-6.254 9.37,-15.676 9.37,-28.187 0,-6.16 -1.32,-17.336 -3.98,-33.528 -2.82,-17.277 -5.47,-30.711 -7.97,-40.41 -5.48,-21.527 -11.17,-33.082 -17.12,-34.668 -5.94,-1.586 -14.06,-3.437 -24.38,-5.551 l -21.33,-4.062 -3.52,2.051 c 9.38,16.222 17.04,33.289 22.98,51.129 6.87,20.019 10.31,37.453 10.31,52.382"
         id="path60"
         style="fill:#231f20;fill-opacity:1;fill-rule:evenodd;stroke:none" /><path
         d="m 1494.96,836.09 c 2.97,0.566 6.02,0.469 9.15,-0.297 l 1.64,-1.957 -9.14,-23.738 c -0.79,-0.149 -9.62,-0.922 -26.5,-2.325 -6.25,-5.574 -11.17,-18.457 -14.77,-38.644 -2.65,-15.02 -3.98,-28.957 -3.98,-41.805 0,-8.621 0.94,-17.133 2.81,-25.547 0.47,-1.875 1.8,-6.761 3.99,-14.66 -9.69,-5.324 -26.34,-10.23 -49.94,-14.726 -2.5,1.941 -3.75,6.769 -3.75,14.476 l 0,3.176 c 0,14.668 2.11,32.531 6.33,53.594 l 10.79,53.984 -1.18,1.367 c -11.25,-4.414 -19.53,-7.125 -24.85,-8.136 -0.47,0.816 -0.77,1.511 -0.93,2.089 -0.63,1.391 -0.94,2.161 -0.94,2.317 0,4.078 0.23,7.222 0.7,9.43 0,0.453 0.7,3.687 2.11,9.699 3.44,2.015 8.6,3.679 15.47,4.988 1.57,0.297 3.83,0.73 6.8,1.297 3.13,0.445 5.47,0.812 7.04,1.113 l 2.11,0.625 c 2.81,5.074 6.56,12.817 11.25,23.235 5.16,4.156 15.39,8.98 30.71,14.468 7.66,2.821 13.91,5.75 18.75,8.785 l 0,-2.265 c 0,-2.113 -1.4,-6.012 -4.22,-11.688 -6.71,-13.675 -10.31,-21.695 -10.78,-24.05 2.34,0.445 5.9,1.312 10.67,2.597 4.76,1.285 8.32,2.153 10.66,2.598"
         id="path62"
         style="fill:#231f20;fill-opacity:1;fill-rule:evenodd;stroke:none" /><path
         d="m 1687.9,916.383 c 27.35,5.211 50.48,0.773 69.39,-13.313 18.91,-14.086 28.37,-34.355 28.37,-60.816 0,-31.293 -10,-57.234 -30.01,-77.828 -18.91,-19.477 -44.77,-32.344 -77.6,-38.594 l -90.72,-17.285 -4.92,2.012 c -0.78,4.539 -1.18,8.242 -1.18,11.117 0,10.734 2.04,29.187 6.1,55.359 4.69,29.918 9.69,55.668 15.01,77.242 6.71,26.981 13.12,43.473 19.22,49.469 l 66.34,12.637 z m 45.95,-77.875 c 0,20.562 -6.72,34.851 -20.16,42.879 -12.19,7.351 -29.15,8.957 -50.87,4.82 -5.94,-9.598 -11.8,-29.16 -17.59,-58.684 -5.15,-26.683 -7.73,-47.054 -7.73,-61.113 0,-4.988 0.31,-8.558 0.94,-10.711 1.25,-4.445 3.83,-6.297 7.73,-5.554 25.32,4.824 45.79,14.39 61.42,28.71 17.51,16.036 26.26,35.918 26.26,59.653"
         id="path64"
         style="fill:#231f20;fill-opacity:1;fill-rule:evenodd;stroke:none" /><path
         d="m 1951.4,864.758 c 0,-25.399 -9.69,-48.637 -29.06,-69.715 -19.39,-21.078 -42.28,-34.133 -68.7,-39.164 -20,-3.813 -36.41,-1.723 -49.22,6.269 -13.76,8.418 -20.63,22.149 -20.63,41.2 0,26.304 9.53,49.968 28.6,70.988 18.59,20.625 41.57,33.543 68.92,38.754 20.78,3.957 37.51,2.004 50.17,-5.863 13.28,-8.508 19.92,-22.664 19.92,-42.469 z m -123.31,-33.242 c 0,-22.528 11.57,-31.586 34.7,-27.18 15,2.859 27.27,10.562 36.81,23.113 9.22,12.039 13.83,25.387 13.83,40.051 0,22.527 -11.57,31.59 -34.7,27.184 -15,-2.86 -27.35,-10.579 -37.04,-23.157 -9.06,-11.859 -13.6,-25.195 -13.6,-40.011"
         id="path66"
         style="fill:#231f20;fill-opacity:1;fill-rule:evenodd;stroke:none" /><path
         d="m 2045.88,835.586 c -1.56,-1.055 -13.44,-13.676 -35.63,-37.856 -9.07,-9.89 -14.93,-15.089 -17.59,-15.597 -11.71,-2.231 -22.27,9.215 -31.64,34.336 -7.82,20.89 -11.73,38.738 -11.73,53.554 0,26.004 3.91,44.516 11.73,55.528 3.59,0.683 8.94,1.59 16.05,2.719 7.11,1.128 12.47,2.035 16.06,2.718 3.91,0.746 7.89,1.731 11.96,2.957 l 2.11,-1.863 c -7.35,-17.199 -11.02,-36.644 -11.02,-58.379 0,-9.562 0.47,-16.996 1.41,-22.293 1.56,-8.816 4.69,-14.871 9.37,-18.246 12.82,9.09 22.9,23.938 30.25,44.535 l 15.47,63.953 29.54,5.625 c 4.06,1.457 7.03,2.473 8.91,3.059 l 2.34,-2.273 c -6.09,-24.407 -9.14,-42.071 -9.14,-52.997 0,-17.8 3.98,-32.726 11.96,-44.89 22.5,27.722 36.96,63.281 43.37,106.683 l 3.04,2.621 3.52,0.668 32.12,5.438 0,-2.719 c 0,-16.519 -6.25,-38.383 -18.76,-65.597 -10.94,-24.043 -22.97,-44.782 -36.1,-62.286 -16.41,-21.761 -31.18,-33.871 -44.31,-36.371 -5.78,3.625 -11.88,9.227 -18.28,16.813 -0.16,0.273 -5.16,6.992 -15.01,20.16"
         id="path68"
         style="fill:#231f20;fill-opacity:1;fill-rule:evenodd;stroke:none" /><path
         d="m 2292.04,942.684 c 0,19.578 -6.41,28.148 -19.23,25.707 -17.35,-3.305 -29.77,-14.743 -37.27,-34.317 -4.07,-10.75 -7.35,-29.515 -9.85,-56.297 -2.34,-25.847 -5,-42.078 -7.97,-48.691 l -3.99,-1.211 -35.63,-6.109 c -0.78,2.875 -1.17,4.464 -1.17,4.765 0,20.41 7.27,57.399 21.8,110.965 6.1,22.629 11.25,36.692 15.47,42.18 l 9.62,1.832 c 16.56,3.156 27.27,4.062 32.11,2.715 l -1.17,-2.489 c -1.41,-2.988 -2.03,-4.621 -1.88,-4.894 l 0,-3.856 2.82,-1.277 c 18.44,9.715 32.9,15.566 43.37,17.559 12.81,2.441 22.35,0.515 28.6,-5.739 6.25,-6.254 9.38,-15.675 9.38,-28.187 0,-6.16 -1.33,-17.336 -3.99,-33.527 -2.81,-17.282 -5.47,-30.711 -7.97,-40.411 -5.47,-21.527 -11.17,-33.082 -17.11,-34.668 -5.94,-1.586 -14.07,-3.437 -24.38,-5.55 l -21.34,-4.067 -3.51,2.051 c 9.37,16.227 17.03,33.293 22.97,51.133 6.88,20.015 10.32,37.453 10.32,52.383"
         id="path70"
         style="fill:#231f20;fill-opacity:1;fill-rule:evenodd;stroke:none" /></g></g></svg>