<?xml version="1.0" encoding="utf-8"?>
<!-- Generator: Adobe Illustrator 16.0.0, SVG Export Plug-In . SVG Version: 6.00 Build 0)  -->
<!DOCTYPE svg PUBLIC "-//W3C//DTD SVG 1.1//EN" "http://www.w3.org/Graphics/SVG/1.1/DTD/svg11.dtd">
<svg version="1.1" id="Ebene_3" xmlns="http://www.w3.org/2000/svg" xmlns:xlink="http://www.w3.org/1999/xlink" x="0px" y="0px"
	 width="1200px" height="800px" viewBox="0 0 1200 800" enable-background="new 0 0 1200 800" xml:space="preserve">
<g>
	<path fill="#B1E11C" d="M538.58,373.302c0-3,1.6-5,4.8-5h21c3,0,4.49,2.2,4.49,5v17.729c0,3-1.69,4.6-4.49,4.6h-21
		c-2.8,0-4.8-1.8-4.8-4.6V373.302z M539.59,406.802h28V513h-28V406.802z"/>
	<path fill="#B1E11C" d="M587.998,397.442c0-23.89,16.454-31.22,31.799-30.84c0,0,51.54,1.44,64.409,3.2v23.149h-57.809
		c-10.399,0-10.399,5.8-10.399,11.201v22.839l59.108,2.11v23.02l-59.108,1.89V513h-28V397.442z"/>
	<path fill="#B1E11C" d="M699.715,403.201c0-28.999,17.199-37.469,39.6-37.799c21.05-0.44,45.039,2.37,56.599,5.79v22.009
		c-12.8-1.13-41.639-2-48.899-2c-12.239-0.27-19.3,0.58-19.3,14.201v7.149c0,11.6,4.44,14.1,15.78,14.1h23.119
		c28.69,0,34.61,22.62,34.61,38.8v9.75c0,33.238-20.71,39.398-40.51,39.398c-24.979,0-41.35-1.529-56.489-5.99v-22.009
		c8,0.8,32.39,2.2,50.989,2.2c8.42,0,18.01-1.391,18.01-12.61v-7.88c0-8.32-2.52-13.66-13.21-13.66h-22.499
		c-35.3,0-37.8-26.069-37.8-38.799V403.201z"/>
	<path fill="#B1E11C" d="M818.035,366.602h64.049c22.85,0,39.85,10.69,39.85,45.65c0,36.239-15.18,40.539-23.311,43.1L926.343,513
		h-31.509l-24.2-55.398l-24.6-2.801V513h-27.999V366.602z M879.334,432.801c9.75,0,14.399-2.859,14.399-20.549
		c0-16.63-5.6-20.75-14.399-20.75h-33.189v41.299H879.334z"/>
</g>
<g>
	<path fill="#999999" d="M658.523,543.892c0-4.777,3.29-6.243,6.359-6.167c0,0,10.306,0.288,12.879,0.641v4.629h-11.56
		c-2.08,0-2.08,1.16-2.08,2.239v4.567l11.82,0.422v4.604l-11.82,0.378V567h-5.599V543.892z"/>
	<path fill="#999999" d="M678.486,559.587c0-3.089,1.67-5.824,6.222-5.824c0,0,6.239,0.039,6.239,0c0,0,0.039-1.32,0-1.36
		c0-2.264-1.061-2.619-2.84-2.619c-1.846,0-7.173,0.332-8.918,0.458v-3.458c2.795-1.086,5.717-1.401,9.676-1.42
		c4.573-0.018,7.681,1.563,7.681,6.819V567h-4.421l-1.178-2.34c-0.234,0.462-3.216,2.646-6.459,2.58
		c-4.086-0.11-6.002-2.892-6.002-5.653V559.587z M686.072,562.74c2.341,0,4.875-1.644,4.875-1.644v-3.893l-5.14,0.397
		c-1.478,0.138-1.722,1.231-1.722,2.159v1.032C684.086,562.559,685.042,562.74,686.072,562.74z"/>
	<path fill="#999999" d="M706.558,545.563c2.079,0,6.274,0.124,9.778,1.26v3.479c0,0-3.821-0.24-7.381-0.24
		c-2.576,0-3.797,0.154-3.797,6.415c0,5.438,0.918,6.224,3.797,6.224c3.68,0,7.66-0.374,7.66-0.374v3.515
		c-3.107,1.58-6.738,1.318-10.058,1.358c-3.96,0-6.999-2.07-6.999-10.839C699.559,547.611,702.479,545.563,706.558,545.563z"/>
	<path fill="#999999" d="M719.631,535.689h5.576v12.334c1.758-1.268,3.521-2.62,6.762-2.62c4.943,0,6.338,3.412,6.338,7.459V567
		h-5.599v-14.226c0-2.111-0.926-2.871-2.345-2.871c-2.254,0-3.484,0.579-5.134,1.839V567h-5.599V535.689z"/>
	<path fill="#999999" d="M741.006,551.282c0-3.279,1.4-5.719,5.52-5.719c4.081,0,9.7,0.132,11.34,1.08v3.533h-9.625
		c-1.438,0-1.635,0.45-1.635,1.458v0.96c0,1.342,0.705,1.378,1.635,1.378h5.044c4.052,0,5.639,2.401,5.639,5.488v2.18
		c0,4.359-2.64,5.56-5.198,5.56c-4.027,0-10.363-0.183-11.839-1.156v-3.497h10.034c0.374,0,1.404-0.046,1.404-1.346v-0.992
		c0-0.894-0.26-1.386-1.404-1.386h-4.955c-3.76,0-5.959-1.582-5.959-5.701V551.282z"/>
	<path fill="#999999" d="M768.637,545.563c2.08,0,6.275,0.124,9.778,1.26v3.479c0,0-3.821-0.24-7.381-0.24
		c-2.575,0-3.798,0.154-3.798,6.415c0,5.438,0.918,6.224,3.798,6.224c3.68,0,7.661-0.374,7.661-0.374v3.515
		c-3.107,1.58-6.739,1.318-10.059,1.358c-3.959,0-6.999-2.07-6.999-10.839C761.638,547.611,764.557,545.563,768.637,545.563z"/>
	<path fill="#999999" d="M781.709,535.689h5.578v12.334c1.758-1.268,3.521-2.62,6.76-2.62c4.943,0,6.34,3.412,6.34,7.459V567h-5.6
		v-14.226c0-2.111-0.926-2.871-2.346-2.871c-2.254,0-3.482,0.579-5.133,1.839V567h-5.6V535.689z"/>
	<path fill="#999999" d="M803.084,559.587c0-3.089,1.67-5.824,6.222-5.824c0,0,6.239,0.039,6.239,0c0,0,0.039-1.32,0-1.36
		c0-2.264-1.061-2.619-2.84-2.619c-1.846,0-7.173,0.332-8.918,0.458v-3.458c2.795-1.086,5.717-1.401,9.676-1.42
		c4.573-0.018,7.681,1.563,7.681,6.819V567h-4.421l-1.178-2.34c-0.234,0.462-3.216,2.646-6.459,2.58
		c-4.086-0.11-6.002-2.892-6.002-5.653V559.587z M810.67,562.74c2.341,0,4.875-1.644,4.875-1.644v-3.893l-5.14,0.397
		c-1.478,0.138-1.722,1.231-1.722,2.159v1.032C808.684,562.559,809.64,562.74,810.67,562.74z"/>
	<path fill="#999999" d="M823.243,546.443l3.329-0.68v-3.959c0-3.634,1.462-6.239,6.262-6.239c1.959,0,3.617,0.25,5.356,0.96v3.323
		c-0.04,0-3.819-0.04-3.819-0.04c-2.252-0.04-2.199,1.088-2.199,3.315v2.64h4.818v4.279h-4.818V567h-5.6v-16.957h-3.329V546.443z"/>
	<path fill="#999999" d="M839.363,546.884l3.431-1.16l0.94-5.919h4.658v5.919h4.748v4.279h-4.748v8.519
		c0,3.127,0.723,3.795,1.818,4.203c0,0,2.399,0.84,2.68,0.84v3.439h-4.883c-3.146,0-5.214-1.964-5.214-7.603v-9.398h-3.431V546.884z
		"/>
	<path fill="#999999" d="M855.205,551.282c0-3.279,1.399-5.719,5.519-5.719c4.081,0,9.7,0.132,11.341,1.08v3.533h-9.625
		c-1.438,0-1.636,0.45-1.636,1.458v0.96c0,1.342,0.706,1.378,1.636,1.378h5.043c4.052,0,5.639,2.401,5.639,5.488v2.18
		c0,4.359-2.639,5.56-5.198,5.56c-4.027,0-10.362-0.183-11.839-1.156v-3.497h10.035c0.373,0,1.403-0.046,1.403-1.346v-0.992
		c0-0.894-0.26-1.386-1.403-1.386h-4.955c-3.76,0-5.959-1.582-5.959-5.701V551.282z"/>
	<path fill="#999999" d="M876.148,545.764h4.719l0.881,2.68c1.471-1.422,3.451-2.897,6.092-2.897c0.918,0,1.799,0.036,2.366,0.254
		v5.405c-0.567-0.055-1.866-0.108-3.069-0.108c-2.32,0-4.004,0.378-5.389,2.363V567h-5.6V545.764z"/>
	<path fill="#999999" d="M892.204,559.587c0-3.089,1.67-5.824,6.222-5.824c0,0,6.238,0.039,6.238,0c0,0,0.04-1.32,0-1.36
		c0-2.264-1.06-2.619-2.84-2.619c-1.846,0-7.172,0.332-8.918,0.458v-3.458c2.795-1.086,5.717-1.401,9.676-1.42
		c4.574-0.018,7.682,1.563,7.682,6.819V567h-4.422l-1.178-2.34c-0.234,0.462-3.215,2.646-6.459,2.58
		c-4.085-0.11-6.001-2.892-6.001-5.653V559.587z M899.789,562.74c2.342,0,4.875-1.644,4.875-1.644v-3.893l-5.139,0.397
		c-1.479,0.138-1.723,1.231-1.723,2.159v1.032C897.803,562.559,898.76,562.74,899.789,562.74z"/>
	<path fill="#999999" d="M912.362,546.884l3.431-1.16l0.94-5.919h4.659v5.919h4.747v4.279h-4.747v8.519
		c0,3.127,0.723,3.795,1.818,4.203c0,0,2.398,0.84,2.679,0.84v3.439h-4.883c-3.146,0-5.214-1.964-5.214-7.603v-9.398h-3.431V546.884
		z"/>
	<path fill="#999999" d="M740.871,585.725h5.6V615h-5.6V585.725z"/>
	<path fill="#999999" d="M750.068,593.764h4.5l1.1,2.26c1.824-1.313,3.5-2.62,6.738-2.62c4.943,0,6.34,3.412,6.34,7.459V615h-5.6
		v-14.226c0-2.111-0.943-2.871-2.346-2.871c-2.254,0-3.482,0.579-5.133,1.839V615h-5.6V593.764z"/>
	<path fill="#999999" d="M770.843,594.443l3.329-0.68v-3.959c0-3.634,1.462-6.239,6.262-6.239c1.959,0,3.617,0.25,5.356,0.96v3.323
		c-0.04,0-3.819-0.04-3.819-0.04c-2.252-0.04-2.199,1.088-2.199,3.315v2.64h4.818v4.279h-4.818V615h-5.6v-16.957h-3.329V594.443z"/>
	<path fill="#999999" d="M796.766,593.563c7.313,0,9.688,2.68,9.688,11.118c0,7.879-2.266,10.519-9.688,10.519
		c-7.336,0-9.689-2.92-9.689-10.519C787.076,596.003,789.586,593.563,796.766,593.563z M796.766,610.701
		c3.152,0,4.089-0.429,4.089-6.02c0-5.949-0.752-6.619-4.089-6.619c-3.314,0-4.09,0.674-4.09,6.619
		C792.676,610.177,793.789,610.701,796.766,610.701z"/>
	<path fill="#999999" d="M809.789,593.764h4.719l0.88,2.68c1.472-1.422,3.451-2.897,6.093-2.897c0.918,0,1.798,0.036,2.365,0.254
		v5.405c-0.567-0.055-1.865-0.108-3.068-0.108c-2.32,0-4.004,0.378-5.39,2.363V615h-5.599V593.764z"/>
	<path fill="#999999" d="M826.469,593.764h4.499l1.1,2.296c1.89-1.356,3.409-2.602,6.612-2.602c2.71,0,4.63,1.027,5.506,2.745
		c1.903-1.39,4.339-2.745,7.635-2.745c4.691,0,6.339,3.177,6.339,7.477V615h-5.599v-14.153c0-1.986-0.926-2.89-2.346-2.89
		c-2.148,0-3.704,0.41-5.199,1.668c0,0.176,0.021,1.075,0.021,1.273V615h-5.6v-14.153c0-1.986-0.943-2.89-2.363-2.89
		c-2.199,0-3.357,0.562-5.007,1.821V615h-5.599V593.764z"/>
	<path fill="#999999" d="M860.844,607.587c0-3.089,1.67-5.824,6.222-5.824c0,0,6.239,0.039,6.239,0c0,0,0.039-1.32,0-1.36
		c0-2.264-1.061-2.619-2.84-2.619c-1.846,0-7.173,0.332-8.918,0.458v-3.458c2.795-1.086,5.717-1.401,9.676-1.42
		c4.573-0.018,7.681,1.563,7.681,6.819V615h-4.421l-1.178-2.34c-0.234,0.462-3.216,2.646-6.459,2.58
		c-4.086-0.11-6.002-2.892-6.002-5.653V607.587z M868.43,610.74c2.341,0,4.875-1.644,4.875-1.644v-3.893l-5.14,0.397
		c-1.478,0.138-1.722,1.231-1.722,2.159v1.032C866.443,610.559,867.399,610.74,868.43,610.74z"/>
	<path fill="#999999" d="M881.002,594.884l3.432-1.16l0.939-5.919h4.66v5.919h4.746v4.279h-4.746v8.519
		c0,3.127,0.722,3.795,1.817,4.203c0,0,2.399,0.84,2.679,0.84v3.439h-4.883c-3.145,0-5.213-1.964-5.213-7.603v-9.398h-3.432V594.884
		z"/>
	<path fill="#999999" d="M897.156,587.064c0-0.6,0.32-1,0.96-1h4.199c0.601,0,0.897,0.44,0.897,1v3.546c0,0.6-0.338,0.92-0.897,0.92
		h-4.199c-0.56,0-0.96-0.36-0.96-0.92V587.064z M897.358,593.764h5.599V615h-5.599V593.764z"/>
	<path fill="#999999" d="M906.548,583.726h5.599v17.157h1.16l6.029-7.119h7.089l-7.965,9.259L926.425,615h-6.649l-6.469-9.838h-1.16
		V615h-5.599V583.726z"/>
</g>
<path fill="#B1E11C" d="M279,574.196c18-17.196,72,0,108-45s54-108,36-162c-18-54-36-117,18-171s99-81,144-45s36,99,9,135
	s-81,63-108,99c-27,36-36,81-9,126s99,35.196,126,54s-36,18-135,18S261,591.393,279,574.196z"/>
<g>
</g>
<g>
</g>
<g>
</g>
<g>
</g>
<g>
</g>
<g>
</g>
<g>
</g>
<g>
</g>
<g>
</g>
<g>
</g>
<g>
</g>
<g>
</g>
<g>
</g>
<g>
</g>
<g>
</g>
</svg>
