<?xml version="1.0" encoding="UTF-8" standalone="no"?>
<!-- Created with Inkscape (http://www.inkscape.org/) -->

<svg
   xmlns:dc="http://purl.org/dc/elements/1.1/"
   xmlns:cc="http://creativecommons.org/ns#"
   xmlns:rdf="http://www.w3.org/1999/02/22-rdf-syntax-ns#"
   xmlns:svg="http://www.w3.org/2000/svg"
   xmlns="http://www.w3.org/2000/svg"
   xmlns:sodipodi="http://sodipodi.sourceforge.net/DTD/sodipodi-0.dtd"
   xmlns:inkscape="http://www.inkscape.org/namespaces/inkscape"
   width="148mm"
   height="48mm"
   viewBox="0 0 524.40945 170.07874"
   id="svg4848"
   version="1.1"
   inkscape:version="0.91 r13725"
   sodipodi:docname="github_cover.svg"
   inkscape:export-filename="/tmp/githubcover.jpg"
   inkscape:export-xdpi="10.36"
   inkscape:export-ydpi="10.36">
  <defs
     id="defs4850" />
  <sodipodi:namedview
     id="base"
     pagecolor="#ffffff"
     bordercolor="#666666"
     borderopacity="1.0"
     inkscape:pageopacity="0.0"
     inkscape:pageshadow="2"
     inkscape:zoom="0.9899495"
     inkscape:cx="201.17859"
     inkscape:cy="64.193493"
     inkscape:document-units="mm"
     inkscape:current-layer="layer4"
     showgrid="false"
     width="152mm"
     inkscape:window-width="1596"
     inkscape:window-height="861"
     inkscape:window-x="0"
     inkscape:window-y="37"
     inkscape:window-maximized="0"
     inkscape:snap-bbox="true"
     inkscape:snap-grids="false"
     inkscape:snap-to-guides="false"
     inkscape:snap-object-midpoints="true"
     inkscape:snap-global="false" />
  <metadata
     id="metadata4853">
    <rdf:RDF>
      <cc:Work
         rdf:about="">
        <dc:format>image/svg+xml</dc:format>
        <dc:type
           rdf:resource="http://purl.org/dc/dcmitype/StillImage" />
        <dc:title></dc:title>
      </cc:Work>
    </rdf:RDF>
  </metadata>
  <g
     inkscape:groupmode="layer"
     id="layer4"
     inkscape:label="BG"
     style="display:inline;opacity:1"
     transform="translate(0,-588.18897)">
    <rect
       x="-4.3449368"
       y="586.07642"
       width="28.958654"
       height="25.9282"
       id="rect28-1"
       style="fill:#6e4a94;stroke:none;stroke-width:0" />
    <rect
       x="-4.3449368"
       y="611.00739"
       width="28.958654"
       height="25.9282"
       id="rect30-3"
       style="fill:#6e4a94;stroke:none;stroke-width:0" />
    <rect
       x="-4.3449368"
       y="635.93835"
       width="28.958654"
       height="25.9282"
       id="rect32-05"
       style="fill:#6e4a94;stroke:none;stroke-width:0" />
    <rect
       x="-4.3449368"
       y="660.86932"
       width="28.958654"
       height="25.9282"
       id="rect34-0"
       style="fill:#6e4a94;stroke:none;stroke-width:0" />
    <rect
       x="-4.3449368"
       y="685.80029"
       width="28.958654"
       height="25.9282"
       id="rect36-5"
       style="fill:#6e4a94;stroke:none;stroke-width:0" />
    <rect
       x="-4.3449368"
       y="710.7312"
       width="28.958654"
       height="25.9282"
       id="rect38-8"
       style="fill:#6e4a94;stroke:none;stroke-width:0" />
    <rect
       x="-4.3449368"
       y="735.66217"
       width="28.958654"
       height="25.9282"
       id="rect40-9"
       style="fill:#6e4a94;stroke:none;stroke-width:0" />
    <rect
       x="23.616482"
       y="586.07642"
       width="25.9282"
       height="25.9282"
       id="rect88-3"
       style="fill:#7851a1;stroke:none;stroke-width:0" />
    <rect
       x="23.616482"
       y="611.00739"
       width="25.9282"
       height="25.9282"
       id="rect90-94"
       style="fill:#7851a1;stroke:none;stroke-width:0" />
    <rect
       x="23.616482"
       y="635.93835"
       width="25.9282"
       height="25.9282"
       id="rect92-0"
       style="fill:#7851a1;stroke:none;stroke-width:0" />
    <rect
       x="23.616482"
       y="660.86932"
       width="25.9282"
       height="25.9282"
       id="rect94-73"
       style="fill:#7851a1;stroke:none;stroke-width:0" />
    <rect
       x="23.616482"
       y="685.80029"
       width="25.9282"
       height="25.9282"
       id="rect96-4"
       style="fill:#7851a1;stroke:none;stroke-width:0" />
    <rect
       x="23.616482"
       y="710.7312"
       width="25.9282"
       height="25.9282"
       id="rect98-5"
       style="fill:#7851a1;stroke:none;stroke-width:0" />
    <rect
       x="23.616482"
       y="735.66217"
       width="25.9282"
       height="25.9282"
       id="rect100-2"
       style="fill:#7851a1;stroke:none;stroke-width:0" />
    <rect
       x="48.547443"
       y="586.07642"
       width="25.9282"
       height="25.9282"
       id="rect148-0"
       style="fill:#7851a1;stroke:none;stroke-width:0" />
    <rect
       x="48.547443"
       y="611.00739"
       width="25.9282"
       height="25.9282"
       id="rect150-52"
       style="fill:#8258ae;stroke:none;stroke-width:0" />
    <rect
       x="48.547443"
       y="635.93835"
       width="25.9282"
       height="25.9282"
       id="rect152-3"
       style="fill:#8258ae;stroke:none;stroke-width:0" />
    <rect
       x="48.547443"
       y="660.86932"
       width="25.9282"
       height="25.9282"
       id="rect154-0"
       style="fill:#8258ae;stroke:none;stroke-width:0" />
    <rect
       x="48.547443"
       y="685.80029"
       width="25.9282"
       height="25.9282"
       id="rect156-1"
       style="fill:#8258ae;stroke:none;stroke-width:0" />
    <rect
       x="48.547443"
       y="710.7312"
       width="25.9282"
       height="25.9282"
       id="rect158-77"
       style="fill:#8258ae;stroke:none;stroke-width:0" />
    <rect
       x="48.547443"
       y="735.66217"
       width="25.9282"
       height="25.9282"
       id="rect160-3"
       style="fill:#7851a1;stroke:none;stroke-width:0" />
    <rect
       x="73.478401"
       y="586.07642"
       width="25.9282"
       height="25.9282"
       id="rect208-5"
       style="fill:#8258ae;stroke:none;stroke-width:0" />
    <rect
       x="73.478401"
       y="611.00739"
       width="25.9282"
       height="25.9282"
       id="rect210-3"
       style="fill:#8c5fbc;stroke:none;stroke-width:0" />
    <rect
       x="73.478401"
       y="635.93835"
       width="25.9282"
       height="25.9282"
       id="rect212-2"
       style="fill:#8c5fbc;stroke:none;stroke-width:0" />
    <rect
       x="73.478401"
       y="660.86932"
       width="25.9282"
       height="25.9282"
       id="rect214-0"
       style="fill:#8c5fbc;stroke:none;stroke-width:0" />
    <rect
       x="73.478401"
       y="685.80029"
       width="25.9282"
       height="25.9282"
       id="rect216-7"
       style="fill:#8c5fbc;stroke:none;stroke-width:0" />
    <rect
       x="73.478401"
       y="710.7312"
       width="25.9282"
       height="25.9282"
       id="rect218-0"
       style="fill:#8c5fbc;stroke:none;stroke-width:0" />
    <rect
       x="73.478401"
       y="735.66217"
       width="25.9282"
       height="25.9282"
       id="rect220-22"
       style="fill:#8258ae;stroke:none;stroke-width:0" />
    <rect
       x="98.409363"
       y="586.07642"
       width="25.9282"
       height="25.9282"
       id="rect268-6"
       style="fill:#8c5fbc;stroke:none;stroke-width:0" />
    <rect
       x="98.409363"
       y="611.00739"
       width="25.9282"
       height="25.9282"
       id="rect270-4"
       style="fill:#8c5fbc;stroke:none;stroke-width:0" />
    <rect
       x="98.409363"
       y="635.93835"
       width="25.9282"
       height="25.9282"
       id="rect272-63"
       style="fill:#8c5fbc;stroke:none;stroke-width:0" />
    <rect
       x="98.409363"
       y="660.86932"
       width="25.9282"
       height="25.9282"
       id="rect274-98"
       style="fill:#8c5fbc;stroke:none;stroke-width:0" />
    <rect
       x="98.409363"
       y="685.80029"
       width="25.9282"
       height="25.9282"
       id="rect276-68"
       style="fill:#8c5fbc;stroke:none;stroke-width:0" />
    <rect
       x="98.409363"
       y="710.7312"
       width="25.9282"
       height="25.9282"
       id="rect278-1"
       style="fill:#8c5fbc;stroke:none;stroke-width:0" />
    <rect
       x="98.409363"
       y="735.66217"
       width="25.9282"
       height="25.9282"
       id="rect280-9"
       style="fill:#8c5fbc;stroke:none;stroke-width:0" />
    <rect
       x="123.34034"
       y="586.07642"
       width="25.9282"
       height="25.9282"
       id="rect328-4"
       style="fill:#8c5fbc;stroke:none;stroke-width:0" />
    <rect
       x="123.34034"
       y="611.00739"
       width="25.9282"
       height="25.9282"
       id="rect330-1"
       style="fill:#9666c9;stroke:none;stroke-width:0" />
    <rect
       x="123.34034"
       y="635.93835"
       width="25.9282"
       height="25.9282"
       id="rect332-2"
       style="fill:#9666c9;stroke:none;stroke-width:0" />
    <rect
       x="123.34034"
       y="660.86932"
       width="25.9282"
       height="25.9282"
       id="rect334-3"
       style="fill:#9666c9;stroke:none;stroke-width:0" />
    <rect
       x="123.34034"
       y="685.80029"
       width="25.9282"
       height="25.9282"
       id="rect336-27"
       style="fill:#9666c9;stroke:none;stroke-width:0" />
    <rect
       x="123.34034"
       y="710.7312"
       width="25.9282"
       height="25.9282"
       id="rect338-2"
       style="fill:#9666c9;stroke:none;stroke-width:0" />
    <rect
       x="123.34034"
       y="735.66217"
       width="25.9282"
       height="25.9282"
       id="rect340-87"
       style="fill:#8c5fbc;stroke:none;stroke-width:0" />
    <rect
       x="148.27129"
       y="586.07642"
       width="25.9282"
       height="25.9282"
       id="rect388-7"
       style="fill:#9666c9;stroke:none;stroke-width:0" />
    <rect
       x="148.27129"
       y="611.00739"
       width="25.9282"
       height="25.9282"
       id="rect390-2"
       style="fill:#a06cd7;stroke:none;stroke-width:0" />
    <rect
       x="148.27129"
       y="635.93835"
       width="25.9282"
       height="25.9282"
       id="rect392-54"
       style="fill:#a06cd7;stroke:none;stroke-width:0" />
    <rect
       x="148.27129"
       y="660.86932"
       width="25.9282"
       height="25.9282"
       id="rect394-2"
       style="fill:#a06cd7;stroke:none;stroke-width:0" />
    <rect
       x="148.27129"
       y="685.80029"
       width="25.9282"
       height="25.9282"
       id="rect396-66"
       style="fill:#a06cd7;stroke:none;stroke-width:0" />
    <rect
       x="148.27129"
       y="710.7312"
       width="25.9282"
       height="25.9282"
       id="rect398-5"
       style="fill:#a06cd7;stroke:none;stroke-width:0" />
    <rect
       x="148.27129"
       y="735.66217"
       width="25.9282"
       height="25.9282"
       id="rect400-5"
       style="fill:#9666c9;stroke:none;stroke-width:0" />
    <rect
       x="173.20226"
       y="586.07642"
       width="25.9282"
       height="25.9282"
       id="rect448-7"
       style="fill:#a06cd7;stroke:none;stroke-width:0" />
    <rect
       x="173.20226"
       y="611.00739"
       width="25.9282"
       height="25.9282"
       id="rect450-6"
       style="fill:#a06cd7;stroke:none;stroke-width:0" />
    <rect
       x="173.20226"
       y="635.93835"
       width="25.9282"
       height="25.9282"
       id="rect452-10"
       style="fill:#aa73e4;stroke:none;stroke-width:0" />
    <rect
       x="173.20226"
       y="660.86932"
       width="25.9282"
       height="25.9282"
       id="rect454-96"
       style="fill:#aa73e4;stroke:none;stroke-width:0" />
    <rect
       x="173.20226"
       y="685.80029"
       width="25.9282"
       height="25.9282"
       id="rect456-7"
       style="fill:#aa73e4;stroke:none;stroke-width:0" />
    <rect
       x="173.20226"
       y="710.7312"
       width="25.9282"
       height="25.9282"
       id="rect458-6"
       style="fill:#a06cd7;stroke:none;stroke-width:0" />
    <rect
       x="173.20226"
       y="735.66217"
       width="25.9282"
       height="25.9282"
       id="rect460-9"
       style="fill:#a06cd7;stroke:none;stroke-width:0" />
    <rect
       x="198.13321"
       y="586.07642"
       width="25.9282"
       height="25.9282"
       id="rect508-31"
       style="fill:#a06cd7;stroke:none;stroke-width:0" />
    <rect
       x="198.13321"
       y="611.00739"
       width="25.9282"
       height="25.9282"
       id="rect510-9"
       style="fill:#aa73e4;stroke:none;stroke-width:0" />
    <rect
       x="198.13321"
       y="635.93835"
       width="25.9282"
       height="25.9282"
       id="rect512-2"
       style="fill:#b47af2;stroke:none;stroke-width:0" />
    <rect
       x="198.13321"
       y="660.86932"
       width="25.9282"
       height="25.9282"
       id="rect514-0"
       style="fill:#b47af2;stroke:none;stroke-width:0" />
    <rect
       x="198.13321"
       y="685.80029"
       width="25.9282"
       height="25.9282"
       id="rect516-3"
       style="fill:#b47af2;stroke:none;stroke-width:0" />
    <rect
       x="198.13321"
       y="710.7312"
       width="25.9282"
       height="25.9282"
       id="rect518-06"
       style="fill:#aa73e4;stroke:none;stroke-width:0" />
    <rect
       x="198.13321"
       y="735.66217"
       width="25.9282"
       height="25.9282"
       id="rect520-4"
       style="fill:#a06cd7;stroke:none;stroke-width:0" />
    <rect
       x="223.06416"
       y="586.07642"
       width="25.9282"
       height="25.9282"
       id="rect568-60"
       style="fill:#aa73e4;stroke:none;stroke-width:0" />
    <rect
       x="223.06416"
       y="611.00739"
       width="25.9282"
       height="25.9282"
       id="rect570-6"
       style="fill:#b47af2;stroke:none;stroke-width:0" />
    <rect
       x="223.06416"
       y="635.93835"
       width="25.9282"
       height="25.9282"
       id="rect572-7"
       style="fill:#be81ff;stroke:none;stroke-width:0" />
    <rect
       x="223.06416"
       y="660.86932"
       width="25.9282"
       height="25.9282"
       id="rect574-8"
       style="fill:#be81ff;stroke:none;stroke-width:0" />
    <rect
       x="223.06416"
       y="685.80029"
       width="25.9282"
       height="25.9282"
       id="rect576-6"
       style="fill:#be81ff;stroke:none;stroke-width:0" />
    <rect
       x="223.06416"
       y="710.7312"
       width="25.9282"
       height="25.9282"
       id="rect578-2"
       style="fill:#b47af2;stroke:none;stroke-width:0" />
    <rect
       x="223.06416"
       y="735.66217"
       width="25.9282"
       height="25.9282"
       id="rect580-4"
       style="fill:#aa73e4;stroke:none;stroke-width:0" />
    <rect
       x="247.99513"
       y="586.07642"
       width="25.9282"
       height="25.9282"
       id="rect628-3"
       style="fill:#aa73e4;stroke:none;stroke-width:0" />
    <rect
       x="247.99513"
       y="611.00739"
       width="25.9282"
       height="25.9282"
       id="rect630-0"
       style="fill:#b47af2;stroke:none;stroke-width:0" />
    <rect
       x="247.99513"
       y="635.93835"
       width="25.9282"
       height="25.9282"
       id="rect632-75"
       style="fill:#be81ff;stroke:none;stroke-width:0" />
    <rect
       x="247.99513"
       y="660.86932"
       width="25.9282"
       height="25.9282"
       id="rect634-6"
       style="fill:#be81ff;stroke:none;stroke-width:0" />
    <rect
       x="247.99513"
       y="685.80029"
       width="25.9282"
       height="25.9282"
       id="rect636-2"
       style="fill:#be81ff;stroke:none;stroke-width:0" />
    <rect
       x="247.99513"
       y="710.7312"
       width="25.9282"
       height="25.9282"
       id="rect638-8"
       style="fill:#b47af2;stroke:none;stroke-width:0" />
    <rect
       x="247.99513"
       y="735.66217"
       width="25.9282"
       height="25.9282"
       id="rect640-4"
       style="fill:#aa73e4;stroke:none;stroke-width:0" />
    <rect
       x="272.92612"
       y="586.07642"
       width="25.9282"
       height="25.9282"
       id="rect688-90"
       style="fill:#aa73e4;stroke:none;stroke-width:0" />
    <rect
       x="272.92612"
       y="611.00739"
       width="25.9282"
       height="25.9282"
       id="rect690-95"
       style="fill:#b47af2;stroke:none;stroke-width:0" />
    <rect
       x="272.92612"
       y="635.93835"
       width="25.9282"
       height="25.9282"
       id="rect692-2"
       style="fill:#be81ff;stroke:none;stroke-width:0" />
    <rect
       x="272.92612"
       y="660.86932"
       width="25.9282"
       height="25.9282"
       id="rect694-9"
       style="fill:#be81ff;stroke:none;stroke-width:0" />
    <rect
       x="272.92612"
       y="685.80029"
       width="25.9282"
       height="25.9282"
       id="rect696-7"
       style="fill:#be81ff;stroke:none;stroke-width:0" />
    <rect
       x="272.92612"
       y="710.7312"
       width="25.9282"
       height="25.9282"
       id="rect698-24"
       style="fill:#b47af2;stroke:none;stroke-width:0" />
    <rect
       x="272.92612"
       y="735.66217"
       width="25.9282"
       height="25.9282"
       id="rect700-53"
       style="fill:#aa73e4;stroke:none;stroke-width:0" />
    <rect
       x="297.85706"
       y="586.07642"
       width="25.9282"
       height="25.9282"
       id="rect748-73"
       style="fill:#a06cd7;stroke:none;stroke-width:0" />
    <rect
       x="297.85706"
       y="611.00739"
       width="25.9282"
       height="25.9282"
       id="rect750-52"
       style="fill:#aa73e4;stroke:none;stroke-width:0" />
    <rect
       x="297.85706"
       y="635.93835"
       width="25.9282"
       height="25.9282"
       id="rect752-2"
       style="fill:#b47af2;stroke:none;stroke-width:0" />
    <rect
       x="297.85706"
       y="660.86932"
       width="25.9282"
       height="25.9282"
       id="rect754-77"
       style="fill:#b47af2;stroke:none;stroke-width:0" />
    <rect
       x="297.85706"
       y="685.80029"
       width="25.9282"
       height="25.9282"
       id="rect756-9"
       style="fill:#b47af2;stroke:none;stroke-width:0" />
    <rect
       x="297.85706"
       y="710.7312"
       width="25.9282"
       height="25.9282"
       id="rect758-8"
       style="fill:#aa73e4;stroke:none;stroke-width:0" />
    <rect
       x="297.85706"
       y="735.66217"
       width="25.9282"
       height="25.9282"
       id="rect760-3"
       style="fill:#a06cd7;stroke:none;stroke-width:0" />
    <rect
       x="322.78802"
       y="586.07642"
       width="25.9282"
       height="25.9282"
       id="rect808-3"
       style="fill:#a06cd7;stroke:none;stroke-width:0" />
    <rect
       x="322.78802"
       y="611.00739"
       width="25.9282"
       height="25.9282"
       id="rect810-18"
       style="fill:#a06cd7;stroke:none;stroke-width:0" />
    <rect
       x="322.78802"
       y="635.93835"
       width="25.9282"
       height="25.9282"
       id="rect812-5"
       style="fill:#aa73e4;stroke:none;stroke-width:0" />
    <rect
       x="322.78802"
       y="660.86932"
       width="25.9282"
       height="25.9282"
       id="rect814-1"
       style="fill:#aa73e4;stroke:none;stroke-width:0" />
    <rect
       x="322.78802"
       y="685.80029"
       width="25.9282"
       height="25.9282"
       id="rect816-7"
       style="fill:#aa73e4;stroke:none;stroke-width:0" />
    <rect
       x="322.78802"
       y="710.7312"
       width="25.9282"
       height="25.9282"
       id="rect818-0"
       style="fill:#a06cd7;stroke:none;stroke-width:0" />
    <rect
       x="322.78802"
       y="735.66217"
       width="25.9282"
       height="25.9282"
       id="rect820-7"
       style="fill:#a06cd7;stroke:none;stroke-width:0" />
    <rect
       x="347.71899"
       y="586.07642"
       width="25.9282"
       height="25.9282"
       id="rect868-1"
       style="fill:#9666c9;stroke:none;stroke-width:0" />
    <rect
       x="347.71899"
       y="611.00739"
       width="25.9282"
       height="25.9282"
       id="rect870-3"
       style="fill:#a06cd7;stroke:none;stroke-width:0" />
    <rect
       x="347.71899"
       y="635.93835"
       width="25.9282"
       height="25.9282"
       id="rect872-3"
       style="fill:#a06cd7;stroke:none;stroke-width:0" />
    <rect
       x="347.71899"
       y="660.86932"
       width="25.9282"
       height="25.9282"
       id="rect874-0"
       style="fill:#a06cd7;stroke:none;stroke-width:0" />
    <rect
       x="347.71899"
       y="685.80029"
       width="25.9282"
       height="25.9282"
       id="rect876-2"
       style="fill:#a06cd7;stroke:none;stroke-width:0" />
    <rect
       x="347.71899"
       y="710.7312"
       width="25.9282"
       height="25.9282"
       id="rect878-3"
       style="fill:#a06cd7;stroke:none;stroke-width:0" />
    <rect
       x="347.71899"
       y="735.66217"
       width="25.9282"
       height="25.9282"
       id="rect880-0"
       style="fill:#9666c9;stroke:none;stroke-width:0" />
    <rect
       x="372.64996"
       y="586.07642"
       width="25.9282"
       height="25.9282"
       id="rect928-4"
       style="fill:#8c5fbc;stroke:none;stroke-width:0" />
    <rect
       x="372.64996"
       y="611.00739"
       width="25.9282"
       height="25.9282"
       id="rect930-1"
       style="fill:#9666c9;stroke:none;stroke-width:0" />
    <rect
       x="372.64996"
       y="635.93835"
       width="25.9282"
       height="25.9282"
       id="rect932-7"
       style="fill:#9666c9;stroke:none;stroke-width:0" />
    <rect
       x="372.64996"
       y="660.86932"
       width="25.9282"
       height="25.9282"
       id="rect934-0"
       style="fill:#9666c9;stroke:none;stroke-width:0" />
    <rect
       x="372.64996"
       y="685.80029"
       width="25.9282"
       height="25.9282"
       id="rect936-4"
       style="fill:#9666c9;stroke:none;stroke-width:0" />
    <rect
       x="372.64996"
       y="710.7312"
       width="25.9282"
       height="25.9282"
       id="rect938-87"
       style="fill:#9666c9;stroke:none;stroke-width:0" />
    <rect
       x="372.64996"
       y="735.66217"
       width="25.9282"
       height="25.9282"
       id="rect940-2"
       style="fill:#8c5fbc;stroke:none;stroke-width:0" />
    <rect
       x="397.5809"
       y="586.07642"
       width="25.9282"
       height="25.9282"
       id="rect988-8"
       style="fill:#8c5fbc;stroke:none;stroke-width:0" />
    <rect
       x="397.5809"
       y="611.00739"
       width="25.9282"
       height="25.9282"
       id="rect990-5"
       style="fill:#8c5fbc;stroke:none;stroke-width:0" />
    <rect
       x="397.5809"
       y="635.93835"
       width="25.9282"
       height="25.9282"
       id="rect992-1"
       style="fill:#8c5fbc;stroke:none;stroke-width:0" />
    <rect
       x="397.5809"
       y="660.86932"
       width="25.9282"
       height="25.9282"
       id="rect994-4"
       style="fill:#8c5fbc;stroke:none;stroke-width:0" />
    <rect
       x="397.5809"
       y="685.80029"
       width="25.9282"
       height="25.9282"
       id="rect996-87"
       style="fill:#8c5fbc;stroke:none;stroke-width:0" />
    <rect
       x="397.5809"
       y="710.7312"
       width="25.9282"
       height="25.9282"
       id="rect998-6"
       style="fill:#8c5fbc;stroke:none;stroke-width:0" />
    <rect
       x="397.5809"
       y="735.66217"
       width="25.9282"
       height="25.9282"
       id="rect1000-0"
       style="fill:#8c5fbc;stroke:none;stroke-width:0" />
    <rect
       x="422.51187"
       y="586.07642"
       width="25.9282"
       height="25.9282"
       id="rect1048-1"
       style="fill:#8258ae;stroke:none;stroke-width:0" />
    <rect
       x="422.51187"
       y="611.00739"
       width="25.9282"
       height="25.9282"
       id="rect1050-05"
       style="fill:#8c5fbc;stroke:none;stroke-width:0" />
    <rect
       x="422.51187"
       y="635.93835"
       width="25.9282"
       height="25.9282"
       id="rect1052-17"
       style="fill:#8c5fbc;stroke:none;stroke-width:0" />
    <rect
       x="422.51187"
       y="660.86932"
       width="25.9282"
       height="25.9282"
       id="rect1054-35"
       style="fill:#8c5fbc;stroke:none;stroke-width:0" />
    <rect
       x="422.51187"
       y="685.80029"
       width="25.9282"
       height="25.9282"
       id="rect1056-64"
       style="fill:#8c5fbc;stroke:none;stroke-width:0" />
    <rect
       x="422.51187"
       y="710.7312"
       width="25.9282"
       height="25.9282"
       id="rect1058-6"
       style="fill:#8c5fbc;stroke:none;stroke-width:0" />
    <rect
       x="422.51187"
       y="735.66217"
       width="25.9282"
       height="25.9282"
       id="rect1060-83"
       style="fill:#8258ae;stroke:none;stroke-width:0" />
    <rect
       x="447.44284"
       y="586.07642"
       width="25.9282"
       height="25.9282"
       id="rect1108-9"
       style="fill:#7851a1;stroke:none;stroke-width:0" />
    <rect
       x="447.44284"
       y="611.00739"
       width="25.9282"
       height="25.9282"
       id="rect1110-7"
       style="fill:#8258ae;stroke:none;stroke-width:0" />
    <rect
       x="447.44284"
       y="635.93835"
       width="25.9282"
       height="25.9282"
       id="rect1112-1"
       style="fill:#8258ae;stroke:none;stroke-width:0" />
    <rect
       x="447.44284"
       y="660.86932"
       width="25.9282"
       height="25.9282"
       id="rect1114-6"
       style="fill:#8258ae;stroke:none;stroke-width:0" />
    <rect
       x="447.44284"
       y="685.80029"
       width="25.9282"
       height="25.9282"
       id="rect1116-8"
       style="fill:#8258ae;stroke:none;stroke-width:0" />
    <rect
       x="447.44284"
       y="710.7312"
       width="25.9282"
       height="25.9282"
       id="rect1118-2"
       style="fill:#8258ae;stroke:none;stroke-width:0" />
    <rect
       x="447.44284"
       y="735.66217"
       width="25.9282"
       height="25.9282"
       id="rect1120-5"
       style="fill:#7851a1;stroke:none;stroke-width:0" />
    <rect
       x="472.37381"
       y="586.07642"
       width="25.9282"
       height="25.9282"
       id="rect1168-0"
       style="fill:#7851a1;stroke:none;stroke-width:0" />
    <rect
       x="472.37381"
       y="611.00739"
       width="25.9282"
       height="25.9282"
       id="rect1170-4"
       style="fill:#7851a1;stroke:none;stroke-width:0" />
    <rect
       x="472.37381"
       y="635.93835"
       width="25.9282"
       height="25.9282"
       id="rect1172-7"
       style="fill:#7851a1;stroke:none;stroke-width:0" />
    <rect
       x="472.37381"
       y="660.86932"
       width="25.9282"
       height="25.9282"
       id="rect1174-3"
       style="fill:#7851a1;stroke:none;stroke-width:0" />
    <rect
       x="472.37381"
       y="685.80029"
       width="25.9282"
       height="25.9282"
       id="rect1176-39"
       style="fill:#7851a1;stroke:none;stroke-width:0" />
    <rect
       x="472.37381"
       y="710.7312"
       width="25.9282"
       height="25.9282"
       id="rect1178-5"
       style="fill:#7851a1;stroke:none;stroke-width:0" />
    <rect
       x="472.37381"
       y="735.66217"
       width="25.9282"
       height="25.9282"
       id="rect1180-0"
       style="fill:#7851a1;stroke:none;stroke-width:0" />
    <rect
       x="497.30475"
       y="586.07642"
       width="30.978964"
       height="25.9282"
       id="rect1228-6"
       style="fill:#6e4a94;stroke:none;stroke-width:0" />
    <rect
       x="497.30475"
       y="611.00739"
       width="30.978964"
       height="25.9282"
       id="rect1230-2"
       style="fill:#6e4a94;stroke:none;stroke-width:0" />
    <rect
       x="497.30475"
       y="635.93835"
       width="30.978964"
       height="25.9282"
       id="rect1232-08"
       style="fill:#6e4a94;stroke:none;stroke-width:0" />
    <rect
       x="497.30475"
       y="660.86932"
       width="30.978964"
       height="25.9282"
       id="rect1234-0"
       style="fill:#6e4a94;stroke:none;stroke-width:0" />
    <rect
       x="497.30475"
       y="685.80029"
       width="30.978964"
       height="25.9282"
       id="rect1236-8"
       style="fill:#6e4a94;stroke:none;stroke-width:0" />
    <rect
       x="497.30475"
       y="710.7312"
       width="30.978964"
       height="25.9282"
       id="rect1238-9"
       style="fill:#6e4a94;stroke:none;stroke-width:0" />
    <rect
       x="497.30475"
       y="735.66217"
       width="30.978964"
       height="25.9282"
       id="rect1240-3"
       style="fill:#6e4a94;stroke:none;stroke-width:0" />
  </g>
  <g
     inkscape:groupmode="layer"
     id="layer2"
     inkscape:label="Text"
     style="display:inline"
     transform="translate(0,-588.18897)"
     sodipodi:insensitive="true">
    <text
       xml:space="preserve"
       style="font-style:normal;font-variant:normal;font-weight:normal;font-stretch:normal;font-size:15px;line-height:100%;font-family:'Times New Roman';-inkscape-font-specification:'Times New Roman, Normal';text-align:start;letter-spacing:0px;word-spacing:0px;writing-mode:lr-tb;text-anchor:start;fill:#000000;fill-opacity:1;stroke:#000000;stroke-width:0.30000001;stroke-linecap:butt;stroke-linejoin:miter;stroke-miterlimit:4;stroke-dasharray:none;stroke-opacity:1"
       x="513.27087"
       y="709.78046"
       id="text6211"
       sodipodi:linespacing="100%"><tspan
         sodipodi:role="line"
         id="tspan6213"
         x="513.27087"
         y="709.78046"
         style="font-style:normal;font-variant:normal;font-weight:500;font-stretch:normal;font-size:45px;font-family:Exo;-inkscape-font-specification:'Exo Medium';text-align:end;text-anchor:end;fill:#ffffff;stroke:#000000;stroke-width:0.30000001;stroke-miterlimit:4;stroke-dasharray:none;stroke-opacity:1">NO PANIC</tspan><tspan
         sodipodi:role="line"
         x="513.27087"
         y="743.47119"
         style="font-style:normal;font-variant:normal;font-weight:500;font-stretch:normal;font-size:30px;font-family:Exo;-inkscape-font-specification:'Exo Medium';text-align:end;text-anchor:end;fill:#ffffff;stroke:#000000;stroke-width:0.30000001;stroke-miterlimit:4;stroke-dasharray:none;stroke-opacity:1"
         id="tspan6215">ese.ifsr.de</tspan></text>
    <g
       style="fill:#ffffff;stroke:#000000;stroke-width:1.5200603;stroke-miterlimit:4;stroke-dasharray:none;stroke-opacity:1"
       id="g3"
       transform="matrix(0.19736059,0,0,0.19736059,-41.98463,628.31969)">
      <path
         style="fill:#ffffff;stroke:#000000;stroke-width:1.5200603;stroke-miterlimit:4;stroke-dasharray:none;stroke-opacity:1"
         d="m 538.58,373.302 c 0,-3 1.6,-5 4.8,-5 l 21,0 c 3,0 4.49,2.2 4.49,5 l 0,17.729 c 0,3 -1.69,4.6 -4.49,4.6 l -21,0 c -2.8,0 -4.8,-1.8 -4.8,-4.6 l 0,-17.729 z m 1.01,33.5 28,0 0,106.198 -28,0 0,-106.198 z"
         id="path5"
         inkscape:connector-curvature="0" />
      <path
         style="fill:#ffffff;stroke:#000000;stroke-width:1.5200603;stroke-miterlimit:4;stroke-dasharray:none;stroke-opacity:1"
         d="m 587.998,397.442 c 0,-23.89 16.454,-31.22 31.799,-30.84 0,0 51.54,1.44 64.409,3.2 l 0,23.149 -57.809,0 c -10.399,0 -10.399,5.8 -10.399,11.201 l 0,22.839 59.108,2.11 0,23.02 -59.108,1.89 0,58.989 -28,0 0,-115.558 z"
         id="path7"
         inkscape:connector-curvature="0" />
      <path
         style="fill:#ffffff;stroke:#000000;stroke-width:1.5200603;stroke-miterlimit:4;stroke-dasharray:none;stroke-opacity:1"
         d="m 699.715,403.201 c 0,-28.999 17.199,-37.469 39.6,-37.799 21.05,-0.44 45.039,2.37 56.599,5.79 l 0,22.009 c -12.8,-1.13 -41.639,-2 -48.899,-2 -12.239,-0.27 -19.3,0.58 -19.3,14.201 l 0,7.149 c 0,11.6 4.44,14.1 15.78,14.1 l 23.119,0 c 28.69,0 34.61,22.62 34.61,38.8 l 0,9.75 c 0,33.238 -20.71,39.398 -40.51,39.398 -24.979,0 -41.35,-1.529 -56.489,-5.99 l 0,-22.009 c 8,0.8 32.39,2.2 50.989,2.2 8.42,0 18.01,-1.391 18.01,-12.61 l 0,-7.88 c 0,-8.32 -2.52,-13.66 -13.21,-13.66 l -22.499,0 c -35.3,0 -37.8,-26.069 -37.8,-38.799 l 0,-12.65 z"
         id="path9"
         inkscape:connector-curvature="0" />
      <path
         style="fill:#ffffff;stroke:#000000;stroke-width:1.5200603;stroke-miterlimit:4;stroke-dasharray:none;stroke-opacity:1"
         d="m 818.035,366.602 64.049,0 c 22.85,0 39.85,10.69 39.85,45.65 0,36.239 -15.18,40.539 -23.311,43.1 l 27.72,57.648 -31.509,0 -24.2,-55.398 -24.6,-2.801 0,58.199 -27.999,0 0,-146.398 z m 61.299,66.199 c 9.75,0 14.399,-2.859 14.399,-20.549 0,-16.63 -5.6,-20.75 -14.399,-20.75 l -33.189,0 0,41.299 33.189,0 z"
         id="path11"
         inkscape:connector-curvature="0" />
    </g>
    <g
       style="fill:#ffffff;stroke:#000000;stroke-width:0.50668675;stroke-miterlimit:4;stroke-dasharray:none;stroke-opacity:1"
       id="g13"
       transform="matrix(0.19736059,0,0,0.19736059,-41.98463,628.31969)">
      <path
         style="fill:#ffffff;stroke:#000000;stroke-width:0.50668675;stroke-miterlimit:4;stroke-dasharray:none;stroke-opacity:1"
         d="m 658.523,543.892 c 0,-4.777 3.29,-6.243 6.359,-6.167 0,0 10.306,0.288 12.879,0.641 l 0,4.629 -11.56,0 c -2.08,0 -2.08,1.16 -2.08,2.239 l 0,4.567 11.82,0.422 0,4.604 -11.82,0.378 0,11.795 -5.599,0 0,-23.108 z"
         id="path15"
         inkscape:connector-curvature="0" />
      <path
         style="fill:#ffffff;stroke:#000000;stroke-width:0.50668675;stroke-miterlimit:4;stroke-dasharray:none;stroke-opacity:1"
         d="m 678.486,559.587 c 0,-3.089 1.67,-5.824 6.222,-5.824 0,0 6.239,0.039 6.239,0 0,0 0.039,-1.32 0,-1.36 0,-2.264 -1.061,-2.619 -2.84,-2.619 -1.846,0 -7.173,0.332 -8.918,0.458 l 0,-3.458 c 2.795,-1.086 5.717,-1.401 9.676,-1.42 4.573,-0.018 7.681,1.563 7.681,6.819 l 0,14.817 -4.421,0 -1.178,-2.34 c -0.234,0.462 -3.216,2.646 -6.459,2.58 -4.086,-0.11 -6.002,-2.892 -6.002,-5.653 l 0,-2 z m 7.586,3.153 c 2.341,0 4.875,-1.644 4.875,-1.644 l 0,-3.893 -5.14,0.397 c -1.478,0.138 -1.722,1.231 -1.722,2.159 l 0,1.032 c 10e-4,1.768 0.957,1.949 1.987,1.949 z"
         id="path17"
         inkscape:connector-curvature="0" />
      <path
         style="fill:#ffffff;stroke:#000000;stroke-width:0.50668675;stroke-miterlimit:4;stroke-dasharray:none;stroke-opacity:1"
         d="m 706.558,545.563 c 2.079,0 6.274,0.124 9.778,1.26 l 0,3.479 c 0,0 -3.821,-0.24 -7.381,-0.24 -2.576,0 -3.797,0.154 -3.797,6.415 0,5.438 0.918,6.224 3.797,6.224 3.68,0 7.66,-0.374 7.66,-0.374 l 0,3.515 c -3.107,1.58 -6.738,1.318 -10.058,1.358 -3.96,0 -6.999,-2.07 -6.999,-10.839 10e-4,-8.75 2.921,-10.798 7,-10.798 z"
         id="path19"
         inkscape:connector-curvature="0" />
      <path
         style="fill:#ffffff;stroke:#000000;stroke-width:0.50668675;stroke-miterlimit:4;stroke-dasharray:none;stroke-opacity:1"
         d="m 719.631,535.689 5.576,0 0,12.334 c 1.758,-1.268 3.521,-2.62 6.762,-2.62 4.943,0 6.338,3.412 6.338,7.459 l 0,14.138 -5.599,0 0,-14.226 c 0,-2.111 -0.926,-2.871 -2.345,-2.871 -2.254,0 -3.484,0.579 -5.134,1.839 l 0,15.258 -5.599,0 0,-31.311 z"
         id="path21"
         inkscape:connector-curvature="0" />
      <path
         style="fill:#ffffff;stroke:#000000;stroke-width:0.50668675;stroke-miterlimit:4;stroke-dasharray:none;stroke-opacity:1"
         d="m 741.006,551.282 c 0,-3.279 1.4,-5.719 5.52,-5.719 4.081,0 9.7,0.132 11.34,1.08 l 0,3.533 -9.625,0 c -1.438,0 -1.635,0.45 -1.635,1.458 l 0,0.96 c 0,1.342 0.705,1.378 1.635,1.378 l 5.044,0 c 4.052,0 5.639,2.401 5.639,5.488 l 0,2.18 c 0,4.359 -2.64,5.56 -5.198,5.56 -4.027,0 -10.363,-0.183 -11.839,-1.156 l 0,-3.497 10.034,0 c 0.374,0 1.404,-0.046 1.404,-1.346 l 0,-0.992 c 0,-0.894 -0.26,-1.386 -1.404,-1.386 l -4.955,0 c -3.76,0 -5.959,-1.582 -5.959,-5.701 l 0,-1.84 z"
         id="path23"
         inkscape:connector-curvature="0" />
      <path
         style="fill:#ffffff;stroke:#000000;stroke-width:0.50668675;stroke-miterlimit:4;stroke-dasharray:none;stroke-opacity:1"
         d="m 768.637,545.563 c 2.08,0 6.275,0.124 9.778,1.26 l 0,3.479 c 0,0 -3.821,-0.24 -7.381,-0.24 -2.575,0 -3.798,0.154 -3.798,6.415 0,5.438 0.918,6.224 3.798,6.224 3.68,0 7.661,-0.374 7.661,-0.374 l 0,3.515 c -3.107,1.58 -6.739,1.318 -10.059,1.358 -3.959,0 -6.999,-2.07 -6.999,-10.839 0.001,-8.75 2.92,-10.798 7,-10.798 z"
         id="path25"
         inkscape:connector-curvature="0" />
      <path
         style="fill:#ffffff;stroke:#000000;stroke-width:0.50668675;stroke-miterlimit:4;stroke-dasharray:none;stroke-opacity:1"
         d="m 781.709,535.689 5.578,0 0,12.334 c 1.758,-1.268 3.521,-2.62 6.76,-2.62 4.943,0 6.34,3.412 6.34,7.459 l 0,14.138 -5.6,0 0,-14.226 c 0,-2.111 -0.926,-2.871 -2.346,-2.871 -2.254,0 -3.482,0.579 -5.133,1.839 l 0,15.258 -5.6,0 0,-31.311 z"
         id="path27"
         inkscape:connector-curvature="0" />
      <path
         style="fill:#ffffff;stroke:#000000;stroke-width:0.50668675;stroke-miterlimit:4;stroke-dasharray:none;stroke-opacity:1"
         d="m 803.084,559.587 c 0,-3.089 1.67,-5.824 6.222,-5.824 0,0 6.239,0.039 6.239,0 0,0 0.039,-1.32 0,-1.36 0,-2.264 -1.061,-2.619 -2.84,-2.619 -1.846,0 -7.173,0.332 -8.918,0.458 l 0,-3.458 c 2.795,-1.086 5.717,-1.401 9.676,-1.42 4.573,-0.018 7.681,1.563 7.681,6.819 l 0,14.817 -4.421,0 -1.178,-2.34 c -0.234,0.462 -3.216,2.646 -6.459,2.58 -4.086,-0.11 -6.002,-2.892 -6.002,-5.653 l 0,-2 z m 7.586,3.153 c 2.341,0 4.875,-1.644 4.875,-1.644 l 0,-3.893 -5.14,0.397 c -1.478,0.138 -1.722,1.231 -1.722,2.159 l 0,1.032 c 10e-4,1.768 0.957,1.949 1.987,1.949 z"
         id="path29"
         inkscape:connector-curvature="0" />
      <path
         style="fill:#ffffff;stroke:#000000;stroke-width:0.50668675;stroke-miterlimit:4;stroke-dasharray:none;stroke-opacity:1"
         d="m 823.243,546.443 3.329,-0.68 0,-3.959 c 0,-3.634 1.462,-6.239 6.262,-6.239 1.959,0 3.617,0.25 5.356,0.96 l 0,3.323 c -0.04,0 -3.819,-0.04 -3.819,-0.04 -2.252,-0.04 -2.199,1.088 -2.199,3.315 l 0,2.64 4.818,0 0,4.279 -4.818,0 0,16.958 -5.6,0 0,-16.957 -3.329,0 0,-3.6 z"
         id="path31"
         inkscape:connector-curvature="0" />
      <path
         style="fill:#ffffff;stroke:#000000;stroke-width:0.50668675;stroke-miterlimit:4;stroke-dasharray:none;stroke-opacity:1"
         d="m 839.363,546.884 3.431,-1.16 0.94,-5.919 4.658,0 0,5.919 4.748,0 0,4.279 -4.748,0 0,8.519 c 0,3.127 0.723,3.795 1.818,4.203 0,0 2.399,0.84 2.68,0.84 l 0,3.439 -4.883,0 c -3.146,0 -5.214,-1.964 -5.214,-7.603 l 0,-9.398 -3.431,0 0,-3.119 z"
         id="path33"
         inkscape:connector-curvature="0" />
      <path
         style="fill:#ffffff;stroke:#000000;stroke-width:0.50668675;stroke-miterlimit:4;stroke-dasharray:none;stroke-opacity:1"
         d="m 855.205,551.282 c 0,-3.279 1.399,-5.719 5.519,-5.719 4.081,0 9.7,0.132 11.341,1.08 l 0,3.533 -9.625,0 c -1.438,0 -1.636,0.45 -1.636,1.458 l 0,0.96 c 0,1.342 0.706,1.378 1.636,1.378 l 5.043,0 c 4.052,0 5.639,2.401 5.639,5.488 l 0,2.18 c 0,4.359 -2.639,5.56 -5.198,5.56 -4.027,0 -10.362,-0.183 -11.839,-1.156 l 0,-3.497 10.035,0 c 0.373,0 1.403,-0.046 1.403,-1.346 l 0,-0.992 c 0,-0.894 -0.26,-1.386 -1.403,-1.386 l -4.955,0 c -3.76,0 -5.959,-1.582 -5.959,-5.701 l 0,-1.84 z"
         id="path35"
         inkscape:connector-curvature="0" />
      <path
         style="fill:#ffffff;stroke:#000000;stroke-width:0.50668675;stroke-miterlimit:4;stroke-dasharray:none;stroke-opacity:1"
         d="m 876.148,545.764 4.719,0 0.881,2.68 c 1.471,-1.422 3.451,-2.897 6.092,-2.897 0.918,0 1.799,0.036 2.366,0.254 l 0,5.405 c -0.567,-0.055 -1.866,-0.108 -3.069,-0.108 -2.32,0 -4.004,0.378 -5.389,2.363 l 0,13.539 -5.6,0 0,-21.236 z"
         id="path37"
         inkscape:connector-curvature="0" />
      <path
         style="fill:#ffffff;stroke:#000000;stroke-width:0.50668675;stroke-miterlimit:4;stroke-dasharray:none;stroke-opacity:1"
         d="m 892.204,559.587 c 0,-3.089 1.67,-5.824 6.222,-5.824 0,0 6.238,0.039 6.238,0 0,0 0.04,-1.32 0,-1.36 0,-2.264 -1.06,-2.619 -2.84,-2.619 -1.846,0 -7.172,0.332 -8.918,0.458 l 0,-3.458 c 2.795,-1.086 5.717,-1.401 9.676,-1.42 4.574,-0.018 7.682,1.563 7.682,6.819 l 0,14.817 -4.422,0 -1.178,-2.34 c -0.234,0.462 -3.215,2.646 -6.459,2.58 -4.085,-0.11 -6.001,-2.892 -6.001,-5.653 l 0,-2 z m 7.585,3.153 c 2.342,0 4.875,-1.644 4.875,-1.644 l 0,-3.893 -5.139,0.397 c -1.479,0.138 -1.723,1.231 -1.723,2.159 l 0,1.032 c 10e-4,1.768 0.958,1.949 1.987,1.949 z"
         id="path39"
         inkscape:connector-curvature="0" />
      <path
         style="fill:#ffffff;stroke:#000000;stroke-width:0.50668675;stroke-miterlimit:4;stroke-dasharray:none;stroke-opacity:1"
         d="m 912.362,546.884 3.431,-1.16 0.94,-5.919 4.659,0 0,5.919 4.747,0 0,4.279 -4.747,0 0,8.519 c 0,3.127 0.723,3.795 1.818,4.203 0,0 2.398,0.84 2.679,0.84 l 0,3.439 -4.883,0 c -3.146,0 -5.214,-1.964 -5.214,-7.603 l 0,-9.398 -3.431,0 0,-3.119 z"
         id="path41"
         inkscape:connector-curvature="0" />
      <path
         style="fill:#ffffff;stroke:#000000;stroke-width:0.50668675;stroke-miterlimit:4;stroke-dasharray:none;stroke-opacity:1"
         d="m 740.871,585.725 5.6,0 0,29.275 -5.6,0 0,-29.275 z"
         id="path43"
         inkscape:connector-curvature="0" />
      <path
         style="fill:#ffffff;stroke:#000000;stroke-width:0.50668675;stroke-miterlimit:4;stroke-dasharray:none;stroke-opacity:1"
         d="m 750.068,593.764 4.5,0 1.1,2.26 c 1.824,-1.313 3.5,-2.62 6.738,-2.62 4.943,0 6.34,3.412 6.34,7.459 l 0,14.137 -5.6,0 0,-14.226 c 0,-2.111 -0.943,-2.871 -2.346,-2.871 -2.254,0 -3.482,0.579 -5.133,1.839 l 0,15.258 -5.6,0 0,-21.236 z"
         id="path45"
         inkscape:connector-curvature="0" />
      <path
         style="fill:#ffffff;stroke:#000000;stroke-width:0.50668675;stroke-miterlimit:4;stroke-dasharray:none;stroke-opacity:1"
         d="m 770.843,594.443 3.329,-0.68 0,-3.959 c 0,-3.634 1.462,-6.239 6.262,-6.239 1.959,0 3.617,0.25 5.356,0.96 l 0,3.323 c -0.04,0 -3.819,-0.04 -3.819,-0.04 -2.252,-0.04 -2.199,1.088 -2.199,3.315 l 0,2.64 4.818,0 0,4.279 -4.818,0 0,16.958 -5.6,0 0,-16.957 -3.329,0 0,-3.6 z"
         id="path47"
         inkscape:connector-curvature="0" />
      <path
         style="fill:#ffffff;stroke:#000000;stroke-width:0.50668675;stroke-miterlimit:4;stroke-dasharray:none;stroke-opacity:1"
         d="m 796.766,593.563 c 7.313,0 9.688,2.68 9.688,11.118 0,7.879 -2.266,10.519 -9.688,10.519 -7.336,0 -9.689,-2.92 -9.689,-10.519 -10e-4,-8.678 2.509,-11.118 9.689,-11.118 z m 0,17.138 c 3.152,0 4.089,-0.429 4.089,-6.02 0,-5.949 -0.752,-6.619 -4.089,-6.619 -3.314,0 -4.09,0.674 -4.09,6.619 0,5.496 1.113,6.02 4.09,6.02 z"
         id="path49"
         inkscape:connector-curvature="0" />
      <path
         style="fill:#ffffff;stroke:#000000;stroke-width:0.50668675;stroke-miterlimit:4;stroke-dasharray:none;stroke-opacity:1"
         d="m 809.789,593.764 4.719,0 0.88,2.68 c 1.472,-1.422 3.451,-2.897 6.093,-2.897 0.918,0 1.798,0.036 2.365,0.254 l 0,5.405 c -0.567,-0.055 -1.865,-0.108 -3.068,-0.108 -2.32,0 -4.004,0.378 -5.39,2.363 l 0,13.539 -5.599,0 0,-21.236 z"
         id="path51"
         inkscape:connector-curvature="0" />
      <path
         style="fill:#ffffff;stroke:#000000;stroke-width:0.50668675;stroke-miterlimit:4;stroke-dasharray:none;stroke-opacity:1"
         d="m 826.469,593.764 4.499,0 1.1,2.296 c 1.89,-1.356 3.409,-2.602 6.612,-2.602 2.71,0 4.63,1.027 5.506,2.745 1.903,-1.39 4.339,-2.745 7.635,-2.745 4.691,0 6.339,3.177 6.339,7.477 l 0,14.065 -5.599,0 0,-14.153 c 0,-1.986 -0.926,-2.89 -2.346,-2.89 -2.148,0 -3.704,0.41 -5.199,1.668 0,0.176 0.021,1.075 0.021,1.273 l 0,14.102 -5.6,0 0,-14.153 c 0,-1.986 -0.943,-2.89 -2.363,-2.89 -2.199,0 -3.357,0.562 -5.007,1.821 l 0,15.222 -5.599,0 0,-21.236 z"
         id="path53"
         inkscape:connector-curvature="0" />
      <path
         style="fill:#ffffff;stroke:#000000;stroke-width:0.50668675;stroke-miterlimit:4;stroke-dasharray:none;stroke-opacity:1"
         d="m 860.844,607.587 c 0,-3.089 1.67,-5.824 6.222,-5.824 0,0 6.239,0.039 6.239,0 0,0 0.039,-1.32 0,-1.36 0,-2.264 -1.061,-2.619 -2.84,-2.619 -1.846,0 -7.173,0.332 -8.918,0.458 l 0,-3.458 c 2.795,-1.086 5.717,-1.401 9.676,-1.42 4.573,-0.018 7.681,1.563 7.681,6.819 l 0,14.817 -4.421,0 -1.178,-2.34 c -0.234,0.462 -3.216,2.646 -6.459,2.58 -4.086,-0.11 -6.002,-2.892 -6.002,-5.653 l 0,-2 z m 7.586,3.153 c 2.341,0 4.875,-1.644 4.875,-1.644 l 0,-3.893 -5.14,0.397 c -1.478,0.138 -1.722,1.231 -1.722,2.159 l 0,1.032 c 0,1.768 0.956,1.949 1.987,1.949 z"
         id="path55"
         inkscape:connector-curvature="0" />
      <path
         style="fill:#ffffff;stroke:#000000;stroke-width:0.50668675;stroke-miterlimit:4;stroke-dasharray:none;stroke-opacity:1"
         d="m 881.002,594.884 3.432,-1.16 0.939,-5.919 4.66,0 0,5.919 4.746,0 0,4.279 -4.746,0 0,8.519 c 0,3.127 0.722,3.795 1.817,4.203 0,0 2.399,0.84 2.679,0.84 l 0,3.439 -4.883,0 c -3.145,0 -5.213,-1.964 -5.213,-7.603 l 0,-9.398 -3.432,0 0,-3.119 z"
         id="path57"
         inkscape:connector-curvature="0" />
      <path
         style="fill:#ffffff;stroke:#000000;stroke-width:0.50668675;stroke-miterlimit:4;stroke-dasharray:none;stroke-opacity:1"
         d="m 897.156,587.064 c 0,-0.6 0.32,-1 0.96,-1 l 4.199,0 c 0.601,0 0.897,0.44 0.897,1 l 0,3.546 c 0,0.6 -0.338,0.92 -0.897,0.92 l -4.199,0 c -0.56,0 -0.96,-0.36 -0.96,-0.92 l 0,-3.546 z m 0.202,6.7 5.599,0 0,21.236 -5.599,0 0,-21.236 z"
         id="path59"
         inkscape:connector-curvature="0" />
      <path
         style="fill:#ffffff;stroke:#000000;stroke-width:0.50668675;stroke-miterlimit:4;stroke-dasharray:none;stroke-opacity:1"
         d="m 906.548,583.726 5.599,0 0,17.157 1.16,0 6.029,-7.119 7.089,0 -7.965,9.259 7.965,11.977 -6.649,0 -6.469,-9.838 -1.16,0 0,9.838 -5.599,0 0,-31.274 z"
         id="path61"
         inkscape:connector-curvature="0" />
    </g>
    <path
       style="fill:#ffffff;stroke:#000000;stroke-width:0.30000001;stroke-miterlimit:4;stroke-dasharray:none;stroke-opacity:1"
       d="m 13.078975,741.64335 c 3.55249,-3.39381 14.209962,0 21.314943,-8.88123 7.104982,-8.88122 10.657472,-21.31494 7.104982,-31.97241 -3.552491,-10.65747 -7.104982,-23.09119 3.55249,-33.74866 10.657472,-10.65747 19.538699,-15.98621 28.419925,-8.88123 8.881227,7.10498 7.104981,19.5387 1.776245,26.64368 -5.328735,7.10498 -15.986207,12.43372 -21.314943,19.5387 -5.328736,7.10498 -7.104982,15.98621 -1.776246,24.86743 5.328736,8.88123 19.538699,6.94631 24.867435,10.65748 5.328736,3.71116 -7.104981,3.55249 -26.64368,3.55249 -19.538698,0 -40.853642,1.61776 -37.301151,-1.77625 z"
       id="path63"
       inkscape:connector-curvature="0" />
  </g>
</svg>
