<?xml version="1.0" encoding="UTF-8"?>
<svg width="525px" height="745px" viewBox="0 0 525 745" version="1.1" xmlns="http://www.w3.org/2000/svg" xmlns:xlink="http://www.w3.org/1999/xlink">
    <!-- Generator: Sketch 3.8.1 (29687) - http://www.bohemiancoding.com/sketch -->
    <title>Hinten</title>
    <desc>Created with Sketch.</desc>
    <defs>
        <filter x="-50%" y="-50%" width="200%" height="200%" filterUnits="objectBoundingBox" id="filter-1">
            <feOffset dx="0" dy="2" in="SourceAlpha" result="shadowOffsetOuter1"></feOffset>
            <feGaussianBlur stdDeviation="4" in="shadowOffsetOuter1" result="shadowBlurOuter1"></feGaussianBlur>
            <feColorMatrix values="0 0 0 0 0   0 0 0 0 0   0 0 0 0 0  0 0 0 0.5 0" type="matrix" in="shadowBlurOuter1" result="shadowMatrixOuter1"></feColorMatrix>
            <feMerge>
                <feMergeNode in="shadowMatrixOuter1"></feMergeNode>
                <feMergeNode in="SourceGraphic"></feMergeNode>
            </feMerge>
        </filter>
    </defs>
    <g id="Page-1" stroke="none" stroke-width="1" fill="none" fill-rule="evenodd">
        <g id="Hinten" transform="translate(0.000000, -1.000000)">
            <g id="layer4" transform="translate(0.000000, 0.826772)" fill="#CB6040">
                <rect id="rect5494" x="0" y="0.173228" width="524.40942" height="744.09448"></rect>
            </g>
            <g id="LogoSW" filter="url(#filter-1)" transform="translate(42.000000, 89.000000)" fill="#FFFFFF">
                <g id="Group" transform="translate(124.517541, 110.228216)">
                    <path d="M0.276705647,3.96153527 C0.276705647,2.53 1.04003157,1.57564315 2.56668341,1.57564315 L12.5853361,1.57564315 C14.0165723,1.57564315 14.7274195,2.62543568 14.7274195,3.96153527 L14.7274195,12.4214315 C14.7274195,13.8529668 13.9211565,14.6164523 12.5853361,14.6164523 L2.56668341,14.6164523 C1.23086305,14.6164523 0.276705647,13.7575311 0.276705647,12.4214315 L0.276705647,3.96153527 L0.276705647,3.96153527 Z M0.758555136,19.9470124 L14.1167588,19.9470124 L14.1167588,70.6224066 L0.758555136,70.6224066 L0.758555136,19.9470124 L0.758555136,19.9470124 Z" id="Shape"></path>
                    <path d="M23.8529809,15.4806224 C23.8529809,4.08082988 31.7028339,0.583112033 39.0236066,0.764439834 C39.0236066,0.764439834 63.6122428,1.45157676 69.7517687,2.29141079 L69.7517687,13.3376141 L42.172326,13.3376141 C37.2111846,13.3376141 37.2111846,16.105249 37.2111846,18.6824896 L37.2111846,29.5807676 L65.4103525,30.5876141 L65.4103525,41.5722614 L37.2111846,42.4741286 L37.2111846,70.6224066 L23.8529809,70.6224066 L23.8529809,15.4806224 L23.8529809,15.4806224 Z" id="Shape"></path>
                    <path d="M77.1507822,18.2286929 C77.1507822,4.39099585 85.3560588,0.349294606 96.0430988,0.191825726 C106.085605,-0.0181327801 117.530246,1.32273859 123.045276,2.9546888 L123.045276,13.4569087 C116.938669,12.9176971 103.180196,12.5025519 99.7166048,12.5025519 C93.8776386,12.3737137 90.5089859,12.7793154 90.5089859,19.2789627 L90.5089859,22.6903112 C90.5089859,28.2255809 92.6272153,29.418527 98.0372878,29.418527 L109.06687,29.418527 C122.754258,29.418527 125.578564,40.2123029 125.578564,47.9330498 L125.578564,52.5855394 C125.578564,68.4459959 115.698264,71.3854149 106.252106,71.3854149 C94.3351571,71.3854149 86.5249016,70.6558091 79.3024072,68.5271162 L79.3024072,58.0248963 C83.1190368,58.406639 94.7549863,59.0746888 103.628173,59.0746888 C107.645176,59.0746888 112.220361,58.4109336 112.220361,53.0574689 L112.220361,49.2973029 C112.220361,45.3271784 111.018122,42.7790456 105.918151,42.7790456 L95.1843572,42.7790456 C78.343479,42.7790456 77.1507822,30.3394813 77.1507822,24.265 L77.1507822,18.2286929 L77.1507822,18.2286929 Z" id="Shape"></path>
                    <path d="M133.598734,0.764439834 L164.155148,0.764439834 C175.056396,0.764439834 183.166734,5.86547718 183.166734,22.5476349 C183.166734,39.8401037 175.92468,41.891971 172.045553,43.1140249 L185.270174,70.6224066 L170.237901,70.6224066 L158.692597,44.1876763 L146.956461,42.8510996 L146.956461,70.6224066 L133.598734,70.6224066 L133.598734,0.764439834 L133.598734,0.764439834 Z M162.843182,32.3531743 C167.494699,32.3531743 169.712638,30.9889212 169.712638,22.5476349 C169.712638,14.6121577 167.040997,12.6461826 162.843182,12.6461826 L147.009417,12.6461826 L147.009417,32.3531743 L162.843182,32.3531743 L162.843182,32.3531743 Z" id="Shape"></path>
                </g>
                <g id="Group" transform="translate(181.766985, 191.348548)">
                    <path d="M0.249512161,4.24307054 C0.249512161,1.96358921 1.81910109,1.26404564 3.28325562,1.3003112 C3.28325562,1.3003112 8.20002872,1.43773859 9.42755222,1.60618257 L9.42755222,3.81504149 L3.91252243,3.81504149 C2.92019873,3.81504149 2.92019873,4.36856846 2.92019873,4.88344398 L2.92019873,7.06271784 L8.55926899,7.26408714 L8.55926899,9.4610166 L2.92019873,9.64139004 L2.92019873,15.2697095 L0.249035082,15.2697095 L0.249035082,4.24307054 L0.249512161,4.24307054 Z" id="Shape"></path>
                    <path d="M9.77343428,11.7323859 C9.77343428,10.2583817 10.5701557,8.95329876 12.741818,8.95329876 C12.741818,8.95329876 15.718312,8.97190871 15.718312,8.95329876 C15.718312,8.95329876 15.7369181,8.32342324 15.718312,8.3043361 C15.718312,7.22400415 15.2121315,7.05460581 14.3634085,7.05460581 C13.4827212,7.05460581 10.9413229,7.21302905 10.1088206,7.27315353 L10.1088206,5.62307054 C11.4422556,5.10485477 12.8362795,4.95454357 14.7250341,4.94547718 C16.906715,4.93688797 18.3894756,5.69130705 18.3894756,8.19935685 L18.3894756,15.2697095 L16.2803107,15.2697095 L15.718312,14.153112 C15.6066756,14.3735685 14.1840269,15.4157261 12.6368606,15.3842324 C10.6875171,15.3317427 9.77343428,14.0042324 9.77343428,12.6867427 L9.77343428,11.7323859 L9.77343428,11.7323859 Z M13.3925533,13.2369295 C14.5093946,13.2369295 15.718312,12.4524481 15.718312,12.4524481 L15.718312,10.5947925 L13.2661275,10.7842324 C12.5610051,10.850083 12.4445979,11.371639 12.4445979,11.8144606 L12.4445979,12.3069087 C12.445075,13.1505602 12.9011622,13.2369295 13.3925533,13.2369295 L13.3925533,13.2369295 Z" id="Shape"></path>
                    <path d="M23.1659876,5.04043568 C24.1578342,5.04043568 26.1591794,5.09960581 27.8308631,5.6416805 L27.8308631,7.30178423 C27.8308631,7.30178423 26.0079454,7.18726141 24.3095452,7.18726141 C23.0805905,7.18726141 22.4980774,7.26074689 22.4980774,10.248361 C22.4980774,12.8432573 22.9360357,13.2183195 24.3095452,13.2183195 C26.0651949,13.2183195 27.9639681,13.0398548 27.9639681,13.0398548 L27.9639681,14.7171369 C26.4816846,15.4710788 24.7494118,15.3460581 23.1655105,15.3651452 C21.2762789,15.3651452 19.8264367,14.3773859 19.8264367,10.1930083 C19.8269138,6.0176971 21.2199836,5.04043568 23.1659876,5.04043568 L23.1659876,5.04043568 Z" id="Shape"></path>
                    <path d="M29.4028375,0.328775934 L32.0630283,0.328775934 L32.0630283,6.21429461 C32.9017327,5.60923237 33.7428224,4.96408714 35.2890345,4.96408714 C37.6472345,4.96408714 38.3127593,6.59221992 38.3127593,8.523361 L38.3127593,15.2697095 L35.6415956,15.2697095 L35.6415956,8.48136929 C35.6415956,7.47404564 35.1998208,7.11139004 34.5228461,7.11139004 C33.4475107,7.11139004 32.8607039,7.38767635 32.073524,7.98892116 L32.073524,15.2697095 L29.4023604,15.2697095 L29.4023604,0.328775934 L29.4028375,0.328775934 Z" id="Shape"></path>
                    <path d="M39.6003947,7.76941909 C39.6003947,6.20475104 40.2683049,5.04043568 42.2338691,5.04043568 C44.1808273,5.04043568 46.8615325,5.10342324 47.6439416,5.55578838 L47.6439416,7.24165975 L43.0520591,7.24165975 C42.3660199,7.24165975 42.2720354,7.45639004 42.2720354,7.93738589 L42.2720354,8.39547718 C42.2720354,9.03585062 42.6083759,9.05302905 43.0520591,9.05302905 L45.4584441,9.05302905 C47.391567,9.05302905 48.1486909,10.1987344 48.1486909,11.6717842 L48.1486909,12.7120332 C48.1486909,14.7920539 46.8892031,15.3651452 45.6688358,15.3651452 C43.7476399,15.3651452 40.7248692,15.2778216 40.020701,14.813527 L40.020701,13.144834 L44.8077087,13.144834 C44.9861362,13.144834 45.4775272,13.1228838 45.4775272,12.5025519 L45.4775272,12.0291909 C45.4775272,11.6025934 45.3534868,11.3678216 44.8077087,11.3678216 L42.4437838,11.3678216 C40.6499679,11.3678216 39.6008718,10.6129253 39.6008718,8.64742739 L39.6008718,7.76941909 L39.6003947,7.76941909 Z" id="Shape"></path>
                    <path d="M52.7825563,5.04043568 C53.77488,5.04043568 55.7762252,5.09960581 57.4474319,5.6416805 L57.4474319,7.30178423 C57.4474319,7.30178423 55.6245141,7.18726141 53.926114,7.18726141 C52.6976363,7.18726141 52.1141691,7.26074689 52.1141691,10.248361 C52.1141691,12.8432573 52.5521273,13.2183195 53.926114,13.2183195 C55.6817636,13.2183195 57.5810139,13.0398548 57.5810139,13.0398548 L57.5810139,14.7171369 C56.0987304,15.4710788 54.3659805,15.3460581 52.7820792,15.3651452 C50.8933247,15.3651452 49.4430054,14.3773859 49.4430054,10.1930083 C49.4434825,6.0176971 50.8360752,5.04043568 52.7825563,5.04043568 L52.7825563,5.04043568 Z" id="Shape"></path>
                    <path d="M59.0189291,0.328775934 L61.6800741,0.328775934 L61.6800741,6.21429461 C62.5187785,5.60923237 63.3598682,4.96408714 64.9051261,4.96408714 C67.2633261,4.96408714 67.9298051,6.59221992 67.9298051,8.523361 L67.9298051,15.2697095 L65.2581644,15.2697095 L65.2581644,8.48136929 C65.2581644,7.47404564 64.8163895,7.11139004 64.1389377,7.11139004 C63.0636023,7.11139004 62.4777497,7.38767635 61.6900928,7.98892116 L61.6900928,15.2697095 L59.018452,15.2697095 L59.018452,0.328775934 L59.0189291,0.328775934 Z" id="Shape"></path>
                    <path d="M69.2164863,11.7323859 C69.2164863,10.2583817 70.0132078,8.95329876 72.18487,8.95329876 C72.18487,8.95329876 75.1613641,8.97190871 75.1613641,8.95329876 C75.1613641,8.95329876 75.1799701,8.32342324 75.1613641,8.3043361 C75.1613641,7.22400415 74.6551835,7.05460581 73.8064605,7.05460581 C72.9257733,7.05460581 70.384375,7.21302905 69.5518727,7.27315353 L69.5518727,5.62307054 C70.8853076,5.10485477 72.2793316,4.95454357 74.1680862,4.94547718 C76.3497671,4.93688797 77.8325277,5.69130705 77.8325277,8.19935685 L77.8325277,15.2697095 L75.7233628,15.2697095 L75.1613641,14.153112 C75.0497276,14.3735685 73.6270789,15.4157261 72.0799127,15.3842324 C70.1305691,15.3317427 69.2164863,14.0042324 69.2164863,12.6867427 L69.2164863,11.7323859 L69.2164863,11.7323859 Z M72.8356054,13.2369295 C73.9524466,13.2369295 75.1613641,12.4524481 75.1613641,12.4524481 L75.1613641,10.5947925 L72.7091795,10.7842324 C72.0040572,10.850083 71.88765,11.371639 71.88765,11.8144606 L71.88765,12.3069087 C71.8881271,13.1505602 72.3442143,13.2369295 72.8356054,13.2369295 L72.8356054,13.2369295 Z" id="Shape"></path>
                    <path d="M78.8339159,5.4603527 L80.4221109,5.13587137 L80.4221109,3.24672199 C80.4221109,1.5126556 81.1196,0.269605809 83.4095777,0.269605809 C84.3441749,0.269605809 85.1351714,0.388900415 85.9648112,0.727697095 L85.9648112,2.313361 C85.9457281,2.313361 84.1428477,2.29427386 84.1428477,2.29427386 C83.0684665,2.27518672 83.0937516,2.81344398 83.0937516,3.87612033 L83.0937516,5.13587137 L85.3923168,5.13587137 L85.3923168,7.17771784 L83.0937516,7.17771784 L83.0937516,15.2697095 L80.4221109,15.2697095 L80.4221109,7.17819502 L78.8339159,7.17819502 L78.8339159,5.4603527 L78.8339159,5.4603527 Z" id="Shape"></path>
                    <path d="M86.5244246,5.67078838 L88.1612816,5.11726141 L88.6097356,2.29284232 L90.8319682,2.29284232 L90.8319682,5.11726141 L93.0971378,5.11726141 L93.0971378,7.15910788 L90.8319682,7.15910788 L90.8319682,11.2241909 C90.8319682,12.7163278 91.1768961,13.035083 91.6992972,13.2297718 C91.6992972,13.2297718 92.843809,13.6306017 92.9778682,13.6306017 L92.9778682,15.2716183 L90.6482929,15.2716183 C89.1474033,15.2716183 88.1608045,14.3344398 88.1608045,11.6436307 L88.1608045,7.15910788 L86.5239475,7.15910788 L86.5239475,5.67078838 L86.5244246,5.67078838 Z" id="Shape"></path>
                    <path d="M94.0823054,7.76941909 C94.0823054,6.20475104 94.7497385,5.04043568 96.7153027,5.04043568 C98.6622609,5.04043568 101.342966,5.10342324 102.125852,5.55578838 L102.125852,7.24165975 L97.5339698,7.24165975 C96.8479306,7.24165975 96.753469,7.45639004 96.753469,7.93738589 L96.753469,8.39547718 C96.753469,9.03585062 97.0902866,9.05302905 97.5339698,9.05302905 L99.9398777,9.05302905 C101.873001,9.05302905 102.630124,10.1987344 102.630124,11.6717842 L102.630124,12.7120332 C102.630124,14.7920539 101.371114,15.3651452 100.150269,15.3651452 C98.2290734,15.3651452 95.2067799,15.2778216 94.5021346,14.813527 L94.5021346,13.144834 L99.2896194,13.144834 C99.4675697,13.144834 99.9589608,13.1228838 99.9589608,12.5025519 L99.9589608,12.0291909 C99.9589608,11.6025934 99.8349203,11.3678216 99.2896194,11.3678216 L96.9256944,11.3678216 C95.1318785,11.3678216 94.0827824,10.6129253 94.0827824,8.64742739 L94.0827824,7.76941909 L94.0823054,7.76941909 Z" id="Shape"></path>
                    <path d="M104.073765,5.13634855 L106.325099,5.13634855 L106.745405,6.41518672 C107.447188,5.736639 108.391804,5.03280083 109.651769,5.03280083 C110.089727,5.03280083 110.510033,5.04997925 110.780537,5.15400415 L110.780537,7.73315353 C110.510033,7.70690871 109.890308,7.68161826 109.316382,7.68161826 C108.20956,7.68161826 107.406159,7.8619917 106.745405,8.80919087 L106.745405,15.2697095 L104.073765,15.2697095 L104.073765,5.13634855 L104.073765,5.13634855 Z" id="Shape"></path>
                    <path d="M111.73374,11.7323859 C111.73374,10.2583817 112.530462,8.95329876 114.702124,8.95329876 C114.702124,8.95329876 117.678141,8.97190871 117.678141,8.95329876 C117.678141,8.95329876 117.697224,8.32342324 117.678141,8.3043361 C117.678141,7.22400415 117.172437,7.05460581 116.323237,7.05460581 C115.44255,7.05460581 112.901629,7.21302905 112.068649,7.27315353 L112.068649,5.62307054 C113.402084,5.10485477 114.796108,4.95454357 116.684863,4.94547718 C118.867021,4.93688797 120.349782,5.69130705 120.349782,8.19935685 L120.349782,15.2697095 L118.24014,15.2697095 L117.678141,14.153112 C117.566504,14.3735685 116.144333,15.4157261 114.59669,15.3842324 C112.647823,15.3317427 111.73374,14.0042324 111.73374,12.6867427 L111.73374,11.7323859 L111.73374,11.7323859 Z M115.352382,13.2369295 C116.469701,13.2369295 117.678141,12.4524481 117.678141,12.4524481 L117.678141,10.5947925 L115.226433,10.7842324 C114.520834,10.850083 114.404427,11.371639 114.404427,11.8144606 L114.404427,12.3069087 C114.404904,13.1505602 114.861468,13.2369295 115.352382,13.2369295 L115.352382,13.2369295 Z" id="Shape"></path>
                    <path d="M121.350693,5.67078838 L122.98755,5.11726141 L123.436004,2.29284232 L125.658713,2.29284232 L125.658713,5.11726141 L127.923406,5.11726141 L127.923406,7.15910788 L125.658713,7.15910788 L125.658713,11.2241909 C125.658713,12.7163278 126.003641,13.035083 126.526042,13.2297718 C126.526042,13.2297718 127.670077,13.6306017 127.804136,13.6306017 L127.804136,15.2716183 L125.474561,15.2716183 C123.973671,15.2716183 122.987073,14.3344398 122.987073,11.6436307 L122.987073,7.15910788 L121.350216,7.15910788 L121.350216,5.67078838 L121.350693,5.67078838 Z" id="Shape"></path>
                    <polygon id="Shape" points="39.5359891 24.2048755 42.2076298 24.2048755 42.2076298 38.1742739 39.5359891 38.1742739"></polygon>
                    <path d="M43.9236819,28.0409129 L46.0705361,28.0409129 L46.5953226,29.1193361 C47.4655142,28.4928008 48.2650981,27.8691286 49.8098789,27.8691286 C52.1680789,27.8691286 52.8345579,29.4972614 52.8345579,31.4284025 L52.8345579,38.1742739 L50.1629172,38.1742739 L50.1629172,31.3859336 C50.1629172,30.37861 49.7130319,30.0159544 49.0436905,30.0159544 C47.9683551,30.0159544 47.3825025,30.2922407 46.5948456,30.8934855 L46.5948456,38.1742739 L43.9232048,38.1742739 L43.9232048,28.0409129 L43.9236819,28.0409129 Z" id="Shape"></path>
                    <path d="M53.8349919,28.364917 L55.4231869,28.0404357 L55.4231869,26.1512863 C55.4231869,24.4172199 56.120676,23.1741701 58.4106538,23.1741701 C59.3452509,23.1741701 60.1362474,23.2934647 60.9658873,23.6322614 L60.9658873,25.2179253 C60.9468041,25.2179253 59.1439237,25.1988382 59.1439237,25.1988382 C58.0695425,25.179751 58.0948277,25.7180083 58.0948277,26.7806846 L58.0948277,28.0404357 L60.3933928,28.0404357 L60.3933928,30.0822822 L58.0948277,30.0822822 L58.0948277,38.1742739 L55.4231869,38.1742739 L55.4231869,30.0827593 L53.8349919,30.0827593 L53.8349919,28.364917 L53.8349919,28.364917 Z" id="Shape"></path>
                    <path d="M66.2023031,27.945 C69.6911797,27.945 70.8242416,29.2238382 70.8242416,33.2502697 C70.8242416,37.0099585 69.7431812,38.2697095 66.2023031,38.2697095 C62.7024538,38.2697095 61.5798876,36.8763485 61.5798876,33.2502697 C61.5794105,29.1093154 62.776878,27.945 66.2023031,27.945 L66.2023031,27.945 Z M66.2023031,36.1228838 C67.7060552,36.1228838 68.1530779,35.9181743 68.1530779,33.2502697 C68.1530779,30.4115353 67.7943147,30.0918257 66.2023031,30.0918257 C64.6212643,30.0918257 64.2510512,30.413444 64.2510512,33.2502697 C64.2510512,35.8728423 64.7820398,36.1228838 66.2023031,36.1228838 L66.2023031,36.1228838 Z" id="Shape"></path>
                    <path d="M72.415299,28.0409129 L74.6666334,28.0409129 L75.0864627,29.319751 C75.7887225,28.6412033 76.7328613,27.9373651 77.9933032,27.9373651 C78.4312615,27.9373651 78.8510907,27.9545436 79.1215944,28.0585685 L79.1215944,30.6377178 C78.8510907,30.611473 78.2318426,30.5861826 77.6579169,30.5861826 C76.5510943,30.5861826 75.7476938,30.766556 75.0864627,31.7137552 L75.0864627,38.1742739 L72.415299,38.1742739 L72.415299,28.0409129 L72.415299,28.0409129 Z" id="Shape"></path>
                    <path d="M80.3729718,28.0409129 L82.5193489,28.0409129 L83.0441354,29.1365145 C83.9458142,28.4894606 84.6704967,27.8948963 86.1985798,27.8948963 C87.4914631,27.8948963 88.4074542,28.3849585 88.8253751,29.204751 C89.7332559,28.541473 90.8954196,27.8948963 92.467871,27.8948963 C94.7058472,27.8948963 95.4920729,29.4108921 95.4920729,31.4627593 L95.4920729,38.1742739 L92.8209093,38.1742739 L92.8209093,31.4207676 C92.8209093,30.4730913 92.3791344,30.041722 91.7016826,30.041722 C90.6769176,30.041722 89.9345831,30.2373651 89.2213505,30.8376556 C89.2213505,30.921639 89.2313691,31.3506224 89.2313691,31.4451037 L89.2313691,38.1742739 L86.5597284,38.1742739 L86.5597284,31.4207676 C86.5597284,30.4730913 86.1098432,30.041722 85.4323914,30.041722 C84.3832954,30.041722 83.8308382,30.3098963 83.0436584,30.9106639 L83.0436584,38.1742739 L80.3724947,38.1742739 L80.3724947,28.0409129 L80.3729718,28.0409129 Z" id="Shape"></path>
                    <path d="M96.7725522,34.6369502 C96.7725522,33.1629461 97.5692736,31.8578631 99.7409358,31.8578631 C99.7409358,31.8578631 102.71743,31.876473 102.71743,31.8578631 C102.71743,31.8578631 102.736036,31.2279876 102.71743,31.2089004 C102.71743,30.1285685 102.211249,29.9591701 101.362526,29.9591701 C100.481839,29.9591701 97.9404408,30.1175934 97.1079385,30.1777178 L97.1079385,28.5276349 C98.4413735,28.0094191 99.8353974,27.8591079 101.724152,27.8500415 C103.905833,27.8414523 105.388594,28.5958714 105.388594,31.1039212 L105.388594,38.1742739 L103.279429,38.1742739 L102.71743,37.0576763 C102.605793,37.2781328 101.183145,38.3202905 99.6359785,38.2887967 C97.6866349,38.2363071 96.7725522,36.9087967 96.7725522,35.5913071 L96.7725522,34.6369502 L96.7725522,34.6369502 Z M100.391671,36.1414938 C101.508512,36.1414938 102.71743,35.3570124 102.71743,35.3570124 L102.71743,33.4993568 L100.265245,33.6887967 C99.560123,33.7546473 99.4437158,34.2762033 99.4437158,34.7190249 L99.4437158,35.211473 C99.4437158,36.0551245 99.899803,36.1414938 100.391671,36.1414938 L100.391671,36.1414938 Z" id="Shape"></path>
                    <path d="M106.389505,28.5753527 L108.026839,28.0218257 L108.474816,25.1974066 L110.698002,25.1974066 L110.698002,28.0218257 L112.962218,28.0218257 L112.962218,30.0636722 L110.698002,30.0636722 L110.698002,34.1287552 C110.698002,35.6208921 111.042453,35.9396473 111.564854,36.1343361 C111.564854,36.1343361 112.709366,36.535166 112.842948,36.535166 L112.842948,38.1761826 L110.513373,38.1761826 C109.01296,38.1761826 108.026362,37.2390041 108.026362,34.548195 L108.026362,30.0636722 L106.389028,30.0636722 L106.389028,28.5753527 L106.389505,28.5753527 Z" id="Shape"></path>
                    <path d="M114.096234,24.8438174 C114.096234,24.5575104 114.248899,24.366639 114.55423,24.366639 L116.557483,24.366639 C116.844207,24.366639 116.985423,24.5765975 116.985423,24.8438174 L116.985423,26.5358921 C116.985423,26.8221992 116.82417,26.9748963 116.557483,26.9748963 L114.55423,26.9748963 C114.287065,26.9748963 114.096234,26.803112 114.096234,26.5358921 L114.096234,24.8438174 L114.096234,24.8438174 Z M114.192604,28.0409129 L116.863768,28.0409129 L116.863768,38.1742739 L114.192604,38.1742739 L114.192604,28.0409129 L114.192604,28.0409129 Z" id="Shape"></path>
                    <polygon id="Shape" points="118.576957 23.2509959 121.248121 23.2509959 121.248121 31.4379461 121.801532 31.4379461 124.67784 28.0409129 128.05985 28.0409129 124.259919 32.4591079 128.05985 38.1742739 124.887754 38.1742739 121.801532 33.4797925 121.248121 33.4797925 121.248121 38.1742739 118.576957 38.1742739 118.576957 23.2509959"></polygon>
                </g>
                <path d="M0.954157403,210.052033 C9.54157403,201.846473 35.3038239,210.052033 52.4786572,188.579004 C69.6534904,167.105975 78.2409071,137.043734 69.6534904,111.2761 C61.0660738,85.5084647 52.4786572,55.4462241 78.2409071,29.6785892 C104.003157,3.91095436 125.471699,-8.97286307 146.94024,8.20556017 C168.408782,25.3839834 164.115073,55.4462241 151.233948,72.6246473 C138.352823,89.8030705 112.590574,102.686888 99.7094486,119.865311 C86.8283237,137.043734 82.5346154,158.516763 95.4157403,179.989793 C108.296865,201.462822 142.646532,196.784564 155.527657,205.757427 C168.408782,214.73029 138.352823,214.346639 91.122032,214.346639 C43.8912406,214.346639 -7.63325923,218.258071 0.954157403,210.052033 L0.954157403,210.052033 Z" id="Shape"></path>
            </g>
        </g>
    </g>
</svg>