<?xml version="1.0" encoding="UTF-8" standalone="no"?>
<!-- Created with Inkscape (http://www.inkscape.org/) -->

<svg
   xmlns:dc="http://purl.org/dc/elements/1.1/"
   xmlns:cc="http://creativecommons.org/ns#"
   xmlns:rdf="http://www.w3.org/1999/02/22-rdf-syntax-ns#"
   xmlns:svg="http://www.w3.org/2000/svg"
   xmlns="http://www.w3.org/2000/svg"
   xmlns:sodipodi="http://sodipodi.sourceforge.net/DTD/sodipodi-0.dtd"
   xmlns:inkscape="http://www.inkscape.org/namespaces/inkscape"
   width="148mm"
   height="210mm"
   viewBox="0 0 524.40945 744.09448"
   id="svg4848"
   version="1.1"
   inkscape:version="0.91 r13725"
   sodipodi:docname="Hinten.svg">
  <defs
     id="defs4850" />
  <sodipodi:namedview
     id="base"
     pagecolor="#ffffff"
     bordercolor="#666666"
     borderopacity="1.0"
     inkscape:pageopacity="0.0"
     inkscape:pageshadow="2"
     inkscape:zoom="0.32"
     inkscape:cx="238.87332"
     inkscape:cy="75.050966"
     inkscape:document-units="mm"
     inkscape:current-layer="layer4"
     showgrid="false"
     width="152mm"
     inkscape:window-width="1088"
     inkscape:window-height="835"
     inkscape:window-x="490"
     inkscape:window-y="43"
     inkscape:window-maximized="0"
     inkscape:snap-bbox="true"
     inkscape:snap-grids="false"
     inkscape:snap-to-guides="false"
     inkscape:snap-object-midpoints="false"
     inkscape:snap-global="true"
     inkscape:snap-page="true"
     inkscape:bbox-paths="false"
     inkscape:bbox-nodes="false"
     inkscape:snap-bbox-midpoints="true" />
  <metadata
     id="metadata4853">
    <rdf:RDF>
      <cc:Work
         rdf:about="">
        <dc:format>image/svg+xml</dc:format>
        <dc:type
           rdf:resource="http://purl.org/dc/dcmitype/StillImage" />
        <dc:title></dc:title>
      </cc:Work>
    </rdf:RDF>
  </metadata>
  <g
     inkscape:groupmode="layer"
     id="layer4"
     inkscape:label="BG"
     style="opacity:1"
     transform="translate(0,-14.173228)">
    <rect
       style="opacity:1;fill:#ffcd00;fill-opacity:1;fill-rule:evenodd;stroke:none;stroke-width:5;stroke-linecap:round;stroke-linejoin:round;stroke-miterlimit:4;stroke-dasharray:none;stroke-opacity:1"
       id="rect5494"
       width="524.40942"
       height="744.09448"
       x="0"
       y="14.173228" />
  </g>
  <g
     inkscape:label="Karlchen"
     inkscape:groupmode="layer"
     id="layer1"
     transform="translate(0,-308.26772)"
     style="display:inline">
    <g
       id="g4232"
       transform="matrix(0.69966573,0,0,0.69966573,312.79191,70.251158)">
      <path
         d="m -90.394205,830.08126 -2.96928,1.08064 -9.854275,3.34658 -10.05968,2.86822 -10.25728,2.37662 -10.43279,1.87184 -10.60231,1.35287 -10.75572,0.82267 -10.89612,0.27625 -10.89378,-0.27625 -10.75572,-0.82267 -10.60049,-1.35287 -10.43565,-1.87184 -10.25416,-2.37662 -10.06098,-2.86822 -9.85297,-3.34658 -3.10085,-1.08064 10.26431,3.4847 10.47958,2.98805 10.68058,2.47516 10.87038,1.95006 11.04329,1.4097 11.2037,0.85722 11.34776,0.28744 11.35009,-0.28744 11.20267,-0.85722 11.04511,-1.4097 10.86752,-1.95006 10.68369,-2.47516 10.47829,-2.98805 10.265085,-3.4847"
         style="fill:#656263;fill-opacity:1;fill-rule:evenodd;stroke:none"
         id="path14-6"
         inkscape:connector-curvature="0" />
      <path
         d="m -90.394205,830.08126 -2.96928,1.08064 -9.854275,3.34658 -10.05968,2.86822 -10.25728,2.37662 -10.43279,1.87184 -10.60231,1.35287 -10.75572,0.82267 -10.89612,0.27625 -10.89378,-0.27625 -10.75572,-0.82267 -10.60049,-1.35287 -10.43565,-1.87184 -10.25416,-2.37662 -10.06098,-2.86822 -9.85297,-3.34658 -3.10085,-1.08064 10.26431,3.4847 10.47958,2.98805 10.68058,2.47516 10.87038,1.95006 11.04329,1.4097 11.2037,0.85722 11.34776,0.28744 11.35009,-0.28744 11.20267,-0.85722 11.04511,-1.4097 10.86752,-1.95006 10.68369,-2.47516 10.47829,-2.98805 10.265085,-3.4847 z"
         style="fill:none;stroke:#231f20;stroke-width:5.20048189;stroke-linecap:butt;stroke-linejoin:bevel;stroke-miterlimit:2.61310005;stroke-dasharray:none;stroke-opacity:1"
         id="path16-5"
         inkscape:connector-curvature="0" />
      <path
         d="m -300.32842,524.22088 5.42661,13.31497 30.14055,30.14003 -4.1713,-12.05913 -31.39586,-31.39587"
         style="fill:#656263;fill-opacity:1;fill-rule:evenodd;stroke:none"
         id="path18-4"
         inkscape:connector-curvature="0" />
      <path
         d="m -300.32842,524.22088 5.42661,13.31497 30.14055,30.14003 -4.1713,-12.05913 -31.39586,-31.39587 z"
         style="fill:none;stroke:#231f20;stroke-width:5.20048189;stroke-linecap:butt;stroke-linejoin:bevel;stroke-miterlimit:2.61310005;stroke-dasharray:none;stroke-opacity:1"
         id="path20-8"
         inkscape:connector-curvature="0" />
      <path
         d="m -268.93256,555.61675 4.1713,12.05913 2.63881,-27.05115 -4.06079,-13.18756 -2.74932,28.17958"
         style="fill:#656263;fill-opacity:1;fill-rule:evenodd;stroke:none"
         id="path22-7"
         inkscape:connector-curvature="0" />
      <path
         d="m -268.93256,555.61675 4.1713,12.05913 2.63881,-27.05115 -4.06079,-13.18756 -2.74932,28.17958 z"
         style="fill:none;stroke:#231f20;stroke-width:5.20048189;stroke-linecap:butt;stroke-linejoin:bevel;stroke-miterlimit:2.61310005;stroke-dasharray:none;stroke-opacity:1"
         id="path24-8"
         inkscape:connector-curvature="0" />
      <path
         d="m -266.18324,527.43717 4.06079,13.18756 19.08999,6.02957 -3.26621,-12.93796 -19.88457,-6.27917"
         style="fill:#656263;fill-opacity:1;fill-rule:evenodd;stroke:none"
         id="path26-7"
         inkscape:connector-curvature="0" />
      <path
         d="m -266.18324,527.43717 4.06079,13.18756 19.08999,6.02957 -3.26621,-12.93796 -19.88457,-6.27917 z"
         style="fill:none;stroke:#231f20;stroke-width:5.20048189;stroke-linecap:butt;stroke-linejoin:bevel;stroke-miterlimit:2.61310005;stroke-dasharray:none;stroke-opacity:1"
         id="path28-2"
         inkscape:connector-curvature="0" />
      <path
         d="m -246.29867,533.71634 3.26621,12.93796 4.01893,-22.10581 -3.09877,-13.85578 -4.18637,23.02363"
         style="fill:#656263;fill-opacity:1;fill-rule:evenodd;stroke:none"
         id="path30-5"
         inkscape:connector-curvature="0" />
      <path
         d="m -246.29867,533.71634 3.26621,12.93796 4.01893,-22.10581 -3.09877,-13.85578 -4.18637,23.02363 z"
         style="fill:none;stroke:#231f20;stroke-width:5.20048189;stroke-linecap:butt;stroke-linejoin:bevel;stroke-miterlimit:2.61310005;stroke-dasharray:none;stroke-opacity:1"
         id="path32-3"
         inkscape:connector-curvature="0" />
      <path
         d="m -242.1123,510.69271 3.09877,13.85578 17.81881,-1.92666 -2.3554,-13.93638 -18.56218,2.00726"
         style="fill:#656263;fill-opacity:1;fill-rule:evenodd;stroke:none"
         id="path34-9"
         inkscape:connector-curvature="0" />
      <path
         d="m -242.1123,510.69271 3.09877,13.85578 17.81881,-1.92666 -2.3554,-13.93638 -18.56218,2.00726 z"
         style="fill:none;stroke:#231f20;stroke-width:5.20048189;stroke-linecap:butt;stroke-linejoin:bevel;stroke-miterlimit:2.61310005;stroke-dasharray:none;stroke-opacity:1"
         id="path36-8"
         inkscape:connector-curvature="0" />
      <path
         d="m -251.56382,480.67228 3.47656,15.05701 5.85536,-3.7831 5.98199,-3.4477 6.10106,-3.11488 6.20872,-2.78988 6.30517,-2.46227 6.3915,-2.14506 6.46455,-1.82785 6.52775,-1.51844 6.58338,-1.20643 6.62524,-0.90743 6.65644,-0.60582 6.67699,-0.3094 6.68816,-0.0156 6.68583,0.2704 6.67282,0.55642 6.65177,0.83462 6.619,1.11283 6.57532,1.38584 6.51864,1.65105 6.45338,1.91625 6.37797,2.18146 6.28958,2.43107 6.190775,2.68847 6.08157,2.93288 5.96456,3.18249 5.83196,3.41909 5.69156,3.6583 5.53555,3.88971 5.37695,4.12112 5.20014,4.34212 5.01554,4.56572 4.82054,4.78153 4.54492,4.90634 4.29532,5.04674 4.05091,5.17934 3.80391,5.30675 3.5543,5.42375 3.30989,5.53815 3.05768,5.64216 2.81068,5.74096 2.56107,5.83456 2.31146,5.92036 2.05926,6.00097 1.80965,6.0683 1.55744,6.13669 1.3078397,6.19441 1.05303,6.2472 0.79822,6.29113 0.54862,6.33039 0.2938,6.36212 0.0416,6.38656 -0.2158,6.40475 -0.47061,6.41464 -0.72542,6.42114 -0.98283,6.41776 -1.2402397,6.40891 -1.49504,6.39358 -1.75505,6.37095 -2.00985,6.3408 -2.27246,6.30517 -2.52727,6.26254 -2.78728,6.21391 -3.05248,6.15567 -3.3073,6.09301 5.62916,-5.95183 3.44769,-6.34677 3.17729,-6.41282 2.90428,-6.47184 2.63388,-6.52436 2.3660597,-6.56726 2.09306,-6.60574 1.82785,-6.63643 1.55744,-6.65956 1.29224,-6.67594 1.02183,-6.68505 0.75922004,-6.6879 0.48621,-6.68323 0.22621,-6.67074 -0.0416,-6.65255 -0.30681,-6.62706 -0.57202004,-6.59456 -0.83202,-6.55296 -1.09723,-6.50746 -1.35984,-6.45234 -1.62504,-6.39358 -1.88506,-6.32077 -2.14506,-6.25057 -2.4050597,-6.16737 -2.67028,-6.07897 -2.92508,-5.98017 -3.18768,-5.87616 -3.4451,-5.76696 -3.7051,-5.65255 -3.95991,-5.52516 -4.21992,-5.39515 -4.47472,-5.25734 -4.73473,-5.11174 -5.02074,-4.97914 -5.22615,-4.75813 -5.41595,-4.52413 -5.60055,-4.29011 -5.76696,-4.05352 -5.92816,-3.8091 -6.07377,-3.5621 -6.21417,-3.31509 -6.33378,-3.05509 -6.450785,-2.80027 -6.55218,-2.53507 -6.64318,-2.26987 -6.72119,-1.99685 -6.79138,-1.72125 -6.84859,-1.44044 -6.89513,-1.16223 -6.92789,-0.86842 -6.95208,-0.57982 -6.96429,-0.28081 -6.96637,0.0156 -6.95519,0.32501 -6.93491,0.62922 -6.90033,0.94382 -6.85769,1.25844 -6.79971,1.58084 -6.73497,1.90326 -6.65644,2.23606 -6.5683,2.56367 -6.46664,2.90688 -6.35588,3.24489 -6.23211,3.5907 -6.09899,3.94171"
         style="fill:#656263;fill-opacity:1;fill-rule:evenodd;stroke:none"
         id="path38-6"
         inkscape:connector-curvature="0" />
      <path
         d="m -251.56382,480.67228 3.47656,15.05701 5.85536,-3.7831 5.98199,-3.4477 6.10106,-3.11488 6.20872,-2.78988 6.30517,-2.46227 6.3915,-2.14506 6.46455,-1.82785 6.52775,-1.51844 6.58338,-1.20643 6.62524,-0.90743 6.65644,-0.60582 6.67699,-0.3094 6.68816,-0.0156 6.68583,0.2704 6.67282,0.55642 6.65177,0.83462 6.619,1.11283 6.57532,1.38584 6.51864,1.65105 6.45338,1.91625 6.37797,2.18146 6.28958,2.43107 6.190775,2.68847 6.08157,2.93288 5.96456,3.18249 5.83196,3.41909 5.69156,3.6583 5.53555,3.88971 5.37695,4.12112 5.20014,4.34212 5.01554,4.56572 4.82054,4.78153 4.54492,4.90634 4.29532,5.04674 4.05091,5.17934 3.80391,5.30675 3.5543,5.42375 3.30989,5.53815 3.05768,5.64216 2.81068,5.74096 2.56107,5.83456 2.31146,5.92036 2.05926,6.00097 1.80965,6.0683 1.55744,6.13669 1.3078397,6.19441 1.05303,6.2472 0.79822,6.29113 0.54862,6.33039 0.2938,6.36212 0.0416,6.38656 -0.2158,6.40475 -0.47061,6.41464 -0.72542,6.42114 -0.98283,6.41776 -1.2402397,6.40891 -1.49504,6.39358 -1.75505,6.37095 -2.00985,6.3408 -2.27246,6.30517 -2.52727,6.26254 -2.78728,6.21391 -3.05248,6.15567 -3.3073,6.09301 5.62916,-5.95183 3.44769,-6.34677 3.17729,-6.41282 2.90428,-6.47184 2.63388,-6.52436 2.3660597,-6.56726 2.09306,-6.60574 1.82785,-6.63643 1.55744,-6.65956 1.29224,-6.67594 1.02183,-6.68505 0.75922004,-6.6879 0.48621,-6.68323 0.22621,-6.67074 -0.0416,-6.65255 -0.30681,-6.62706 -0.57202004,-6.59456 -0.83202,-6.55296 -1.09723,-6.50746 -1.35984,-6.45234 -1.62504,-6.39358 -1.88506,-6.32077 -2.14506,-6.25057 -2.4050597,-6.16737 -2.67028,-6.07897 -2.92508,-5.98017 -3.18768,-5.87616 -3.4451,-5.76696 -3.7051,-5.65255 -3.95991,-5.52516 -4.21992,-5.39515 -4.47472,-5.25734 -4.73473,-5.11174 -5.02074,-4.97914 -5.22615,-4.75813 -5.41595,-4.52413 -5.60055,-4.29011 -5.76696,-4.05352 -5.92816,-3.8091 -6.07377,-3.5621 -6.21417,-3.31509 -6.33378,-3.05509 -6.450785,-2.80027 -6.55218,-2.53507 -6.64318,-2.26987 -6.72119,-1.99685 -6.79138,-1.72125 -6.84859,-1.44044 -6.89513,-1.16223 -6.92789,-0.86842 -6.95208,-0.57982 -6.96429,-0.28081 -6.96637,0.0156 -6.95519,0.32501 -6.93491,0.62922 -6.90033,0.94382 -6.85769,1.25844 -6.79971,1.58084 -6.73497,1.90326 -6.65644,2.23606 -6.5683,2.56367 -6.46664,2.90688 -6.35588,3.24489 -6.23211,3.5907 -6.09899,3.94171 z"
         style="fill:none;stroke:#231f20;stroke-width:5.20048189;stroke-linecap:butt;stroke-linejoin:bevel;stroke-miterlimit:2.61310005;stroke-dasharray:none;stroke-opacity:1"
         id="path40-7"
         inkscape:connector-curvature="0" />
      <path
         d="m -53.727985,696.98291 -4.43573,6.4058 -4.01971,27.12707 4.26932,-5.27529 4.18612,-28.25758"
         style="fill:#656263;fill-opacity:1;fill-rule:evenodd;stroke:none"
         id="path42-4"
         inkscape:connector-curvature="0" />
      <path
         d="m -53.727985,696.98291 -4.43573,6.4058 -4.01971,27.12707 4.26932,-5.27529 4.18612,-28.25758 z"
         style="fill:none;stroke:#231f20;stroke-width:5.20048189;stroke-linecap:butt;stroke-linejoin:bevel;stroke-miterlimit:2.61310005;stroke-dasharray:none;stroke-opacity:1"
         id="path44-8"
         inkscape:connector-curvature="0" />
      <path
         d="m -80.186315,712.89717 -3.3801,5.76904 0.28341,12.85397 3.39049,-5.23264 -0.2938,-13.39037"
         style="fill:#656263;fill-opacity:1;fill-rule:evenodd;stroke:none"
         id="path46-7"
         inkscape:connector-curvature="0" />
      <path
         d="m -80.186315,712.89717 -3.3801,5.76904 0.28341,12.85397 3.39049,-5.23264 -0.2938,-13.39037 z"
         style="fill:none;stroke:#231f20;stroke-width:5.20048189;stroke-linecap:butt;stroke-linejoin:bevel;stroke-miterlimit:2.61310005;stroke-dasharray:none;stroke-opacity:1"
         id="path48-1"
         inkscape:connector-curvature="0" />
      <path
         d="m -87.492525,737.05548 -3.08628,4.80311 18.1615,18.16202 3.84291,-4.04545 -18.91813,-18.91968"
         style="fill:#656263;fill-opacity:1;fill-rule:evenodd;stroke:none"
         id="path50-9"
         inkscape:connector-curvature="0" />
      <path
         d="m -87.492525,737.05548 -3.08628,4.80311 18.1615,18.16202 3.84291,-4.04545 -18.91813,-18.91968 z"
         style="fill:none;stroke:#231f20;stroke-width:5.20048189;stroke-linecap:butt;stroke-linejoin:bevel;stroke-miterlimit:2.61310005;stroke-dasharray:none;stroke-opacity:1"
         id="path52-0"
         inkscape:connector-curvature="0" />
      <path
         d="m -281.55513,741.88901 4.67623,4.60915 -4.03115,-4.38268 -4.68013,-5.61044 -4.43338,-5.71912 -4.18039,-5.82468 -3.92767,-5.92348 -3.67052,-6.01345 -3.4126,-6.10211 -3.15051,-6.18141 -2.88842,-6.25733 -2.61957,-6.32337 -2.35306,-6.3876 -2.08214,-6.44428 -1.80679,-6.49394 -1.53066,-6.53892 -1.25324,-6.5774 -0.97112,-6.60886 -0.68746,-6.63825 -0.40015,-6.65566 -0.11181,-6.67282 0.18071,-6.67985 0.47243,-6.684 0.76988,-6.67907 1.06837,-6.67178 1.3692,-6.65541 1.67367,-6.63538 1.98151,-6.60678 2.28936,-6.57558 2.60008,-6.53398 2.91494,-6.49238 3.23163,-6.43778 3.54987,-6.38318 3.87151,-6.31817 4.1947,-6.25317 -5.42661,-13.31497 -4.3702,6.51058 -4.0322,6.58338 -3.69808,6.65098 -3.36683,6.70559 -3.0348,6.76019 -2.7098,6.80958 -2.38479,6.84859 -2.06367,6.87979 -1.74283,6.91359 -1.42718,6.9331 -1.11205,6.94895 -0.80238,6.95727 -0.49246,6.96325 -0.18798,6.95831 0.11674,6.95 0.41653,6.93309 0.71606,6.91437 1.01143,6.88525 1.30524,6.85145 1.59462,6.81115 1.88297,6.76512 2.16742,6.71157 2.45161,6.65358 2.72904,6.58728 3.00854,6.5176 3.28259,6.43908 3.55482,6.35614 3.82288,6.26461 4.09096,6.17101 4.35512,6.06649 4.61824,5.9578 4.87514,5.84314 4.19859,4.56625"
         style="fill:#656263;fill-opacity:1;fill-rule:evenodd;stroke:none"
         id="path54-4"
         inkscape:connector-curvature="0" />
      <path
         d="m -281.55513,741.88901 4.67623,4.60915 -4.03115,-4.38268 -4.68013,-5.61044 -4.43338,-5.71912 -4.18039,-5.82468 -3.92767,-5.92348 -3.67052,-6.01345 -3.4126,-6.10211 -3.15051,-6.18141 -2.88842,-6.25733 -2.61957,-6.32337 -2.35306,-6.3876 -2.08214,-6.44428 -1.80679,-6.49394 -1.53066,-6.53892 -1.25324,-6.5774 -0.97112,-6.60886 -0.68746,-6.63825 -0.40015,-6.65566 -0.11181,-6.67282 0.18071,-6.67985 0.47243,-6.684 0.76988,-6.67907 1.06837,-6.67178 1.3692,-6.65541 1.67367,-6.63538 1.98151,-6.60678 2.28936,-6.57558 2.60008,-6.53398 2.91494,-6.49238 3.23163,-6.43778 3.54987,-6.38318 3.87151,-6.31817 4.1947,-6.25317 -5.42661,-13.31497 -4.3702,6.51058 -4.0322,6.58338 -3.69808,6.65098 -3.36683,6.70559 -3.0348,6.76019 -2.7098,6.80958 -2.38479,6.84859 -2.06367,6.87979 -1.74283,6.91359 -1.42718,6.9331 -1.11205,6.94895 -0.80238,6.95727 -0.49246,6.96325 -0.18798,6.95831 0.11674,6.95 0.41653,6.93309 0.71606,6.91437 1.01143,6.88525 1.30524,6.85145 1.59462,6.81115 1.88297,6.76512 2.16742,6.71157 2.45161,6.65358 2.72904,6.58728 3.00854,6.5176 3.28259,6.43908 3.55482,6.35614 3.82288,6.26461 4.09096,6.17101 4.35512,6.06649 4.61824,5.9578 4.87514,5.84314 4.19859,4.56625 z"
         style="fill:none;stroke:#231f20;stroke-width:5.20048189;stroke-linecap:butt;stroke-linejoin:bevel;stroke-miterlimit:2.61310005;stroke-dasharray:none;stroke-opacity:1"
         id="path56-0"
         inkscape:connector-curvature="0" />
      <path
         d="m -90.394205,830.08126 -2.96928,1.08064 -9.854275,3.34658 -10.05968,2.86822 -10.25728,2.37662 -10.43279,1.87184 -10.60231,1.35287 -10.75572,0.82267 -10.89612,0.27625 -10.89378,-0.27625 -10.75572,-0.82267 -10.60049,-1.35287 -10.43565,-1.87184 -10.25416,-2.37662 -10.06098,-2.86822 -9.85297,-3.34658 -3.10085,-1.08064 10.26431,3.4847 10.47958,2.98805 10.68058,2.47516 10.87038,1.95006 11.04329,1.4097 11.2037,0.85722 11.34776,0.28744 11.35009,-0.28744 11.20267,-0.85722 11.04511,-1.4097 10.86752,-1.95006 10.68369,-2.47516 10.47829,-2.98805 10.265085,-3.4847"
         style="fill:#656263;fill-opacity:1;fill-rule:evenodd;stroke:none"
         id="path58-1"
         inkscape:connector-curvature="0" />
      <path
         d="m -90.394205,830.08126 -2.96928,1.08064 -9.854275,3.34658 -10.05968,2.86822 -10.25728,2.37662 -10.43279,1.87184 -10.60231,1.35287 -10.75572,0.82267 -10.89612,0.27625 -10.89378,-0.27625 -10.75572,-0.82267 -10.60049,-1.35287 -10.43565,-1.87184 -10.25416,-2.37662 -10.06098,-2.86822 -9.85297,-3.34658 -3.10085,-1.08064 10.26431,3.4847 10.47958,2.98805 10.68058,2.47516 10.87038,1.95006 11.04329,1.4097 11.2037,0.85722 11.34776,0.28744 11.35009,-0.28744 11.20267,-0.85722 11.04511,-1.4097 10.86752,-1.95006 10.68369,-2.47516 10.47829,-2.98805 10.265085,-3.4847 z"
         style="fill:none;stroke:#231f20;stroke-width:5.20048189;stroke-linecap:butt;stroke-linejoin:bevel;stroke-miterlimit:2.61310005;stroke-dasharray:none;stroke-opacity:1"
         id="path60-1"
         inkscape:connector-curvature="0" />
      <path
         d="m -300.32842,524.22088 5.42661,13.31497 30.14055,30.14003 -4.1713,-12.05913 -31.39586,-31.39587"
         style="fill:#656263;fill-opacity:1;fill-rule:evenodd;stroke:none"
         id="path62-6"
         inkscape:connector-curvature="0" />
      <path
         d="m -300.32842,524.22088 5.42661,13.31497 30.14055,30.14003 -4.1713,-12.05913 -31.39586,-31.39587 z"
         style="fill:none;stroke:#231f20;stroke-width:5.20048189;stroke-linecap:butt;stroke-linejoin:bevel;stroke-miterlimit:2.61310005;stroke-dasharray:none;stroke-opacity:1"
         id="path64-1"
         inkscape:connector-curvature="0" />
      <path
         d="m -268.93256,555.61675 4.1713,12.05913 2.63881,-27.05115 -4.06079,-13.18756 -2.74932,28.17958"
         style="fill:#656263;fill-opacity:1;fill-rule:evenodd;stroke:none"
         id="path66-9"
         inkscape:connector-curvature="0" />
      <path
         d="m -268.93256,555.61675 4.1713,12.05913 2.63881,-27.05115 -4.06079,-13.18756 -2.74932,28.17958 z"
         style="fill:none;stroke:#231f20;stroke-width:5.20048189;stroke-linecap:butt;stroke-linejoin:bevel;stroke-miterlimit:2.61310005;stroke-dasharray:none;stroke-opacity:1"
         id="path68-4"
         inkscape:connector-curvature="0" />
      <path
         d="m -266.18324,527.43717 4.06079,13.18756 19.08999,6.02957 -3.26621,-12.93796 -19.88457,-6.27917"
         style="fill:#656263;fill-opacity:1;fill-rule:evenodd;stroke:none"
         id="path70-2"
         inkscape:connector-curvature="0" />
      <path
         d="m -266.18324,527.43717 4.06079,13.18756 19.08999,6.02957 -3.26621,-12.93796 -19.88457,-6.27917 z"
         style="fill:none;stroke:#231f20;stroke-width:5.20048189;stroke-linecap:butt;stroke-linejoin:bevel;stroke-miterlimit:2.61310005;stroke-dasharray:none;stroke-opacity:1"
         id="path72-8"
         inkscape:connector-curvature="0" />
      <path
         d="m -246.29867,533.71634 3.26621,12.93796 4.01893,-22.10581 -3.09877,-13.85578 -4.18637,23.02363"
         style="fill:#656263;fill-opacity:1;fill-rule:evenodd;stroke:none"
         id="path74-7"
         inkscape:connector-curvature="0" />
      <path
         d="m -246.29867,533.71634 3.26621,12.93796 4.01893,-22.10581 -3.09877,-13.85578 -4.18637,23.02363 z"
         style="fill:none;stroke:#231f20;stroke-width:5.20048189;stroke-linecap:butt;stroke-linejoin:bevel;stroke-miterlimit:2.61310005;stroke-dasharray:none;stroke-opacity:1"
         id="path76-9"
         inkscape:connector-curvature="0" />
      <path
         d="m -242.1123,510.69271 3.09877,13.85578 17.81881,-1.92666 -2.3554,-13.93638 -18.56218,2.00726"
         style="fill:#656263;fill-opacity:1;fill-rule:evenodd;stroke:none"
         id="path78-3"
         inkscape:connector-curvature="0" />
      <path
         d="m -242.1123,510.69271 3.09877,13.85578 17.81881,-1.92666 -2.3554,-13.93638 -18.56218,2.00726 z"
         style="fill:none;stroke:#231f20;stroke-width:5.20048189;stroke-linecap:butt;stroke-linejoin:bevel;stroke-miterlimit:2.61310005;stroke-dasharray:none;stroke-opacity:1"
         id="path80-1"
         inkscape:connector-curvature="0" />
      <path
         d="m -251.56382,480.67228 3.47656,15.05701 5.85536,-3.7831 5.98199,-3.4477 6.10106,-3.11488 6.20872,-2.78988 6.30517,-2.46227 6.3915,-2.14506 6.46455,-1.82785 6.52775,-1.51844 6.58338,-1.20643 6.62524,-0.90743 6.65644,-0.60582 6.67699,-0.3094 6.68816,-0.0156 6.68583,0.2704 6.67282,0.55642 6.65177,0.83462 6.619,1.11283 6.57532,1.38584 6.51864,1.65105 6.45338,1.91625 6.37797,2.18146 6.28958,2.43107 6.190775,2.68847 6.08157,2.93288 5.96456,3.18249 5.83196,3.41909 5.69156,3.6583 5.53555,3.88971 5.37695,4.12112 5.20014,4.34212 5.01554,4.56572 4.82054,4.78153 4.54492,4.90634 4.29532,5.04674 4.05091,5.17934 3.80391,5.30675 3.5543,5.42375 3.30989,5.53815 3.05768,5.64216 2.81068,5.74096 2.56107,5.83456 2.31146,5.92036 2.05926,6.00097 1.80965,6.0683 1.55744,6.13669 1.3078397,6.19441 1.05303,6.2472 0.79822,6.29113 0.54862,6.33039 0.2938,6.36212 0.0416,6.38656 -0.2158,6.40475 -0.47061,6.41464 -0.72542,6.42114 -0.98283,6.41776 -1.2402397,6.40891 -1.49504,6.39358 -1.75505,6.37095 -2.00985,6.3408 -2.27246,6.30517 -2.52727,6.26254 -2.78728,6.21391 -3.05248,6.15567 -3.3073,6.09301 5.62916,-5.95183 3.44769,-6.34677 3.17729,-6.41282 2.90428,-6.47184 2.63388,-6.52436 2.3660597,-6.56726 2.09306,-6.60574 1.82785,-6.63643 1.55744,-6.65956 1.29224,-6.67594 1.02183,-6.68505 0.75922004,-6.6879 0.48621,-6.68323 0.22621,-6.67074 -0.0416,-6.65255 -0.30681,-6.62706 -0.57202004,-6.59456 -0.83202,-6.55296 -1.09723,-6.50746 -1.35984,-6.45234 -1.62504,-6.39358 -1.88506,-6.32077 -2.14506,-6.25057 -2.4050597,-6.16737 -2.67028,-6.07897 -2.92508,-5.98017 -3.18768,-5.87616 -3.4451,-5.76696 -3.7051,-5.65255 -3.95991,-5.52516 -4.21992,-5.39515 -4.47472,-5.25734 -4.73473,-5.11174 -5.02074,-4.97914 -5.22615,-4.75813 -5.41595,-4.52413 -5.60055,-4.29011 -5.76696,-4.05352 -5.92816,-3.8091 -6.07377,-3.5621 -6.21417,-3.31509 -6.33378,-3.05509 -6.450785,-2.80027 -6.55218,-2.53507 -6.64318,-2.26987 -6.72119,-1.99685 -6.79138,-1.72125 -6.84859,-1.44044 -6.89513,-1.16223 -6.92789,-0.86842 -6.95208,-0.57982 -6.96429,-0.28081 -6.96637,0.0156 -6.95519,0.32501 -6.93491,0.62922 -6.90033,0.94382 -6.85769,1.25844 -6.79971,1.58084 -6.73497,1.90326 -6.65644,2.23606 -6.5683,2.56367 -6.46664,2.90688 -6.35588,3.24489 -6.23211,3.5907 -6.09899,3.94171"
         style="fill:#656263;fill-opacity:1;fill-rule:evenodd;stroke:none"
         id="path82-7"
         inkscape:connector-curvature="0" />
      <path
         d="m -251.56382,480.67228 3.47656,15.05701 5.85536,-3.7831 5.98199,-3.4477 6.10106,-3.11488 6.20872,-2.78988 6.30517,-2.46227 6.3915,-2.14506 6.46455,-1.82785 6.52775,-1.51844 6.58338,-1.20643 6.62524,-0.90743 6.65644,-0.60582 6.67699,-0.3094 6.68816,-0.0156 6.68583,0.2704 6.67282,0.55642 6.65177,0.83462 6.619,1.11283 6.57532,1.38584 6.51864,1.65105 6.45338,1.91625 6.37797,2.18146 6.28958,2.43107 6.190775,2.68847 6.08157,2.93288 5.96456,3.18249 5.83196,3.41909 5.69156,3.6583 5.53555,3.88971 5.37695,4.12112 5.20014,4.34212 5.01554,4.56572 4.82054,4.78153 4.54492,4.90634 4.29532,5.04674 4.05091,5.17934 3.80391,5.30675 3.5543,5.42375 3.30989,5.53815 3.05768,5.64216 2.81068,5.74096 2.56107,5.83456 2.31146,5.92036 2.05926,6.00097 1.80965,6.0683 1.55744,6.13669 1.3078397,6.19441 1.05303,6.2472 0.79822,6.29113 0.54862,6.33039 0.2938,6.36212 0.0416,6.38656 -0.2158,6.40475 -0.47061,6.41464 -0.72542,6.42114 -0.98283,6.41776 -1.2402397,6.40891 -1.49504,6.39358 -1.75505,6.37095 -2.00985,6.3408 -2.27246,6.30517 -2.52727,6.26254 -2.78728,6.21391 -3.05248,6.15567 -3.3073,6.09301 5.62916,-5.95183 3.44769,-6.34677 3.17729,-6.41282 2.90428,-6.47184 2.63388,-6.52436 2.3660597,-6.56726 2.09306,-6.60574 1.82785,-6.63643 1.55744,-6.65956 1.29224,-6.67594 1.02183,-6.68505 0.75922004,-6.6879 0.48621,-6.68323 0.22621,-6.67074 -0.0416,-6.65255 -0.30681,-6.62706 -0.57202004,-6.59456 -0.83202,-6.55296 -1.09723,-6.50746 -1.35984,-6.45234 -1.62504,-6.39358 -1.88506,-6.32077 -2.14506,-6.25057 -2.4050597,-6.16737 -2.67028,-6.07897 -2.92508,-5.98017 -3.18768,-5.87616 -3.4451,-5.76696 -3.7051,-5.65255 -3.95991,-5.52516 -4.21992,-5.39515 -4.47472,-5.25734 -4.73473,-5.11174 -5.02074,-4.97914 -5.22615,-4.75813 -5.41595,-4.52413 -5.60055,-4.29011 -5.76696,-4.05352 -5.92816,-3.8091 -6.07377,-3.5621 -6.21417,-3.31509 -6.33378,-3.05509 -6.450785,-2.80027 -6.55218,-2.53507 -6.64318,-2.26987 -6.72119,-1.99685 -6.79138,-1.72125 -6.84859,-1.44044 -6.89513,-1.16223 -6.92789,-0.86842 -6.95208,-0.57982 -6.96429,-0.28081 -6.96637,0.0156 -6.95519,0.32501 -6.93491,0.62922 -6.90033,0.94382 -6.85769,1.25844 -6.79971,1.58084 -6.73497,1.90326 -6.65644,2.23606 -6.5683,2.56367 -6.46664,2.90688 -6.35588,3.24489 -6.23211,3.5907 -6.09899,3.94171 z"
         style="fill:none;stroke:#231f20;stroke-width:5.20048189;stroke-linecap:butt;stroke-linejoin:bevel;stroke-miterlimit:2.61310005;stroke-dasharray:none;stroke-opacity:1"
         id="path84-3"
         inkscape:connector-curvature="0" />
      <path
         d="m -53.727985,696.98291 -4.43573,6.4058 -4.01971,27.12707 4.26932,-5.27529 4.18612,-28.25758"
         style="fill:#656263;fill-opacity:1;fill-rule:evenodd;stroke:none"
         id="path86-1"
         inkscape:connector-curvature="0" />
      <path
         d="m -53.727985,696.98291 -4.43573,6.4058 -4.01971,27.12707 4.26932,-5.27529 4.18612,-28.25758 z"
         style="fill:none;stroke:#231f20;stroke-width:5.20048189;stroke-linecap:butt;stroke-linejoin:bevel;stroke-miterlimit:2.61310005;stroke-dasharray:none;stroke-opacity:1"
         id="path88-7"
         inkscape:connector-curvature="0" />
      <path
         d="m -80.186315,712.89717 -3.3801,5.76904 0.28341,12.85397 3.39049,-5.23264 -0.2938,-13.39037"
         style="fill:#656263;fill-opacity:1;fill-rule:evenodd;stroke:none"
         id="path90-7"
         inkscape:connector-curvature="0" />
      <path
         d="m -80.186315,712.89717 -3.3801,5.76904 0.28341,12.85397 3.39049,-5.23264 -0.2938,-13.39037 z"
         style="fill:none;stroke:#231f20;stroke-width:5.20048189;stroke-linecap:butt;stroke-linejoin:bevel;stroke-miterlimit:2.61310005;stroke-dasharray:none;stroke-opacity:1"
         id="path92-6"
         inkscape:connector-curvature="0" />
      <path
         d="m -87.492525,737.05548 -3.08628,4.80311 18.1615,18.16202 3.84291,-4.04545 -18.91813,-18.91968"
         style="fill:#656263;fill-opacity:1;fill-rule:evenodd;stroke:none"
         id="path94-0"
         inkscape:connector-curvature="0" />
      <path
         d="m -87.492525,737.05548 -3.08628,4.80311 18.1615,18.16202 3.84291,-4.04545 -18.91813,-18.91968 z"
         style="fill:none;stroke:#231f20;stroke-width:5.20048189;stroke-linecap:butt;stroke-linejoin:bevel;stroke-miterlimit:2.61310005;stroke-dasharray:none;stroke-opacity:1"
         id="path96-9"
         inkscape:connector-curvature="0" />
      <path
         d="m -281.55513,741.88901 4.67623,4.60915 -4.03115,-4.38268 -4.68013,-5.61044 -4.43338,-5.71912 -4.18039,-5.82468 -3.92767,-5.92348 -3.67052,-6.01345 -3.4126,-6.10211 -3.15051,-6.18141 -2.88842,-6.25733 -2.61957,-6.32337 -2.35306,-6.3876 -2.08214,-6.44428 -1.80679,-6.49394 -1.53066,-6.53892 -1.25324,-6.5774 -0.97112,-6.60886 -0.68746,-6.63825 -0.40015,-6.65566 -0.11181,-6.67282 0.18071,-6.67985 0.47243,-6.684 0.76988,-6.67907 1.06837,-6.67178 1.3692,-6.65541 1.67367,-6.63538 1.98151,-6.60678 2.28936,-6.57558 2.60008,-6.53398 2.91494,-6.49238 3.23163,-6.43778 3.54987,-6.38318 3.87151,-6.31817 4.1947,-6.25317 -5.42661,-13.31497 -4.3702,6.51058 -4.0322,6.58338 -3.69808,6.65098 -3.36683,6.70559 -3.0348,6.76019 -2.7098,6.80958 -2.38479,6.84859 -2.06367,6.87979 -1.74283,6.91359 -1.42718,6.9331 -1.11205,6.94895 -0.80238,6.95727 -0.49246,6.96325 -0.18798,6.95831 0.11674,6.95 0.41653,6.93309 0.71606,6.91437 1.01143,6.88525 1.30524,6.85145 1.59462,6.81115 1.88297,6.76512 2.16742,6.71157 2.45161,6.65358 2.72904,6.58728 3.00854,6.5176 3.28259,6.43908 3.55482,6.35614 3.82288,6.26461 4.09096,6.17101 4.35512,6.06649 4.61824,5.9578 4.87514,5.84314 4.19859,4.56625"
         style="fill:#656263;fill-opacity:1;fill-rule:evenodd;stroke:none"
         id="path98-7"
         inkscape:connector-curvature="0" />
      <path
         d="m -281.55513,741.88901 4.67623,4.60915 -4.03115,-4.38268 -4.68013,-5.61044 -4.43338,-5.71912 -4.18039,-5.82468 -3.92767,-5.92348 -3.67052,-6.01345 -3.4126,-6.10211 -3.15051,-6.18141 -2.88842,-6.25733 -2.61957,-6.32337 -2.35306,-6.3876 -2.08214,-6.44428 -1.80679,-6.49394 -1.53066,-6.53892 -1.25324,-6.5774 -0.97112,-6.60886 -0.68746,-6.63825 -0.40015,-6.65566 -0.11181,-6.67282 0.18071,-6.67985 0.47243,-6.684 0.76988,-6.67907 1.06837,-6.67178 1.3692,-6.65541 1.67367,-6.63538 1.98151,-6.60678 2.28936,-6.57558 2.60008,-6.53398 2.91494,-6.49238 3.23163,-6.43778 3.54987,-6.38318 3.87151,-6.31817 4.1947,-6.25317 -5.42661,-13.31497 -4.3702,6.51058 -4.0322,6.58338 -3.69808,6.65098 -3.36683,6.70559 -3.0348,6.76019 -2.7098,6.80958 -2.38479,6.84859 -2.06367,6.87979 -1.74283,6.91359 -1.42718,6.9331 -1.11205,6.94895 -0.80238,6.95727 -0.49246,6.96325 -0.18798,6.95831 0.11674,6.95 0.41653,6.93309 0.71606,6.91437 1.01143,6.88525 1.30524,6.85145 1.59462,6.81115 1.88297,6.76512 2.16742,6.71157 2.45161,6.65358 2.72904,6.58728 3.00854,6.5176 3.28259,6.43908 3.55482,6.35614 3.82288,6.26461 4.09096,6.17101 4.35512,6.06649 4.61824,5.9578 4.87514,5.84314 4.19859,4.56625 z"
         style="fill:none;stroke:#231f20;stroke-width:5.20048189;stroke-linecap:butt;stroke-linejoin:bevel;stroke-miterlimit:2.61310005;stroke-dasharray:none;stroke-opacity:1"
         id="path100-8"
         inkscape:connector-curvature="0" />
      <path
         d="m -166.28666,401.31808 c 121.781125,0 221.109065,99.32535 221.109065,221.10673 0,121.78294 -99.32794,221.10878 -221.109065,221.10878 -121.78191,0 -221.10859,-99.32584 -221.10859,-221.10878 0,-121.78138 99.32668,-221.10673 221.10859,-221.10673 z m -134.04176,122.9028 31.39586,31.39587 2.74932,-28.17958 19.88457,6.27917 4.18637,-23.02363 18.56218,-2.00726 -28.0137,-28.01317 c 64.2899,-43.91522 153.416205,-27.46716 205.854455,26.86134 51.8428297,53.71228 60.01745,133.4583 21.799,200.79106 l -19.78915,-19.78784 -10.02847,8.44607 -4.18612,28.25758 -22.27221,-12.34332 0.2938,13.39037 -7.60001,10.76794 18.91813,18.91968 c -69.100295,53.68134 -174.314805,30.88911 -217.179325,-18.6524 -53.38467,-61.69892 -63.00415,-144.05515 -14.5747,-213.10188"
         style="fill:#ffffff;fill-opacity:1;fill-rule:evenodd;stroke:none"
         id="path102-6"
         inkscape:connector-curvature="0" />
      <path
         d="m -166.28666,401.31808 c 121.781125,0 221.109065,99.32535 221.109065,221.10673 0,121.78294 -99.32794,221.10878 -221.109065,221.10878 -121.78191,0 -221.10859,-99.32584 -221.10859,-221.10878 0,-121.78138 99.32668,-221.10673 221.10859,-221.10673 z m -134.04176,122.9028 31.39586,31.39587 2.74932,-28.17958 19.88457,6.27917 4.18637,-23.02363 18.56218,-2.00726 -28.0137,-28.01317 c 64.2899,-43.91522 153.416205,-27.46716 205.854455,26.86134 51.8428297,53.71228 60.01745,133.4583 21.799,200.79106 l -19.78915,-19.78784 -10.02847,8.44607 -4.18612,28.25758 -22.27221,-12.34332 0.2938,13.39037 -7.60001,10.76794 18.91813,18.91968 c -69.100295,53.68134 -174.314805,30.88911 -217.179325,-18.6524 -53.38467,-61.69892 -63.00415,-144.05515 -14.5747,-213.10188 z"
         style="fill:none;stroke:#231f20;stroke-width:5.20048189;stroke-linecap:butt;stroke-linejoin:miter;stroke-miterlimit:2.61310005;stroke-dasharray:none;stroke-opacity:1"
         id="path104-3"
         inkscape:connector-curvature="0" />
      <path
         d="m -266.78438,569.65453 15.86642,-22.88583 17.63866,-9.8388 -6.0439,-6.94206 -6.71234,-3.96771 -4.57769,-4.57613 7.32284,0.61102 11.90053,3.35669 7.62861,1.83045 14.21034,3.73137 16.83106,-23.66716 31.3642,-9.3723 -10.56747,6.59038 -2.46704,10.87881 1.79333,9.70274 34.43331,-9.59536 36.57754,18.04145 21.091425,26.85661 -9.62966,-4.96125 -9.40432,-0.30366 5.36704,22.56816 0.12558,30.66858 6.79654,4.22304 6.32004,12.08523 -0.11266,19.47092 -10.59558,17.32669 -16.551795,0.64932 -6.78362,12.79998 -26.90824,18.35511 -4.04105,21.17016 -97.37167,-5.95298 -3.70411,-12.01781 -18.19227,-22.79967 5.05617,-23.97896 -9.60045,-21.78889 3.8769,-21.45193 13.31104,-9.32234 4.55077,-33.07614 -18.85804,8.91775"
         style="fill:#ffffff;fill-opacity:1;fill-rule:evenodd;stroke:none"
         id="path106-6"
         inkscape:connector-curvature="0"
         sodipodi:nodetypes="ccccccccccccccccccccccccccccccccccccccc" />
      <path
         d="m -218.18332,626.4011 c 11.22087,0 20.37287,2.88348 20.37287,6.41906 0,3.53532 -9.152,6.41775 -20.37287,6.41775 -11.22113,0 -20.37208,-2.88243 -20.37208,-6.41775 0,-3.53558 9.15095,-6.41906 20.37208,-6.41906"
         style="fill:#e9e9e9;fill-opacity:1;fill-rule:evenodd;stroke:none"
         id="path108-4"
         inkscape:connector-curvature="0" />
      <path
         d="m -131.47716,627.50613 c 11.22113,0 20.37338,2.88244 20.37338,6.41906 0,3.53532 -9.15225,6.41776 -20.37338,6.41776 -11.22087,0 -20.37182,-2.88244 -20.37182,-6.41776 0,-3.53662 9.15095,-6.41906 20.37182,-6.41906"
         style="fill:#e9e9e9;fill-opacity:1;fill-rule:evenodd;stroke:none"
         id="path110-6"
         inkscape:connector-curvature="0" />
      <path
         d="m -104.8012,647.84571 c 3.8143,5.0275 15.532825,0.37675 17.303475,-11.16211 2.62608,11.72165 -7.65461,24.00101 -20.649775,23.44225 l 3.3463,-12.28014"
         style="fill:#e9e9e9;fill-opacity:1;fill-rule:evenodd;stroke:none"
         id="path112-7"
         inkscape:connector-curvature="0" />
      <path
         d="m -242.83824,637.8253 c -3.813,5.02645 -15.53361,0.37571 -17.30269,-11.16315 -2.6266,11.72164 7.65175,24.00204 20.65107,23.44224 l -3.34838,-12.27909"
         style="fill:#e9e9e9;fill-opacity:1;fill-rule:evenodd;stroke:none"
         id="path114-6"
         inkscape:connector-curvature="0" />
      <path
         d="m -254.4473,598.56811 c -2.23034,-0.42745 0.0224,-24.71446 3.4308,-30.92083 -2.28807,-2.68068 -14.27986,5.76956 -21.80706,14.87501 5.95182,-20.23636 16.38357,-40.95893 39.82088,-45.46226 l -24.04261,-18.1745 c 15.80558,1.76545 31.22634,4.48773 45.28701,10.62649 4.57249,-26.13332 43.57955,-33.74373 58.49746,-31.84307 l -11.22711,1.90585 c -15.67662,2.71707 -39.98209,11.73412 -42.41159,36.85862 -11.24011,-6.06337 -27.44506,-9.99988 -38.46469,-11.80693 l 16.94597,13.08876 c -9.83347,1.90845 -26.74304,5.01814 -36.23226,33.86074 7.69257,-6.14657 9.66187,-9.22506 18.54371,-9.18086 -3.1648,9.50327 -5.20924,21.88221 -3.86968,37.02815 l -4.47083,-0.85517"
         style="fill:#231f20;fill-opacity:1;fill-rule:evenodd;stroke:none"
         id="path116-1"
         inkscape:connector-curvature="0" />
      <path
         d="m -254.4473,598.56811 c -2.23034,-0.42745 0.0224,-24.71446 3.4308,-30.92083 -2.28807,-2.68068 -14.27986,5.76956 -21.80706,14.87501 5.95182,-20.23636 16.38357,-40.95893 39.82088,-45.46226 l -24.04261,-18.1745 c 15.80558,1.76545 31.22634,4.48773 45.28701,10.62649 4.57249,-26.13332 43.57955,-33.74373 58.49746,-31.84307 l -11.22711,1.90585 c -15.67662,2.71707 -39.98209,11.73412 -42.41159,36.85862 -11.24011,-6.06337 -27.44506,-9.99988 -38.46469,-11.80693 l 16.94597,13.08876 c -9.83347,1.90845 -26.74304,5.01814 -36.23226,33.86074 7.69257,-6.14657 9.66187,-9.22506 18.54371,-9.18086 -3.1648,9.50327 -5.20924,21.88221 -3.86968,37.02815 l -4.47083,-0.85517 z"
         style="fill:none;stroke:#231f20;stroke-width:0.56161553;stroke-linecap:butt;stroke-linejoin:miter;stroke-miterlimit:2.61310005;stroke-dasharray:none;stroke-opacity:1"
         id="path118-7"
         inkscape:connector-curvature="0" />
      <path
         d="m -211.56327,585.85818 5.39801,22.04185 8.37327,-2.79092 3.34759,-16.74524 -17.11887,-2.50569"
         style="fill:#e9e9e9;fill-opacity:1;fill-rule:evenodd;stroke:none"
         id="path120-8"
         inkscape:connector-curvature="0" />
      <path
         d="m -135.90638,585.20036 -5.39827,22.04159 -8.37197,-2.79118 -3.34864,-16.74498 17.11888,-2.50543"
         style="fill:#e9e9e9;fill-opacity:1;fill-rule:evenodd;stroke:none"
         id="path122-4"
         inkscape:connector-curvature="0" />
      <path
         d="m -239.33438,592.23148 c -0.44175,16.7715 7.76668,21.77378 16.07988,28.31348 -4.3663,-35.07939 2.52493,-64.4108 16.17011,-56.59238 22.78833,-19.52654 32.11895,5.52515 33.39766,47.80596 12.66131,-17.57181 15.60771,-30.12548 14.40726,-50.09663 19.22311,10.8449 46.38944,37.78581 41.79772,65.2137 l 15.73043,-16.54503 -10.35609,3.93755 c -6.98899,-25.86656 -27.84338,-43.99478 -49.4635,-58.17297 1.55406,22.15781 -2.1734,38.72235 -8.14759,46.90841 -0.79224,-50.94112 -21.73192,-61.34141 -37.69376,-42.9797 -12.79729,-9.16786 -25.36292,7.72741 -20.69605,49.52773 -4.47498,-1.08892 -6.75213,-4.00386 -11.22607,-17.32012"
         style="fill:#231f20;fill-opacity:1;fill-rule:evenodd;stroke:none"
         id="path124-5"
         inkscape:connector-curvature="0" />
      <path
         d="m -239.33438,592.23148 c -0.44175,16.7715 7.76668,21.77378 16.07988,28.31348 -4.3663,-35.07939 2.52493,-64.4108 16.17011,-56.59238 22.78833,-19.52654 32.11895,5.52515 33.39766,47.80596 12.66131,-17.57181 15.60771,-30.12548 14.40726,-50.09663 19.22311,10.8449 46.38944,37.78581 41.79772,65.2137 l 15.73043,-16.54503 -10.35609,3.93755 c -6.98899,-25.86656 -27.84338,-43.99478 -49.4635,-58.17297 1.55406,22.15781 -2.1734,38.72235 -8.14759,46.90841 -0.79224,-50.94112 -21.73192,-61.34141 -37.69376,-42.9797 -12.79729,-9.16786 -25.36292,7.72741 -20.69605,49.52773 -4.47498,-1.08892 -6.75213,-4.00386 -11.22607,-17.32012 z"
         style="fill:none;stroke:#231f20;stroke-width:0.56161553;stroke-linecap:butt;stroke-linejoin:miter;stroke-miterlimit:2.61310005;stroke-dasharray:none;stroke-opacity:1"
         id="path126-1"
         inkscape:connector-curvature="0" />
      <path
         d="m -106.47305,612.37189 c 20.418365,-17.21637 36.086405,14.23046 25.449505,39.32115 -2.60267,6.13435 -14.524,17.57076 -27.173355,13.82796 l 2.15546,-4.75319 c 4.60213,1.15183 14.994625,1.51844 19.409545,-8.21155 7.55061,-16.64046 7.04359,-50.55423 -19.841155,-40.18437"
         style="fill:#231f20;fill-opacity:1;fill-rule:evenodd;stroke:none"
         id="path128-3"
         inkscape:connector-curvature="0" />
      <path
         d="m -106.47305,612.37189 c 20.418365,-17.21637 36.086405,14.23046 25.449505,39.32115 -2.60267,6.13435 -14.524,17.57076 -27.173355,13.82796 l 2.15546,-4.75319 c 4.60213,1.15183 14.994625,1.51844 19.409545,-8.21155 7.55061,-16.64046 7.04359,-50.55423 -19.841155,-40.18437 z"
         style="fill:none;stroke:#231f20;stroke-width:0.56161553;stroke-linecap:butt;stroke-linejoin:miter;stroke-miterlimit:2.61310005;stroke-dasharray:none;stroke-opacity:1"
         id="path130-9"
         inkscape:connector-curvature="0" />
      <path
         d="m -235.81804,606.13276 c -37.56714,-24.7207 -41.84712,12.08825 -31.20918,37.17791 2.59903,6.13253 14.52192,17.57102 27.17179,13.82718 l -2.15624,-4.75319 c -4.59979,1.15183 -14.99514,1.5174 -19.40902,-8.21051 -7.54827,-16.64046 -14.67922,-55.37945 25.60265,-38.04139"
         style="fill:#231f20;fill-opacity:1;fill-rule:evenodd;stroke:none"
         id="path132-4"
         inkscape:connector-curvature="0" />
      <path
         d="m -235.81804,606.13276 c -37.56714,-24.7207 -41.84712,12.08825 -31.20918,37.17791 2.59903,6.13253 14.52192,17.57102 27.17179,13.82718 l -2.15624,-4.75319 c -4.59979,1.15183 -14.99514,1.5174 -19.40902,-8.21051 -7.54827,-16.64046 -14.67922,-55.37945 25.60265,-38.04139 z"
         style="fill:none;stroke:#231f20;stroke-width:0.56161553;stroke-linecap:butt;stroke-linejoin:miter;stroke-miterlimit:2.61310005;stroke-dasharray:none;stroke-opacity:1"
         id="path134-1"
         inkscape:connector-curvature="0" />
      <path
         d="m -258.40227,623.43338 c 5.60758,1.87179 10.63898,2.77688 15.0968,8.10598 -0.81772,29.45284 7.57765,46.47525 16.7572,50.84155 10.29161,4.89749 6.15073,-2.37959 2.56965,-6.41698 -18.83544,-21.22907 -16.44155,-43.72385 -13.63321,-63.7444 l -5.05376,14.25567 c -4.88944,-3.45705 -10.84932,-6.17101 -15.73668,-3.04182"
         style="fill:#231f20;fill-opacity:1;fill-rule:evenodd;stroke:none"
         id="path136-6"
         inkscape:connector-curvature="0" />
      <path
         d="m -258.40227,623.43338 c 5.60758,1.87179 10.63898,2.77688 15.0968,8.10598 -0.81772,29.45284 7.57765,46.47525 16.7572,50.84155 10.29161,4.89749 6.15073,-2.37959 2.56965,-6.41698 -18.83544,-21.22907 -16.44155,-43.72385 -13.63321,-63.7444 l -5.05376,14.25567 c -4.88944,-3.45705 -10.84932,-6.17101 -15.73668,-3.04182 z"
         style="fill:none;stroke:#231f20;stroke-width:0.56161553;stroke-linecap:butt;stroke-linejoin:miter;stroke-miterlimit:2.61310005;stroke-dasharray:none;stroke-opacity:1"
         id="path138-3"
         inkscape:connector-curvature="0" />
      <path
         d="m -91.213225,630.64364 c -4.82573,0.69864 -8.01342,4.48512 -12.469945,9.81423 0.81642,29.45283 -16.69506,43.77559 -25.87332,48.14085 -10.29056,4.89645 0.93343,-5.88656 5.22875,-9.15407 12.40234,-9.43749 18.4059,-32.958 15.59783,-52.97855 l 4.41492,8.58024 c 4.10811,-5.80336 8.996255,-6.35796 13.101765,-4.4027"
         style="fill:#231f20;fill-opacity:1;fill-rule:evenodd;stroke:none"
         id="path140-6"
         inkscape:connector-curvature="0" />
      <path
         d="m -91.213225,630.64364 c -4.82573,0.69864 -8.01342,4.48512 -12.469945,9.81423 0.81642,29.45283 -16.69506,43.77559 -25.87332,48.14085 -10.29056,4.89645 0.93343,-5.88656 5.22875,-9.15407 12.40234,-9.43749 18.4059,-32.958 15.59783,-52.97855 l 4.41492,8.58024 c 4.10811,-5.80336 8.996255,-6.35796 13.101765,-4.4027 z"
         style="fill:none;stroke:#231f20;stroke-width:0.56161553;stroke-linecap:butt;stroke-linejoin:miter;stroke-miterlimit:2.61310005;stroke-dasharray:none;stroke-opacity:1"
         id="path142-0"
         inkscape:connector-curvature="0" />
      <path
         d="m -126.543,663.44822 c 5.48875,-5.01944 11.62492,-6.32155 13.95458,-24.55767 3.7441,15.62903 -1.51324,20.09387 -8.93125,35.16311 l -5.02333,-10.60544"
         style="fill:#e9e9e9;fill-opacity:1;fill-rule:evenodd;stroke:none"
         id="path144-2"
         inkscape:connector-curvature="0" />
      <path
         d="m -92.235055,608.1733 c 2.15806,-19.37678 -0.0286,-40.01121 -6.00356,-51.76873 5.62655,-3.25269 11.1283,1.99945 21.76,10.12728 -21.23739,-41.71815 -52.778865,-64.85619 -95.288475,-44.64324 -4.75111,-12.87815 0.001,-20.75637 14.25567,-23.63465 -16.88097,2.62867 -25.13437,9.00665 -16.5063,30.01263 34.79729,-20.53537 70.00174,-2.87828 93.412785,34.13894 -8.12522,-9.39926 -12.24373,-9.91147 -21.385595,-7.87821 6.377985,11.25571 7.753425,43.51688 4.877745,54.39662 l 4.87773,-0.75064"
         style="fill:#231f20;fill-opacity:1;fill-rule:evenodd;stroke:none"
         id="path146-1"
         inkscape:connector-curvature="0" />
      <path
         d="m -92.235055,608.1733 c 2.15806,-19.37678 -0.0286,-40.01121 -6.00356,-51.76873 5.62655,-3.25269 11.1283,1.99945 21.76,10.12728 -21.23739,-41.71815 -52.778865,-64.85619 -95.288475,-44.64324 -4.75111,-12.87815 0.001,-20.75637 14.25567,-23.63465 -16.88097,2.62867 -25.13437,9.00665 -16.5063,30.01263 34.79729,-20.53537 70.00174,-2.87828 93.412785,34.13894 -8.12522,-9.39926 -12.24373,-9.91147 -21.385595,-7.87821 6.377985,11.25571 7.753425,43.51688 4.877745,54.39662 l 4.87773,-0.75064 z"
         style="fill:none;stroke:#231f20;stroke-width:0.56161553;stroke-linecap:butt;stroke-linejoin:miter;stroke-miterlimit:2.61310005;stroke-dasharray:none;stroke-opacity:1"
         id="path148-1"
         inkscape:connector-curvature="0" />
      <path
         d="m -220.91131,629.18214 -1.50024,-3.37724 c 9.12755,-14.37943 21.63234,-13.25412 30.76223,-2.62529 l -2.6266,3.37593 c -8.25418,-9.25261 -17.38382,-8.12522 -26.63539,2.6266"
         style="fill:#231f20;fill-opacity:1;fill-rule:evenodd;stroke:none"
         id="path150-1"
         inkscape:connector-curvature="0" />
      <path
         d="m -220.91131,629.18214 -1.50024,-3.37724 c 9.12755,-14.37943 21.63234,-13.25412 30.76223,-2.62529 l -2.6266,3.37593 c -8.25418,-9.25261 -17.38382,-8.12522 -26.63539,2.6266 z"
         style="fill:none;stroke:#231f20;stroke-width:0.56161553;stroke-linecap:butt;stroke-linejoin:miter;stroke-miterlimit:2.61310005;stroke-dasharray:none;stroke-opacity:1"
         id="path152-9"
         inkscape:connector-curvature="0" />
      <path
         d="m -125.43277,630.39975 1.50024,-3.37697 c -9.12703,-14.3797 -21.63156,-13.25439 -30.76145,-2.62556 l 2.62659,3.3762 c 8.25315,-9.25262 17.38382,-8.12627 26.63462,2.62633"
         style="fill:#231f20;fill-opacity:1;fill-rule:evenodd;stroke:none"
         id="path154-0"
         inkscape:connector-curvature="0" />
      <path
         d="m -125.43277,630.39975 1.50024,-3.37697 c -9.12703,-14.3797 -21.63156,-13.25439 -30.76145,-2.62556 l 2.62659,3.3762 c 8.25315,-9.25262 17.38382,-8.12627 26.63462,2.62633 z"
         style="fill:none;stroke:#231f20;stroke-width:0.56161553;stroke-linecap:butt;stroke-linejoin:miter;stroke-miterlimit:2.61310005;stroke-dasharray:none;stroke-opacity:1"
         id="path156"
         inkscape:connector-curvature="0" />
      <path
         d="m -220.62816,593.63526 -1.50102,-3.37724 c 8.00328,-9.87819 20.75793,-9.75339 30.76197,-2.62659 l -2.6253,3.37723 c -8.75496,-4.75007 -17.88459,-3.62424 -26.63565,2.6266"
         style="fill:#231f20;fill-opacity:1;fill-rule:evenodd;stroke:none"
         id="path158"
         inkscape:connector-curvature="0" />
      <path
         d="m -220.62816,593.63526 -1.50102,-3.37724 c 8.00328,-9.87819 20.75793,-9.75339 30.76197,-2.62659 l -2.6253,3.37723 c -8.75496,-4.75007 -17.88459,-3.62424 -26.63565,2.6266 z"
         style="fill:none;stroke:#231f20;stroke-width:0.56161553;stroke-linecap:butt;stroke-linejoin:miter;stroke-miterlimit:2.61310005;stroke-dasharray:none;stroke-opacity:1"
         id="path160"
         inkscape:connector-curvature="0" />
      <path
         d="m -126.83941,592.97718 1.49764,-3.37724 c -8.00198,-9.87793 -20.75559,-9.75313 -30.76093,-2.62633 l 2.62659,3.37697 c 8.75392,-4.75241 17.88356,-3.62398 26.6367,2.6266"
         style="fill:#231f20;fill-opacity:1;fill-rule:evenodd;stroke:none"
         id="path162"
         inkscape:connector-curvature="0" />
      <path
         d="m -126.83941,592.97718 1.49764,-3.37724 c -8.00198,-9.87793 -20.75559,-9.75313 -30.76093,-2.62633 l 2.62659,3.37697 c 8.75392,-4.75241 17.88356,-3.62398 26.6367,2.6266 z"
         style="fill:none;stroke:#231f20;stroke-width:0.56161553;stroke-linecap:butt;stroke-linejoin:miter;stroke-miterlimit:2.61310005;stroke-dasharray:none;stroke-opacity:1"
         id="path164"
         inkscape:connector-curvature="0" />
      <path
         d="m -260.76157,650.61531 16.46781,-13.77934 8.73858,4.03323 8.40162,-2.68951 3.02466,5.37798 0,15.79544 3.02544,24.19887 73.97034,30.35876 2.55703,6.22836 16.19327,-19.96661 30.287205,6.90494 24.19627,28.9037 15.12462,44.02649 c 5.43675,38.72079 -53.002475,22.41132 -104.366375,31.28407 -4.417,0.76286 3.4919,-8.27967 -1.14663,-8.82803 l -27.38915,1.23712 c -21.16823,11.12024 -30.94502,11.66262 -29.32907,1.62998 l -17.10458,2.07512 -21.23218,-15.66153 -5.78828,-29.5493 5.71314,-24.87047 18.14876,-30.24715 -19.49248,-56.46212"
         style="fill:#ffffff;fill-opacity:1;fill-rule:evenodd;stroke:none"
         id="path166"
         inkscape:connector-curvature="0"
         sodipodi:nodetypes="ccccccccccccccccccccccc" />
      <path
         d="m -208.33268,722.20153 c 10.97932,-16.35602 9.24559,-30.47155 -12.93614,-42.34659 -2.42847,-20.2907 5.13592,-39.90383 -5.69988,-42.98959 -6.03918,-1.72047 -8.7417,2.072 -8.70738,1.81303 -0.19084,-3.29065 -2.83564,-4.92376 -8.45413,-2.82056 -18.05022,6.75629 -29.7729,27.18297 -18.98469,45.34083 5.8278,9.80825 18.63108,13.19329 17.81258,25.54259 l 3.0257,2.01609 c 1.98749,-14.34407 -12.61243,-19.74104 -19.49352,-29.91096 -8.72948,-12.90182 6.16191,-36.63345 19.15733,-40.3305 4.92896,0 -3.58524,16.46886 -4.03323,22.51819 3.92039,-4.70561 10.26118,-19.5099 14.78791,-20.16486 15.76501,-2.28312 4.62214,17.64279 6.89227,38.24836 19.38561,10.08151 24.81534,24.82262 11.92783,42.07566 l 4.70535,1.00831"
         style="fill:#231f20;fill-opacity:1;fill-rule:evenodd;stroke:none"
         id="path168"
         inkscape:connector-curvature="0" />
      <path
         d="m -208.33268,722.20153 c 10.97932,-16.35602 9.24559,-30.47155 -12.93614,-42.34659 -2.42847,-20.2907 5.13592,-39.90383 -5.69988,-42.98959 -6.03918,-1.72047 -8.7417,2.072 -8.70738,1.81303 -0.19084,-3.29065 -2.83564,-4.92376 -8.45413,-2.82056 -18.05022,6.75629 -29.7729,27.18297 -18.98469,45.34083 5.8278,9.80825 18.63108,13.19329 17.81258,25.54259 l 3.0257,2.01609 c 1.98749,-14.34407 -12.61243,-19.74104 -19.49352,-29.91096 -8.72948,-12.90182 6.16191,-36.63345 19.15733,-40.3305 4.92896,0 -3.58524,16.46886 -4.03323,22.51819 3.92039,-4.70561 10.26118,-19.5099 14.78791,-20.16486 15.76501,-2.28312 4.62214,17.64279 6.89227,38.24836 19.38561,10.08151 24.81534,24.82262 11.92783,42.07566 l 4.70535,1.00831 z"
         style="fill:none;stroke:#231f20;stroke-width:0.56161553;stroke-linecap:butt;stroke-linejoin:miter;stroke-miterlimit:2.61310005;stroke-dasharray:none;stroke-opacity:1"
         id="path170"
         inkscape:connector-curvature="0" />
      <path
         d="m -137.39518,693.42809 c -6.56623,12.65299 -10.25001,26.26801 -7.68868,44.20954 -5.12682,-13.53571 -6.08676,-22.98645 -0.96072,-40.36507 l 8.6494,-3.84447"
         style="fill:#231f20;fill-opacity:1;fill-rule:evenodd;stroke:none"
         id="path172"
         inkscape:connector-curvature="0" />
      <path
         d="m -137.39518,693.42809 c -6.56623,12.65299 -10.25001,26.26801 -7.68868,44.20954 -5.12682,-13.53571 -6.08676,-22.98645 -0.96072,-40.36507 l 8.6494,-3.84447 z"
         style="fill:none;stroke:#231f20;stroke-width:0.56161553;stroke-linecap:butt;stroke-linejoin:miter;stroke-miterlimit:2.61310005;stroke-dasharray:none;stroke-opacity:1"
         id="path174"
         inkscape:connector-curvature="0" />
      <path
         d="m -177.37337,632.06536 c 26.03114,0 47.26307,16.02008 47.26307,35.6618 0,19.64172 -21.23193,35.66051 -47.26307,35.66051 -26.03114,0 -47.26254,-16.01879 -47.26254,-35.66051 0,-19.64172 21.2314,-35.6618 47.26254,-35.6618"
         style="fill:#ffffff;fill-opacity:1;fill-rule:evenodd;stroke:none"
         id="path176"
         inkscape:connector-curvature="0" />
      <path
         d="m -202.87851,698.30427 14.5045,5.80154 20.30708,-0.48362 -17.8898,37.71222 -18.85546,-1.93367 2.90064,-17.40618 -0.96696,-23.69029"
         style="fill:#e9e9e9;fill-opacity:1;fill-rule:evenodd;stroke:none"
         id="path178"
         inkscape:connector-curvature="0" />
      <path
         d="m -212.20029,692.75883 c 6.56622,12.65299 10.25,26.26775 7.68867,44.20928 5.12708,-13.53545 6.08573,-22.98619 0.96073,-40.36507 l -8.6494,-3.84421"
         style="fill:#231f20;fill-opacity:1;fill-rule:evenodd;stroke:none"
         id="path180"
         inkscape:connector-curvature="0" />
      <path
         d="m -212.20029,692.75883 c 6.56622,12.65299 10.25,26.26775 7.68867,44.20928 5.12708,-13.53545 6.08573,-22.98619 0.96073,-40.36507 l -8.6494,-3.84421 z"
         style="fill:none;stroke:#231f20;stroke-width:0.56161553;stroke-linecap:butt;stroke-linejoin:miter;stroke-miterlimit:2.61310005;stroke-dasharray:none;stroke-opacity:1"
         id="path182"
         inkscape:connector-curvature="0" />
      <path
         d="m -145.56409,735.23439 c -6.24745,-45.00855 40.44308,-45.86267 56.703935,-24.02623 39.79669,53.44058 46.41908,98.77439 2.88348,97.069 -17.727295,-0.6937 -64.072535,0.16043 -81.211695,5.28647 l 0.48024,-55.74294 c 41.92797,4.08185 62.34894,-11.13585 46.6133,-21.14404 13.77518,9.29031 15.69664,26.58989 -41.80811,26.42947 l 0,43.72982 c 43.08735,-8.00926 42.63494,-6.06024 76.407275,-4.3247 20.67577,1.06239 41.88976,-24.68118 -3.84551,-85.05667 -16.843265,-22.23269 -55.103845,-19.70178 -56.222915,17.77982"
         style="fill:#231f20;fill-opacity:1;fill-rule:evenodd;stroke:none"
         id="path184"
         inkscape:connector-curvature="0" />
      <path
         d="m -145.56409,735.23439 c -6.24745,-45.00855 40.44308,-45.86267 56.703935,-24.02623 39.79669,53.44058 46.41908,98.77439 2.88348,97.069 -17.727295,-0.6937 -64.072535,0.16043 -81.211695,5.28647 l 0.48024,-55.74294 c 41.92797,4.08185 62.34894,-11.13585 46.6133,-21.14404 13.77518,9.29031 15.69664,26.58989 -41.80811,26.42947 l 0,43.72982 c 43.08735,-8.00926 42.63494,-6.06024 76.407275,-4.3247 20.67577,1.06239 41.88976,-24.68118 -3.84551,-85.05667 -16.843265,-22.23269 -55.103845,-19.70178 -56.222915,17.77982 z"
         style="fill:none;stroke:#231f20;stroke-width:0.56161553;stroke-linecap:butt;stroke-linejoin:miter;stroke-miterlimit:2.61310005;stroke-dasharray:none;stroke-opacity:1"
         id="path186"
         inkscape:connector-curvature="0" />
      <path
         d="m -236.22755,710.10209 32.26429,13.77934 c 0.62063,65.47709 -12.8948,105.6138 -52.09374,73.9385 -17.15033,-13.85838 -14.62359,-47.04804 9.41096,-93.09453 l 6.04933,3.3606 c -18.90539,26.57871 -34.0508,65.96772 -9.74637,88.05429 27.83403,25.29376 42.72152,1.82005 41.33828,-69.57038 l -27.22275,-16.46782"
         style="fill:#231f20;fill-opacity:1;fill-rule:evenodd;stroke:none"
         id="path188"
         inkscape:connector-curvature="0" />
      <path
         d="m -236.22755,710.10209 32.26429,13.77934 c 0.62063,65.47709 -12.8948,105.6138 -52.09374,73.9385 -17.15033,-13.85838 -14.62359,-47.04804 9.41096,-93.09453 l 6.04933,3.3606 c -18.90539,26.57871 -34.0508,65.96772 -9.74637,88.05429 27.83403,25.29376 42.72152,1.82005 41.33828,-69.57038 l -27.22275,-16.46782 z"
         style="fill:none;stroke:#231f20;stroke-width:0.56161553;stroke-linecap:butt;stroke-linejoin:miter;stroke-miterlimit:2.61310005;stroke-dasharray:none;stroke-opacity:1"
         id="path190"
         inkscape:connector-curvature="0" />
      <path
         d="m -213.00241,753.58335 9.42604,0 6.50018,3.5751 -12.02611,42.90405 -14.62645,0.325 10.72634,-46.80415"
         style="fill:#ffffff;fill-opacity:1;fill-rule:evenodd;stroke:none"
         id="path192"
         inkscape:connector-curvature="0" />
      <path
         d="m -165.64964,803.53411 c -8.6819,2.74438 -17.64409,4.08913 -27.22276,2.35229 -6.89019,4.82521 -18.58323,8.41357 -23.1903,8.0662 -7.77083,-0.58788 -7.79007,-4.39568 -6.38551,-11.09087 -11.82305,3.86761 -16.75201,-8.90212 -9.74611,-17.14019 -11.09087,9.63457 -13.8576,-7.66007 -5.0418,-14.11553 9.58282,-7.01915 21.91288,-23.86164 33.60905,-19.49352 20.36584,7.60729 31.11766,12.2986 38.6498,11.09113 l -0.33619,5.71288 c -12.51908,-3.10787 -24.644,-5.07924 -38.98599,-12.77078 -11.6829,-6.26539 -50.33271,31.68526 -31.59191,29.57582 13.21278,-1.48776 16.24446,-12.43562 25.20665,-16.46885 -28.49939,18.11236 -26.56259,36.29336 -10.0836,29.57581 13.06354,-5.32391 13.78038,-8.28955 21.50962,-13.44315 -21.56734,15.46237 -28.79684,30.12027 -9.74611,24.87047 5.47315,-1.5083 10.53107,-4.70561 15.79621,-7.73028 9.85792,1.23192 20.50105,0.22439 28.56751,-3.02466 l -1.00856,4.03323"
         style="fill:#231f20;fill-opacity:1;fill-rule:evenodd;stroke:none"
         id="path194"
         inkscape:connector-curvature="0" />
      <path
         d="m -165.64964,803.53411 c -8.6819,2.74438 -17.64409,4.08913 -27.22276,2.35229 -6.89019,4.82521 -18.58323,8.41357 -23.1903,8.0662 -7.77083,-0.58788 -7.79007,-4.39568 -6.38551,-11.09087 -11.82305,3.86761 -16.75201,-8.90212 -9.74611,-17.14019 -11.09087,9.63457 -13.8576,-7.66007 -5.0418,-14.11553 9.58282,-7.01915 21.91288,-23.86164 33.60905,-19.49352 20.36584,7.60729 31.11766,12.2986 38.6498,11.09113 l -0.33619,5.71288 c -12.51908,-3.10787 -24.644,-5.07924 -38.98599,-12.77078 -11.6829,-6.26539 -50.33271,31.68526 -31.59191,29.57582 13.21278,-1.48776 16.24446,-12.43562 25.20665,-16.46885 -28.49939,18.11236 -26.56259,36.29336 -10.0836,29.57581 13.06354,-5.32391 13.78038,-8.28955 21.50962,-13.44315 -21.56734,15.46237 -28.79684,30.12027 -9.74611,24.87047 5.47315,-1.5083 10.53107,-4.70561 15.79621,-7.73028 9.85792,1.23192 20.50105,0.22439 28.56751,-3.02466 l -1.00856,4.03323 z"
         style="fill:none;stroke:#231f20;stroke-width:0.56161553;stroke-linecap:butt;stroke-linejoin:miter;stroke-miterlimit:2.61310005;stroke-dasharray:none;stroke-opacity:1"
         id="path196"
         inkscape:connector-curvature="0" />
      <path
         d="m -189.97878,633.87033 c -60.8864,15.63605 -26.56831,71.46531 15.74682,68.125 34.0924,-2.6916 61.43553,-29.77498 25.51112,-62.30032 45.95029,25.23811 23.99529,69.44428 -35.05417,66.33043 -62.02705,-3.26855 -54.13739,-75.43276 -6.20377,-72.15511"
         style="fill:#231f20;fill-opacity:1;fill-rule:evenodd;stroke:none"
         id="path198"
         inkscape:connector-curvature="0" />
      <path
         d="m -189.97878,633.87033 c -60.8864,15.63605 -26.56831,71.46531 15.74682,68.125 34.0924,-2.6916 61.43553,-29.77498 25.51112,-62.30032 45.95029,25.23811 23.99529,69.44428 -35.05417,66.33043 -62.02705,-3.26855 -54.13739,-75.43276 -6.20377,-72.15511 z"
         style="fill:none;stroke:#231f20;stroke-width:0.56161553;stroke-linecap:butt;stroke-linejoin:miter;stroke-miterlimit:2.61310005;stroke-dasharray:none;stroke-opacity:1"
         id="path200"
         inkscape:connector-curvature="0" />
      <path
         d="m -171.41348,688.87615 c 30.87689,-2.98411 32.28249,-19.25276 29.0233,-40.18645 18.04684,27.18895 0.69162,46.90191 -33.48815,49.67463 -5.27424,0.42849 -2.32992,-8.83219 4.46485,-9.48818"
         style="fill:#e9e9e9;fill-opacity:1;fill-rule:evenodd;stroke:none"
         id="path202"
         inkscape:connector-curvature="0" />
      <path
         d="m -157.48906,789.05691 c 64.414185,-11.04614 102.952445,27.14553 83.657315,-36.80219 25.4703,66.49787 -17.12667,31.31266 -84.254555,51.12495 l 0.59724,-14.32276"
         style="fill:#e9e9e9;fill-opacity:1;fill-rule:evenodd;stroke:none"
         id="path204"
         inkscape:connector-curvature="0" />
      <path
         d="m -240.59073,712.32541 5.80154,3.38426 c -17.80868,24.13282 -21.83671,49.03267 -16.43844,74.45747 -12.16651,-15.67349 -10.71619,-40.25145 10.6369,-77.84173"
         style="fill:#e9e9e9;fill-opacity:1;fill-rule:evenodd;stroke:none"
         id="path206"
         inkscape:connector-curvature="0" />
    </g>
  </g>
</svg>
