<?xml version="1.0" encoding="UTF-8" standalone="no"?>
<!-- Created with Inkscape (http://www.inkscape.org/) -->

<svg
   xmlns:dc="http://purl.org/dc/elements/1.1/"
   xmlns:cc="http://creativecommons.org/ns#"
   xmlns:rdf="http://www.w3.org/1999/02/22-rdf-syntax-ns#"
   xmlns:svg="http://www.w3.org/2000/svg"
   xmlns="http://www.w3.org/2000/svg"
   xmlns:sodipodi="http://sodipodi.sourceforge.net/DTD/sodipodi-0.dtd"
   xmlns:inkscape="http://www.inkscape.org/namespaces/inkscape"
   id="svg2"
   version="1.1"
   inkscape:version="0.48.5 r10040"
   width="216.25"
   height="216.25"
   xml:space="preserve"
   sodipodi:docname="Karlchen Outro.eps"><metadata
     id="metadata8"><rdf:RDF><cc:Work
         rdf:about=""><dc:format>image/svg+xml</dc:format><dc:type
           rdf:resource="http://purl.org/dc/dcmitype/StillImage" /><dc:title></dc:title></cc:Work></rdf:RDF></metadata><defs
     id="defs6" /><sodipodi:namedview
     pagecolor="#ffffff"
     bordercolor="#666666"
     borderopacity="1"
     objecttolerance="10"
     gridtolerance="10"
     guidetolerance="10"
     inkscape:pageopacity="0"
     inkscape:pageshadow="2"
     inkscape:window-width="1600"
     inkscape:window-height="852"
     id="namedview4"
     showgrid="false"
     inkscape:zoom="2.182659"
     inkscape:cx="138.08074"
     inkscape:cy="105.8131"
     inkscape:window-x="0"
     inkscape:window-y="25"
     inkscape:window-maximized="1"
     inkscape:current-layer="g10" /><g
     id="g10"
     inkscape:groupmode="layer"
     inkscape:label="Karlchen"
     transform="matrix(1.25,0,0,-1.25,0,216.25)"><g
       id="g12"
       transform="scale(0.1,0.1)"><path
         d="m 1157.87,67.5664 -11.42,-4.1562 -37.9,-12.8711 -38.69,-11.0313 -39.45,-9.1406 -40.125,-7.1992 -40.777,-5.2032 -41.367,-3.164 -41.907,-1.0625 -41.898,1.0625 -41.367,3.164 -40.77,5.2032 -40.136,7.1992 -39.438,9.1406 -38.695,11.0313 -37.895,12.8711 -11.926,4.1562 39.477,-13.4023 40.305,-11.4922 41.078,-9.5196 41.808,-7.5 42.473,-5.4218 43.09,-3.2969 43.644,-1.1055 43.653,1.1055 43.086,3.2969 42.48,5.4218 41.797,7.5 41.09,9.5196 40.3,11.4922 39.48,13.4023"
         style="fill:#656263;fill-opacity:1;fill-rule:evenodd;stroke:none"
         id="path14"
         inkscape:connector-curvature="0" /><path
         d="m 1157.87,67.5664 -11.42,-4.1562 -37.9,-12.8711 -38.69,-11.0313 -39.45,-9.1406 -40.125,-7.1992 -40.777,-5.2032 -41.367,-3.164 -41.907,-1.0625 -41.898,1.0625 -41.367,3.164 -40.77,5.2032 -40.136,7.1992 -39.438,9.1406 -38.695,11.0313 -37.895,12.8711 -11.926,4.1562 39.477,-13.4023 40.305,-11.4922 41.078,-9.5196 41.808,-7.5 42.473,-5.4218 43.09,-3.2969 43.644,-1.1055 43.653,1.1055 43.086,3.2969 42.48,5.4218 41.797,7.5 41.09,9.5196 40.3,11.4922 39.48,13.4023 z"
         style="fill:none;stroke:#231f20;stroke-width:20.00130081;stroke-linecap:butt;stroke-linejoin:bevel;stroke-miterlimit:2.61310005;stroke-opacity:1;stroke-dasharray:none"
         id="path16"
         inkscape:connector-curvature="0" /><path
         d="m 350.453,1243.92 20.871,-51.21 115.922,-115.92 -16.043,46.38 -120.75,120.75"
         style="fill:#656263;fill-opacity:1;fill-rule:evenodd;stroke:none"
         id="path18"
         inkscape:connector-curvature="0" /><path
         d="m 350.453,1243.92 20.871,-51.21 115.922,-115.92 -16.043,46.38 -120.75,120.75 z"
         style="fill:none;stroke:#231f20;stroke-width:20.00130081;stroke-linecap:butt;stroke-linejoin:bevel;stroke-miterlimit:2.61310005;stroke-opacity:1;stroke-dasharray:none"
         id="path20"
         inkscape:connector-curvature="0" /><path
         d="m 471.203,1123.17 16.043,-46.38 10.149,104.04 -15.618,50.72 -10.574,-108.38"
         style="fill:#656263;fill-opacity:1;fill-rule:evenodd;stroke:none"
         id="path22"
         inkscape:connector-curvature="0" /><path
         d="m 471.203,1123.17 16.043,-46.38 10.149,104.04 -15.618,50.72 -10.574,-108.38 z"
         style="fill:none;stroke:#231f20;stroke-width:20.00130081;stroke-linecap:butt;stroke-linejoin:bevel;stroke-miterlimit:2.61310005;stroke-opacity:1;stroke-dasharray:none"
         id="path24"
         inkscape:connector-curvature="0" /><path
         d="m 481.777,1231.55 15.618,-50.72 73.421,-23.19 -12.562,49.76 -76.477,24.15"
         style="fill:#656263;fill-opacity:1;fill-rule:evenodd;stroke:none"
         id="path26"
         inkscape:connector-curvature="0" /><path
         d="m 481.777,1231.55 15.618,-50.72 73.421,-23.19 -12.562,49.76 -76.477,24.15 z"
         style="fill:none;stroke:#231f20;stroke-width:20.00130081;stroke-linecap:butt;stroke-linejoin:bevel;stroke-miterlimit:2.61310005;stroke-opacity:1;stroke-dasharray:none"
         id="path28"
         inkscape:connector-curvature="0" /><path
         d="m 558.254,1207.4 12.562,-49.76 15.457,85.02 -11.918,53.29 -16.101,-88.55"
         style="fill:#656263;fill-opacity:1;fill-rule:evenodd;stroke:none"
         id="path30"
         inkscape:connector-curvature="0" /><path
         d="m 558.254,1207.4 12.562,-49.76 15.457,85.02 -11.918,53.29 -16.101,-88.55 z"
         style="fill:none;stroke:#231f20;stroke-width:20.00130081;stroke-linecap:butt;stroke-linejoin:bevel;stroke-miterlimit:2.61310005;stroke-opacity:1;stroke-dasharray:none"
         id="path32"
         inkscape:connector-curvature="0" /><path
         d="m 574.355,1295.95 11.918,-53.29 68.532,7.41 -9.059,53.6 -71.391,-7.72"
         style="fill:#656263;fill-opacity:1;fill-rule:evenodd;stroke:none"
         id="path34"
         inkscape:connector-curvature="0" /><path
         d="m 574.355,1295.95 11.918,-53.29 68.532,7.41 -9.059,53.6 -71.391,-7.72 z"
         style="fill:none;stroke:#231f20;stroke-width:20.00130081;stroke-linecap:butt;stroke-linejoin:bevel;stroke-miterlimit:2.61310005;stroke-opacity:1;stroke-dasharray:none"
         id="path36"
         inkscape:connector-curvature="0" /><path
         d="m 538.004,1411.41 13.371,-57.91 22.52,14.55 23.007,13.26 23.465,11.98 23.879,10.73 24.25,9.47 24.582,8.25 24.863,7.03 25.106,5.84 25.32,4.64 25.481,3.49 25.601,2.33 25.68,1.19 25.723,0.06 25.714,-1.04 25.664,-2.14 25.583,-3.21 25.457,-4.28 25.289,-5.33 25.071,-6.35 24.82,-7.37 24.53,-8.39 24.19,-9.35 23.81,-10.34 23.39,-11.28 22.94,-12.24 22.43,-13.15 21.89,-14.07 21.29,-14.96 20.68,-15.85 20,-16.7 19.29,-17.56 18.54,-18.39 17.48,-18.87 16.52,-19.41 15.58,-19.92 14.63,-20.41 13.67,-20.86 12.73,-21.3 11.76,-21.7 10.81,-22.08 9.85,-22.44 8.89,-22.77 7.92,-23.08 6.96,-23.339 5.99,-23.602 5.03,-23.824 4.05,-24.027 3.07,-24.196 2.11,-24.347 1.13,-24.469 0.16,-24.563 -0.83,-24.633 -1.81,-24.671 -2.79,-24.696 -3.78,-24.683 -4.77,-24.649 -5.75,-24.59 -6.75,-24.503 -7.73,-24.387 -8.74,-24.25 -9.72,-24.086 -10.72,-23.899 -11.74,-23.675 -12.72,-23.434 21.65,22.891 13.26,24.41 12.22,24.664 11.17,24.891 10.13,25.093 9.1,25.258 8.05,25.406 7.03,25.524 5.99,25.613 4.97,25.676 3.93,25.711 2.92,25.722 1.87,25.704 0.87,25.656 -0.16,25.586 -1.18,25.488 -2.2,25.363 -3.2,25.203 -4.22,25.028 -5.23,24.816 -6.25,24.59 -7.25,24.31 -8.25,24.04 -9.25,23.72 -10.27,23.38 -11.25,23 -12.26,22.6 -13.25,22.18 -14.25,21.74 -15.23,21.25 -16.23,20.75 -17.21,20.22 -18.21,19.66 -19.31,19.15 -20.1,18.3 -20.83,17.4 -21.54,16.5 -22.18,15.59 -22.8,14.65 -23.36,13.7 -23.9,12.75 -24.36,11.75 -24.81,10.77 -25.2,9.75 -25.55,8.73 -25.85,7.68 -26.12,6.62 -26.34,5.54 -26.519,4.47 -26.645,3.34 -26.738,2.23 -26.785,1.08 -26.793,-0.06 -26.75,-1.25 -26.672,-2.42 -26.539,-3.63 -26.375,-4.84 -26.152,-6.08 -25.903,-7.32 -25.601,-8.6 -25.262,-9.86 -24.871,-11.18 -24.445,-12.48 -23.969,-13.81 -23.457,-15.16"
         style="fill:#656263;fill-opacity:1;fill-rule:evenodd;stroke:none"
         id="path38"
         inkscape:connector-curvature="0" /><path
         d="m 538.004,1411.41 13.371,-57.91 22.52,14.55 23.007,13.26 23.465,11.98 23.879,10.73 24.25,9.47 24.582,8.25 24.863,7.03 25.106,5.84 25.32,4.64 25.481,3.49 25.601,2.33 25.68,1.19 25.723,0.06 25.714,-1.04 25.664,-2.14 25.583,-3.21 25.457,-4.28 25.289,-5.33 25.071,-6.35 24.82,-7.37 24.53,-8.39 24.19,-9.35 23.81,-10.34 23.39,-11.28 22.94,-12.24 22.43,-13.15 21.89,-14.07 21.29,-14.96 20.68,-15.85 20,-16.7 19.29,-17.56 18.54,-18.39 17.48,-18.87 16.52,-19.41 15.58,-19.92 14.63,-20.41 13.67,-20.86 12.73,-21.3 11.76,-21.7 10.81,-22.08 9.85,-22.44 8.89,-22.77 7.92,-23.08 6.96,-23.339 5.99,-23.602 5.03,-23.824 4.05,-24.027 3.07,-24.196 2.11,-24.347 1.13,-24.469 0.16,-24.563 -0.83,-24.633 -1.81,-24.671 -2.79,-24.696 -3.78,-24.683 -4.77,-24.649 -5.75,-24.59 -6.75,-24.503 -7.73,-24.387 -8.74,-24.25 -9.72,-24.086 -10.72,-23.899 -11.74,-23.675 -12.72,-23.434 21.65,22.891 13.26,24.41 12.22,24.664 11.17,24.891 10.13,25.093 9.1,25.258 8.05,25.406 7.03,25.524 5.99,25.613 4.97,25.676 3.93,25.711 2.92,25.722 1.87,25.704 0.87,25.656 -0.16,25.586 -1.18,25.488 -2.2,25.363 -3.2,25.203 -4.22,25.028 -5.23,24.816 -6.25,24.59 -7.25,24.31 -8.25,24.04 -9.25,23.72 -10.27,23.38 -11.25,23 -12.26,22.6 -13.25,22.18 -14.25,21.74 -15.23,21.25 -16.23,20.75 -17.21,20.22 -18.21,19.66 -19.31,19.15 -20.1,18.3 -20.83,17.4 -21.54,16.5 -22.18,15.59 -22.8,14.65 -23.36,13.7 -23.9,12.75 -24.36,11.75 -24.81,10.77 -25.2,9.75 -25.55,8.73 -25.85,7.68 -26.12,6.62 -26.34,5.54 -26.519,4.47 -26.645,3.34 -26.738,2.23 -26.785,1.08 -26.793,-0.06 -26.75,-1.25 -26.672,-2.42 -26.539,-3.63 -26.375,-4.84 -26.152,-6.08 -25.903,-7.32 -25.601,-8.6 -25.262,-9.86 -24.871,-11.18 -24.445,-12.48 -23.969,-13.81 -23.457,-15.16 z"
         style="fill:none;stroke:#231f20;stroke-width:20.00130081;stroke-linecap:butt;stroke-linejoin:bevel;stroke-miterlimit:2.61310005;stroke-opacity:1;stroke-dasharray:none"
         id="path40"
         inkscape:connector-curvature="0" /><path
         d="m 1298.89,579.469 -17.06,-24.637 -15.46,-104.332 16.42,20.289 16.1,108.68"
         style="fill:#656263;fill-opacity:1;fill-rule:evenodd;stroke:none"
         id="path42"
         inkscape:connector-curvature="0" /><path
         d="m 1298.89,579.469 -17.06,-24.637 -15.46,-104.332 16.42,20.289 16.1,108.68 z"
         style="fill:none;stroke:#231f20;stroke-width:20.00130081;stroke-linecap:butt;stroke-linejoin:bevel;stroke-miterlimit:2.61310005;stroke-opacity:1;stroke-dasharray:none"
         id="path44"
         inkscape:connector-curvature="0" /><path
         d="m 1197.13,518.262 -13,-22.188 1.09,-49.437 13.04,20.125 -1.13,51.5"
         style="fill:#656263;fill-opacity:1;fill-rule:evenodd;stroke:none"
         id="path46"
         inkscape:connector-curvature="0" /><path
         d="m 1197.13,518.262 -13,-22.188 1.09,-49.437 13.04,20.125 -1.13,51.5 z"
         style="fill:none;stroke:#231f20;stroke-width:20.00130081;stroke-linecap:butt;stroke-linejoin:bevel;stroke-miterlimit:2.61310005;stroke-opacity:1;stroke-dasharray:none"
         id="path48"
         inkscape:connector-curvature="0" /><path
         d="m 1169.03,425.348 -11.87,-18.473 69.85,-69.852 14.78,15.559 -72.76,72.766"
         style="fill:#656263;fill-opacity:1;fill-rule:evenodd;stroke:none"
         id="path50"
         inkscape:connector-curvature="0" /><path
         d="m 1169.03,425.348 -11.87,-18.473 69.85,-69.852 14.78,15.559 -72.76,72.766 z"
         style="fill:none;stroke:#231f20;stroke-width:20.00130081;stroke-linecap:butt;stroke-linejoin:bevel;stroke-miterlimit:2.61310005;stroke-opacity:1;stroke-dasharray:none"
         id="path52"
         inkscape:connector-curvature="0" /><path
         d="m 422.656,406.758 17.985,-17.727 -15.504,16.856 -18,21.578 -17.051,21.996 -16.078,22.402 -15.106,22.782 -14.117,23.128 -13.125,23.469 -12.117,23.774 -11.109,24.066 -10.075,24.32 -9.05,24.567 -8.008,24.785 -6.949,24.976 -5.887,25.149 -4.82,25.297 -3.735,25.418 -2.644,25.531 -1.539,25.598 -0.43,25.664 0.695,25.691 1.817,25.707 2.961,25.688 4.109,25.66 5.266,25.597 6.437,25.52 7.621,25.41 8.805,25.29 10,25.13 11.211,24.97 12.429,24.76 13.653,24.55 14.89,24.3 16.133,24.05 -20.871,51.21 -16.808,-25.04 -15.508,-25.32 -14.223,-25.58 -12.949,-25.79 -11.672,-26 -10.422,-26.19 -9.172,-26.34 -7.937,-26.46 -6.703,-26.59 -5.489,-26.665 -4.277,-26.726 -3.086,-26.758 -1.894,-26.781 -0.723,-26.762 0.449,-26.73 1.602,-26.665 2.754,-26.593 3.89,-26.481 5.02,-26.351 6.133,-26.196 7.242,-26.019 8.336,-25.813 9.429,-25.59 10.496,-25.335 11.571,-25.067 12.625,-24.765 13.672,-24.446 14.703,-24.094 15.734,-23.734 16.75,-23.332 17.762,-22.914 18.75,-22.473 16.148,-17.562"
         style="fill:#656263;fill-opacity:1;fill-rule:evenodd;stroke:none"
         id="path54"
         inkscape:connector-curvature="0" /><path
         d="m 422.656,406.758 17.985,-17.727 -15.504,16.856 -18,21.578 -17.051,21.996 -16.078,22.402 -15.106,22.782 -14.117,23.128 -13.125,23.469 -12.117,23.774 -11.109,24.066 -10.075,24.32 -9.05,24.567 -8.008,24.785 -6.949,24.976 -5.887,25.149 -4.82,25.297 -3.735,25.418 -2.644,25.531 -1.539,25.598 -0.43,25.664 0.695,25.691 1.817,25.707 2.961,25.688 4.109,25.66 5.266,25.597 6.437,25.52 7.621,25.41 8.805,25.29 10,25.13 11.211,24.97 12.429,24.76 13.653,24.55 14.89,24.3 16.133,24.05 -20.871,51.21 -16.808,-25.04 -15.508,-25.32 -14.223,-25.58 -12.949,-25.79 -11.672,-26 -10.422,-26.19 -9.172,-26.34 -7.937,-26.46 -6.703,-26.59 -5.489,-26.665 -4.277,-26.726 -3.086,-26.758 -1.894,-26.781 -0.723,-26.762 0.449,-26.73 1.602,-26.665 2.754,-26.593 3.89,-26.481 5.02,-26.351 6.133,-26.196 7.242,-26.019 8.336,-25.813 9.429,-25.59 10.496,-25.335 11.571,-25.067 12.625,-24.765 13.672,-24.446 14.703,-24.094 15.734,-23.734 16.75,-23.332 17.762,-22.914 18.75,-22.473 16.148,-17.562 z"
         style="fill:none;stroke:#231f20;stroke-width:20.00130081;stroke-linecap:butt;stroke-linejoin:bevel;stroke-miterlimit:2.61310005;stroke-opacity:1;stroke-dasharray:none"
         id="path56"
         inkscape:connector-curvature="0" /><path
         d="m 1157.87,67.5664 -11.42,-4.1562 -37.9,-12.8711 -38.69,-11.0313 -39.45,-9.1406 -40.125,-7.1992 -40.777,-5.2032 -41.367,-3.164 -41.907,-1.0625 -41.898,1.0625 -41.367,3.164 -40.77,5.2032 -40.136,7.1992 -39.438,9.1406 -38.695,11.0313 -37.895,12.8711 -11.926,4.1562 39.477,-13.4023 40.305,-11.4922 41.078,-9.5196 41.808,-7.5 42.473,-5.4218 43.09,-3.2969 43.644,-1.1055 43.653,1.1055 43.086,3.2969 42.48,5.4218 41.797,7.5 41.09,9.5196 40.3,11.4922 39.48,13.4023"
         style="fill:#656263;fill-opacity:1;fill-rule:evenodd;stroke:none"
         id="path58"
         inkscape:connector-curvature="0" /><path
         d="m 1157.87,67.5664 -11.42,-4.1562 -37.9,-12.8711 -38.69,-11.0313 -39.45,-9.1406 -40.125,-7.1992 -40.777,-5.2032 -41.367,-3.164 -41.907,-1.0625 -41.898,1.0625 -41.367,3.164 -40.77,5.2032 -40.136,7.1992 -39.438,9.1406 -38.695,11.0313 -37.895,12.8711 -11.926,4.1562 39.477,-13.4023 40.305,-11.4922 41.078,-9.5196 41.808,-7.5 42.473,-5.4218 43.09,-3.2969 43.644,-1.1055 43.653,1.1055 43.086,3.2969 42.48,5.4218 41.797,7.5 41.09,9.5196 40.3,11.4922 39.48,13.4023 z"
         style="fill:none;stroke:#231f20;stroke-width:20.00130081;stroke-linecap:butt;stroke-linejoin:bevel;stroke-miterlimit:2.61310005;stroke-opacity:1;stroke-dasharray:none"
         id="path60"
         inkscape:connector-curvature="0" /><path
         d="m 350.453,1243.92 20.871,-51.21 115.922,-115.92 -16.043,46.38 -120.75,120.75"
         style="fill:#656263;fill-opacity:1;fill-rule:evenodd;stroke:none"
         id="path62"
         inkscape:connector-curvature="0" /><path
         d="m 350.453,1243.92 20.871,-51.21 115.922,-115.92 -16.043,46.38 -120.75,120.75 z"
         style="fill:none;stroke:#231f20;stroke-width:20.00130081;stroke-linecap:butt;stroke-linejoin:bevel;stroke-miterlimit:2.61310005;stroke-opacity:1;stroke-dasharray:none"
         id="path64"
         inkscape:connector-curvature="0" /><path
         d="m 471.203,1123.17 16.043,-46.38 10.149,104.04 -15.618,50.72 -10.574,-108.38"
         style="fill:#656263;fill-opacity:1;fill-rule:evenodd;stroke:none"
         id="path66"
         inkscape:connector-curvature="0" /><path
         d="m 471.203,1123.17 16.043,-46.38 10.149,104.04 -15.618,50.72 -10.574,-108.38 z"
         style="fill:none;stroke:#231f20;stroke-width:20.00130081;stroke-linecap:butt;stroke-linejoin:bevel;stroke-miterlimit:2.61310005;stroke-opacity:1;stroke-dasharray:none"
         id="path68"
         inkscape:connector-curvature="0" /><path
         d="m 481.777,1231.55 15.618,-50.72 73.421,-23.19 -12.562,49.76 -76.477,24.15"
         style="fill:#656263;fill-opacity:1;fill-rule:evenodd;stroke:none"
         id="path70"
         inkscape:connector-curvature="0" /><path
         d="m 481.777,1231.55 15.618,-50.72 73.421,-23.19 -12.562,49.76 -76.477,24.15 z"
         style="fill:none;stroke:#231f20;stroke-width:20.00130081;stroke-linecap:butt;stroke-linejoin:bevel;stroke-miterlimit:2.61310005;stroke-opacity:1;stroke-dasharray:none"
         id="path72"
         inkscape:connector-curvature="0" /><path
         d="m 558.254,1207.4 12.562,-49.76 15.457,85.02 -11.918,53.29 -16.101,-88.55"
         style="fill:#656263;fill-opacity:1;fill-rule:evenodd;stroke:none"
         id="path74"
         inkscape:connector-curvature="0" /><path
         d="m 558.254,1207.4 12.562,-49.76 15.457,85.02 -11.918,53.29 -16.101,-88.55 z"
         style="fill:none;stroke:#231f20;stroke-width:20.00130081;stroke-linecap:butt;stroke-linejoin:bevel;stroke-miterlimit:2.61310005;stroke-opacity:1;stroke-dasharray:none"
         id="path76"
         inkscape:connector-curvature="0" /><path
         d="m 574.355,1295.95 11.918,-53.29 68.532,7.41 -9.059,53.6 -71.391,-7.72"
         style="fill:#656263;fill-opacity:1;fill-rule:evenodd;stroke:none"
         id="path78"
         inkscape:connector-curvature="0" /><path
         d="m 574.355,1295.95 11.918,-53.29 68.532,7.41 -9.059,53.6 -71.391,-7.72 z"
         style="fill:none;stroke:#231f20;stroke-width:20.00130081;stroke-linecap:butt;stroke-linejoin:bevel;stroke-miterlimit:2.61310005;stroke-opacity:1;stroke-dasharray:none"
         id="path80"
         inkscape:connector-curvature="0" /><path
         d="m 538.004,1411.41 13.371,-57.91 22.52,14.55 23.007,13.26 23.465,11.98 23.879,10.73 24.25,9.47 24.582,8.25 24.863,7.03 25.106,5.84 25.32,4.64 25.481,3.49 25.601,2.33 25.68,1.19 25.723,0.06 25.714,-1.04 25.664,-2.14 25.583,-3.21 25.457,-4.28 25.289,-5.33 25.071,-6.35 24.82,-7.37 24.53,-8.39 24.19,-9.35 23.81,-10.34 23.39,-11.28 22.94,-12.24 22.43,-13.15 21.89,-14.07 21.29,-14.96 20.68,-15.85 20,-16.7 19.29,-17.56 18.54,-18.39 17.48,-18.87 16.52,-19.41 15.58,-19.92 14.63,-20.41 13.67,-20.86 12.73,-21.3 11.76,-21.7 10.81,-22.08 9.85,-22.44 8.89,-22.77 7.92,-23.08 6.96,-23.339 5.99,-23.602 5.03,-23.824 4.05,-24.027 3.07,-24.196 2.11,-24.347 1.13,-24.469 0.16,-24.563 -0.83,-24.633 -1.81,-24.671 -2.79,-24.696 -3.78,-24.683 -4.77,-24.649 -5.75,-24.59 -6.75,-24.503 -7.73,-24.387 -8.74,-24.25 -9.72,-24.086 -10.72,-23.899 -11.74,-23.675 -12.72,-23.434 21.65,22.891 13.26,24.41 12.22,24.664 11.17,24.891 10.13,25.093 9.1,25.258 8.05,25.406 7.03,25.524 5.99,25.613 4.97,25.676 3.93,25.711 2.92,25.722 1.87,25.704 0.87,25.656 -0.16,25.586 -1.18,25.488 -2.2,25.363 -3.2,25.203 -4.22,25.028 -5.23,24.816 -6.25,24.59 -7.25,24.31 -8.25,24.04 -9.25,23.72 -10.27,23.38 -11.25,23 -12.26,22.6 -13.25,22.18 -14.25,21.74 -15.23,21.25 -16.23,20.75 -17.21,20.22 -18.21,19.66 -19.31,19.15 -20.1,18.3 -20.83,17.4 -21.54,16.5 -22.18,15.59 -22.8,14.65 -23.36,13.7 -23.9,12.75 -24.36,11.75 -24.81,10.77 -25.2,9.75 -25.55,8.73 -25.85,7.68 -26.12,6.62 -26.34,5.54 -26.519,4.47 -26.645,3.34 -26.738,2.23 -26.785,1.08 -26.793,-0.06 -26.75,-1.25 -26.672,-2.42 -26.539,-3.63 -26.375,-4.84 -26.152,-6.08 -25.903,-7.32 -25.601,-8.6 -25.262,-9.86 -24.871,-11.18 -24.445,-12.48 -23.969,-13.81 -23.457,-15.16"
         style="fill:#656263;fill-opacity:1;fill-rule:evenodd;stroke:none"
         id="path82"
         inkscape:connector-curvature="0" /><path
         d="m 538.004,1411.41 13.371,-57.91 22.52,14.55 23.007,13.26 23.465,11.98 23.879,10.73 24.25,9.47 24.582,8.25 24.863,7.03 25.106,5.84 25.32,4.64 25.481,3.49 25.601,2.33 25.68,1.19 25.723,0.06 25.714,-1.04 25.664,-2.14 25.583,-3.21 25.457,-4.28 25.289,-5.33 25.071,-6.35 24.82,-7.37 24.53,-8.39 24.19,-9.35 23.81,-10.34 23.39,-11.28 22.94,-12.24 22.43,-13.15 21.89,-14.07 21.29,-14.96 20.68,-15.85 20,-16.7 19.29,-17.56 18.54,-18.39 17.48,-18.87 16.52,-19.41 15.58,-19.92 14.63,-20.41 13.67,-20.86 12.73,-21.3 11.76,-21.7 10.81,-22.08 9.85,-22.44 8.89,-22.77 7.92,-23.08 6.96,-23.339 5.99,-23.602 5.03,-23.824 4.05,-24.027 3.07,-24.196 2.11,-24.347 1.13,-24.469 0.16,-24.563 -0.83,-24.633 -1.81,-24.671 -2.79,-24.696 -3.78,-24.683 -4.77,-24.649 -5.75,-24.59 -6.75,-24.503 -7.73,-24.387 -8.74,-24.25 -9.72,-24.086 -10.72,-23.899 -11.74,-23.675 -12.72,-23.434 21.65,22.891 13.26,24.41 12.22,24.664 11.17,24.891 10.13,25.093 9.1,25.258 8.05,25.406 7.03,25.524 5.99,25.613 4.97,25.676 3.93,25.711 2.92,25.722 1.87,25.704 0.87,25.656 -0.16,25.586 -1.18,25.488 -2.2,25.363 -3.2,25.203 -4.22,25.028 -5.23,24.816 -6.25,24.59 -7.25,24.31 -8.25,24.04 -9.25,23.72 -10.27,23.38 -11.25,23 -12.26,22.6 -13.25,22.18 -14.25,21.74 -15.23,21.25 -16.23,20.75 -17.21,20.22 -18.21,19.66 -19.31,19.15 -20.1,18.3 -20.83,17.4 -21.54,16.5 -22.18,15.59 -22.8,14.65 -23.36,13.7 -23.9,12.75 -24.36,11.75 -24.81,10.77 -25.2,9.75 -25.55,8.73 -25.85,7.68 -26.12,6.62 -26.34,5.54 -26.519,4.47 -26.645,3.34 -26.738,2.23 -26.785,1.08 -26.793,-0.06 -26.75,-1.25 -26.672,-2.42 -26.539,-3.63 -26.375,-4.84 -26.152,-6.08 -25.903,-7.32 -25.601,-8.6 -25.262,-9.86 -24.871,-11.18 -24.445,-12.48 -23.969,-13.81 -23.457,-15.16 z"
         style="fill:none;stroke:#231f20;stroke-width:20.00130081;stroke-linecap:butt;stroke-linejoin:bevel;stroke-miterlimit:2.61310005;stroke-opacity:1;stroke-dasharray:none"
         id="path84"
         inkscape:connector-curvature="0" /><path
         d="m 1298.89,579.469 -17.06,-24.637 -15.46,-104.332 16.42,20.289 16.1,108.68"
         style="fill:#656263;fill-opacity:1;fill-rule:evenodd;stroke:none"
         id="path86"
         inkscape:connector-curvature="0" /><path
         d="m 1298.89,579.469 -17.06,-24.637 -15.46,-104.332 16.42,20.289 16.1,108.68 z"
         style="fill:none;stroke:#231f20;stroke-width:20.00130081;stroke-linecap:butt;stroke-linejoin:bevel;stroke-miterlimit:2.61310005;stroke-opacity:1;stroke-dasharray:none"
         id="path88"
         inkscape:connector-curvature="0" /><path
         d="m 1197.13,518.262 -13,-22.188 1.09,-49.437 13.04,20.125 -1.13,51.5"
         style="fill:#656263;fill-opacity:1;fill-rule:evenodd;stroke:none"
         id="path90"
         inkscape:connector-curvature="0" /><path
         d="m 1197.13,518.262 -13,-22.188 1.09,-49.437 13.04,20.125 -1.13,51.5 z"
         style="fill:none;stroke:#231f20;stroke-width:20.00130081;stroke-linecap:butt;stroke-linejoin:bevel;stroke-miterlimit:2.61310005;stroke-opacity:1;stroke-dasharray:none"
         id="path92"
         inkscape:connector-curvature="0" /><path
         d="m 1169.03,425.348 -11.87,-18.473 69.85,-69.852 14.78,15.559 -72.76,72.766"
         style="fill:#656263;fill-opacity:1;fill-rule:evenodd;stroke:none"
         id="path94"
         inkscape:connector-curvature="0" /><path
         d="m 1169.03,425.348 -11.87,-18.473 69.85,-69.852 14.78,15.559 -72.76,72.766 z"
         style="fill:none;stroke:#231f20;stroke-width:20.00130081;stroke-linecap:butt;stroke-linejoin:bevel;stroke-miterlimit:2.61310005;stroke-opacity:1;stroke-dasharray:none"
         id="path96"
         inkscape:connector-curvature="0" /><path
         d="m 422.656,406.758 17.985,-17.727 -15.504,16.856 -18,21.578 -17.051,21.996 -16.078,22.402 -15.106,22.782 -14.117,23.128 -13.125,23.469 -12.117,23.774 -11.109,24.066 -10.075,24.32 -9.05,24.567 -8.008,24.785 -6.949,24.976 -5.887,25.149 -4.82,25.297 -3.735,25.418 -2.644,25.531 -1.539,25.598 -0.43,25.664 0.695,25.691 1.817,25.707 2.961,25.688 4.109,25.66 5.266,25.597 6.437,25.52 7.621,25.41 8.805,25.29 10,25.13 11.211,24.97 12.429,24.76 13.653,24.55 14.89,24.3 16.133,24.05 -20.871,51.21 -16.808,-25.04 -15.508,-25.32 -14.223,-25.58 -12.949,-25.79 -11.672,-26 -10.422,-26.19 -9.172,-26.34 -7.937,-26.46 -6.703,-26.59 -5.489,-26.665 -4.277,-26.726 -3.086,-26.758 -1.894,-26.781 -0.723,-26.762 0.449,-26.73 1.602,-26.665 2.754,-26.593 3.89,-26.481 5.02,-26.351 6.133,-26.196 7.242,-26.019 8.336,-25.813 9.429,-25.59 10.496,-25.335 11.571,-25.067 12.625,-24.765 13.672,-24.446 14.703,-24.094 15.734,-23.734 16.75,-23.332 17.762,-22.914 18.75,-22.473 16.148,-17.562"
         style="fill:#656263;fill-opacity:1;fill-rule:evenodd;stroke:none"
         id="path98"
         inkscape:connector-curvature="0" /><path
         d="m 422.656,406.758 17.985,-17.727 -15.504,16.856 -18,21.578 -17.051,21.996 -16.078,22.402 -15.106,22.782 -14.117,23.128 -13.125,23.469 -12.117,23.774 -11.109,24.066 -10.075,24.32 -9.05,24.567 -8.008,24.785 -6.949,24.976 -5.887,25.149 -4.82,25.297 -3.735,25.418 -2.644,25.531 -1.539,25.598 -0.43,25.664 0.695,25.691 1.817,25.707 2.961,25.688 4.109,25.66 5.266,25.597 6.437,25.52 7.621,25.41 8.805,25.29 10,25.13 11.211,24.97 12.429,24.76 13.653,24.55 14.89,24.3 16.133,24.05 -20.871,51.21 -16.808,-25.04 -15.508,-25.32 -14.223,-25.58 -12.949,-25.79 -11.672,-26 -10.422,-26.19 -9.172,-26.34 -7.937,-26.46 -6.703,-26.59 -5.489,-26.665 -4.277,-26.726 -3.086,-26.758 -1.894,-26.781 -0.723,-26.762 0.449,-26.73 1.602,-26.665 2.754,-26.593 3.89,-26.481 5.02,-26.351 6.133,-26.196 7.242,-26.019 8.336,-25.813 9.429,-25.59 10.496,-25.335 11.571,-25.067 12.625,-24.765 13.672,-24.446 14.703,-24.094 15.734,-23.734 16.75,-23.332 17.762,-22.914 18.75,-22.473 16.148,-17.562 z"
         style="fill:none;stroke:#231f20;stroke-width:20.00130081;stroke-linecap:butt;stroke-linejoin:bevel;stroke-miterlimit:2.61310005;stroke-opacity:1;stroke-dasharray:none"
         id="path100"
         inkscape:connector-curvature="0" /><path
         d="m 865.984,1716.61 c 468.376,0 850.396,-382.01 850.396,-850.387 0,-468.383 -382.02,-850.3949 -850.396,-850.3949 -468.379,0 -850.3942,382.0119 -850.3942,850.3949 0,468.377 382.0152,850.387 850.3942,850.387 z m -515.531,-472.69 120.75,-120.75 10.574,108.38 76.477,-24.15 16.101,88.55 71.391,7.72 -107.742,107.74 c 247.262,168.9 590.046,105.64 791.726,-103.31 199.39,-206.58 230.83,-513.287 83.84,-772.252 l -76.11,76.105 -38.57,-32.484 -16.1,-108.68 -85.66,47.473 1.13,-51.5 -29.23,-41.414 72.76,-72.766 C 976.027,146.121 571.367,233.781 406.508,424.32 201.188,661.617 164.191,978.363 350.453,1243.92"
         style="fill:#bdbcbc;fill-opacity:1;fill-rule:evenodd;stroke:none"
         id="path102"
         inkscape:connector-curvature="0" /><path
         d="m 865.984,1716.61 c 468.376,0 850.396,-382.01 850.396,-850.387 0,-468.383 -382.02,-850.3949 -850.396,-850.3949 -468.379,0 -850.3942,382.0119 -850.3942,850.3949 0,468.377 382.0152,850.387 850.3942,850.387 z m -515.531,-472.69 120.75,-120.75 10.574,108.38 76.477,-24.15 16.101,88.55 71.391,7.72 -107.742,107.74 c 247.262,168.9 590.046,105.64 791.726,-103.31 199.39,-206.58 230.83,-513.287 83.84,-772.252 l -76.11,76.105 -38.57,-32.484 -16.1,-108.68 -85.66,47.473 1.13,-51.5 -29.23,-41.414 72.76,-72.766 C 976.027,146.121 571.367,233.781 406.508,424.32 201.188,661.617 164.191,978.363 350.453,1243.92 z"
         style="fill:none;stroke:#231f20;stroke-width:20.00130081;stroke-linecap:butt;stroke-linejoin:miter;stroke-miterlimit:2.61310005;stroke-opacity:1;stroke-dasharray:none"
         id="path104"
         inkscape:connector-curvature="0" /><path
         d="m 479.465,1069.18 61.023,88.02 67.83914,37.8405 -23.24514,26.6995 -25.816,15.26 -17.606,17.6 28.164,-2.35 45.77,-12.91 29.34,-7.04 54.65363,-14.351 64.73307,91.025 120.62819,36.0463 -40.64298,-25.3469 -9.48833,-41.8404 6.89721,-37.3172 132.43216,36.9042 140.67895,-69.3883 81.1186,-103.2918 -37.0361,19.0812 -36.1695,1.1679 20.6419,-86.7982 0.483,-117.95281 26.1398,-16.24203 24.3072,-46.48037 -0.4333,-74.88609 -40.7511,-66.63928 -63.659,-2.49732 -26.0901,-49.22931 -103.4904,-70.59462 -15.54204,-81.42147 -374.49611,22.89545 -14.24618,46.22108 -69.96831,87.6886 19.44626,92.22422 -36.92378,83.80111 14.91074,82.50514 51.1949,35.85418 17.50246,127.21242 -72.52892,-34.2981"
         style="fill:#ffffff;fill-opacity:1;fill-rule:evenodd;stroke:none"
         id="path106"
         inkscape:connector-curvature="0"
         sodipodi:nodetypes="ccccccccccccccccccccccccccccccccccccccc" /><path
         d="m 666.387,850.93 c 43.156,0 78.355,-11.09 78.355,-24.688 0,-13.597 -35.199,-24.683 -78.355,-24.683 -43.157,0 -78.352,11.086 -78.352,24.683 0,13.598 35.195,24.688 78.352,24.688"
         style="fill:#e9e9e9;fill-opacity:1;fill-rule:evenodd;stroke:none"
         id="path108"
         inkscape:connector-curvature="0" /><path
         d="m 999.863,846.68 c 43.157,0 78.357,-11.086 78.357,-24.688 0,-13.597 -35.2,-24.683 -78.357,-24.683 -43.156,0 -78.351,11.086 -78.351,24.683 0,13.602 35.195,24.688 78.351,24.688"
         style="fill:#e9e9e9;fill-opacity:1;fill-rule:evenodd;stroke:none"
         id="path110"
         inkscape:connector-curvature="0" /><path
         d="m 1102.46,768.453 c 14.67,-19.336 59.74,-1.449 66.55,42.93 10.1,-45.082 -29.44,-92.309 -79.42,-90.16 l 12.87,47.23"
         style="fill:#e9e9e9;fill-opacity:1;fill-rule:evenodd;stroke:none"
         id="path112"
         inkscape:connector-curvature="0" /><path
         d="m 571.563,806.992 c -14.665,-19.332 -59.743,-1.445 -66.547,42.934 -10.102,-45.082 29.429,-92.313 79.425,-90.16 l -12.878,47.226"
         style="fill:#e9e9e9;fill-opacity:1;fill-rule:evenodd;stroke:none"
         id="path114"
         inkscape:connector-curvature="0" /><path
         d="m 526.914,957.977 c -8.578,1.644 0.086,95.053 13.195,118.923 -8.8,10.31 -54.921,-22.19 -83.871,-57.21 22.891,77.83 63.012,157.53 153.153,174.85 l -92.469,69.9 c 60.789,-6.79 120.098,-17.26 174.176,-40.87 17.586,100.51 167.609,129.78 224.984,122.47 l -43.18,-7.33 c -60.293,-10.45 -153.773,-45.13 -163.117,-141.76 -43.23,23.32 -105.555,38.46 -147.937,45.41 l 65.175,-50.34 c -37.82,-7.34 -102.855,-19.3 -139.351,-130.23 29.586,23.64 37.16,35.48 71.32,35.31 -12.172,-36.55 -20.035,-84.16 -14.883,-142.412 l -17.195,3.289"
         style="fill:#231f20;fill-opacity:1;fill-rule:evenodd;stroke:none"
         id="path116"
         inkscape:connector-curvature="0" /><path
         d="m 526.914,957.977 c -8.578,1.644 0.086,95.053 13.195,118.923 -8.8,10.31 -54.921,-22.19 -83.871,-57.21 22.891,77.83 63.012,157.53 153.153,174.85 l -92.469,69.9 c 60.789,-6.79 120.098,-17.26 174.176,-40.87 17.586,100.51 167.609,129.78 224.984,122.47 l -43.18,-7.33 c -60.293,-10.45 -153.773,-45.13 -163.117,-141.76 -43.23,23.32 -105.555,38.46 -147.937,45.41 l 65.175,-50.34 c -37.82,-7.34 -102.855,-19.3 -139.351,-130.23 29.586,23.64 37.16,35.48 71.32,35.31 -12.172,-36.55 -20.035,-84.16 -14.883,-142.412 l -17.195,3.289 z"
         style="fill:none;stroke:#231f20;stroke-width:2.16000009;stroke-linecap:butt;stroke-linejoin:miter;stroke-miterlimit:2.61310005;stroke-opacity:1;stroke-dasharray:none"
         id="path118"
         inkscape:connector-curvature="0" /><path
         d="m 691.848,1006.86 20.761,-84.774 32.204,10.734 12.875,64.403 -65.84,9.637"
         style="fill:#e9e9e9;fill-opacity:1;fill-rule:evenodd;stroke:none"
         id="path120"
         inkscape:connector-curvature="0" /><path
         d="m 982.828,1009.39 -20.762,-84.773 -32.199,10.735 -12.879,64.402 65.84,9.636"
         style="fill:#e9e9e9;fill-opacity:1;fill-rule:evenodd;stroke:none"
         id="path122"
         inkscape:connector-curvature="0" /><path
         d="m 585.039,982.348 c -1.699,-64.504 29.871,-83.743 61.844,-108.895 -16.793,134.917 9.711,247.727 62.191,217.657 87.645,75.1 123.531,-21.25 128.449,-183.864 48.696,67.582 60.028,115.864 55.411,192.674 73.933,-41.71 178.416,-145.326 160.756,-250.815 l 60.5,63.633 -39.83,-15.144 c -26.88,99.484 -107.087,169.206 -190.239,223.736 5.977,-85.22 -8.359,-148.928 -31.336,-180.412 -3.047,195.922 -83.582,235.922 -144.972,165.302 -49.219,35.26 -97.547,-29.72 -79.598,-190.486 -17.211,4.188 -25.969,15.399 -43.176,66.614"
         style="fill:#231f20;fill-opacity:1;fill-rule:evenodd;stroke:none"
         id="path124"
         inkscape:connector-curvature="0" /><path
         d="m 585.039,982.348 c -1.699,-64.504 29.871,-83.743 61.844,-108.895 -16.793,134.917 9.711,247.727 62.191,217.657 87.645,75.1 123.531,-21.25 128.449,-183.864 48.696,67.582 60.028,115.864 55.411,192.674 73.933,-41.71 178.416,-145.326 160.756,-250.815 l 60.5,63.633 -39.83,-15.144 c -26.88,99.484 -107.087,169.206 -190.239,223.736 5.977,-85.22 -8.359,-148.928 -31.336,-180.412 -3.047,195.922 -83.582,235.922 -144.972,165.302 -49.219,35.26 -97.547,-29.72 -79.598,-190.486 -17.211,4.188 -25.969,15.399 -43.176,66.614 z"
         style="fill:none;stroke:#231f20;stroke-width:2.16000009;stroke-linecap:butt;stroke-linejoin:miter;stroke-miterlimit:2.61310005;stroke-opacity:1;stroke-dasharray:none"
         id="path126"
         inkscape:connector-curvature="0" /><path
         d="m 1096.03,904.887 c 78.53,66.215 138.79,-54.731 97.88,-151.231 -10.01,-23.593 -55.86,-67.578 -104.51,-53.183 l 8.29,18.281 c 17.7,-4.43 57.67,-5.84 74.65,31.582 29.04,64 27.09,194.434 -76.31,154.551"
         style="fill:#231f20;fill-opacity:1;fill-rule:evenodd;stroke:none"
         id="path128"
         inkscape:connector-curvature="0" /><path
         d="m 1096.03,904.887 c 78.53,66.215 138.79,-54.731 97.88,-151.231 -10.01,-23.593 -55.86,-67.578 -104.51,-53.183 l 8.29,18.281 c 17.7,-4.43 57.67,-5.84 74.65,31.582 29.04,64 27.09,194.434 -76.31,154.551 z"
         style="fill:none;stroke:#231f20;stroke-width:2.16000009;stroke-linecap:butt;stroke-linejoin:miter;stroke-miterlimit:2.61310005;stroke-opacity:1;stroke-dasharray:none"
         id="path130"
         inkscape:connector-curvature="0" /><path
         d="M 598.563,928.883 C 454.078,1023.96 437.617,882.391 478.531,785.895 c 9.996,-23.586 55.852,-67.579 104.504,-53.18 l -8.293,18.281 c -17.691,-4.43 -57.672,-5.836 -74.648,31.578 -29.031,64 -56.457,212.992 98.469,146.309"
         style="fill:#231f20;fill-opacity:1;fill-rule:evenodd;stroke:none"
         id="path132"
         inkscape:connector-curvature="0" /><path
         d="M 598.563,928.883 C 454.078,1023.96 437.617,882.391 478.531,785.895 c 9.996,-23.586 55.852,-67.579 104.504,-53.18 l -8.293,18.281 c -17.691,-4.43 -57.672,-5.836 -74.648,31.578 -29.031,64 -56.457,212.992 98.469,146.309 z"
         style="fill:none;stroke:#231f20;stroke-width:2.16000009;stroke-linecap:butt;stroke-linejoin:miter;stroke-miterlimit:2.61310005;stroke-opacity:1;stroke-dasharray:none"
         id="path134"
         inkscape:connector-curvature="0" /><path
         d="m 511.703,862.344 c 21.567,-7.199 40.918,-10.68 58.063,-31.176 -3.145,-113.277 29.144,-178.746 64.449,-195.539 39.582,-18.836 23.656,9.152 9.883,24.68 -72.442,81.648 -63.235,168.164 -52.434,245.164 l -19.437,-54.828 c -18.805,13.296 -41.727,23.734 -60.524,11.699"
         style="fill:#231f20;fill-opacity:1;fill-rule:evenodd;stroke:none"
         id="path136"
         inkscape:connector-curvature="0" /><path
         d="m 511.703,862.344 c 21.567,-7.199 40.918,-10.68 58.063,-31.176 -3.145,-113.277 29.144,-178.746 64.449,-195.539 39.582,-18.836 23.656,9.152 9.883,24.68 -72.442,81.648 -63.235,168.164 -52.434,245.164 l -19.437,-54.828 c -18.805,13.296 -41.727,23.734 -60.524,11.699 z"
         style="fill:none;stroke:#231f20;stroke-width:2.16000009;stroke-linecap:butt;stroke-linejoin:miter;stroke-miterlimit:2.61310005;stroke-opacity:1;stroke-dasharray:none"
         id="path138"
         inkscape:connector-curvature="0" /><path
         d="m 1154.72,834.613 c -18.56,-2.687 -30.82,-17.25 -47.96,-37.746 3.14,-113.277 -64.21,-168.363 -99.51,-185.152 -39.578,-18.832 3.59,22.64 20.11,35.207 47.7,36.297 70.79,126.758 59.99,203.758 l 16.98,-33 c 15.8,22.32 34.6,24.453 50.39,16.933"
         style="fill:#231f20;fill-opacity:1;fill-rule:evenodd;stroke:none"
         id="path140"
         inkscape:connector-curvature="0" /><path
         d="m 1154.72,834.613 c -18.56,-2.687 -30.82,-17.25 -47.96,-37.746 3.14,-113.277 -64.21,-168.363 -99.51,-185.152 -39.578,-18.832 3.59,22.64 20.11,35.207 47.7,36.297 70.79,126.758 59.99,203.758 l 16.98,-33 c 15.8,22.32 34.6,24.453 50.39,16.933 z"
         style="fill:none;stroke:#231f20;stroke-width:2.16000009;stroke-linecap:butt;stroke-linejoin:miter;stroke-miterlimit:2.61310005;stroke-opacity:1;stroke-dasharray:none"
         id="path142"
         inkscape:connector-curvature="0" /><path
         d="m 1018.84,708.445 c 21.11,19.305 44.71,24.313 53.67,94.45 14.4,-60.11 -5.82,-77.282 -34.35,-135.239 l -19.32,40.789"
         style="fill:#e9e9e9;fill-opacity:1;fill-rule:evenodd;stroke:none"
         id="path144"
         inkscape:connector-curvature="0" /><path
         d="m 1150.79,921.035 c 8.3,74.524 -0.11,153.885 -23.09,199.105 21.64,12.51 42.8,-7.69 83.69,-38.95 -81.68,160.45 -202.99,249.44 -366.484,171.7 -18.273,49.53 0.004,79.83 54.828,90.9 -64.925,-10.11 -96.668,-34.64 -63.484,-115.43 133.832,78.98 269.23,11.07 359.27,-131.3 -31.25,36.15 -47.09,38.12 -82.25,30.3 24.53,-43.29 29.82,-167.368 18.76,-209.212 l 18.76,2.887"
         style="fill:#231f20;fill-opacity:1;fill-rule:evenodd;stroke:none"
         id="path146"
         inkscape:connector-curvature="0" /><path
         d="m 1150.79,921.035 c 8.3,74.524 -0.11,153.885 -23.09,199.105 21.64,12.51 42.8,-7.69 83.69,-38.95 -81.68,160.45 -202.99,249.44 -366.484,171.7 -18.273,49.53 0.004,79.83 54.828,90.9 -64.925,-10.11 -96.668,-34.64 -63.484,-115.43 133.832,78.98 269.23,11.07 359.27,-131.3 -31.25,36.15 -47.09,38.12 -82.25,30.3 24.53,-43.29 29.82,-167.368 18.76,-209.212 l 18.76,2.887 z"
         style="fill:none;stroke:#231f20;stroke-width:2.16000009;stroke-linecap:butt;stroke-linejoin:miter;stroke-miterlimit:2.61310005;stroke-opacity:1;stroke-dasharray:none"
         id="path148"
         inkscape:connector-curvature="0" /><path
         d="m 655.895,840.234 -5.77,12.989 c 35.105,55.304 83.199,50.976 118.313,10.097 l -10.102,-12.984 c -31.746,35.586 -66.859,31.25 -102.441,-10.102"
         style="fill:#231f20;fill-opacity:1;fill-rule:evenodd;stroke:none"
         id="path150"
         inkscape:connector-curvature="0" /><path
         d="m 655.895,840.234 -5.77,12.989 c 35.105,55.304 83.199,50.976 118.313,10.097 l -10.102,-12.984 c -31.746,35.586 -66.859,31.25 -102.441,-10.102 z"
         style="fill:none;stroke:#231f20;stroke-width:2.16000009;stroke-linecap:butt;stroke-linejoin:miter;stroke-miterlimit:2.61310005;stroke-opacity:1;stroke-dasharray:none"
         id="path152"
         inkscape:connector-curvature="0" /><path
         d="m 1023.11,835.551 5.77,12.988 c -35.103,55.305 -83.196,50.977 -118.31,10.098 l 10.102,-12.985 c 31.742,35.586 66.859,31.254 102.438,-10.101"
         style="fill:#231f20;fill-opacity:1;fill-rule:evenodd;stroke:none"
         id="path154"
         inkscape:connector-curvature="0" /><path
         d="m 1023.11,835.551 5.77,12.988 c -35.103,55.305 -83.196,50.977 -118.31,10.098 l 10.102,-12.985 c 31.742,35.586 66.859,31.254 102.438,-10.101 z"
         style="fill:none;stroke:#231f20;stroke-width:2.16000009;stroke-linecap:butt;stroke-linejoin:miter;stroke-miterlimit:2.61310005;stroke-opacity:1;stroke-dasharray:none"
         id="path156"
         inkscape:connector-curvature="0" /><path
         d="m 656.984,976.949 -5.773,12.989 c 30.781,37.992 79.836,37.512 118.312,10.102 l -10.097,-12.989 c -33.672,18.269 -68.785,13.939 -102.442,-10.102"
         style="fill:#231f20;fill-opacity:1;fill-rule:evenodd;stroke:none"
         id="path158"
         inkscape:connector-curvature="0" /><path
         d="m 656.984,976.949 -5.773,12.989 c 30.781,37.992 79.836,37.512 118.312,10.102 l -10.097,-12.989 c -33.672,18.269 -68.785,13.939 -102.442,-10.102 z"
         style="fill:none;stroke:#231f20;stroke-width:2.16000009;stroke-linecap:butt;stroke-linejoin:miter;stroke-miterlimit:2.61310005;stroke-opacity:1;stroke-dasharray:none"
         id="path160"
         inkscape:connector-curvature="0" /><path
         d="m 1017.7,979.48 5.76,12.989 c -30.776,37.991 -79.827,37.511 -118.308,10.101 l 10.102,-12.988 c 33.668,18.278 68.781,13.938 102.446,-10.102"
         style="fill:#231f20;fill-opacity:1;fill-rule:evenodd;stroke:none"
         id="path162"
         inkscape:connector-curvature="0" /><path
         d="m 1017.7,979.48 5.76,12.989 c -30.776,37.991 -79.827,37.511 -118.308,10.101 l 10.102,-12.988 c 33.668,18.278 68.781,13.938 102.446,-10.102 z"
         style="fill:none;stroke:#231f20;stroke-width:2.16000009;stroke-linecap:butt;stroke-linejoin:miter;stroke-miterlimit:2.61310005;stroke-opacity:1;stroke-dasharray:none"
         id="path164"
         inkscape:connector-curvature="0" /><path
         d="m 502.629,757.801 63.336,52.996 33.609,-15.512 32.313,10.344 11.633,-20.684 0,-60.75 11.636,-93.07 284.49345,-116.76126 9.83444,-23.95455 62.28011,76.79255 116.486,-26.55674 93.06,-111.165 58.17,-169.328 c 20.91,-148.922 -203.85,-86.195 -401.398,-120.32 -16.988,-2.934 13.43,31.844 -4.41,33.953 l -105.34,-4.758 C 686.918,126.258 649.316,124.172 655.531,162.758 l -65.785,-7.981 -81.66,60.235 -22.262,113.648 21.973,95.653 69.801,116.332 -74.969,217.156"
         style="fill:#ffffff;fill-opacity:1;fill-rule:evenodd;stroke:none"
         id="path166"
         inkscape:connector-curvature="0"
         sodipodi:nodetypes="ccccccccccccccccccccccc" /><path
         d="m 704.273,482.477 c 42.227,62.906 35.559,117.195 -49.753,162.867 -9.34,78.039 19.753,153.472 -21.922,165.34 -23.227,6.617 -33.621,-7.969 -33.489,-6.973 -0.734,12.656 -10.906,18.937 -32.515,10.848 -69.422,-25.985 -114.508,-104.547 -73.016,-174.383 22.414,-37.723 71.656,-50.742 68.508,-98.238 l 11.637,-7.754 c 7.644,55.168 -48.508,75.925 -74.973,115.039 -33.574,49.621 23.699,140.894 73.68,155.113 18.957,0 -13.789,-63.34 -15.512,-86.606 15.078,18.098 39.465,75.036 56.875,77.555 60.633,8.781 17.777,-67.855 26.508,-147.105 74.558,-38.774 95.441,-95.469 45.875,-161.825 l 18.097,-3.878"
         style="fill:#231f20;fill-opacity:1;fill-rule:evenodd;stroke:none"
         id="path168"
         inkscape:connector-curvature="0" /><path
         d="m 704.273,482.477 c 42.227,62.906 35.559,117.195 -49.753,162.867 -9.34,78.039 19.753,153.472 -21.922,165.34 -23.227,6.617 -33.621,-7.969 -33.489,-6.973 -0.734,12.656 -10.906,18.937 -32.515,10.848 -69.422,-25.985 -114.508,-104.547 -73.016,-174.383 22.414,-37.723 71.656,-50.742 68.508,-98.238 l 11.637,-7.754 c 7.644,55.168 -48.508,75.925 -74.973,115.039 -33.574,49.621 23.699,140.894 73.68,155.113 18.957,0 -13.789,-63.34 -15.512,-86.606 15.078,18.098 39.465,75.036 56.875,77.555 60.633,8.781 17.777,-67.855 26.508,-147.105 74.558,-38.774 95.441,-95.469 45.875,-161.825 l 18.097,-3.878 z"
         style="fill:none;stroke:#231f20;stroke-width:2.16000009;stroke-linecap:butt;stroke-linejoin:miter;stroke-miterlimit:2.61310005;stroke-opacity:1;stroke-dasharray:none"
         id="path170"
         inkscape:connector-curvature="0" /><path
         d="M 977.102,593.141 C 951.848,544.477 937.68,492.113 947.531,423.109 c -19.718,52.059 -23.41,88.407 -3.695,155.246 l 33.266,14.786"
         style="fill:#231f20;fill-opacity:1;fill-rule:evenodd;stroke:none"
         id="path172"
         inkscape:connector-curvature="0" /><path
         d="M 977.102,593.141 C 951.848,544.477 937.68,492.113 947.531,423.109 c -19.718,52.059 -23.41,88.407 -3.695,155.246 l 33.266,14.786 z"
         style="fill:none;stroke:#231f20;stroke-width:2.16000009;stroke-linecap:butt;stroke-linejoin:miter;stroke-miterlimit:2.61310005;stroke-opacity:1;stroke-dasharray:none"
         id="path174"
         inkscape:connector-curvature="0" /><path
         d="m 823.344,829.145 c 100.117,0 181.776,-61.614 181.776,-137.157 0,-75.543 -81.659,-137.152 -181.776,-137.152 -100.117,0 -181.774,61.609 -181.774,137.152 0,75.543 81.657,137.157 181.774,137.157"
         style="fill:#ffffff;fill-opacity:1;fill-rule:evenodd;stroke:none"
         id="path176"
         inkscape:connector-curvature="0" /><path
         d="m 725.25,574.387 55.785,-22.313 78.102,1.86 -68.805,-145.043 -72.519,7.437 11.156,66.945 -3.719,91.114"
         style="fill:#e9e9e9;fill-opacity:1;fill-rule:evenodd;stroke:none"
         id="path178"
         inkscape:connector-curvature="0" /><path
         d="m 689.398,595.715 c 25.254,-48.664 39.422,-101.027 29.571,-170.031 19.719,52.058 23.406,88.406 3.695,155.246 l -33.266,14.785"
         style="fill:#231f20;fill-opacity:1;fill-rule:evenodd;stroke:none"
         id="path180"
         inkscape:connector-curvature="0" /><path
         d="m 689.398,595.715 c 25.254,-48.664 39.422,-101.027 29.571,-170.031 19.719,52.058 23.406,88.406 3.695,155.246 l -33.266,14.785 z"
         style="fill:none;stroke:#231f20;stroke-width:2.16000009;stroke-linecap:butt;stroke-linejoin:miter;stroke-miterlimit:2.61310005;stroke-opacity:1;stroke-dasharray:none"
         id="path182"
         inkscape:connector-curvature="0" /><path
         d="m 945.684,432.352 c -24.028,173.105 155.546,176.39 218.086,92.406 153.06,-205.535 178.53,-379.891 11.09,-373.332 -68.18,2.668 -246.426,-0.617 -312.344,-20.332 l 1.847,214.39 c 161.257,-15.699 239.797,42.829 179.277,81.321 52.98,-35.731 60.37,-102.266 -160.796,-101.649 l 0,-168.187 c 165.716,30.804 163.976,23.308 293.866,16.633 79.52,-4.086 161.11,94.925 -14.79,327.132 -64.78,85.508 -211.932,75.774 -216.236,-68.382"
         style="fill:#231f20;fill-opacity:1;fill-rule:evenodd;stroke:none"
         id="path184"
         inkscape:connector-curvature="0" /><path
         d="m 945.684,432.352 c -24.028,173.105 155.546,176.39 218.086,92.406 153.06,-205.535 178.53,-379.891 11.09,-373.332 -68.18,2.668 -246.426,-0.617 -312.344,-20.332 l 1.847,214.39 c 161.257,-15.699 239.797,42.829 179.277,81.321 52.98,-35.731 60.37,-102.266 -160.796,-101.649 l 0,-168.187 c 165.716,30.804 163.976,23.308 293.866,16.633 79.52,-4.086 161.11,94.925 -14.79,327.132 -64.78,85.508 -211.932,75.774 -216.236,-68.382 z"
         style="fill:none;stroke:#231f20;stroke-width:2.16000009;stroke-linecap:butt;stroke-linejoin:miter;stroke-miterlimit:2.61310005;stroke-opacity:1;stroke-dasharray:none"
         id="path186"
         inkscape:connector-curvature="0" /><path
         d="m 596.988,529.012 124.09,-52.996 C 723.465,224.188 671.484,69.8203 520.723,191.645 c -65.961,53.3 -56.243,180.949 36.195,358.046 l 23.266,-12.925 C 507.473,434.543 449.223,283.051 542.699,198.105 c 107.051,-97.281 164.309,-7 158.989,267.571 l -104.7,63.336"
         style="fill:#231f20;fill-opacity:1;fill-rule:evenodd;stroke:none"
         id="path188"
         inkscape:connector-curvature="0" /><path
         d="m 596.988,529.012 124.09,-52.996 C 723.465,224.188 671.484,69.8203 520.723,191.645 c -65.961,53.3 -56.243,180.949 36.195,358.046 l 23.266,-12.925 C 507.473,434.543 449.223,283.051 542.699,198.105 c 107.051,-97.281 164.309,-7 158.989,267.571 l -104.7,63.336 z"
         style="fill:none;stroke:#231f20;stroke-width:2.16000009;stroke-linecap:butt;stroke-linejoin:miter;stroke-miterlimit:2.61310005;stroke-opacity:1;stroke-dasharray:none"
         id="path190"
         inkscape:connector-curvature="0" /><path
         d="m 686.313,361.781 36.253,0 25,-13.75 -46.253,-165.011 -56.254,-1.25 41.254,180.011"
         style="fill:#ffffff;fill-opacity:1;fill-rule:evenodd;stroke:none"
         id="path192"
         inkscape:connector-curvature="0" /><path
         d="m 868.434,169.668 c -33.391,-10.555 -67.86,-15.727 -104.7,-9.047 -26.5,-18.558 -71.472,-32.359 -89.191,-31.023 -29.887,2.261 -29.961,16.906 -24.559,42.656 -45.472,-14.875 -64.429,34.238 -37.484,65.922 -42.656,-37.055 -53.297,29.461 -19.391,54.289 36.856,26.996 84.278,91.773 129.262,74.973 78.328,-29.258 119.68,-47.301 148.649,-42.657 l -1.293,-21.972 c -48.149,11.953 -94.782,19.535 -149.942,49.117 -44.933,24.097 -193.582,-121.863 -121.504,-113.75 50.817,5.722 62.477,47.828 96.946,63.34 -109.61,-69.661 -102.161,-139.586 -38.782,-113.75 50.243,20.476 53,31.882 82.727,51.703 C 656.223,180 628.418,123.625 701.688,143.816 c 21.05,5.801 40.503,18.098 60.753,29.731 37.914,-4.738 78.848,-0.863 109.872,11.633 l -3.879,-15.512"
         style="fill:#231f20;fill-opacity:1;fill-rule:evenodd;stroke:none"
         id="path194"
         inkscape:connector-curvature="0" /><path
         d="m 868.434,169.668 c -33.391,-10.555 -67.86,-15.727 -104.7,-9.047 -26.5,-18.558 -71.472,-32.359 -89.191,-31.023 -29.887,2.261 -29.961,16.906 -24.559,42.656 -45.472,-14.875 -64.429,34.238 -37.484,65.922 -42.656,-37.055 -53.297,29.461 -19.391,54.289 36.856,26.996 84.278,91.773 129.262,74.973 78.328,-29.258 119.68,-47.301 148.649,-42.657 l -1.293,-21.972 c -48.149,11.953 -94.782,19.535 -149.942,49.117 -44.933,24.097 -193.582,-121.863 -121.504,-113.75 50.817,5.722 62.477,47.828 96.946,63.34 -109.61,-69.661 -102.161,-139.586 -38.782,-113.75 50.243,20.476 53,31.882 82.727,51.703 C 656.223,180 628.418,123.625 701.688,143.816 c 21.05,5.801 40.503,18.098 60.753,29.731 37.914,-4.738 78.848,-0.863 109.872,11.633 l -3.879,-15.512 z"
         style="fill:none;stroke:#231f20;stroke-width:2.16000009;stroke-linecap:butt;stroke-linejoin:miter;stroke-miterlimit:2.61310005;stroke-opacity:1;stroke-dasharray:none"
         id="path196"
         inkscape:connector-curvature="0" /><path
         d="M 774.863,822.203 C 540.691,762.066 672.68,547.344 835.426,560.191 c 131.121,10.352 236.284,114.516 98.117,239.61 176.727,-97.067 92.287,-267.086 -134.82,-255.11 -238.559,12.571 -208.215,290.118 -23.86,277.512"
         style="fill:#231f20;fill-opacity:1;fill-rule:evenodd;stroke:none"
         id="path198"
         inkscape:connector-curvature="0" /><path
         d="M 774.863,822.203 C 540.691,762.066 672.68,547.344 835.426,560.191 c 131.121,10.352 236.284,114.516 98.117,239.61 176.727,-97.067 92.287,-267.086 -134.82,-255.11 -238.559,12.571 -208.215,290.118 -23.86,277.512 z"
         style="fill:none;stroke:#231f20;stroke-width:2.16000009;stroke-linecap:butt;stroke-linejoin:miter;stroke-miterlimit:2.61310005;stroke-opacity:1;stroke-dasharray:none"
         id="path200"
         inkscape:connector-curvature="0" /><path
         d="m 846.266,610.648 c 118.754,11.477 124.16,74.047 111.625,154.559 69.409,-104.57 2.66,-180.387 -128.797,-191.051 -20.285,-1.648 -8.961,33.969 17.172,36.492"
         style="fill:#e9e9e9;fill-opacity:1;fill-rule:evenodd;stroke:none"
         id="path202"
         inkscape:connector-curvature="0" /><path
         d="m 899.82,225.348 c 247.74,42.484 395.96,-104.403 321.75,141.543 97.96,-255.754 -65.87,-120.43 -324.047,-196.629 l 2.297,55.086"
         style="fill:#e9e9e9;fill-opacity:1;fill-rule:evenodd;stroke:none"
         id="path204"
         inkscape:connector-curvature="0" /><path
         d="m 580.207,520.461 22.313,-13.016 c -68.493,-92.816 -83.985,-188.582 -63.223,-286.367 -46.793,60.281 -41.215,154.809 40.91,299.383"
         style="fill:#e9e9e9;fill-opacity:1;fill-rule:evenodd;stroke:none"
         id="path206"
         inkscape:connector-curvature="0" /></g></g></svg>