<?xml version="1.0" encoding="UTF-8" standalone="no"?>
<!-- Created with Inkscape (http://www.inkscape.org/) -->
<svg
   xmlns:dc="http://purl.org/dc/elements/1.1/"
   xmlns:cc="http://web.resource.org/cc/"
   xmlns:rdf="http://www.w3.org/1999/02/22-rdf-syntax-ns#"
   xmlns:svg="http://www.w3.org/2000/svg"
   xmlns="http://www.w3.org/2000/svg"
   xmlns:sodipodi="http://sodipodi.sourceforge.net/DTD/sodipodi-0.dtd"
   xmlns:inkscape="http://www.inkscape.org/namespaces/inkscape"
   width="210mm"
   height="297mm"
   id="svg2"
   sodipodi:version="0.32"
   inkscape:version="0.45.1"
   sodipodi:docbase="/home/nh"
   sodipodi:docname="logo_alt_vektor.svg"
   inkscape:output_extension="org.inkscape.output.svg.inkscape"
   inkscape:export-filename="/home/nh/logo_fsr_neu.png"
   inkscape:export-xdpi="600"
   inkscape:export-ydpi="600">
  <defs
     id="defs4" />
  <sodipodi:namedview
     id="base"
     pagecolor="#ffffff"
     bordercolor="#666666"
     borderopacity="1.0"
     inkscape:pageopacity="0.0"
     inkscape:pageshadow="2"
     inkscape:zoom="0.76988205"
     inkscape:cx="373.43824"
     inkscape:cy="669.51182"
     inkscape:document-units="px"
     inkscape:current-layer="layer1"
     showguides="true"
     inkscape:guide-bbox="true"
     inkscape:window-width="1022"
     inkscape:window-height="739"
     inkscape:window-x="0"
     inkscape:window-y="0">
    <sodipodi:guide
       orientation="horizontal"
       position="7.9488117"
       id="guide11076" />
    <sodipodi:guide
       orientation="horizontal"
       position="1037.8607"
       id="guide13089" />
    <sodipodi:guide
       orientation="horizontal"
       position="550.73371"
       id="guide2299" />
  </sodipodi:namedview>
  <metadata
     id="metadata7">
    <rdf:RDF>
      <cc:Work
         rdf:about="">
        <dc:format>image/svg+xml</dc:format>
        <dc:type
           rdf:resource="http://purl.org/dc/dcmitype/StillImage" />
      </cc:Work>
    </rdf:RDF>
  </metadata>
  <g
     inkscape:label="Ebene 1"
     inkscape:groupmode="layer"
     id="layer1">
    <path
       sodipodi:type="arc"
       style="opacity:1;fill:none;fill-rule:evenodd;stroke:#000000;stroke-width:1.50873697;stroke-linecap:round;stroke-linejoin:round;stroke-miterlimit:4;stroke-dasharray:none;stroke-opacity:1"
       id="path2228"
       sodipodi:cx="457.89386"
       sodipodi:cy="652.23157"
       sodipodi:rx="268.95999"
       sodipodi:ry="271.36679"
       d="M 726.85385 652.23157 A 268.95999 271.36679 0 1 1  188.93387,652.23157 A 268.95999 271.36679 0 1 1  726.85385 652.23157 z"
       transform="matrix(1.3458954,2.6223975e-2,-2.5429867e-2,1.305139,-226.25287,-493.3999)"
       inkscape:export-filename="/home/nh/logo_fsr_neu.png"
       inkscape:export-xdpi="90"
       inkscape:export-ydpi="90" />
    <path
       style="opacity:1;fill:none;fill-rule:evenodd;stroke:#000000;stroke-width:3.99999976;stroke-linecap:round;stroke-linejoin:round;stroke-miterlimit:4;stroke-dasharray:none;stroke-opacity:1"
       d="M 23.966468,356.6547 C 27.364212,282.59212 51.36944,224.9427 86.735324,175.07038"
       id="path5140"
       sodipodi:nodetypes="cc"
       inkscape:export-filename="/home/nh/logo_fsr_neu.png"
       inkscape:export-xdpi="90"
       inkscape:export-ydpi="90" />
    <path
       style="opacity:1;fill:none;fill-rule:evenodd;stroke:#000000;stroke-width:3.99999928;stroke-linecap:round;stroke-linejoin:round;stroke-miterlimit:4;stroke-dasharray:none;stroke-opacity:1"
       d="M 71.768985,356.22584 L 25.407478,356.61359"
       id="path6111"
       inkscape:export-filename="/home/nh/logo_fsr_neu.png"
       inkscape:export-xdpi="90"
       inkscape:export-ydpi="90" />
    <path
       style="opacity:1;fill:none;fill-rule:evenodd;stroke:#000000;stroke-width:3.99999976;stroke-linecap:round;stroke-linejoin:round;stroke-miterlimit:4;stroke-dasharray:none;stroke-opacity:1"
       d="M 104.99386,382.56007 C 104.5301,395.54957 105.60132,471.38133 104.87099,481.67419 L 80.082495,481.73524 L 80.548293,382.45794 L 104.99386,382.56007 z "
       id="path7082"
       sodipodi:nodetypes="ccccc"
       inkscape:export-filename="/home/nh/logo_fsr_neu.png"
       inkscape:export-xdpi="90"
       inkscape:export-ydpi="90" />
    <path
       sodipodi:type="arc"
       style="opacity:1;fill:none;stroke:#000000;stroke-width:3.25977445;stroke-linecap:round;stroke-linejoin:round;stroke-miterlimit:4;stroke-dasharray:none;stroke-opacity:1"
       id="path8053"
       sodipodi:cx="91.808899"
       sodipodi:cy="685.7522"
       sodipodi:rx="10.47904"
       sodipodi:ry="10.948251"
       d="M 102.28794 685.7522 A 10.47904 10.948251 0 1 1  81.329859,685.7522 A 10.47904 10.948251 0 1 1  102.28794 685.7522 z"
       transform="matrix(1.2318277,2.4001433e-2,-2.3807691e-2,1.2218841,-4.0709065,-482.07176)"
       inkscape:export-filename="/home/nh/logo_fsr_neu.png"
       inkscape:export-xdpi="90"
       inkscape:export-ydpi="90" />
    <path
       style="opacity:1;fill:none;fill-rule:evenodd;stroke:#000000;stroke-width:3.99999976;stroke-linecap:round;stroke-linejoin:round;stroke-miterlimit:4;stroke-dasharray:none;stroke-opacity:1"
       d="M 114.92866,481.93341 C 122.90636,482.32306 129.7391,482.23121 138.67722,482.21582 L 138.91307,409.60189 C 138.85315,401.50406 149.96104,401.60982 149.50489,409.51388 C 149.66221,426.93038 149.47448,477.25898 149.0376,481.98378 L 172.33345,481.62254 C 172.24873,457.7813 173.50141,423.21794 172.20813,404.99846 C 172.88305,388.52355 160.90698,379.77296 146.63094,384.70631 C 143.7419,385.82754 140.68176,387.83191 137.81654,386.65474 C 135.49834,385.70227 135.19561,381.87586 131.56854,382.48511 C 123.79001,382.25498 118.53553,383.32759 115.25091,382.78395 C 115.79465,397.00232 115.76004,482.40638 114.92866,481.93341 z "
       id="path8055"
       sodipodi:nodetypes="ccccccccsccc"
       inkscape:export-filename="/home/nh/logo_fsr_neu.png"
       inkscape:export-xdpi="90"
       inkscape:export-ydpi="90" />
    <path
       style="opacity:1;fill:none;fill-rule:evenodd;stroke:#000000;stroke-width:3.99999976;stroke-linecap:round;stroke-linejoin:round;stroke-miterlimit:4;stroke-dasharray:none;stroke-opacity:1"
       d="M 145.20431,535.69745 C 156.2505,551.57865 163.42328,559.60406 172.82301,567.22296 L 161.65467,576.69686 L 152.19216,567.56058 L 116.09753,600.37631 C 110.52013,595.21802 108.47085,591.46453 103.49504,586.38867 L 139.88832,554.04814 L 133.52672,544.80011 L 145.20431,535.69745 z "
       id="path9026"
       sodipodi:nodetypes="ccccccccc"
       inkscape:export-filename="/home/nh/logo_fsr_neu.png"
       inkscape:export-xdpi="90"
       inkscape:export-ydpi="90" />
    <path
       style="opacity:1;fill:none;fill-rule:evenodd;stroke:#000000;stroke-width:3.99999976;stroke-linecap:round;stroke-linejoin:round;stroke-miterlimit:4;stroke-dasharray:none;stroke-opacity:1"
       d="M 181.43694,575.24485 L 191.08496,583.69617 C 182.64759,592.62926 174.22399,600.85622 165.7009,614.18896 C 160.48937,624.38689 165.25952,634.80338 177.89333,624.5835 C 189.6108,612.62741 197.04188,601.04731 202.78123,593.0481 L 212.79352,600.47359 C 202.22272,614.07817 199.57025,621.71782 183.17117,638.1844 C 171.11875,650.40814 140.02058,635.52938 150.74187,612.38211 C 158.78288,597.21262 167.02003,587.99617 181.43694,575.24485 z "
       id="path9997"
       sodipodi:nodetypes="ccccccccc"
       inkscape:export-filename="/home/nh/logo_fsr_neu.png"
       inkscape:export-xdpi="90"
       inkscape:export-ydpi="90" />
    <path
       style="opacity:1;fill:none;fill-rule:evenodd;stroke:#000000;stroke-width:3.99999976;stroke-linecap:round;stroke-linejoin:round;stroke-miterlimit:4;stroke-dasharray:none;stroke-opacity:1"
       d="M 278.6573,647.91239 C 304.41712,655.42173 283.31253,688.91826 266.36809,677.81381 L 278.6573,647.91239 z "
       id="path10968"
       sodipodi:nodetypes="ccc"
       inkscape:export-filename="/home/nh/logo_fsr_neu.png"
       inkscape:export-xdpi="90"
       inkscape:export-ydpi="90" />
    <path
       style="opacity:1;fill:none;fill-rule:evenodd;stroke:#000000;stroke-width:3.99999976;stroke-linecap:round;stroke-linejoin:round;stroke-miterlimit:4;stroke-dasharray:none;stroke-opacity:1"
       d="M 270.57445,626.77356 C 282.6643,629.18493 296.30416,634.0266 301.04195,641.27619 C 307.0689,650.4984 305.92534,660.03895 304.31738,670.30915 C 301.19025,690.28249 287.77337,704.90186 244.89979,686.11762 L 270.57445,626.77356 z "
       id="path11939"
       sodipodi:nodetypes="csscc"
       inkscape:export-filename="/home/nh/logo_fsr_neu.png"
       inkscape:export-xdpi="90"
       inkscape:export-ydpi="90" />
    <path
       style="opacity:1;fill:none;fill-rule:evenodd;stroke:#000000;stroke-width:3.99999976;stroke-linecap:round;stroke-linejoin:round;stroke-miterlimit:4;stroke-dasharray:none;stroke-opacity:1"
       d="M 319.30209,644.68917 L 307.18569,703.30409 C 313.70568,705.23514 318.26846,705.68187 325.01585,706.0776 L 328.96841,682.22485 C 335.80009,688.23059 337.01674,698.75454 340.9548,707.64155 C 348.17655,709.62389 354.66818,709.30419 361.20488,708.94019 L 352.55217,682.89926 L 349.9604,680.06978 L 353.95864,678.08199 C 362.60103,667.60797 364.31097,653.12988 356.08288,647.76583 C 348.04864,644.56139 338.59557,642.39155 325.87168,641.59854 C 323.31073,640.96672 319.60516,636.66225 319.30209,644.68917 z "
       id="path2168"
       sodipodi:nodetypes="cccccccccccc"
       inkscape:export-filename="/home/nh/logo_fsr_neu.png"
       inkscape:export-xdpi="90"
       inkscape:export-ydpi="90" />
    <path
       style="opacity:1;fill:none;fill-rule:evenodd;stroke:#000000;stroke-width:3.99999976;stroke-linecap:round;stroke-linejoin:round;stroke-miterlimit:4;stroke-dasharray:none;stroke-opacity:1"
       d="M 371.55715,645.25948 L 373.80219,709.42791 C 391.94527,709.4006 408.84709,707.84646 425.06248,705.44808 L 421.05352,691.71771 L 390.01173,695.46777 C 386.90613,693.33667 389.00485,688.19445 388.34567,684.91823 L 417.49545,680.76087 C 416.75125,681.68928 417.6117,671.34978 415.5709,667.7794 C 396.38297,669.97809 397.98572,669.81116 388.69669,670.55762 C 387.37957,666.86247 386.69112,662.73131 387.58965,659.07934 C 397.51823,658.91286 405.77034,656.08994 414.42124,654.83449 L 412.1636,642.81306 C 395.5741,645.13043 390.24744,644.77224 371.55715,645.25948 z "
       id="path3142"
       sodipodi:nodetypes="ccccccccccccc"
       inkscape:export-filename="/home/nh/logo_fsr_neu.png"
       inkscape:export-xdpi="90"
       inkscape:export-ydpi="90" />
    <path
       style="opacity:1;fill:none;fill-rule:evenodd;stroke:#000000;stroke-width:3.99999976;stroke-linecap:round;stroke-linejoin:round;stroke-miterlimit:4;stroke-dasharray:none;stroke-opacity:1"
       d="M 331.8796,655.38225 C 355.26701,653.73585 347.45274,675.47167 331.37388,668.92121 L 331.8796,655.38225 z "
       id="path8960"
       sodipodi:nodetypes="ccc"
       inkscape:export-filename="/home/nh/logo_fsr_neu.png"
       inkscape:export-xdpi="90"
       inkscape:export-ydpi="90" />
    <path
       sodipodi:nodetypes="ccc"
       id="path9931"
       d="M 490.4282,637.17607 C 514.45363,619.57015 533.18532,657.72781 502.99599,665.8363 L 490.4282,637.17607 z "
       style="opacity:1;fill:none;fill-rule:evenodd;stroke:#000000;stroke-width:3.99999976;stroke-linecap:round;stroke-linejoin:round;stroke-miterlimit:4;stroke-dasharray:none;stroke-opacity:1"
       inkscape:transform-center-x="25.410903"
       inkscape:transform-center-y="-28.808841"
       inkscape:export-filename="/home/nh/logo_fsr_neu.png"
       inkscape:export-xdpi="90"
       inkscape:export-ydpi="90" />
    <path
       sodipodi:nodetypes="cssscc"
       id="path9933"
       d="M 469.50953,629.56951 C 483.02925,623.72635 492.03373,619.91966 498.80851,618.57273 C 516.7527,615.00515 521.42682,625.93666 526.96606,635.32629 C 535.11809,649.14494 537.61336,666.09834 514.77905,678.40907 C 509.43654,681.28922 504.0344,684.91495 495.95843,686.50653 C 488.75879,666.98406 478.731,648.08636 469.50953,629.56951 z "
       style="opacity:1;fill:none;fill-rule:evenodd;stroke:#000000;stroke-width:3.99999976;stroke-linecap:round;stroke-linejoin:round;stroke-miterlimit:4;stroke-dasharray:none;stroke-opacity:1"
       inkscape:transform-center-x="29.911359"
       inkscape:transform-center-y="-26.119277"
       inkscape:export-filename="/home/nh/logo_fsr_neu.png"
       inkscape:export-xdpi="90"
       inkscape:export-ydpi="90" />
    <path
       sodipodi:nodetypes="ccccccccccccc"
       id="path9935"
       d="M 520.28229,606.44008 L 557.36008,657.69833 C 575.96583,644.99472 585.40664,638.71664 598.55792,628.24516 C 591.22767,622.77707 591.45006,619.55177 587.88178,615.49885 C 580.09765,623.63952 570.11054,629.48968 560.7358,635.97654 C 557.4867,634.97218 555.27312,629.14808 553.07925,625.76506 L 578.3003,607.00822 C 576.46861,606.17539 572.99823,598.73391 571.61239,596.95234 C 559.2721,607.69871 554.96833,610.31874 546.00648,614.95189 C 542.88531,612.5755 541.89089,610.76302 540.64949,607.21293 C 552.31594,596.15863 557.50526,595.19855 564.10906,588.98854 C 560.56512,584.25016 560.65467,584.47168 557.21706,580.08924 C 544.45505,591.25983 533.1614,597.64645 520.28229,606.44008 z "
       style="opacity:1;fill:none;fill-rule:evenodd;stroke:#000000;stroke-width:3.99999976;stroke-linecap:round;stroke-linejoin:round;stroke-miterlimit:4;stroke-dasharray:none;stroke-opacity:1"
       inkscape:export-filename="/home/nh/logo_fsr_neu.png"
       inkscape:export-xdpi="90"
       inkscape:export-ydpi="90" />
    <path
       style="opacity:1;fill:none;fill-rule:evenodd;stroke:#000000;stroke-width:3.99999976;stroke-linecap:round;stroke-linejoin:round;stroke-miterlimit:4;stroke-dasharray:none;stroke-opacity:1"
       d="M 633.44008,358.95153 C 661.96439,358.35486 702.21769,360.47865 720.82639,359.01756 C 717.95703,295.56889 700.22403,233.13498 659.91885,176.23789"
       id="path9937"
       sodipodi:nodetypes="ccc"
       inkscape:export-filename="/home/nh/logo_fsr_neu.png"
       inkscape:export-xdpi="90"
       inkscape:export-ydpi="90" />
    <path
       style="opacity:1;fill:none;fill-rule:evenodd;stroke:#000000;stroke-width:3.99999976;stroke-linecap:round;stroke-linejoin:round;stroke-miterlimit:4;stroke-dasharray:none;stroke-opacity:1"
       d="M 521.42775,359.93048 C 517.46134,359.89028 511.61982,360.49064 507.23874,359.35213 C 498.55295,352.89065 489.51122,347.48965 480.10396,343.17757 C 477.68311,340.7521 479.35832,336.65815 481.89044,337.03904 C 493.78871,336.34763 499.32983,337.11455 508.04953,337.15233 C 507.24543,325.74985 511.12362,320.95697 512.57693,313.48858 C 518.26746,311.89604 527.7563,309.61372 532.90537,308.08533 C 553.03536,302.11023 556.40199,302.2021 568.87011,295.96267 L 569.43189,193.49966 C 570.04644,189.4779 568.09976,186.67498 564.4507,184.68218 C 546.17587,178.68812 527.33384,177.33711 508.81347,171.70659 C 505.74012,170.48901 505.15024,169.05238 504.2849,162.62166 L 502.94851,141.27377 L 380.19744,140.66101 C 377.07119,140.88413 373.85245,140.51451 371.7839,145.25368 L 371.45328,160.13499 C 362.25679,179.41894 354.77582,200.53424 350.1653,221.50792 C 348.29495,233.28363 347.71886,246.1855 348.81231,257.20175 C 349.92219,268.38352 353.8228,279.03822 358.18498,289.83243 C 363.15794,302.13808 370.49549,315.93996 380.49386,327.35004 C 381.27839,330.5421 380.0268,332.00711 380.05148,334.98407 L 402.30125,336.06554 C 406.07546,335.1547 407.6328,340.19821 404.812,342.10693 L 358.8085,358.64876 C 357.2507,359.26534 358.20604,347.66205 356.8987,343.43334 L 340.81219,347.62716 L 342.25746,340.31075 C 340.59435,341.02673 339.65735,342.07363 337.69977,341.10029 C 331.2456,329.45684 333.36166,321.23264 333.23281,314.80915 C 332.95785,313.1653 331.13964,308.29902 328.61907,307.72382 C 323.87238,306.82792 320.92059,307.87645 318.96388,306.99121 C 313.71239,303.04167 312.03443,298.65041 304.24315,295.34063 C 297.84299,293.92162 294.62202,294.76812 288.5782,296.25922 C 277.33661,299.4064 268.92615,302.97774 258.86201,309.49154 C 254.26736,313.71291 253.38039,320.01638 250.42577,325.23643 C 246.66063,331.17074 238.58666,328.26755 236.74526,326.71093 C 233.17765,323.80033 231.06645,322.65199 229.09522,317.76943 C 224.51548,299.21898 227.78425,278.78089 242.20583,264.52358 C 257.64168,256.86231 273.63522,253.76579 288.58298,249.72767 C 301.36894,250.24791 304.09254,253.8179 312.27912,253.94291 C 317.15139,254.51056 321.738,255.58166 327.35938,252.9584 C 330.52397,250.3267 333.61206,247.70089 335.39897,244.11146 C 337.32145,240.22918 338.16138,236.84998 337.7808,232.60065 C 335.36462,227.73125 332.67627,225.09586 330.28102,224.2768 L 302.57411,223.97865 L 301.58229,223.91704"
       id="path10908"
       sodipodi:nodetypes="ccccccsccccccccccssccccccccccccccccccccccccccc"
       inkscape:export-filename="/home/nh/logo_fsr_neu.png"
       inkscape:export-xdpi="90"
       inkscape:export-ydpi="90" />
    <path
       style="opacity:1;fill:none;fill-rule:evenodd;stroke:#000000;stroke-width:3.99999976;stroke-linecap:round;stroke-linejoin:round;stroke-miterlimit:4;stroke-dasharray:none;stroke-opacity:1"
       d="M 98.272594,576.42257 C 76.423708,555.42571 63.261939,526.07378 50.308224,496.52178 L 695.38126,496.37574 C 685.34517,527.77271 668.7267,551.90124 651.78213,572.48483"
       id="path11879"
       sodipodi:nodetypes="cccc"
       inkscape:export-filename="/home/nh/logo_fsr_neu.png"
       inkscape:export-xdpi="90"
       inkscape:export-ydpi="90" />
    <path
       style="opacity:1;fill:none;fill-rule:evenodd;stroke:#000000;stroke-width:3.99999976;stroke-linecap:round;stroke-linejoin:round;stroke-miterlimit:4;stroke-dasharray:none;stroke-opacity:1"
       d="M 608.88312,618.95007 L 566.72989,572.2216 C 568.92625,569.70802 574.41833,565.73748 578.51543,561.16268 C 587.75684,563.328 591.60789,563.91041 603.88571,568.18657 C 605.58517,568.48136 605.71128,566.5937 603.89814,565.80095 L 587.44722,551.54145 C 591.26589,546.56899 598.35489,540.20544 598.83885,538.49522 L 645.10394,580.65261 C 639.85439,586.81767 638.58306,588.22881 636.15095,591.17729 L 606.10139,585.93102 C 600.40066,583.9081 601.17328,587.86364 603.18156,589.2384 L 620.81605,606.59039 C 619.37108,609.76629 613.26645,614.62999 608.88312,618.95007 z "
       id="path12850"
       sodipodi:nodetypes="ccccccccccccc"
       inkscape:export-filename="/home/nh/logo_fsr_neu.png"
       inkscape:export-xdpi="90"
       inkscape:export-ydpi="90" />
    <path
       sodipodi:nodetypes="ccccc"
       id="path13821"
       d="M 591.49703,383.14183 C 590.05471,399.92061 592.84218,484.04865 590.61855,482.18918 L 569.88606,482.18669 L 569.89862,382.97293 C 571.64048,382.83554 584.29809,382.34888 591.49703,383.14183 z "
       style="opacity:1;fill:none;fill-rule:evenodd;stroke:#000000;stroke-width:3.99999976;stroke-linecap:round;stroke-linejoin:round;stroke-miterlimit:4;stroke-dasharray:none;stroke-opacity:1"
       inkscape:export-filename="/home/nh/logo_fsr_neu.png"
       inkscape:export-xdpi="90"
       inkscape:export-ydpi="90" />
    <path
       transform="matrix(1.1248517,2.1917071e-2,-2.1740151e-2,1.1157718,492.01406,-408.09527)"
       d="M 102.28794 685.7522 A 10.47904 10.948251 0 1 1  81.329859,685.7522 A 10.47904 10.948251 0 1 1  102.28794 685.7522 z"
       sodipodi:ry="10.948251"
       sodipodi:rx="10.47904"
       sodipodi:cy="685.7522"
       sodipodi:cx="91.808899"
       id="path13823"
       style="opacity:1;fill:none;stroke:#000000;stroke-width:3.56978679;stroke-linecap:round;stroke-linejoin:round;stroke-miterlimit:4;stroke-dasharray:none;stroke-opacity:1"
       sodipodi:type="arc"
       inkscape:export-filename="/home/nh/logo_fsr_neu.png"
       inkscape:export-xdpi="90"
       inkscape:export-ydpi="90" />
    <path
       style="opacity:1;fill:none;fill-rule:evenodd;stroke:#000000;stroke-width:3.99999976;stroke-linecap:round;stroke-linejoin:round;stroke-miterlimit:4;stroke-dasharray:none;stroke-opacity:1"
       d="M 551.10636,358.25287 L 564.65725,358.25115 L 564.65725,358.25115"
       id="path13825"
       inkscape:export-filename="/home/nh/logo_fsr_neu.png"
       inkscape:export-xdpi="90"
       inkscape:export-ydpi="90" />
    <path
       style="opacity:1;fill:none;fill-rule:evenodd;stroke:#000000;stroke-width:3.99999976;stroke-linecap:round;stroke-linejoin:round;stroke-miterlimit:4;stroke-dasharray:none;stroke-opacity:1"
       d="M 594.24169,358.40128 C 601.15515,358.76668 601.15515,358.76668 601.15515,358.76668"
       id="path14796"
       inkscape:export-filename="/home/nh/logo_fsr_neu.png"
       inkscape:export-xdpi="90"
       inkscape:export-ydpi="90" />
    <path
       style="opacity:1;fill:none;fill-rule:evenodd;stroke:#000000;stroke-width:3.99999976;stroke-linecap:round;stroke-linejoin:round;stroke-miterlimit:4;stroke-dasharray:none;stroke-opacity:1"
       d="M 593.98863,359.54978 L 601.15065,358.99725 L 601.15065,358.99725 L 601.15065,358.99725 L 601.15065,358.99725 L 601.15065,358.99725 L 601.15065,358.99725 L 601.15065,358.99725"
       id="path14799"
       inkscape:export-filename="/home/nh/logo_fsr_neu.png"
       inkscape:export-xdpi="90"
       inkscape:export-ydpi="90" />
    <path
       style="opacity:1;fill:none;fill-rule:evenodd;stroke:#000000;stroke-width:3.99999976;stroke-linecap:round;stroke-linejoin:round;stroke-miterlimit:4;stroke-dasharray:none;stroke-opacity:1"
       d="M 217.36004,339.30388 L 217.68584,360.5689 C 213.61679,361.46469 207.74738,364.45615 207.30798,368.70786 L 207.0633,382.69028 L 217.13684,382.92206 C 217.26419,390.64503 217.1499,397.35163 216.85136,404.04623 C 213.13304,404.01053 211.95547,404.37279 207.23007,403.8184 L 207.1949,481.91663 C 199.89846,482.0567 194.08882,482.59109 184.78819,481.77446 L 184.66116,403.94935 L 178.30048,403.89304 C 178.27967,397.57969 177.64141,391.24144 178.33531,382.84072 C 182.12824,382.98844 182.08609,382.97571 184.40711,382.50226 L 184.82614,361.62129 C 185.50778,345.51458 201.55093,338.16984 217.36004,339.30388 z "
       id="path15770"
       sodipodi:nodetypes="ccccccccccccccc"
       inkscape:export-filename="/home/nh/logo_fsr_neu.png"
       inkscape:export-xdpi="90"
       inkscape:export-ydpi="90" />
    <path
       sodipodi:nodetypes="ccccccccc"
       id="path16741"
       d="M 315.97146,481.99569 L 315.67365,415.00016 C 316.40744,405.25515 326.66083,401.55733 340.32191,405.69885 C 341.19736,401.98809 341.60532,386.18626 340.82119,383.82958 C 324.70461,380.87587 319.30399,384.1627 316.33984,387.38432 C 314.91803,386.03871 318.17673,384.462 315.07433,383.08418 C 307.24263,382.42641 300.03016,383.28846 292.96435,382.60641 C 292.99891,414.45768 293.51825,460.08164 292.77197,481.84003 C 294.89238,481.73856 312.70647,482.42038 315.97146,481.99569 z "
       style="opacity:1;fill:none;fill-rule:evenodd;stroke:#000000;stroke-width:3.99999976;stroke-linecap:round;stroke-linejoin:round;stroke-miterlimit:4;stroke-dasharray:none;stroke-opacity:1"
       inkscape:export-filename="/home/nh/logo_fsr_neu.png"
       inkscape:export-xdpi="90"
       inkscape:export-ydpi="90" />
    <path
       style="opacity:1;fill:none;fill-rule:evenodd;stroke:#000000;stroke-width:3.99999976;stroke-linecap:round;stroke-linejoin:round;stroke-miterlimit:4;stroke-dasharray:none;stroke-opacity:1"
       d="M 251.50149,383.08218 C 280.61442,382.9262 280.281,394.3909 280.31714,406.95832 C 280.46787,424.22141 280.3118,441.48475 280.36788,458.74806 C 280.44182,475.75184 273.44104,482.04937 253.55087,481.95749 C 234.26829,481.85007 225.49554,474.10727 225.39322,459.10769 C 225.28924,441.66286 225.6022,425.05098 225.4106,407.25793 C 225.44322,389.11589 231.39068,382.91216 251.50149,383.08218 z "
       id="path16745"
       sodipodi:nodetypes="ccccccc"
       inkscape:export-filename="/home/nh/logo_fsr_neu.png"
       inkscape:export-xdpi="90"
       inkscape:export-ydpi="90" />
    <path
       sodipodi:nodetypes="cccsssccccccccc"
       id="path18687"
       d="M 557.32112,482.24182 L 557.15146,459.13903 C 547.48284,458.55047 547.24303,458.82497 546.41154,450.43087 C 546.01623,450.06538 546.07816,407.30117 546.5238,404.79035 C 546.76203,403.44792 554.65973,404.38911 554.77845,403.6728 C 555.57423,398.87187 554.68632,389.84154 554.25733,383.52158 C 554.12848,381.62351 548.9897,383.35759 546.08243,382.37123 C 545.78787,365.5984 547.02663,353.19784 546.34683,339.67018 C 540.53138,338.92614 534.80485,339.067 525.94618,339.93764 L 525.62144,382.55172 C 522.73938,383.14029 521.583,382.65499 519.69495,382.82076 C 519.42825,389.12852 519.73622,395.6692 519.40335,404.07697 C 522.08458,404.15999 522.25703,404.05196 525.36341,404.18523 C 525.14884,424.11637 525.25041,437.57211 525.70046,455.81405 C 525.47978,478.08984 535.54331,482.92805 557.32112,482.24182 z "
       style="opacity:1;fill:none;fill-rule:evenodd;stroke:#000000;stroke-width:3.99999976;stroke-linecap:round;stroke-linejoin:round;stroke-miterlimit:4;stroke-dasharray:none;stroke-opacity:1"
       inkscape:export-filename="/home/nh/logo_fsr_neu.png"
       inkscape:export-xdpi="90"
       inkscape:export-ydpi="90" />
    <path
       style="opacity:1;fill:none;fill-rule:evenodd;stroke:#000000;stroke-width:3.99999976;stroke-linecap:round;stroke-linejoin:round;stroke-miterlimit:4;stroke-dasharray:none;stroke-opacity:1"
       d="M 604.52785,339.9763 C 610.77255,339.66978 624.79623,339.4515 625.91357,339.66496 L 625.61625,403.41928 C 625.00834,406.91028 625.96992,406.5797 629.61261,404.16863 L 641.49,395.68171 C 645.44052,398.88625 652.16933,408.4277 655.31466,412.60195 L 638.31252,425.63284 C 636.60225,426.7847 636.87513,430.11472 639.90426,432.72567 C 648.09721,444.09935 660.43647,461.70778 665.10067,467.41192 C 660.22958,471.35254 653.6611,477.29496 645.85137,481.9794 L 629.71792,454.66648 C 626.73091,452.86446 626.7104,454.63745 626.13303,455.73935 C 625.9643,472.06802 625.42798,480.46988 626.1922,481.95871 C 620.61148,482.54346 612.18035,481.87719 605.1013,482.13674 C 604.94321,442.41769 604.62264,386.23451 604.52785,339.9763 z "
       id="path18689"
       sodipodi:nodetypes="ccccccccccccccc"
       inkscape:export-filename="/home/nh/logo_fsr_neu.png"
       inkscape:export-xdpi="90"
       inkscape:export-ydpi="90" />
    <path
       style="opacity:1;fill:none;fill-rule:evenodd;stroke:#000000;stroke-width:3.99999976;stroke-linecap:round;stroke-linejoin:round;stroke-miterlimit:4;stroke-dasharray:none;stroke-opacity:1"
       d="M 347.70449,382.84577 C 348.75261,412.90006 346.97787,451.44724 346.99726,482.18627 C 354.64595,482.62312 359.89979,482.03262 371.68532,482.09526 L 371.84264,411.17674 C 373.68014,403.53171 381.82461,404.60265 384.03507,411.02469 L 383.45961,481.81661 C 385.5824,482.66596 401.91683,481.95391 405.13807,481.89606 L 405.0084,411.70569 C 407.10224,405.21025 415.92972,402.54803 418.14879,412.24709 L 417.69421,481.9004 C 428.73721,483.32596 430.52299,481.48532 440.76691,481.97369 C 439.9846,457.47384 441.70554,428.71401 441.12244,405.30614 C 438.89878,381.1921 415.94896,378.24866 402.84279,389.27533 C 394.65733,381.16264 383.13048,382.21216 378.11229,384.46809 C 376.87734,385.02326 374.05968,386.81922 371.71965,388.0517 C 370.79111,385.70039 372.41741,385.27129 371.42523,382.55797 C 364.21507,383.12046 352.70203,382.66793 347.70449,382.84577 z "
       id="path19660"
       sodipodi:nodetypes="cccccccccccccsccc"
       inkscape:export-filename="/home/nh/logo_fsr_neu.png"
       inkscape:export-xdpi="90"
       inkscape:export-ydpi="90" />
    <path
       style="opacity:1;fill:none;fill-rule:evenodd;stroke:#000000;stroke-width:3.99999976;stroke-linecap:round;stroke-linejoin:round;stroke-miterlimit:4;stroke-dasharray:none;stroke-opacity:1"
       d="M 451.44789,465.8944 C 453.50824,477.16859 460.44765,484.15477 483.94722,482.06723 C 488.21628,480.27763 487.4494,480.58058 491.49248,478.58814 C 491.62061,480.06595 491.84149,480.81485 491.91346,482.21947 C 498.18213,482.33288 504.51507,482.57308 512.17279,482.20472 C 513.48493,421.72837 511.11441,416.30551 512.03993,382.54614 C 506.65906,382.57669 498.06895,382.58233 492.73364,382.57421 C 492.37715,383.99903 492.11999,386.3702 492.083,387.44696 C 490.24628,387.17853 489.67787,383.46459 484.41577,382.44876 C 457.78799,381.82218 454.11636,389.45806 452.1091,401.29446 C 450.70053,421.71589 450.82522,442.00222 451.44789,465.8944 z "
       id="path20631"
       sodipodi:nodetypes="ccccccccccc"
       inkscape:export-filename="/home/nh/logo_fsr_neu.png"
       inkscape:export-xdpi="90"
       inkscape:export-ydpi="90" />
    <path
       style="opacity:1;fill:none;fill-rule:evenodd;stroke:#000000;stroke-width:3.99999976;stroke-linecap:round;stroke-linejoin:round;stroke-miterlimit:4;stroke-dasharray:none;stroke-opacity:1"
       d="M 335.81481,339.67676 C 334.57023,342.16685 335.28809,341.57231 331.78618,342.1277 C 329.21082,341.75222 326.41265,342.00409 324.52228,339.69969 C 321.14645,333.93574 320.42296,331.4785 318.89534,325.91895 C 318.65754,324.5408 318.09492,322.36934 317.4352,320.3143 C 316.81419,317.628 315.65519,315.46415 312.88525,314.86214 C 311.56512,314.57525 308.37856,310.17747 305.4312,307.5395 L 303.41306,305.12674"
       id="path21602"
       sodipodi:nodetypes="cccccscc"
       inkscape:export-filename="/home/nh/logo_fsr_neu.png"
       inkscape:export-xdpi="90"
       inkscape:export-ydpi="90" />
    <path
       style="opacity:1;fill:none;fill-rule:evenodd;stroke:#000000;stroke-width:3.99999976;stroke-linecap:round;stroke-linejoin:round;stroke-miterlimit:4;stroke-dasharray:none;stroke-opacity:1"
       d="M 325.26379,340.76286 C 324.8383,342.55334 323.50703,344.29193 321.95819,345.41115 C 317.33666,346.93406 311.73049,344.28908 308.53983,340.98639 C 307.92295,338.17356 310.02271,334.31947 308.82895,331.72771 C 304.01754,330.66596 299.41508,326.33485 296.89115,322.02993 C 294.57172,322.5604 284.88867,333.11418 279.75788,335.05648 C 276.33405,336.40245 271.42556,336.55768 269.56109,334.12224 C 265.73386,346.134 262.42971,352.3796 258.93018,360.02402 C 263.73315,361.05416 264.29956,359.6061 269.23694,359.96367 C 271.47133,358.11678 271.18893,354.68445 271.91348,350.81561 C 275.32411,350.34044 281.2249,350.03537 281.11891,350.42256 L 280.5961,356.56453 C 283.88127,355.49734 286.84424,355.27627 292.06157,353.75238 C 292.86085,351.563 291.37214,351.39096 292.6579,348.38041 L 299.94201,348.18741 L 300.29828,353.32398 L 311.67225,351.02388 C 312.67724,349.92111 312.88308,346.87139 314.0728,344.71794"
       id="path22573"
       sodipodi:nodetypes="cccccccccccccccccc"
       inkscape:export-filename="/home/nh/logo_fsr_neu.png"
       inkscape:export-xdpi="90"
       inkscape:export-ydpi="90" />
    <path
       style="opacity:1;fill:none;fill-rule:evenodd;stroke:#000000;stroke-width:3.99999976;stroke-linecap:round;stroke-linejoin:round;stroke-miterlimit:4;stroke-dasharray:none;stroke-opacity:1"
       d="M 331.80933,342.69362 L 331.76419,348.64851 C 330.40858,351.56902 325.73506,352.41836 323.08426,350.18104 C 322.2915,349.15845 322.48024,347.19191 322.8293,345.07114"
       id="path23544"
       sodipodi:nodetypes="cccc"
       inkscape:export-filename="/home/nh/logo_fsr_neu.png"
       inkscape:export-xdpi="90"
       inkscape:export-ydpi="90" />
    <path
       style="opacity:1;fill:none;fill-rule:evenodd;stroke:#000000;stroke-width:3.99999976;stroke-linecap:round;stroke-linejoin:round;stroke-miterlimit:4;stroke-dasharray:none;stroke-opacity:1"
       d="M 110.60746,356.35649 L 116.00254,356.66164 C 115.83435,349.0024 117.64764,337.44733 118.31619,325.64634 C 122.3572,297.13162 131.25265,276.25704 150.97942,255.52384 C 160.32912,248.0743 169.18334,242.4715 192.87466,235.47294 C 198.71023,234.1381 205.61765,231.43234 209.51385,228.65902 C 211.3728,226.10675 212.49414,223.82177 209.42301,223.05618 C 204.20874,223.81984 200.46847,223.66816 193.70141,225.92523 C 169.5017,232.99512 168.22335,234.94166 143.40555,244.6282 C 143.9134,244.1741 135.90261,245.54451 141.14223,242.04428 C 150.96108,235.48499 156.47206,230.511 168.56139,225.13962 C 178.21427,222.04026 198.04191,217.56591 204.11791,216.66592 C 209.10902,215.06844 207.53465,213.58205 204.21883,212.95289 C 191.87734,213.06701 177.20662,212.86078 157.95748,215.65222 C 155.96075,215.93748 155.83849,212.51768 157.69808,211.68701 C 164.69868,208.42538 167.22419,207.08331 176.34882,206.00865 L 214.59223,204.15332 L 219.00697,203.43918 C 220.4689,203.32492 222.97909,202.80657 218.47332,200.02814 L 182.37759,194.32387 C 180.70319,193.77714 178.06691,193.87615 180.0443,190.87778 C 181.88704,189.07623 185.64158,188.52199 190.48904,188.68083 C 204.48415,189.70811 216.82532,193.61569 229.32971,197.2391 C 232.9764,197.46876 232.50213,195.53658 233.3874,194.3176 C 233.30312,191.72275 232.7454,191.2767 232.26164,190.49493 L 213.12248,176.9195 C 211.44046,175.68652 210.77083,174.47323 210.99303,173.27734 C 211.29456,170.82959 212.51755,169.8925 214.45471,170.14418 C 223.87923,173.69092 228.03739,178.01025 234.82874,181.94333 C 236.37252,182.87846 237.51502,183.64887 238.89255,184.54249 C 240.11562,185.33587 241.92024,185.61615 243.16868,185.10638 C 247.62173,177.05087 248.04358,168.77366 257.99423,165.52669 L 252.82847,180.66516 C 252.51759,182.44328 255.23265,182.91758 257.43037,180.61193 L 277.32851,166.96839 C 280.07607,165.57536 281.96631,167.45772 280.46658,169.025 C 279.74309,171.37808 269.60714,180.14654 268.20434,184.42132 L 291.40909,179.10213 C 297.97288,178.59399 298.87956,179.50525 297.82047,181.51323 C 294.67169,183.95155 292.61179,184.5798 287.17592,185.16368 C 283.95633,186.70346 281.79519,188.47644 280.47198,190.4341 C 279.09303,193.05132 279.45956,194.47246 280.77841,195.24097 C 296.81873,192.02688 298.35435,194.20221 308.19268,194.77494 C 311.20095,196.44025 314.00393,198.10978 307.69147,199.96616 L 292.10099,199.99434 C 284.18526,202.01453 288.12682,201.08585 283.26832,203.05143 C 280.09951,204.82031 280.59672,207.17528 282.30649,208.34421 L 286.64215,212.5585 L 294.31323,214.85121 L 284.68165,216.37818 C 280.51744,217.56533 278.17544,223.83267 281.10356,227.63088 C 285.22061,230.51238 291.02261,233.37125 299.13582,228.40488 C 303.05279,223.19478 300.39803,219.67959 299.47522,218.50077"
       id="path24515"
       sodipodi:nodetypes="cccccccccscccccccccccccccccccsccccccccccccccccccccccc"
       inkscape:export-filename="/home/nh/logo_fsr_neu.png"
       inkscape:export-xdpi="90"
       inkscape:export-ydpi="90" />
    <path
       style="opacity:1;fill:none;fill-rule:evenodd;stroke:#000000;stroke-width:3.99999976;stroke-linecap:round;stroke-linejoin:round;stroke-miterlimit:4;stroke-dasharray:none;stroke-opacity:1"
       d="M 295.5237,193.50705 C 300.98861,196.69172 305.55013,195.93835 310.52135,196.97089 C 307.33715,199.66844 302.71876,197.7292 296.44127,198.73544 L 290.17838,200.42575"
       id="path34257"
       sodipodi:nodetypes="cccc"
       inkscape:export-filename="/home/nh/logo_fsr_neu.png"
       inkscape:export-xdpi="90"
       inkscape:export-ydpi="90" />
    <path
       style="opacity:1;fill:none;fill-rule:evenodd;stroke:#000000;stroke-width:3.99999976;stroke-linecap:round;stroke-linejoin:round;stroke-miterlimit:4;stroke-dasharray:none;stroke-opacity:1"
       d="M 299.23332,218.39585 C 296.59234,217.54713 296.89006,222.34832 297.03414,226.62182 C 298.27797,224.79595 298.93627,223.77213 300.18728,221.57605"
       id="path37172"
       sodipodi:nodetypes="ccc"
       inkscape:export-filename="/home/nh/logo_fsr_neu.png"
       inkscape:export-xdpi="90"
       inkscape:export-ydpi="90" />
    <path
       style="opacity:1;fill:none;fill-rule:evenodd;stroke:#000000;stroke-width:3.99999976;stroke-linecap:round;stroke-linejoin:round;stroke-miterlimit:4;stroke-dasharray:none;stroke-opacity:1"
       d="M 424.29062,49.238482 C 426.4495,41.081097 427.09296,33.682673 427.06651,33.009996 C 421.11528,31.675768 413.73211,31.182675 405.09261,31.456627 C 379.82506,30.591007 368.86067,50.838489 376.29599,74.371112 C 382.15524,85.971806 398.23904,94.540254 417.19442,95.928968 C 419.03106,94.575436 419.48166,89.119747 419.49281,80.69874 C 412.95724,78.230506 405.24015,76.840128 399.05222,71.971651 C 387.01741,61.986456 397.34483,47.303932 408.16258,47.144408 C 412.36173,47.149991 420.87139,47.588609 424.29062,49.238482 z "
       id="path39114"
       sodipodi:nodetypes="ccccccccc"
       inkscape:export-filename="/home/nh/logo_fsr_neu.png"
       inkscape:export-xdpi="90"
       inkscape:export-ydpi="90" />
    <path
       style="opacity:1;fill:none;fill-rule:evenodd;stroke:#000000;stroke-width:3.99999976;stroke-linecap:round;stroke-linejoin:round;stroke-miterlimit:4;stroke-dasharray:none;stroke-opacity:1"
       d="M 327.30654,97.297486 C 325.67092,90.842796 325.90555,86.199149 325.79082,81.643566 C 332.23277,82.658526 335.40008,81.893297 341.54559,77.831024 C 345.13177,74.153331 344.13429,72.006098 343.48795,70.365822 C 340.0016,65.352889 337.68372,64.452631 333.39986,61.871116 C 330.15692,60.459143 327.48315,58.181272 325.26565,55.456131 C 318.22254,40.240986 332.41842,33.124098 344.90208,30.435076 C 350.37312,29.767033 356.19348,29.422013 362.91571,29.910911 L 363.15472,44.932951 C 356.41364,44.143318 344.47098,45.047189 346.19395,53.96472 C 349.88667,60.365984 357.05063,61.019575 361.31522,67.136791 C 365.83088,75.776391 368.53527,87.2545 357.61329,91.930567 C 353.87135,93.618812 349.1625,94.530016 345.44389,95.022024 C 336.83297,95.23222 332.93422,97.041185 327.30654,97.297486 z "
       id="path40085"
       sodipodi:nodetypes="cccccccccccccc"
       inkscape:export-filename="/home/nh/logo_fsr_neu.png"
       inkscape:export-xdpi="90"
       inkscape:export-ydpi="90" />
    <path
       style="opacity:1;fill:none;fill-rule:evenodd;stroke:#000000;stroke-width:3.99999976;stroke-linecap:round;stroke-linejoin:round;stroke-miterlimit:4;stroke-dasharray:none;stroke-opacity:1"
       d="M 248.60385,51.888305 C 255.03804,48.550677 259.42244,47.729049 264.12474,46.260422 C 266.93892,53.878527 269.14977,60.720163 273.67552,67.692006 C 279.84355,66.12498 285.78767,65.036055 289.9075,62.04516 C 288.81976,54.486772 285.92381,47.79416 283.56855,40.526567 C 291.67014,38.544176 297.00978,37.1824 302.44329,36.291822 C 307.00839,57.129896 313.33205,78.563774 318.1169,99.135242 C 313.39779,99.710945 309.94525,100.86643 304.22431,102.27463 C 301.70286,94.288178 297.83085,84.779725 294.59527,78.154587 C 287.44729,80.23796 284.86104,81.807713 280.44637,83.944321 C 282.17361,91.390942 286.0864,101.2316 288.92168,106.56611 C 284.27622,107.81381 279.13156,109.65064 272.83815,111.9005 C 265.24104,92.875319 255.52601,73.112674 248.60385,51.888305 z "
       id="path41056"
       sodipodi:nodetypes="ccccccccccccc"
       inkscape:export-filename="/home/nh/logo_fsr_neu.png"
       inkscape:export-xdpi="90"
       inkscape:export-ydpi="90" />
    <path
       sodipodi:nodetypes="cccsccscccccc"
       id="path42027"
       d="M 243.41136,70.588548 C 239.84844,59.748393 237.62416,57.560801 236.75794,56.017889 C 231.2419,58.619973 222.84975,62.974458 216.1999,68.496714 C 205.23764,77.114828 200.5913,83.890105 206.15033,103.0977 C 208.27382,110.43487 213.12913,117.26515 220.96281,121.07747 C 232.06439,124.79783 243.01454,124.15356 253.84922,120.12473 C 253.84922,120.12473 265.86724,114.98639 265.54366,114.13586 C 265.22006,113.28531 259.00197,100.5076 259.00197,100.5076 C 252.32832,102.57365 244.78872,106.11588 236.91528,106.07422 C 230.41678,105.68642 225.83516,104.27352 222.38376,98.709625 C 220.59503,96.028213 220.61192,93.080674 221.04086,89.855652 C 221.36722,85.944745 223.16401,82.319696 226.40658,78.414908 C 229.33952,75.032713 239.69967,71.386429 243.41136,70.588548 z "
       style="opacity:1;fill:none;fill-rule:evenodd;stroke:#000000;stroke-width:3.99999976;stroke-linecap:round;stroke-linejoin:round;stroke-miterlimit:4;stroke-dasharray:none;stroke-opacity:1"
       inkscape:export-filename="/home/nh/logo_fsr_neu.png"
       inkscape:export-xdpi="90"
       inkscape:export-ydpi="90" />
    <path
       style="opacity:1;fill:none;fill-rule:evenodd;stroke:#000000;stroke-width:3.99999976;stroke-linecap:round;stroke-linejoin:round;stroke-miterlimit:4;stroke-dasharray:none;stroke-opacity:1"
       d="M 179.8254,169.92694 C 179.9638,169.66278 192.07619,160.067 191.56993,159.00314 C 191.43741,156.38895 191.29458,153.82803 190.42491,146.23526 C 193.71534,143.05067 195.04963,142.40553 199.50485,140.04724 C 201.95431,140.84785 206.2406,142.8955 209.7008,145.1 C 214.33604,143.0988 219.08198,139.43997 224.89406,135.55883 C 203.64039,124.16729 181.61688,111.06531 158.44754,100.58544 C 167.00813,123.11202 172.97264,147.43362 179.8254,169.92694 z "
       id="path42029"
       sodipodi:nodetypes="cccccccc"
       inkscape:export-filename="/home/nh/logo_fsr_neu.png"
       inkscape:export-xdpi="90"
       inkscape:export-ydpi="90" />
    <path
       style="opacity:1;fill:none;fill-rule:evenodd;stroke:#000000;stroke-width:3.99999976;stroke-linecap:round;stroke-linejoin:round;stroke-miterlimit:4;stroke-dasharray:none;stroke-opacity:1"
       d="M 177.41604,122.57036 L 182.95086,136.43815 L 189.07722,130.49641 L 177.41604,122.57036 z "
       id="path43973"
       sodipodi:nodetypes="cccc"
       inkscape:export-filename="/home/nh/logo_fsr_neu.png"
       inkscape:export-xdpi="90"
       inkscape:export-ydpi="90" />
    <path
       style="opacity:1;fill:none;fill-rule:evenodd;stroke:#000000;stroke-width:3.99999976;stroke-linecap:round;stroke-linejoin:round;stroke-miterlimit:4;stroke-dasharray:none;stroke-opacity:1"
       d="M 130.90964,124.59728 C 113.16176,140.54619 106.45579,149.58514 94.623694,163.95339 C 106.71556,173.56528 131.39424,194.04853 147.84918,205.64255 C 150.08651,202.85621 153.57535,197.42615 159.08506,191.81627 C 154.38657,186.56042 146.88593,181.53582 142.14635,178.38873 C 150.63026,167.75497 155.54501,161.13133 161.77136,152.97844 C 158.25507,148.50685 155.3091,146.18683 150.47528,143.20518 L 131.26884,167.13754 C 126.6488,165.42098 124.48125,162.78765 121.11447,159.32379 L 141.83831,135.73951 C 138.01829,130.42679 134.43082,127.48111 130.90964,124.59728 z "
       id="path44944"
       sodipodi:nodetypes="ccccccccccc"
       inkscape:export-filename="/home/nh/logo_fsr_neu.png"
       inkscape:export-xdpi="90"
       inkscape:export-ydpi="90" />
    <path
       style="opacity:1;fill:none;fill-rule:evenodd;stroke:#000000;stroke-width:3.99999976;stroke-linecap:round;stroke-linejoin:round;stroke-miterlimit:4;stroke-dasharray:none;stroke-opacity:1"
       d="M 440.68625,35.795891 C 450.02055,37.422155 450.16077,37.714994 459.35253,39.952482 C 457.25728,46.908576 453.37692,53.651265 451.58546,63.076685 C 456.89576,66.870106 463.03674,68.573195 469.46254,69.559489 L 477.40313,45.309588 C 483.09496,46.178027 488.67058,47.76038 493.96015,51.09989 C 488.15732,70.596998 480.31461,88.812684 472.98575,109.86332 C 468.94364,108.17039 463.20683,106.64786 458.46524,104.70524 C 461.51984,97.810158 462.39005,89.392982 463.3108,82.810946 C 457.9952,80.40751 454.71668,80.775896 448.35138,78.483242 C 448.08973,87.35268 445.58494,91.220291 443.41315,101.24972 C 436.3447,99.460149 432.38144,98.356082 426.64029,97.66355 C 430.66451,77.719107 433.01735,62.071726 440.68625,35.795891 z "
       id="path45915"
       sodipodi:nodetypes="ccccccccccccc"
       inkscape:export-filename="/home/nh/logo_fsr_neu.png"
       inkscape:export-xdpi="90"
       inkscape:export-ydpi="90" />
    <path
       style="opacity:1;fill:none;fill-rule:evenodd;stroke:#000000;stroke-width:3.99999976;stroke-linecap:round;stroke-linejoin:round;stroke-miterlimit:4;stroke-dasharray:none;stroke-opacity:1"
       d="M 564.10438,84.974023 C 551.66149,101.83929 540.40619,118.66145 529.31861,137.29025 C 533.30684,139.92864 536.22997,141.32815 542.09592,145.90496 C 547.29313,138.81318 548.944,135.74263 552.69588,130.25913 C 560.13962,135.39744 568.43828,139.12576 577.99787,147.2088 C 582.215,144.37295 586.1199,139.79009 587.87657,135.48394 C 579.13265,129.05073 571.86526,123.88923 564.88235,116.44549 C 566.06683,113.71581 567.25411,112.13599 570.56444,109.80334 C 578.86328,117.35758 587.20276,122.82671 595.5345,128.69336 L 606.22922,116.78225 C 593.28538,105.25893 580.08493,95.080285 564.10438,84.974023 z "
       id="path46894"
       sodipodi:nodetypes="ccccccccccc"
       inkscape:export-filename="/home/nh/logo_fsr_neu.png"
       inkscape:export-xdpi="90"
       inkscape:export-ydpi="90" />
    <path
       style="opacity:1;fill:none;fill-rule:evenodd;stroke:#000000;stroke-width:3.99999976;stroke-linecap:round;stroke-linejoin:round;stroke-miterlimit:4;stroke-dasharray:none;stroke-opacity:1"
       d="M 522.65523,133.11118 C 520.91107,131.10493 507.25861,125.46764 507.66935,124.36338 C 507.70903,121.56259 508.40458,120.38488 508.93485,117.77588 C 505.80008,114.89885 503.68799,114.17313 499.70816,113.26216 C 497.25143,115.10937 496.253,115.98747 494.33049,118.64695 C 489.3934,116.84573 485.46358,114.21842 479.30269,112.09367 C 499.86983,95.284922 510.34452,81.435072 532.0977,66.101848 C 528.36789,89.348745 527.87115,110.1096 522.65523,133.11118 z "
       id="path46890"
       sodipodi:nodetypes="cccccccc"
       inkscape:export-filename="/home/nh/logo_fsr_neu.png"
       inkscape:export-xdpi="90"
       inkscape:export-ydpi="90" />
    <path
       style="opacity:1;fill:none;fill-rule:evenodd;stroke:#000000;stroke-width:3.99999976;stroke-linecap:round;stroke-linejoin:round;stroke-miterlimit:4;stroke-dasharray:none;stroke-opacity:1"
       d="M 516.57461,92.874581 L 513.37993,108.59743 L 505.22287,104.80691 L 516.57461,92.874581 z "
       id="path46892"
       sodipodi:nodetypes="cccc"
       inkscape:export-filename="/home/nh/logo_fsr_neu.png"
       inkscape:export-xdpi="90"
       inkscape:export-ydpi="90" />
    <path
       style="opacity:1;fill:none;fill-rule:evenodd;stroke:#000000;stroke-width:3.99999976;stroke-linecap:round;stroke-linejoin:round;stroke-miterlimit:4;stroke-dasharray:none;stroke-opacity:1"
       d="M 617.53432,126.95264 C 612.73191,130.00821 608.17769,134.29423 604.39946,139.13468 C 608.58817,141.96973 611.96895,146.53125 614.67364,152.53739 C 603.90149,162.50797 594.48048,171.0739 582.02807,180.33409 C 584.87323,183.24459 589.2816,187.75301 593.62039,192.66942 C 605.10225,181.46468 613.85029,174.25853 625.63773,164.75329 C 630.54864,168.5453 634.61213,173.42254 638.43701,178.60526 C 644.06921,173.7748 648.01952,171.07605 652.35784,166.22184 C 640.85671,150.48519 630.24524,140.06321 617.53432,126.95264 z "
       id="path47865"
       sodipodi:nodetypes="ccccccccc"
       inkscape:export-filename="/home/nh/logo_fsr_neu.png"
       inkscape:export-xdpi="90"
       inkscape:export-ydpi="90" />
    <path
       style="opacity:1;fill:none;fill-rule:evenodd;stroke:#000000;stroke-width:3.99999976;stroke-linecap:round;stroke-linejoin:round;stroke-miterlimit:4;stroke-dasharray:none;stroke-opacity:1"
       d="M 491.64822,407.58042 C 491.43656,423.16656 491.55929,438.01445 491.54725,458.38503 C 485.35541,459.19462 479.46445,456.85731 478.29395,451.39531 C 476.66971,436.40829 475.39079,433.76785 478.27053,412.91359 C 479.01969,407.80686 484.05068,406.49681 491.64822,407.58042 z "
       id="path48836"
       sodipodi:nodetypes="ccccc"
       inkscape:export-filename="/home/nh/logo_fsr_neu.png"
       inkscape:export-xdpi="90"
       inkscape:export-ydpi="90" />
    <path
       style="opacity:1;fill:none;fill-rule:evenodd;stroke:#000000;stroke-width:3.99999952;stroke-linecap:round;stroke-linejoin:round;stroke-miterlimit:4;stroke-dasharray:none;stroke-opacity:1"
       d="M 436.89683,704.12943 C 433.94312,698.16162 432.71479,691.98197 431.64661,687.55185 C 438.15812,687.19249 450.56052,686.09174 455.71669,680.83031 C 458.45127,676.48188 455.5649,672.08374 454.5887,670.61561 C 448.44701,664.66252 442.66603,665.2444 437.96239,663.67081 C 424.95017,654.93453 427.90478,644.70658 441.40221,637.6138 C 446.61125,635.81253 453.76025,633.4606 460.4354,632.52796 L 465.67392,644.17711 C 451.98384,645.40847 442.61126,654.80517 464.22376,661.80232 C 477.33679,668.96827 482.93732,679.271 469.17724,695.17369 C 462.23942,700.78377 442.42331,703.52711 436.89683,704.12943 z "
       id="path6152"
       sodipodi:nodetypes="ccccccccccc"
       inkscape:export-filename="/home/nh/logo_fsr_neu.png"
       inkscape:export-xdpi="90"
       inkscape:export-ydpi="90" />
    <path
       style="opacity:1;fill:none;fill-rule:evenodd;stroke:#000000;stroke-width:4.00000095;stroke-linecap:round;stroke-linejoin:round;stroke-miterlimit:4;stroke-dasharray:none;stroke-opacity:1"
       d="M 252.62754,407.45369 C 257.34174,407.85482 257.32625,413.58863 257.37431,419.88056 C 257.41475,425.26112 257.43562,426.25696 257.47351,433.06723 C 257.50121,438.04422 257.52067,441.39131 257.55652,445.80761 C 257.6256,454.321 256.51299,457.35835 253.29157,456.98493 C 250.16847,456.61375 248.72174,452.59327 248.65479,445.08269 C 248.61846,441.00907 248.62182,438.2099 248.5735,432.52593 C 248.52373,426.67226 248.53725,424.18214 248.48342,419.12673 C 248.42777,410.04526 249.37008,407.03754 252.62754,407.45369 z "
       id="path8102"
       sodipodi:nodetypes="cssscsscc"
       inkscape:export-filename="/home/nh/logo_fsr_neu.png"
       inkscape:export-xdpi="90"
       inkscape:export-ydpi="90" />
  </g>
</svg>
