<?xml version="1.0" encoding="UTF-8" standalone="no"?>
<!-- Created with Inkscape (http://www.inkscape.org/) -->

<svg
   xmlns:dc="http://purl.org/dc/elements/1.1/"
   xmlns:cc="http://creativecommons.org/ns#"
   xmlns:rdf="http://www.w3.org/1999/02/22-rdf-syntax-ns#"
   xmlns:svg="http://www.w3.org/2000/svg"
   xmlns="http://www.w3.org/2000/svg"
   xmlns:sodipodi="http://sodipodi.sourceforge.net/DTD/sodipodi-0.dtd"
   xmlns:inkscape="http://www.inkscape.org/namespaces/inkscape"
   id="svg2"
   version="1.1"
   inkscape:version="0.48.5 r10040"
   width="216.25"
   height="216.25"
   xml:space="preserve"
   sodipodi:docname="Karlchen Intro.eps"><metadata
     id="metadata8"><rdf:RDF><cc:Work
         rdf:about=""><dc:format>image/svg+xml</dc:format><dc:type
           rdf:resource="http://purl.org/dc/dcmitype/StillImage" /><dc:title></dc:title></cc:Work></rdf:RDF></metadata><defs
     id="defs6" /><sodipodi:namedview
     pagecolor="#ffffff"
     bordercolor="#666666"
     borderopacity="1"
     objecttolerance="10"
     gridtolerance="10"
     guidetolerance="10"
     inkscape:pageopacity="0"
     inkscape:pageshadow="2"
     inkscape:window-width="1600"
     inkscape:window-height="852"
     id="namedview4"
     showgrid="false"
     inkscape:snap-bbox="true"
     inkscape:bbox-paths="false"
     inkscape:bbox-nodes="false"
     inkscape:snap-bbox-edge-midpoints="false"
     inkscape:zoom="1.543373"
     inkscape:cx="-9.600498"
     inkscape:cy="117.91603"
     inkscape:window-x="0"
     inkscape:window-y="25"
     inkscape:window-maximized="1"
     inkscape:current-layer="layer3" /><g
     inkscape:groupmode="layer"
     id="layer3"
     inkscape:label="white bg"><path
       style="opacity:1;fill:#ffffff;fill-opacity:1;stroke:none;display:inline"
       d="m 73.128408,151.82651 c -0.52703,-4.82806 1.37685,-13.60656 1.37685,-13.60656 0,0 1.51927,-2.49836 -7.20824,3.48263 4.32695,-14.17165 14.49747,-14.57846 14.49747,-14.57846 l -8.18589,-6.61351 16.609,4.50774 c 0,0 1.17605,-5.79183 6.07436,-7.37022 1.38945,-0.44772 17.512502,16.58571 25.111412,26.05552 4.19946,5.23339 6.7599,16.26132 6.7599,16.26132 l 5.36509,-4.07906 8.92871,8.00833 c 0,0 -1.01605,8.64946 -3.88758,11.50078 -3.10365,3.0818 -8.42311,2.02479 -8.42311,2.02479 0,0 -2.02916,5.74738 -4.21156,7.85617 -10.34177,9.993 -31.189692,5.89133 -43.087442,-2.18677 -2.84854,-1.93404 -4.29255,-9.39501 -4.29255,-9.39501 l -3.23966,0.72893 -6.31733,-4.45453 c 0,0 -2.7937,-4.39518 -2.91569,-6.88428 -0.62115,-12.67425 4.6952,-10.39135 7.04626,-11.25781 z"
       id="path3298"
       inkscape:connector-curvature="0"
       sodipodi:nodetypes="ccccccsscccscsscccsc" /></g><g
     id="g10"
     inkscape:groupmode="layer"
     inkscape:label="karlchen"
     transform="matrix(1.25,0,0,-1.25,0,216.25)"
     style="display:inline"><g
       id="g12"
       transform="scale(0.1,0.1)"><path
         d="m 699.184,404.918 c 35.843,0 65.078,-9.211 65.078,-20.508 0,-11.293 -29.235,-20.504 -65.078,-20.504 -35.848,0 -65.082,9.211 -65.082,20.504 0,11.297 29.234,20.508 65.082,20.508"
         style="fill:#e9e9e9;fill-opacity:1;fill-rule:evenodd;stroke:none"
         id="path14"
         inkscape:connector-curvature="0" /><path
         d="m 962.984,401.27 c 35.844,0 65.076,-9.211 65.076,-20.508 0,-11.293 -29.232,-20.504 -65.076,-20.504 -35.847,0 -65.082,9.211 -65.082,20.504 0,11.297 29.235,20.508 65.082,20.508"
         style="fill:#e9e9e9;fill-opacity:1;fill-rule:evenodd;stroke:none"
         id="path16"
         inkscape:connector-curvature="0" /><path
         d="m 1056.59,360.258 c 12.18,-16.059 49.62,-1.199 55.27,35.66 8.39,-37.445 -24.45,-76.672 -65.97,-74.883 l 10.7,39.223"
         style="fill:#e9e9e9;fill-opacity:1;fill-rule:evenodd;stroke:none"
         id="path18"
         inkscape:connector-curvature="0" /><path
         d="m 615.625,392.27 c -12.18,-16.059 -49.621,-1.2 -55.273,35.66 -8.391,-37.446 24.445,-76.672 65.972,-74.887 l -10.699,39.227"
         style="fill:#e9e9e9;fill-opacity:1;fill-rule:evenodd;stroke:none"
         id="path20"
         inkscape:connector-curvature="0" /><path
         d="m 578.543,517.68 c -7.125,1.363 0.07,78.953 10.957,98.773 -7.309,8.567 -45.617,-18.43 -69.664,-47.519 19.016,64.644 52.34,130.847 127.211,145.226 l -76.809,58.067 c 50.492,-5.641 99.758,-14.34 144.672,-33.942 2.625,28.352 27.762,50.27 75.414,65.762 l 14.473,-14.473 c -52.481,-12.273 -79.789,-48.273 -74.367,-73.406 -35.907,19.371 -87.672,31.945 -122.875,37.723 l 54.136,-41.821 c -31.414,-6.093 -85.429,-16.023 -115.746,-108.168 24.575,19.633 30.868,29.473 59.243,29.328 -10.114,-30.351 -16.645,-69.898 -12.368,-118.285 l -14.277,2.735"
         style="fill:#231f20;fill-opacity:1;fill-rule:evenodd;stroke:none"
         id="path22"
         inkscape:connector-curvature="0" /><path
         d="m 578.543,517.68 c -7.125,1.363 0.07,78.953 10.957,98.773 -7.309,8.567 -45.617,-18.43 -69.664,-47.519 19.016,64.644 52.34,130.847 127.211,145.226 l -76.809,58.067 c 50.492,-5.641 99.758,-14.34 144.672,-33.942 2.625,28.352 27.762,50.27 75.414,65.762 l 14.473,-14.473 c -52.481,-12.273 -79.789,-48.273 -74.367,-73.406 -35.907,19.371 -87.672,31.945 -122.875,37.723 l 54.136,-41.821 c -31.414,-6.093 -85.429,-16.023 -115.746,-108.168 24.575,19.633 30.868,29.473 59.243,29.328 -10.114,-30.351 -16.645,-69.898 -12.368,-118.285 l -14.277,2.735 z"
         style="fill:none;stroke:#231f20;stroke-width:2.16000009;stroke-linecap:butt;stroke-linejoin:miter;stroke-miterlimit:2.61310005;stroke-opacity:1;stroke-dasharray:none"
         id="path24"
         inkscape:connector-curvature="0" /><path
         d="m 714.336,554.688 16.047,-35.661 26.746,8.914 10.695,53.493 -53.488,-26.746"
         style="fill:#e9e9e9;fill-opacity:1;fill-rule:evenodd;stroke:none"
         id="path26"
         inkscape:connector-curvature="0" /><path
         d="m 949.609,563.52 -14.265,-48.141 -28.528,12.48 -7.132,57.059 49.925,-21.398"
         style="fill:#e9e9e9;fill-opacity:1;fill-rule:evenodd;stroke:none"
         id="path28"
         inkscape:connector-curvature="0" /><path
         d="m 689.457,480.27 c 29.637,34.519 66.594,32.425 71.125,39.746 l 6.277,28.242 C 751.52,514.09 700.613,524.898 689.457,480.27"
         style="fill:#231f20;fill-opacity:1;fill-rule:evenodd;stroke:none"
         id="path30"
         inkscape:connector-curvature="0" /><path
         d="m 689.457,480.27 c 29.637,34.519 66.594,32.425 71.125,39.746 l 6.277,28.242 C 751.52,514.09 700.613,524.898 689.457,480.27 z"
         style="fill:none;stroke:#231f20;stroke-width:2.16000009;stroke-linecap:butt;stroke-linejoin:miter;stroke-miterlimit:2.61310005;stroke-opacity:1;stroke-dasharray:none"
         id="path32"
         inkscape:connector-curvature="0" /><path
         d="m 709.27,544.152 c 16.039,28.243 55.089,24.055 58.578,27.196 8.367,12.55 8.367,16.734 -1.047,26.148 -15.344,-34.168 -46.371,-8.715 -57.531,-53.344"
         style="fill:#231f20;fill-opacity:1;fill-rule:evenodd;stroke:none"
         id="path34"
         inkscape:connector-curvature="0" /><path
         d="m 709.27,544.152 c 16.039,28.243 55.089,24.055 58.578,27.196 8.367,12.55 8.367,16.734 -1.047,26.148 -15.344,-34.168 -46.371,-8.715 -57.531,-53.344 z"
         style="fill:none;stroke:#231f20;stroke-width:2.16000009;stroke-linecap:butt;stroke-linejoin:miter;stroke-miterlimit:2.61310005;stroke-opacity:1;stroke-dasharray:none"
         id="path36"
         inkscape:connector-curvature="0" /><path
         d="m 957.918,548.941 c -16.039,28.243 -55.09,24.059 -58.574,27.196 -8.371,12.551 -8.371,16.738 1.043,26.148 15.343,-34.168 46.375,-8.715 57.531,-53.344"
         style="fill:#231f20;fill-opacity:1;fill-rule:evenodd;stroke:none"
         id="path38"
         inkscape:connector-curvature="0" /><path
         d="m 957.918,548.941 c -16.039,28.243 -55.09,24.059 -58.574,27.196 -8.371,12.551 -8.371,16.738 1.043,26.148 15.343,-34.168 46.375,-8.715 57.531,-53.344 z"
         style="fill:none;stroke:#231f20;stroke-width:2.16000009;stroke-linecap:butt;stroke-linejoin:miter;stroke-miterlimit:2.61310005;stroke-opacity:1;stroke-dasharray:none"
         id="path40"
         inkscape:connector-curvature="0" /><path
         d="m 972.602,478.785 c -29.637,34.516 -66.594,32.426 -71.129,39.746 l -6.274,28.242 c 15.34,-34.168 66.246,-23.359 77.403,-67.988"
         style="fill:#231f20;fill-opacity:1;fill-rule:evenodd;stroke:none"
         id="path42"
         inkscape:connector-curvature="0" /><path
         d="m 972.602,478.785 c -29.637,34.516 -66.594,32.426 -71.129,39.746 l -6.274,28.242 c 15.34,-34.168 66.246,-23.359 77.403,-67.988 z"
         style="fill:none;stroke:#231f20;stroke-width:2.16000009;stroke-linecap:butt;stroke-linejoin:miter;stroke-miterlimit:2.61310005;stroke-opacity:1;stroke-dasharray:none"
         id="path44"
         inkscape:connector-curvature="0" /><path
         d="m 626.82,537.922 c -1.414,-53.574 24.813,-69.555 51.368,-90.445 -13.95,112.054 8.066,205.757 51.656,180.777 72.797,62.391 102.605,-17.649 106.687,-152.711 40.446,56.133 49.86,96.23 46.024,160.035 C 943.961,600.93 1030.75,514.867 1016.07,427.25 l 50.26,52.855 -33.09,-12.582 c -22.32,82.633 -88.939,140.543 -158.006,185.836 4.965,-70.785 -6.941,-123.699 -26.027,-149.847 -2.531,162.734 -69.422,195.957 -120.41,137.297 -40.887,29.285 -81.024,-24.684 -66.117,-158.219 -14.293,3.48 -21.567,12.793 -35.86,55.332"
         style="fill:#231f20;fill-opacity:1;fill-rule:evenodd;stroke:none"
         id="path46"
         inkscape:connector-curvature="0" /><path
         d="m 626.82,537.922 c -1.414,-53.574 24.813,-69.555 51.368,-90.445 -13.95,112.054 8.066,205.757 51.656,180.777 72.797,62.391 102.605,-17.649 106.687,-152.711 40.446,56.133 49.86,96.23 46.024,160.035 C 943.961,600.93 1030.75,514.867 1016.07,427.25 l 50.26,52.855 -33.09,-12.582 c -22.32,82.633 -88.939,140.543 -158.006,185.836 4.965,-70.785 -6.941,-123.699 -26.027,-149.847 -2.531,162.734 -69.422,195.957 -120.41,137.297 -40.887,29.285 -81.024,-24.684 -66.117,-158.219 -14.293,3.48 -21.567,12.793 -35.86,55.332 z"
         style="fill:none;stroke:#231f20;stroke-width:2.16000009;stroke-linecap:butt;stroke-linejoin:miter;stroke-miterlimit:2.61310005;stroke-opacity:1;stroke-dasharray:none"
         id="path48"
         inkscape:connector-curvature="0" /><path
         d="m 1051.25,473.582 c 65.22,55 115.27,-45.457 81.29,-125.609 -8.31,-19.598 -46.39,-56.133 -86.8,-44.176 l 6.89,15.183 c 14.69,-3.679 47.9,-4.847 62,26.231 24.12,53.16 22.5,161.5 -63.38,128.371"
         style="fill:#231f20;fill-opacity:1;fill-rule:evenodd;stroke:none"
         id="path50"
         inkscape:connector-curvature="0" /><path
         d="m 1051.25,473.582 c 65.22,55 115.27,-45.457 81.29,-125.609 -8.31,-19.598 -46.39,-56.133 -86.8,-44.176 l 6.89,15.183 c 14.69,-3.679 47.9,-4.847 62,26.231 24.12,53.16 22.5,161.5 -63.38,128.371 z"
         style="fill:none;stroke:#231f20;stroke-width:2.16000009;stroke-linecap:butt;stroke-linejoin:miter;stroke-miterlimit:2.61310005;stroke-opacity:1;stroke-dasharray:none"
         id="path52"
         inkscape:connector-curvature="0" /><path
         d="M 638.055,493.512 C 518.043,572.48 504.371,454.898 538.352,374.75 c 8.308,-19.594 46.394,-56.133 86.804,-44.172 l -6.89,15.184 c -14.692,-3.68 -47.903,-4.848 -62,26.23 -24.114,53.156 -46.895,176.906 81.789,121.52"
         style="fill:#231f20;fill-opacity:1;fill-rule:evenodd;stroke:none"
         id="path54"
         inkscape:connector-curvature="0" /><path
         d="M 638.055,493.512 C 518.043,572.48 504.371,454.898 538.352,374.75 c 8.308,-19.594 46.394,-56.133 86.804,-44.172 l -6.89,15.184 c -14.692,-3.68 -47.903,-4.848 -62,26.23 -24.114,53.156 -46.895,176.906 81.789,121.52 z"
         style="fill:none;stroke:#231f20;stroke-width:2.16000009;stroke-linecap:butt;stroke-linejoin:miter;stroke-miterlimit:2.61310005;stroke-opacity:1;stroke-dasharray:none"
         id="path56"
         inkscape:connector-curvature="0" /><path
         d="m 350.453,1243.92 31.481,-68.44 837.856,-837.863 22,14.965 -891.337,891.338"
         style="fill:#656263;fill-opacity:1;fill-rule:evenodd;stroke:none"
         id="path58"
         inkscape:connector-curvature="0" /><path
         d="m 350.453,1243.92 31.481,-68.44 837.856,-837.863 22,14.965 -891.337,891.338 z"
         style="fill:none;stroke:#231f20;stroke-width:20.00130081;stroke-linecap:butt;stroke-linejoin:bevel;stroke-miterlimit:2.61310005;stroke-opacity:1;stroke-dasharray:none"
         id="path60"
         inkscape:connector-curvature="0" /><path
         d="m 1241.79,352.582 -22,-14.965 -23.79,-17.39 20.48,13.851 25.31,18.504"
         style="fill:#656263;fill-opacity:1;fill-rule:evenodd;stroke:none"
         id="path62"
         inkscape:connector-curvature="0" /><path
         d="m 1241.79,352.582 -22,-14.965 -23.79,-17.39 20.48,13.851 25.31,18.504 z"
         style="fill:none;stroke:#231f20;stroke-width:20.00130081;stroke-linecap:butt;stroke-linejoin:bevel;stroke-miterlimit:2.61310005;stroke-opacity:1;stroke-dasharray:none"
         id="path64"
         inkscape:connector-curvature="0" /><path
         d="m 499.914,343.262 22.512,-14.407 -19.817,13.911 -18.742,14.601 -17.629,15.274 -16.433,15.902 -15.18,16.508 -17.625,21.125 -16.695,21.539 -15.746,21.933 -14.789,22.309 -13.821,22.648 -12.851,22.977 -11.871,23.281 -10.875,23.563 -9.868,23.816 -8.859,24.051 -7.84,24.27 -6.805,24.457 -5.765,24.625 -4.719,24.769 -3.66,24.895 -2.59,24.992 -1.504,25.066 -0.422,25.129 0.684,25.152 1.777,25.172 2.903,25.157 4.019,25.125 5.156,25.066 6.305,24.988 7.457,24.884 8.625,24.75 9.797,24.62 10.973,24.44 12.172,24.25 13.367,24.03 14.578,23.8 15.801,23.55 -31.481,68.44 -16.808,-25.04 -15.508,-25.32 -14.223,-25.58 -12.949,-25.79 -11.672,-26 -10.422,-26.19 -9.172,-26.34 -7.937,-26.46 -6.703,-26.59 -5.489,-26.665 -4.277,-26.726 -3.086,-26.758 -1.894,-26.781 -0.723,-26.762 0.449,-26.73 1.602,-26.665 2.754,-26.593 3.89,-26.481 5.02,-26.351 6.133,-26.196 7.242,-26.019 8.336,-25.813 9.429,-25.59 10.496,-25.335 11.571,-25.067 12.625,-24.765 13.672,-24.446 14.703,-24.094 15.734,-23.734 16.75,-23.332 17.762,-22.914 18.75,-22.473 16.148,-17.562 17.485,-16.918 18.75,-16.246 19.945,-15.535 21.078,-14.797"
         style="fill:#656263;fill-opacity:1;fill-rule:evenodd;stroke:none"
         id="path66"
         inkscape:connector-curvature="0" /><path
         d="m 499.914,343.262 22.512,-14.407 -19.817,13.911 -18.742,14.601 -17.629,15.274 -16.433,15.902 -15.18,16.508 -17.625,21.125 -16.695,21.539 -15.746,21.933 -14.789,22.309 -13.821,22.648 -12.851,22.977 -11.871,23.281 -10.875,23.563 -9.868,23.816 -8.859,24.051 -7.84,24.27 -6.805,24.457 -5.765,24.625 -4.719,24.769 -3.66,24.895 -2.59,24.992 -1.504,25.066 -0.422,25.129 0.684,25.152 1.777,25.172 2.903,25.157 4.019,25.125 5.156,25.066 6.305,24.988 7.457,24.884 8.625,24.75 9.797,24.62 10.973,24.44 12.172,24.25 13.367,24.03 14.578,23.8 15.801,23.55 -31.481,68.44 -16.808,-25.04 -15.508,-25.32 -14.223,-25.58 -12.949,-25.79 -11.672,-26 -10.422,-26.19 -9.172,-26.34 -7.937,-26.46 -6.703,-26.59 -5.489,-26.665 -4.277,-26.726 -3.086,-26.758 -1.894,-26.781 -0.723,-26.762 0.449,-26.73 1.602,-26.665 2.754,-26.593 3.89,-26.481 5.02,-26.351 6.133,-26.196 7.242,-26.019 8.336,-25.813 9.429,-25.59 10.496,-25.335 11.571,-25.067 12.625,-24.765 13.672,-24.446 14.703,-24.094 15.734,-23.734 16.75,-23.332 17.762,-22.914 18.75,-22.473 16.148,-17.562 17.485,-16.918 18.75,-16.246 19.945,-15.535 21.078,-14.797 z"
         style="fill:none;stroke:#231f20;stroke-width:20.00130081;stroke-linecap:butt;stroke-linejoin:bevel;stroke-miterlimit:2.61310005;stroke-opacity:1;stroke-dasharray:none"
         id="path68"
         inkscape:connector-curvature="0" /><path
         d="m 538.004,1411.41 20.23,-78.49 22.047,14.24 22.532,12.98 22.976,11.74 23.379,10.5 23.746,9.28 24.066,8.08 24.348,6.89 24.586,5.71 24.789,4.55 24.949,3.41 25.071,2.28 25.144,1.17 25.184,0.06 25.179,-1.02 25.133,-2.09 25.047,-3.15 24.926,-4.19 24.762,-5.22 24.552,-6.22 24.3,-7.22 24.02,-8.2 23.69,-9.17 23.31,-10.12 22.91,-11.05 22.46,-11.98 21.96,-12.88 21.43,-13.77 20.85,-14.65 20.25,-15.52 19.58,-16.36 18.89,-17.19 18.15,-18.01 17.12,-18.48 16.18,-19 15.25,-19.51 14.32,-19.97 13.39,-20.43 12.46,-20.85 11.52,-21.26 10.58,-21.62 9.65,-21.97 8.7,-22.3 7.76,-22.59 6.81,-22.859 5.87,-23.109 4.92,-23.329 3.97,-23.523 3.01,-23.691 2.06,-23.844 1.11,-23.957 0.16,-24.051 -0.82,-24.117 -1.77,-24.164 -2.74,-24.176 -3.69,-24.168 -4.67,-24.137 -5.63,-24.078 -6.61,-23.992 -7.57,-23.883 -8.55,-23.742 -9.53,-23.586 -10.5,-23.398 -11.48,-23.184 -12.47,-22.945 32.31,25.961 13.26,24.41 12.22,24.664 11.17,24.891 10.13,25.093 9.1,25.258 8.05,25.406 7.03,25.524 5.99,25.613 4.97,25.676 3.93,25.711 2.92,25.722 1.87,25.704 0.87,25.656 -0.16,25.586 -1.18,25.488 -2.2,25.363 -3.2,25.203 -4.22,25.028 -5.23,24.816 -6.25,24.59 -7.25,24.31 -8.25,24.04 -9.25,23.72 -10.27,23.38 -11.25,23 -12.26,22.6 -13.25,22.18 -14.25,21.74 -15.23,21.25 -16.23,20.75 -17.21,20.22 -18.21,19.66 -19.31,19.15 -20.1,18.3 -20.83,17.4 -21.54,16.5 -22.18,15.59 -22.8,14.65 -23.36,13.7 -23.9,12.75 -24.36,11.75 -24.81,10.77 -25.2,9.75 -25.55,8.73 -25.85,7.68 -26.12,6.62 -26.34,5.54 -26.519,4.47 -26.645,3.34 -26.738,2.23 -26.785,1.08 -26.793,-0.06 -26.75,-1.25 -26.672,-2.42 -26.539,-3.63 -26.375,-4.84 -26.152,-6.08 -25.903,-7.32 -25.601,-8.6 -25.262,-9.86 -24.871,-11.18 -24.445,-12.48 -23.969,-13.81 -23.457,-15.16"
         style="fill:#656263;fill-opacity:1;fill-rule:evenodd;stroke:none"
         id="path70"
         inkscape:connector-curvature="0" /><path
         d="m 538.004,1411.41 20.23,-78.49 22.047,14.24 22.532,12.98 22.976,11.74 23.379,10.5 23.746,9.28 24.066,8.08 24.348,6.89 24.586,5.71 24.789,4.55 24.949,3.41 25.071,2.28 25.144,1.17 25.184,0.06 25.179,-1.02 25.133,-2.09 25.047,-3.15 24.926,-4.19 24.762,-5.22 24.552,-6.22 24.3,-7.22 24.02,-8.2 23.69,-9.17 23.31,-10.12 22.91,-11.05 22.46,-11.98 21.96,-12.88 21.43,-13.77 20.85,-14.65 20.25,-15.52 19.58,-16.36 18.89,-17.19 18.15,-18.01 17.12,-18.48 16.18,-19 15.25,-19.51 14.32,-19.97 13.39,-20.43 12.46,-20.85 11.52,-21.26 10.58,-21.62 9.65,-21.97 8.7,-22.3 7.76,-22.59 6.81,-22.859 5.87,-23.109 4.92,-23.329 3.97,-23.523 3.01,-23.691 2.06,-23.844 1.11,-23.957 0.16,-24.051 -0.82,-24.117 -1.77,-24.164 -2.74,-24.176 -3.69,-24.168 -4.67,-24.137 -5.63,-24.078 -6.61,-23.992 -7.57,-23.883 -8.55,-23.742 -9.53,-23.586 -10.5,-23.398 -11.48,-23.184 -12.47,-22.945 32.31,25.961 13.26,24.41 12.22,24.664 11.17,24.891 10.13,25.093 9.1,25.258 8.05,25.406 7.03,25.524 5.99,25.613 4.97,25.676 3.93,25.711 2.92,25.722 1.87,25.704 0.87,25.656 -0.16,25.586 -1.18,25.488 -2.2,25.363 -3.2,25.203 -4.22,25.028 -5.23,24.816 -6.25,24.59 -7.25,24.31 -8.25,24.04 -9.25,23.72 -10.27,23.38 -11.25,23 -12.26,22.6 -13.25,22.18 -14.25,21.74 -15.23,21.25 -16.23,20.75 -17.21,20.22 -18.21,19.66 -19.31,19.15 -20.1,18.3 -20.83,17.4 -21.54,16.5 -22.18,15.59 -22.8,14.65 -23.36,13.7 -23.9,12.75 -24.36,11.75 -24.81,10.77 -25.2,9.75 -25.55,8.73 -25.85,7.68 -26.12,6.62 -26.34,5.54 -26.519,4.47 -26.645,3.34 -26.738,2.23 -26.785,1.08 -26.793,-0.06 -26.75,-1.25 -26.672,-2.42 -26.539,-3.63 -26.375,-4.84 -26.152,-6.08 -25.903,-7.32 -25.601,-8.6 -25.262,-9.86 -24.871,-11.18 -24.445,-12.48 -23.969,-13.81 -23.457,-15.16 z"
         style="fill:none;stroke:#231f20;stroke-width:20.00130081;stroke-linecap:butt;stroke-linejoin:bevel;stroke-miterlimit:2.61310005;stroke-opacity:1;stroke-dasharray:none"
         id="path72"
         inkscape:connector-curvature="0" /><path
         d="m 350.453,1243.92 31.481,-68.44 837.856,-837.863 22,14.965 -891.337,891.338"
         style="fill:#656263;fill-opacity:1;fill-rule:evenodd;stroke:none"
         id="path74"
         inkscape:connector-curvature="0" /><path
         d="m 350.453,1243.92 31.481,-68.44 837.856,-837.863 22,14.965 -891.337,891.338 z"
         style="fill:none;stroke:#231f20;stroke-width:20.00130081;stroke-linecap:butt;stroke-linejoin:bevel;stroke-miterlimit:2.61310005;stroke-opacity:1;stroke-dasharray:none"
         id="path76"
         inkscape:connector-curvature="0" /><path
         d="m 1241.79,352.582 -22,-14.965 -23.79,-17.39 20.48,13.851 25.31,18.504"
         style="fill:#656263;fill-opacity:1;fill-rule:evenodd;stroke:none"
         id="path78"
         inkscape:connector-curvature="0" /><path
         d="m 1241.79,352.582 -22,-14.965 -23.79,-17.39 20.48,13.851 25.31,18.504 z"
         style="fill:none;stroke:#231f20;stroke-width:20.00130081;stroke-linecap:butt;stroke-linejoin:bevel;stroke-miterlimit:2.61310005;stroke-opacity:1;stroke-dasharray:none"
         id="path80"
         inkscape:connector-curvature="0" /><path
         d="m 499.914,343.262 22.512,-14.407 -19.817,13.911 -18.742,14.601 -17.629,15.274 -16.433,15.902 -15.18,16.508 -17.625,21.125 -16.695,21.539 -15.746,21.933 -14.789,22.309 -13.821,22.648 -12.851,22.977 -11.871,23.281 -10.875,23.563 -9.868,23.816 -8.859,24.051 -7.84,24.27 -6.805,24.457 -5.765,24.625 -4.719,24.769 -3.66,24.895 -2.59,24.992 -1.504,25.066 -0.422,25.129 0.684,25.152 1.777,25.172 2.903,25.157 4.019,25.125 5.156,25.066 6.305,24.988 7.457,24.884 8.625,24.75 9.797,24.62 10.973,24.44 12.172,24.25 13.367,24.03 14.578,23.8 15.801,23.55 -31.481,68.44 -16.808,-25.04 -15.508,-25.32 -14.223,-25.58 -12.949,-25.79 -11.672,-26 -10.422,-26.19 -9.172,-26.34 -7.937,-26.46 -6.703,-26.59 -5.489,-26.665 -4.277,-26.726 -3.086,-26.758 -1.894,-26.781 -0.723,-26.762 0.449,-26.73 1.602,-26.665 2.754,-26.593 3.89,-26.481 5.02,-26.351 6.133,-26.196 7.242,-26.019 8.336,-25.813 9.429,-25.59 10.496,-25.335 11.571,-25.067 12.625,-24.765 13.672,-24.446 14.703,-24.094 15.734,-23.734 16.75,-23.332 17.762,-22.914 18.75,-22.473 16.148,-17.562 17.485,-16.918 18.75,-16.246 19.945,-15.535 21.078,-14.797"
         style="fill:#656263;fill-opacity:1;fill-rule:evenodd;stroke:none"
         id="path82"
         inkscape:connector-curvature="0" /><path
         d="m 499.914,343.262 22.512,-14.407 -19.817,13.911 -18.742,14.601 -17.629,15.274 -16.433,15.902 -15.18,16.508 -17.625,21.125 -16.695,21.539 -15.746,21.933 -14.789,22.309 -13.821,22.648 -12.851,22.977 -11.871,23.281 -10.875,23.563 -9.868,23.816 -8.859,24.051 -7.84,24.27 -6.805,24.457 -5.765,24.625 -4.719,24.769 -3.66,24.895 -2.59,24.992 -1.504,25.066 -0.422,25.129 0.684,25.152 1.777,25.172 2.903,25.157 4.019,25.125 5.156,25.066 6.305,24.988 7.457,24.884 8.625,24.75 9.797,24.62 10.973,24.44 12.172,24.25 13.367,24.03 14.578,23.8 15.801,23.55 -31.481,68.44 -16.808,-25.04 -15.508,-25.32 -14.223,-25.58 -12.949,-25.79 -11.672,-26 -10.422,-26.19 -9.172,-26.34 -7.937,-26.46 -6.703,-26.59 -5.489,-26.665 -4.277,-26.726 -3.086,-26.758 -1.894,-26.781 -0.723,-26.762 0.449,-26.73 1.602,-26.665 2.754,-26.593 3.89,-26.481 5.02,-26.351 6.133,-26.196 7.242,-26.019 8.336,-25.813 9.429,-25.59 10.496,-25.335 11.571,-25.067 12.625,-24.765 13.672,-24.446 14.703,-24.094 15.734,-23.734 16.75,-23.332 17.762,-22.914 18.75,-22.473 16.148,-17.562 17.485,-16.918 18.75,-16.246 19.945,-15.535 21.078,-14.797 z"
         style="fill:none;stroke:#231f20;stroke-width:20.00130081;stroke-linecap:butt;stroke-linejoin:bevel;stroke-miterlimit:2.61310005;stroke-opacity:1;stroke-dasharray:none"
         id="path84"
         inkscape:connector-curvature="0" /><path
         d="m 538.004,1411.41 20.23,-78.49 22.047,14.24 22.532,12.98 22.976,11.74 23.379,10.5 23.746,9.28 24.066,8.08 24.348,6.89 24.586,5.71 24.789,4.55 24.949,3.41 25.071,2.28 25.144,1.17 25.184,0.06 25.179,-1.02 25.133,-2.09 25.047,-3.15 24.926,-4.19 24.762,-5.22 24.552,-6.22 24.3,-7.22 24.02,-8.2 23.69,-9.17 23.31,-10.12 22.91,-11.05 22.46,-11.98 21.96,-12.88 21.43,-13.77 20.85,-14.65 20.25,-15.52 19.58,-16.36 18.89,-17.19 18.15,-18.01 17.12,-18.48 16.18,-19 15.25,-19.51 14.32,-19.97 13.39,-20.43 12.46,-20.85 11.52,-21.26 10.58,-21.62 9.65,-21.97 8.7,-22.3 7.76,-22.59 6.81,-22.859 5.87,-23.109 4.92,-23.329 3.97,-23.523 3.01,-23.691 2.06,-23.844 1.11,-23.957 0.16,-24.051 -0.82,-24.117 -1.77,-24.164 -2.74,-24.176 -3.69,-24.168 -4.67,-24.137 -5.63,-24.078 -6.61,-23.992 -7.57,-23.883 -8.55,-23.742 -9.53,-23.586 -10.5,-23.398 -11.48,-23.184 -12.47,-22.945 32.31,25.961 13.26,24.41 12.22,24.664 11.17,24.891 10.13,25.093 9.1,25.258 8.05,25.406 7.03,25.524 5.99,25.613 4.97,25.676 3.93,25.711 2.92,25.722 1.87,25.704 0.87,25.656 -0.16,25.586 -1.18,25.488 -2.2,25.363 -3.2,25.203 -4.22,25.028 -5.23,24.816 -6.25,24.59 -7.25,24.31 -8.25,24.04 -9.25,23.72 -10.27,23.38 -11.25,23 -12.26,22.6 -13.25,22.18 -14.25,21.74 -15.23,21.25 -16.23,20.75 -17.21,20.22 -18.21,19.66 -19.31,19.15 -20.1,18.3 -20.83,17.4 -21.54,16.5 -22.18,15.59 -22.8,14.65 -23.36,13.7 -23.9,12.75 -24.36,11.75 -24.81,10.77 -25.2,9.75 -25.55,8.73 -25.85,7.68 -26.12,6.62 -26.34,5.54 -26.519,4.47 -26.645,3.34 -26.738,2.23 -26.785,1.08 -26.793,-0.06 -26.75,-1.25 -26.672,-2.42 -26.539,-3.63 -26.375,-4.84 -26.152,-6.08 -25.903,-7.32 -25.601,-8.6 -25.262,-9.86 -24.871,-11.18 -24.445,-12.48 -23.969,-13.81 -23.457,-15.16"
         style="fill:#656263;fill-opacity:1;fill-rule:evenodd;stroke:none"
         id="path86"
         inkscape:connector-curvature="0" /><path
         d="m 538.004,1411.41 20.23,-78.49 22.047,14.24 22.532,12.98 22.976,11.74 23.379,10.5 23.746,9.28 24.066,8.08 24.348,6.89 24.586,5.71 24.789,4.55 24.949,3.41 25.071,2.28 25.144,1.17 25.184,0.06 25.179,-1.02 25.133,-2.09 25.047,-3.15 24.926,-4.19 24.762,-5.22 24.552,-6.22 24.3,-7.22 24.02,-8.2 23.69,-9.17 23.31,-10.12 22.91,-11.05 22.46,-11.98 21.96,-12.88 21.43,-13.77 20.85,-14.65 20.25,-15.52 19.58,-16.36 18.89,-17.19 18.15,-18.01 17.12,-18.48 16.18,-19 15.25,-19.51 14.32,-19.97 13.39,-20.43 12.46,-20.85 11.52,-21.26 10.58,-21.62 9.65,-21.97 8.7,-22.3 7.76,-22.59 6.81,-22.859 5.87,-23.109 4.92,-23.329 3.97,-23.523 3.01,-23.691 2.06,-23.844 1.11,-23.957 0.16,-24.051 -0.82,-24.117 -1.77,-24.164 -2.74,-24.176 -3.69,-24.168 -4.67,-24.137 -5.63,-24.078 -6.61,-23.992 -7.57,-23.883 -8.55,-23.742 -9.53,-23.586 -10.5,-23.398 -11.48,-23.184 -12.47,-22.945 32.31,25.961 13.26,24.41 12.22,24.664 11.17,24.891 10.13,25.093 9.1,25.258 8.05,25.406 7.03,25.524 5.99,25.613 4.97,25.676 3.93,25.711 2.92,25.722 1.87,25.704 0.87,25.656 -0.16,25.586 -1.18,25.488 -2.2,25.363 -3.2,25.203 -4.22,25.028 -5.23,24.816 -6.25,24.59 -7.25,24.31 -8.25,24.04 -9.25,23.72 -10.27,23.38 -11.25,23 -12.26,22.6 -13.25,22.18 -14.25,21.74 -15.23,21.25 -16.23,20.75 -17.21,20.22 -18.21,19.66 -19.31,19.15 -20.1,18.3 -20.83,17.4 -21.54,16.5 -22.18,15.59 -22.8,14.65 -23.36,13.7 -23.9,12.75 -24.36,11.75 -24.81,10.77 -25.2,9.75 -25.55,8.73 -25.85,7.68 -26.12,6.62 -26.34,5.54 -26.519,4.47 -26.645,3.34 -26.738,2.23 -26.785,1.08 -26.793,-0.06 -26.75,-1.25 -26.672,-2.42 -26.539,-3.63 -26.375,-4.84 -26.152,-6.08 -25.903,-7.32 -25.601,-8.6 -25.262,-9.86 -24.871,-11.18 -24.445,-12.48 -23.969,-13.81 -23.457,-15.16 z"
         style="fill:none;stroke:#231f20;stroke-width:20.00130081;stroke-linecap:butt;stroke-linejoin:bevel;stroke-miterlimit:2.61310005;stroke-opacity:1;stroke-dasharray:none"
         id="path88"
         inkscape:connector-curvature="0" /><path
         d="M 350.453,1243.92 1241.79,352.582 C 976.027,146.121 571.367,233.781 406.508,424.32 201.188,661.617 164.191,978.363 350.453,1243.92 z m 187.551,167.49 c 247.262,168.9 590.046,105.64 791.726,-103.31 199.39,-206.58 230.83,-513.287 83.84,-772.252 L 538.004,1411.41 z m 327.98,305.2 c 468.376,0 850.396,-382.01 850.396,-850.387 0,-468.383 -382.02,-850.3949 -850.396,-850.3949 -468.379,0 -850.3942,382.0119 -850.3942,850.3949 0,468.377 382.0152,850.387 850.3942,850.387"
         style="fill:#bdbcbc;fill-opacity:1;fill-rule:evenodd;stroke:none"
         id="path90"
         inkscape:connector-curvature="0" /><path
         d="M 350.453,1243.92 1241.79,352.582 C 976.027,146.121 571.367,233.781 406.508,424.32 201.188,661.617 164.191,978.363 350.453,1243.92 z m 187.551,167.49 c 247.262,168.9 590.046,105.64 791.726,-103.31 199.39,-206.58 230.83,-513.287 83.84,-772.252 L 538.004,1411.41 z m 327.98,305.2 c 468.376,0 850.396,-382.01 850.396,-850.387 0,-468.383 -382.02,-850.3949 -850.396,-850.3949 -468.379,0 -850.3942,382.0119 -850.3942,850.3949 0,468.377 382.0152,850.387 850.3942,850.387 z"
         style="fill:none;stroke:#231f20;stroke-width:20.00130081;stroke-linecap:butt;stroke-linejoin:miter;stroke-miterlimit:2.61310005;stroke-opacity:1;stroke-dasharray:none"
         id="path92"
         inkscape:connector-curvature="0" /><path
         d="m 565.91,438.246 c 17.906,-5.98 33.985,-8.871 48.223,-25.894 -2.61,-94.086 24.207,-148.465 53.531,-162.414 32.879,-15.645 19.649,7.601 8.211,20.5 -60.172,67.816 -52.523,139.675 -43.555,203.628 l -16.14,-45.539 c -15.621,11.047 -34.66,19.715 -50.27,9.719"
         style="fill:#231f20;fill-opacity:1;fill-rule:evenodd;stroke:none"
         id="path94"
         inkscape:connector-curvature="0" /><path
         d="m 565.91,438.246 c 17.906,-5.98 33.985,-8.871 48.223,-25.894 -2.61,-94.086 24.207,-148.465 53.531,-162.414 32.879,-15.645 19.649,7.601 8.211,20.5 -60.172,67.816 -52.523,139.675 -43.555,203.628 l -16.14,-45.539 c -15.621,11.047 -34.66,19.715 -50.27,9.719 z"
         style="fill:none;stroke:#231f20;stroke-width:2.16000009;stroke-linecap:butt;stroke-linejoin:miter;stroke-miterlimit:2.61310005;stroke-opacity:1;stroke-dasharray:none"
         id="path96"
         inkscape:connector-curvature="0" /><path
         d="m 1100,415.215 c -15.42,-2.231 -25.61,-14.328 -39.84,-31.356 2.61,-94.082 -42.14,-152.265 -71.465,-166.214 -32.879,-15.641 -8.207,31.234 5.512,41.671 39.623,30.153 58.803,105.286 49.833,169.243 l 14.1,-27.411 c 13.13,18.54 28.74,20.313 41.86,14.067"
         style="fill:#231f20;fill-opacity:1;fill-rule:evenodd;stroke:none"
         id="path98"
         inkscape:connector-curvature="0" /><path
         d="m 1100,415.215 c -15.42,-2.231 -25.61,-14.328 -39.84,-31.356 2.61,-94.082 -42.14,-152.265 -71.465,-166.214 -32.879,-15.641 -8.207,31.234 5.512,41.671 39.623,30.153 58.803,105.286 49.833,169.243 l 14.1,-27.411 c 13.13,18.54 28.74,20.313 41.86,14.067 z"
         style="fill:none;stroke:#231f20;stroke-width:2.16000009;stroke-linecap:butt;stroke-linejoin:miter;stroke-miterlimit:2.61310005;stroke-opacity:1;stroke-dasharray:none"
         id="path100"
         inkscape:connector-curvature="0" /><path
         d="m 1389.29,680.723 c 9.76,-2.762 16.23,-13.543 18.71,-28.547 5.52,4.183 11.24,5.929 16.46,4.512 14.48,-3.907 19.9,-30.735 12.09,-59.7 -7.84,-28.961 -26.03,-49.41 -40.53,-45.488 -4.9,1.324 -8.75,5.289 -11.42,11.066 -10.7,-13.91 -23.19,-21.269 -33.96,-18.211 -5.07,1.434 -9.25,5.04 -12.44,10.266 -4.76,-4.062 -9.99,-6.324 -15.47,-6.328 -21.83,-0.047 -39.71,35.551 -39.8,79.246 -0.02,13.176 1.59,25.625 4.44,36.582 -14.03,-13.312 -29.05,-19.07 -38.9,-13.254 -14.61,8.621 -12.47,39.504 4.77,68.746 17.26,29.235 43.25,46.059 57.86,37.43 11.78,-6.945 12.67,-28.352 3.56,-51.699 2.52,1.019 5.13,1.562 7.8,1.566 15.06,0.031 28.25,-16.894 35,-41.746 10.21,12.184 21.77,18.422 31.83,15.559"
         style="fill:#ffffff;fill-opacity:1;fill-rule:evenodd;stroke:none"
         id="path102"
         inkscape:connector-curvature="0" /><path
         d="m 1389.29,680.723 c 9.76,-2.762 16.23,-13.543 18.71,-28.547 5.52,4.183 11.24,5.929 16.46,4.512 14.48,-3.907 19.9,-30.735 12.09,-59.7 -7.84,-28.961 -26.03,-49.41 -40.53,-45.488 -4.9,1.324 -8.75,5.289 -11.42,11.066 -10.7,-13.91 -23.19,-21.269 -33.96,-18.211 -5.07,1.434 -9.25,5.04 -12.44,10.266 -4.76,-4.062 -9.99,-6.324 -15.47,-6.328 -21.83,-0.047 -39.71,35.551 -39.8,79.246 -0.02,13.176 1.59,25.625 4.44,36.582 -14.03,-13.312 -29.05,-19.07 -38.9,-13.254 -14.61,8.621 -12.47,39.504 4.77,68.746 17.26,29.235 43.25,46.059 57.86,37.43 11.78,-6.945 12.67,-28.352 3.56,-51.699 2.52,1.019 5.13,1.562 7.8,1.566 15.06,0.031 28.25,-16.894 35,-41.746 10.21,12.184 21.77,18.422 31.83,15.559 z"
         style="fill:none;stroke:#231f20;stroke-width:14.17319965;stroke-linecap:butt;stroke-linejoin:miter;stroke-miterlimit:2.61310005;stroke-opacity:1;stroke-dasharray:none"
         id="path104"
         inkscape:connector-curvature="0" /><path
         d="m 1239.09,774.152 c 14.36,0 26.08,-12.691 26.08,-28.25 0,-15.558 -11.72,-28.25 -26.08,-28.25 -14.36,0 -26.08,12.692 -26.08,28.25 0,15.559 11.72,28.25 26.08,28.25"
         style="fill:#ffffff;fill-opacity:1;fill-rule:evenodd;stroke:none"
         id="path106"
         inkscape:connector-curvature="0" /><path
         d="m 1239.09,774.152 c 14.36,0 26.08,-12.691 26.08,-28.25 0,-15.558 -11.72,-28.25 -26.08,-28.25 -14.36,0 -26.08,12.692 -26.08,28.25 0,15.559 11.72,28.25 26.08,28.25 z"
         style="fill:none;stroke:#231f20;stroke-width:14.17319965;stroke-linecap:butt;stroke-linejoin:miter;stroke-miterlimit:2.61310005;stroke-opacity:1;stroke-dasharray:none"
         id="path108"
         inkscape:connector-curvature="0" /><path
         d="m 987.133,310.418 c 17.527,16.035 37.137,20.195 44.577,78.453 11.95,-49.93 -4.83,-64.191 -28.53,-112.332 l -16.047,33.879"
         style="fill:#e9e9e9;fill-opacity:1;fill-rule:evenodd;stroke:none"
         id="path110"
         inkscape:connector-curvature="0" /><path
         d="m 840.93,374.605 c 81.508,0 147.988,-48.457 147.988,-107.871 0,-59.414 -66.48,-107.871 -147.988,-107.871 -81.512,0 -147.989,48.457 -147.989,107.871 0,59.414 66.477,107.871 147.989,107.871"
         style="fill:#ffffff;fill-opacity:1;fill-rule:evenodd;stroke:none"
         id="path112"
         inkscape:connector-curvature="0" /><path
         d="m 797.668,380.938 c -194.5,-49.954 -84.875,-228.297 50.305,-217.625 108.906,8.597 196.257,95.113 81.492,199.019 146.785,-80.625 76.655,-221.84 -111.977,-211.894 -198.148,10.441 -172.945,240.968 -19.82,230.5"
         style="fill:#231f20;fill-opacity:1;fill-rule:evenodd;stroke:none"
         id="path114"
         inkscape:connector-curvature="0" /><path
         d="m 797.668,380.938 c -194.5,-49.954 -84.875,-228.297 50.305,-217.625 108.906,8.597 196.257,95.113 81.492,199.019 146.785,-80.625 76.655,-221.84 -111.977,-211.894 -198.148,10.441 -172.945,240.968 -19.82,230.5 z"
         style="fill:none;stroke:#231f20;stroke-width:2.16000009;stroke-linecap:butt;stroke-linejoin:miter;stroke-miterlimit:2.61310005;stroke-opacity:1;stroke-dasharray:none"
         id="path116"
         inkscape:connector-curvature="0" /><path
         d="m 583.344,361.648 c 15.406,-10.878 20.871,-29.808 12.168,-42.132 -8.703,-12.325 -28.371,-13.5 -43.774,-2.621 -15.402,10.878 -20.871,29.808 -12.168,42.132 8.703,12.325 28.371,13.5 43.774,2.621"
         style="fill:#ffffff;fill-opacity:1;fill-rule:evenodd;stroke:none"
         id="path118"
         inkscape:connector-curvature="0" /><path
         d="m 583.344,361.648 c 15.406,-10.878 20.871,-29.808 12.168,-42.132 -8.703,-12.325 -28.371,-13.5 -43.774,-2.621 -15.402,10.878 -20.871,29.808 -12.168,42.132 8.703,12.325 28.371,13.5 43.774,2.621 z"
         style="fill:none;stroke:#231f20;stroke-width:14.17319965;stroke-linecap:butt;stroke-linejoin:miter;stroke-miterlimit:2.61310005;stroke-opacity:1;stroke-dasharray:none"
         id="path120"
         inkscape:connector-curvature="0" /><path
         d="m 413.965,497.242 c 8.937,-4.367 13.09,-16.879 12.234,-32.652 10.571,8.988 21.321,12.543 29.653,8.476 8.527,-4.164 12.878,-15.511 12.972,-30.308 12.672,13.836 26.481,20.254 36.668,15.281 10.946,-5.344 15.028,-22.531 12.039,-43.625 8.246,5.57 16.442,7.356 23.074,4.113 15.157,-7.394 16.563,-38.23 3.133,-68.64 -13.425,-30.407 -36.746,-49.176 -51.902,-41.778 -8.938,4.364 -13.09,16.875 -12.238,32.649 -10.567,-8.988 -21.317,-12.543 -29.649,-8.477 -8.531,4.16 -12.894,15.524 -12.988,30.313 -12.668,-13.828 -26.469,-20.254 -36.656,-15.285 -10.942,5.343 -15.024,22.531 -12.035,43.629 -8.25,-5.571 -16.442,-7.36 -23.079,-4.118 -15.156,7.395 -16.562,38.231 -3.128,68.641 13.425,30.406 36.742,49.176 51.902,41.781"
         style="fill:#ffffff;fill-opacity:1;fill-rule:evenodd;stroke:none"
         id="path122"
         inkscape:connector-curvature="0" /><path
         d="m 413.965,497.242 c 8.937,-4.367 13.09,-16.879 12.234,-32.652 10.571,8.988 21.321,12.543 29.653,8.476 8.527,-4.164 12.878,-15.511 12.972,-30.308 12.672,13.836 26.481,20.254 36.668,15.281 10.946,-5.344 15.028,-22.531 12.039,-43.625 8.246,5.57 16.442,7.356 23.074,4.113 15.157,-7.394 16.563,-38.23 3.133,-68.64 -13.425,-30.407 -36.746,-49.176 -51.902,-41.778 -8.938,4.364 -13.09,16.875 -12.238,32.649 -10.567,-8.988 -21.317,-12.543 -29.649,-8.477 -8.531,4.16 -12.894,15.524 -12.988,30.313 -12.668,-13.828 -26.469,-20.254 -36.656,-15.285 -10.942,5.343 -15.024,22.531 -12.035,43.629 -8.25,-5.571 -16.442,-7.36 -23.079,-4.118 -15.156,7.395 -16.562,38.231 -3.128,68.641 13.425,30.406 36.742,49.176 51.902,41.781 z"
         style="fill:none;stroke:#231f20;stroke-width:14.17319965;stroke-linecap:butt;stroke-linejoin:miter;stroke-miterlimit:2.61310005;stroke-opacity:1;stroke-dasharray:none"
         id="path124"
         inkscape:connector-curvature="0" /><path
         d="m 856.977,205.223 c 98.632,9.531 103.125,61.5 92.714,128.375 57.649,-86.856 2.207,-149.828 -106.98,-158.688 -16.848,-1.367 -7.441,28.215 14.266,30.313"
         style="fill:#e9e9e9;fill-opacity:1;fill-rule:evenodd;stroke:none"
         id="path126"
         inkscape:connector-curvature="0" /><path
         d="m 408.695,375.313 c 12.118,-4.278 27.141,4.457 33.758,21.257 -4.406,-17.504 -17.437,-38.41 -32.816,-37.656 -15.207,0.742 -13.508,20.84 -0.942,16.399"
         style="fill:#e9e9e9;fill-opacity:1;fill-rule:evenodd;stroke:none"
         id="path128"
         inkscape:connector-curvature="0" /><path
         d="m 457.137,363.617 c 12.117,-4.277 27.144,4.457 33.758,21.258 -4.403,-17.504 -17.434,-38.41 -32.813,-37.656 -15.207,0.742 -13.508,20.84 -0.945,16.398"
         style="fill:#e9e9e9;fill-opacity:1;fill-rule:evenodd;stroke:none"
         id="path130"
         inkscape:connector-curvature="0" /><path
         d="m 499.945,338.766 c 12.118,-4.278 27.141,4.457 33.758,21.257 -4.406,-17.503 -17.437,-38.41 -32.816,-37.656 -15.207,0.742 -13.508,20.84 -0.942,16.399"
         style="fill:#e9e9e9;fill-opacity:1;fill-rule:evenodd;stroke:none"
         id="path132"
         inkscape:connector-curvature="0" /><path
         d="m 373.605,417.281 c 12.118,-4.281 27.145,4.457 33.758,21.258 -4.402,-17.504 -17.433,-38.41 -32.812,-37.66 -15.207,0.742 -13.508,20.84 -0.946,16.402"
         style="fill:#e9e9e9;fill-opacity:1;fill-rule:evenodd;stroke:none"
         id="path134"
         inkscape:connector-curvature="0" /><path
         d="m 1260.86,676.977 c 12.11,-4.282 26.53,9.332 33.15,26.132 -4.41,-17.504 -18.66,-43.281 -34.03,-42.535 -15.21,0.742 -11.68,20.84 0.88,16.403"
         style="fill:#e9e9e9;fill-opacity:1;fill-rule:evenodd;stroke:none"
         id="path136"
         inkscape:connector-curvature="0" /><path
         d="m 1320.33,579.969 c 11.97,4.679 17.63,22.937 22.63,42.418 0.79,-19.785 0.93,-44.735 -11.2,-54.219 -11.99,-9.375 -23.83,6.953 -11.43,11.801"
         style="fill:#e9e9e9;fill-opacity:1;fill-rule:evenodd;stroke:none"
         id="path138"
         inkscape:connector-curvature="0" /><path
         d="m 1362.18,577.23 c 12.85,0.309 23.78,13.817 23.99,31.872 2.11,-17.926 -2.63,-42.098 -17.28,-46.868 -14.47,-4.714 -20.03,14.676 -6.71,14.996"
         style="fill:#e9e9e9;fill-opacity:1;fill-rule:evenodd;stroke:none"
         id="path140"
         inkscape:connector-curvature="0" /><path
         d="m 1398.64,578.594 c 12.75,1.609 22.87,16.769 28.56,32.312 0.26,-18.23 -5.06,-36.66 -20.36,-46.543 -12.79,-8.265 -21.42,12.563 -8.2,14.231"
         style="fill:#e9e9e9;fill-opacity:1;fill-rule:evenodd;stroke:none"
         id="path142"
         inkscape:connector-curvature="0" /><path
         d="m 554.77,327.723 c 10.765,-13.614 35.343,-9.953 29.863,5.484 -6.301,-8.535 -19.914,-8.531 -29.863,-5.484"
         style="fill:#e9e9e9;fill-opacity:1;fill-rule:evenodd;stroke:none"
         id="path144"
         inkscape:connector-curvature="0" /><path
         d="m 1223.55,736.875 c 10.76,-13.609 35.34,-9.953 29.86,5.484 -6.3,-8.535 -19.91,-8.531 -29.86,-5.484"
         style="fill:#e9e9e9;fill-opacity:1;fill-rule:evenodd;stroke:none"
         id="path146"
         inkscape:connector-curvature="0" /><path
         d="m 742.945,394.543 c -5.918,24.582 7.696,77.652 -2.507,87.547 -6.754,6.551 -21.961,-9.762 -20.918,-27.195 l -2.094,-46.024 c 3.972,-14.305 10.668,-18.172 25.519,-14.328"
         style="fill:#231f20;fill-opacity:1;fill-rule:evenodd;stroke:none"
         id="path148"
         inkscape:connector-curvature="0" /><path
         d="m 742.945,394.543 c -5.918,24.582 7.696,77.652 -2.507,87.547 -6.754,6.551 -21.961,-9.762 -20.918,-27.195 l -2.094,-46.024 c 3.972,-14.305 10.668,-18.172 25.519,-14.328 z"
         style="fill:none;stroke:#231f20;stroke-width:2.16000009;stroke-linecap:butt;stroke-linejoin:miter;stroke-miterlimit:2.61310005;stroke-opacity:1;stroke-dasharray:none"
         id="path150"
         inkscape:connector-curvature="0" /><path
         d="m 911.996,388.484 c 5.918,24.586 -7.691,77.653 2.508,87.547 6.758,6.551 21.965,-9.761 20.922,-27.195 l 2.09,-46.023 c -3.973,-14.305 -10.664,-18.168 -25.52,-14.329"
         style="fill:#231f20;fill-opacity:1;fill-rule:evenodd;stroke:none"
         id="path152"
         inkscape:connector-curvature="0" /><path
         d="m 911.996,388.484 c 5.918,24.586 -7.691,77.653 2.508,87.547 6.758,6.551 21.965,-9.761 20.922,-27.195 l 2.09,-46.023 c -3.973,-14.305 -10.664,-18.168 -25.52,-14.329 z"
         style="fill:none;stroke:#231f20;stroke-width:2.16000009;stroke-linecap:butt;stroke-linejoin:miter;stroke-miterlimit:2.61310005;stroke-opacity:1;stroke-dasharray:none"
         id="path154"
         inkscape:connector-curvature="0" /></g></g></svg>